<svg xmlns="http://www.w3.org/2000/svg" width="427.4" height="226.16" viewBox="0 0 427.4 226.16">
  <g style="isolation: isolate">
    <g id="Calque_1" data-name="Calque 1">
      <rect width="427.4" height="226.16" style="fill: #fff;opacity: 0"/>
      <g>
        <g>
          <path d="M57.93,104.56a124.23,124.23,0,0,0,53.21,7.8c29.41-2.37,77.26-9.51,77.71-30.79s-41.41-26.8-72.62-25.77C73.83,57.2,28.32,83.45,57.93,104.56Z" style="fill: #fcca92"/>
          <path d="M110.37,108.26A116.91,116.91,0,0,1,58.28,95.91c-4.71-4.14-7.33-8.27-8.23-12.27-8.92,8.63-10.18,18.75,2.51,27.92a121.17,121.17,0,0,0,52.52,7.87c26.07-2.09,66.78-8,75.14-24.6C165,105.72,132.41,108,110.37,108.26Z" style="mix-blend-mode: multiply;opacity: 0.1"/>
          <path d="M78.7,63.2s16-.15,18.49,16.63A62.87,62.87,0,0,0,78.7,63.2Z" style="fill: #e2af7d"/>
          <path d="M138.7,57.21s16-.15,18.48,16.63A62.9,62.9,0,0,0,138.7,57.21Z" style="fill: #e2af7d"/>
          <path d="M95.92,58.71s19.08,0,22.26,22.06A79.63,79.63,0,0,0,95.92,58.71Z" style="fill: #e2af7d"/>
          <path d="M114.17,56S133.24,56,136.42,78A79.85,79.85,0,0,0,114.17,56Z" style="fill: #e2af7d"/>
        </g>
        <ellipse cx="251.61" cy="127.78" rx="110.86" ry="32.76" style="stroke: #fff;stroke-miterlimit: 10;stroke-width: 1.1105067821955192px;mix-blend-mode: multiply;opacity: 0.18"/>
        <path d="M327.81,86.49c-4.27,15-32.81,26.59-67.39,26.59-35.6,0-64.79-12.28-67.71-27.92-28.78,7.22-47.57,19.09-47.57,32.52,0,22,50.43,39.83,112.63,39.83S370.4,139.68,370.4,117.68C370.4,105.05,353.76,93.79,327.81,86.49Z" style="fill: #f7f6f5"/>
        <g>
          <path d="M113.92,132.61a6.94,6.94,0,0,0,6.43,1.94,1.51,1.51,0,0,0,1.05-1.85,1.54,1.54,0,0,0-1.85-1l-.37.07.4-.05a5.27,5.27,0,0,1-1.43,0l.4.06a5.88,5.88,0,0,1-1.38-.38l.35.15a5.46,5.46,0,0,1-.92-.5l-.19-.13c.2.16.24.19.13.09l-.12-.09c-.13-.12-.26-.24-.38-.37a1.51,1.51,0,0,0-2.12,0,1.53,1.53,0,0,0,0,2.12Z" style="fill: #fcca92"/>
          <path d="M83.62,129.73H77a1.5,1.5,0,1,0,0,3h6.63a1.5,1.5,0,0,0,0-3Z" style="fill: #fcca92"/>
          <path d="M129.16,115.4l1.53.5a1.22,1.22,0,0,0,.6,0,1.16,1.16,0,0,0,.56-.18,1.12,1.12,0,0,0,.42-.39,1.14,1.14,0,0,0,.27-.51l.05-.4a1.5,1.5,0,0,0-.2-.75l-.24-.31a1.57,1.57,0,0,0-.66-.38l-1.54-.5a1.22,1.22,0,0,0-.6,0,1.09,1.09,0,0,0-.55.18,1.06,1.06,0,0,0-.42.39,1,1,0,0,0-.27.51l-.06.4a1.42,1.42,0,0,0,.21.75l.23.31a1.54,1.54,0,0,0,.67.38Z" style="fill: #fcca92"/>
          <path d="M109.16,130.69a1.5,1.5,0,0,0,0-3,1.5,1.5,0,0,0,0,3Z" style="fill: #fcca92"/>
          <path d="M140.31,145h1a1.11,1.11,0,0,0,.57-.13,1.21,1.21,0,0,0,.49-.31,1.24,1.24,0,0,0,.31-.48,1.29,1.29,0,0,0,.13-.58l-.06-.4a1.45,1.45,0,0,0-.38-.66l-.31-.24a1.5,1.5,0,0,0-.75-.2h-1a1.06,1.06,0,0,0-.58.13,1.34,1.34,0,0,0-.8.79,1.14,1.14,0,0,0-.12.58l.05.4a1.57,1.57,0,0,0,.38.66l.31.23a1.43,1.43,0,0,0,.76.21Z" style="fill: #fcca92"/>
          <path d="M109.67,135.29a1.5,1.5,0,0,0,0-3,1.5,1.5,0,0,0,0,3Z" style="fill: #fcca92"/>
          <path d="M73.92,116H70.86a1.5,1.5,0,0,0,0,3h3.06a1.54,1.54,0,0,0,1.06-.44A1.5,1.5,0,0,0,73.92,116Z" style="fill: #fcca92"/>
          <path d="M80.29,144.32l1,.51a1.12,1.12,0,0,0,.56.18,1,1,0,0,0,.6,0,1.13,1.13,0,0,0,.51-.26,1.18,1.18,0,0,0,.38-.42l.15-.36a1.55,1.55,0,0,0,0-.8l-.15-.36a1.55,1.55,0,0,0-.54-.54l-1-.51a1.09,1.09,0,0,0-.55-.18,1.22,1.22,0,0,0-.6,0,1.14,1.14,0,0,0-.51.27,1.06,1.06,0,0,0-.39.42l-.15.36a1.51,1.51,0,0,0,0,.79l.15.36a1.4,1.4,0,0,0,.54.54Z" style="fill: #fcca92"/>
          <path d="M101,135.29a1.5,1.5,0,0,0,0-3,1.5,1.5,0,0,0,0,3Z" style="fill: #fcca92"/>
          <path d="M170.43,153.67a1.5,1.5,0,0,0,0-3,1.5,1.5,0,0,0,0,3Z" style="fill: #fcca92"/>
          <path d="M116.82,150.6h.51a1.11,1.11,0,0,0,.57-.12,1.32,1.32,0,0,0,.49-.31,1.21,1.21,0,0,0,.31-.49,1.27,1.27,0,0,0,.13-.58l-.06-.39a1.54,1.54,0,0,0-.38-.67l-.31-.23a1.51,1.51,0,0,0-.75-.21h-.51a1.27,1.27,0,0,0-.58.13,1.34,1.34,0,0,0-.79.8,1,1,0,0,0-.13.57l.05.4a1.47,1.47,0,0,0,.39.67l.3.23a1.44,1.44,0,0,0,.76.2Z" style="fill: #fcca92"/>
          <path d="M110.69,121a1.5,1.5,0,0,0,0-3,1.5,1.5,0,0,0,0,3Z" style="fill: #fcca92"/>
          <path d="M98.43,116.39a1.5,1.5,0,0,0,0-3,1.5,1.5,0,0,0,0,3Z" style="fill: #fcca92"/>
        </g>
        <path d="M328.39,63.34l13.54,51.31s-12.48,20-84.16,19.92c-71.69.08-84.17-19.92-84.17-19.92l13.55-51.31c0,10.57,31.62,19.14,70.62,19.14S328.39,73.91,328.39,63.34Z" style="fill: #fec550"/>
        <path d="M337.45,101l3,11.31s-14,19.37-82.73,19.28C189,131.63,177,108.26,177,108.26L179,99c-5.43,3.89-8.47,8.25-8.47,12.85,0,16.48,39,29.84,87.19,29.84s88.18-11.36,88.18-27.84C345.91,109.2,342.87,104.84,337.45,101Z" style="fill: #f7a52d;opacity: 0.6"/>
        <ellipse cx="257.77" cy="65.7" rx="70.62" ry="21.55" style="fill: #cd5611;opacity: 0.81"/>
        <ellipse cx="257.77" cy="63.3" rx="22.22" ry="5.36" style="fill: #f7ab6c"/>
        <path d="M329,154.91c.79,1.74,7.15,14.18,25.2,7.8,12.71-4.5,16.82-18.15,14.92-22.37-1.23-4.46-13.1-12.36-25.75-7.72-18,6.6-14.94,20.24-14.44,22.08" style="fill: #fff"/>
        <path d="M353.81,176.44c1.55,1.12,13.26,8.77,25.76-5.74,8.8-10.2,5.59-24.1,1.85-26.82-3.28-3.26-17.51-4.23-26.19,6.08-12.33,14.65-2.92,25-1.58,26.34" style="fill: #fff"/>
        <path d="M354.93,174.66l-.17-.17a21,21,0,0,1-4.88-14.26c-14.72,3-20.16-8.93-20.9-10.75l-.07-.24,0-.13a20,20,0,0,0,0,8.73l.06.22c.67,1.64,5.54,12.32,18.76,9.65a18.87,18.87,0,0,0,4.39,12.81l.15.15c1.45,1.17,12.42,9.2,24.14-6a24.63,24.63,0,0,0,1.62-2.4C366.45,183.21,356.39,175.84,354.93,174.66Z" style="fill: #bfbebe;mix-blend-mode: multiply;opacity: 0.33"/>
      </g>
    </g>
  </g>
</svg>
