<?xml version="1.0" encoding="UTF-8"?><svg id="a" xmlns="http://www.w3.org/2000/svg" width="16" height="16" viewBox="0 0 16 16"><defs><style>.b{fill:#c62819;}.c{fill:#1d1d1b;}.c,.d{stroke:#000;stroke-miterlimit:10;stroke-width:.43px;}.e{opacity:.24;}.f{opacity:0;}.f,.g{fill:#fff;}.h{fill:#086e84;}.i{opacity:.16;}.j{fill:#ecdcc7;}.g{opacity:.15;}.d{fill:none;}</style></defs><rect class="f" width="16" height="16"/><g><path class="h" d="M12.83,5.29H3.17l.3-2.68c0-.74,1.12-1.86,1.86-1.86h5.33c.74,0,1.86,1.12,1.86,1.86l.3,2.68Z"/><rect class="h" x="0" y="5.29" width="16" height="1.64" rx=".82" ry=".82"/><path class="j" d="M14.62,6.93H1.38s-1.22,4.85,.16,8.27c3.61,.11,6.45,0,6.45,0,0,0,2.84,.11,6.45,0,1.39-3.42,.16-8.27,.16-8.27Z"/><circle class="b" cx="8" cy="13.2" r=".79"/><g><g><circle class="c" cx="5.18" cy="10.72" r=".85"/><circle class="c" cx="11.32" cy="10.72" r=".85"/></g><path class="d" d="M10.03,8.8s2.52-1.59,3.88,0"/><path class="d" d="M5.97,8.45s-2.52-1.59-3.88,0"/></g><path class="e" d="M8.34,6.06c-3.95,0-6.56-.1-8.3-.24C.02,5.9,0,5.98,0,6.06H0C0,6.52,.37,6.89,.82,6.89H15.18c.45,0,.82-.37,.82-.82h0c0-.09-.02-.18-.05-.26-2.03,.15-4.55,.26-7.61,.26Z"/><path class="e" d="M4.95,2.95c-.07-.76,.25-1.62,.53-2.2h-.15c-.74,0-1.86,1.12-1.86,1.86l-.3,2.68H7.39c-1.14-.71-2.38-1.64-2.44-2.34Z"/><path class="i" d="M6.65,7.94H14.83c-.11-.65-.21-1.05-.21-1.05H1.38s-1.22,4.85,.16,8.27c1.65,.05,2.09,.05,3.23,.04-.49-.68-.75-1.74-.75-3.58,0-3.43,2.63-3.69,2.63-3.69Z"/><path class="g" d="M10.91,1.32s1.07,.53,1.18,1.53c-1.04-.32-1.18-1.53-1.18-1.53Z"/><rect class="b" y="15" width="16" height="1"/></g></svg>