<svg xmlns="http://www.w3.org/2000/svg" width="47.8" height="37.99" viewBox="0 0 47.8 37.99">
  <path d="M47.8.75c-14.45-4-20.12,9-22.68,14.48l1.92.53c1.54-3,3.63-4.36,6.29-4,4,.59,7.82-2,9.58-4.61L41.73,5.82,43,5.12A20.55,20.55,0,0,0,47.8.75Z" style="fill: #90DAC4"/>
  <g>
    <path d="M7.29,7V6.79A1.83,1.83,0,0,1,9.12,5.18H28.17a29.18,29.18,0,0,1,3.64-3.65H9.12A5.46,5.46,0,0,0,3.65,7V25.23H7.29Z" style="fill: #90DAC4"/>
    <path d="M32.81,13.91V32.74A1.81,1.81,0,0,1,31,34.35h-.21a1.83,1.83,0,0,1-1.61-1.81V28.88H0v3.65A5.46,5.46,0,0,0,5.47,38H31a5.46,5.46,0,0,0,5.47-5.46V13.73A12.35,12.35,0,0,1,32.81,13.91Z" style="fill: #90DAC4"/>
  </g>
</svg>
