<?xml version="1.0" encoding="UTF-8"?><svg id="a" xmlns="http://www.w3.org/2000/svg" width="319.5" height="188.86" viewBox="0 0 319.5 188.86"><defs><style>.b{fill:#c62819;}.c{opacity:.31;}.d{opacity:.24;}.e{fill:#086e84;}.f{fill:#1d1d1b;stroke:#000;stroke-miterlimit:10;}.g{opacity:.16;}.h{fill:#ecdcc7;}.i{fill:#fff;opacity:.15;}</style></defs><g><g><path class="e" d="M50.71,12.89H23.31l.86-7.61C24.17,3.18,27.34,0,29.44,0h15.13C46.68,0,49.85,3.18,49.85,5.28l.86,7.61Z"/><rect class="e" x="14.31" y="12.89" width="45.39" height="4.66" rx="2.33" ry="2.33"/><path class="h" d="M55.78,17.55H18.24s-3.47,13.77,.47,23.48c10.23,.31,18.3,0,18.3,0,0,0,8.07,.31,18.3,0,3.94-9.7,.47-23.48,.47-23.48Z"/><path class="b" d="M59.7,60.71H13.67s-1.2-7.21-1.2-9.77c0-3.8,1.2-9.77,1.2-9.77H59.7s1.84,4.99,1.84,9.77-1.84,9.77-1.84,9.77Z"/><circle class="b" cx="37.01" cy="32.49" r="1.82"/><g><g><circle class="f" cx="30.48" cy="26.74" r="1.97"/><circle class="f" cx="44.7" cy="26.74" r="1.97"/></g><path class="f" d="M41.72,22.3s5.82-3.67,8.97,0"/><path class="f" d="M32.3,21.49s-5.82-3.67-8.97,0"/></g><path class="e" d="M56.04,60.71H17.98s-10.16,32.95-4.75,60.23H60.79c5.41-27.27-4.75-60.23-4.75-60.23Z"/><path class="b" d="M12.04,112.54c.26,2.83,.64,5.64,1.19,8.4H60.79c.55-2.75,.93-5.57,1.19-8.4H12.04Z"/><path d="M27.87,63.6c-.52,14.04-2.97,27.93-3.33,41.98h-.1c-.09-7.03,.38-14.05,.88-21.06,.53-6.94,.98-14.3,2.56-20.92h0Z"/><path d="M46.46,63.59c1.32,6.92,2.02,13.91,2.46,20.93,.5,7.01,.96,14.03,.88,21.06h-.1c-.26-13.99-3.02-28.18-3.24-41.99h0Z"/><path d="M37.06,63.59c.96,13.98,.11,27.99,0,41.98h-.1c-.14-7-.26-13.99-.35-20.99-.08-6.93-.37-14.26,.45-20.99h0Z"/><path d="M36.67,45.2c.5,1.75,.91,3.52,1.21,5.32,.38,1.8,.55,3.64,.07,5.46h-.1c-.6-1.76-.72-3.53-.76-5.36-.12-1.8-.29-3.6-.51-5.4l.1-.02h0Z"/><path d="M31.82,50.71c2.11-.84,4.33-1.43,6.59-1.76,2.26-.41,4.62-.44,6.81,.34v.1c-2.28,.31-4.46,.29-6.73,.36-2.23,.15-4.46,.5-6.65,1.06l-.03-.1h0Z"/><path d="M32.36,53.4c2.08-.33,4.16-.77,6.26-.92,.7,.01,1.41,.07,2.13,.29v.1c-1.33,.64-2.72,.73-4.16,.66-1.4,.02-2.81,0-4.22-.03v-.1h0Z"/><path class="d" d="M48.88,64.49c4.58,0,7.15,.71,8.6,1.52-.83-3.35-1.44-5.3-1.44-5.3H17.98s-9.14,29.65-5.46,55.98l.02,.12c.09,.64,.19,1.28,.29,1.91,.02,.11,.04,.22,.06,.33,.11,.63,.22,1.26,.35,1.89h12.84c-5.63-14.54-4.09-41.5-1.1-48.22s13.45-8.22,23.91-8.22Z"/><path class="d" d="M37.01,55.47c-10.05-.29-18.17-2.41-24.52-5.1,0,.21-.01,.42-.01,.61,0,2.56,1.2,9.77,1.2,9.77H59.7s1.63-4.41,1.82-8.91c-7.28,2.31-15.6,3.88-24.51,3.62Z"/><path class="d" d="M37.98,15.09c-11.19,.01-18.62-.28-23.55-.67-.06,.21-.11,.44-.11,.67h0c0,1.29,1.04,2.33,2.33,2.33H57.37c1.29,0,2.33-1.04,2.33-2.33h0c0-.26-.05-.51-.13-.74-5.77,.43-12.91,.73-21.6,.74Z"/><path class="d" d="M28.36,6.25c-.2-2.15,.7-4.58,1.5-6.25h-.41c-2.1,0-5.28,3.18-5.28,5.28l-.86,7.61h11.98c-3.23-2.02-6.74-4.65-6.93-6.63Z"/><path class="g" d="M33.19,20.41h23.19c-.31-1.85-.6-2.99-.6-2.99H18.24s-3.47,13.77,.47,23.48c4.69,.14,5.94,.16,9.15,.13-1.39-1.93-2.14-4.92-2.14-10.15,0-9.74,7.47-10.46,7.47-10.46Z"/><path class="d" d="M56.69,61.61c-.4-.58-.65-.91-.65-.91H17.98s-.25,.32-.65,.91H56.69Z"/><path class="i" d="M45.27,1.63s3.04,1.5,3.34,4.33c-2.95-.9-3.34-4.33-3.34-4.33Z"/></g><g><path class="e" d="M41.1,186.47c-1.45,0-3.01-.49-4.69-1.48-1.68-.99-2.92-2.04-3.71-3.16-.86-1.25-1.28-2.54-1.28-3.85,0-1.58,.46-2.73,1.38-3.46-.07-.2-.1-.4-.1-.59v-.59c0-.53,.06-1.09,.2-1.68,.13-.59,.33-1.12,.59-1.58l.4-.69c-2.44,1.25-4.76,2.12-6.97,2.62-2.21,.49-4.27,.74-6.18,.74-3.95,0-7.49-.64-10.62-1.93-3.13-1.28-5.6-3.28-7.41-5.98-1.81-2.7-2.72-6.16-2.72-10.37,0-3.29,.66-6.31,1.98-9.04,1.32-2.73,3-5.12,5.04-7.16,.33-.53,.54-1.1,.64-1.73,.1-.62,.15-1.17,.15-1.63,0-1.12-.3-2.16-.89-3.11-.59-.95-1.25-1.33-1.98-1.14-.07,0-.12,.02-.15,.05-.03,.03-.08,.05-.15,.05-.33,0-.49-.13-.49-.4,0-.46,.3-.82,.89-1.09,.66-.46,1.35-.69,2.07-.69,.92,0,1.68,.41,2.27,1.24,.59,.82,.89,1.89,.89,3.21-.13,1.12-.43,2.17-.89,3.16,2.77-2.24,5.76-3.95,8.99-5.14,3.23-1.19,6.16-1.78,8.79-1.78,4.54,0,7.84,1.17,9.88,3.51,2.04,2.34,3.06,4.99,3.06,7.95,0,2.37-.74,4.73-2.22,7.06-1.48,2.34-3.46,4.27-5.93,5.78-2.47,1.52-5.15,2.27-8.05,2.27-1.71,0-3.43-.3-5.14-.89-.07-.06-.13-.1-.2-.1s-.13-.03-.2-.1c-1.05-.33-2.03-1.05-2.91-2.17-.89-1.12-1.33-2.57-1.33-4.35,0-1.58,.35-3.28,1.04-5.09,.69-1.81,1.63-2.95,2.82-3.41,.4-.13,.66-.2,.79-.2,.26,0,.48,.05,.64,.15,.16,.1,.28,.18,.35,.25-.73,.33-1.09,.99-1.09,1.98,0,.53,.15,1.1,.44,1.73,.3,.63,.61,1.1,.94,1.43,.46,.46,.94,.99,1.43,1.58s.9,1.42,1.23,2.47c.06,.26,.11,.51,.15,.74,.03,.23,.05,.48,.05,.74,0,.79-.17,1.55-.49,2.27-.33,.73-.86,1.28-1.58,1.68,.4,.07,.77,.12,1.14,.15,.36,.03,.74,.05,1.14,.05,2.63,0,5.04-.72,7.21-2.17,2.17-1.45,3.94-3.26,5.29-5.43,1.35-2.17,2.03-4.35,2.03-6.52,0-2.63-.74-4.92-2.22-6.87-1.48-1.94-4.23-2.91-8.25-2.91-3.56,0-6.77,.74-9.63,2.22s-5.35,3.44-7.46,5.88c-2.11,2.44-3.72,5.12-4.84,8.05-1.12,2.93-1.68,5.81-1.68,8.65s.58,5.22,1.73,7.56c1.15,2.34,2.96,4.23,5.43,5.68,2.47,1.45,5.68,2.21,9.63,2.27-1.05-.33-1.93-.84-2.62-1.53-.69-.69-1.04-1.47-1.04-2.32,0-.92,.31-1.58,.94-1.98,.63-.4,1.24-.59,1.83-.59,.4,0,.66,.08,.79,.25,.13,.16-.03,.38-.49,.64-.46,.26-.69,.76-.69,1.48,0,.66,.2,1.28,.59,1.88,.26,.46,.71,.9,1.33,1.33,.63,.43,1.4,.64,2.32,.64h.2c3.16,0,6.36-.76,9.58-2.27,3.23-1.52,6.45-3.52,9.68-6.03,3.23-2.5,6.42-5.27,9.58-8.3,3.16-3.03,6.22-6.09,9.19-9.19-.66,.2-1.45,.3-2.37,.3v.1c-.73,1.25-2.07,1.88-4.05,1.88-1.19,0-2.41-.33-3.66-.99-1.32-.72-2.59-1.98-3.8-3.75-1.22-1.78-1.83-3.42-1.83-4.94,0-.2,.02-.41,.05-.64,.03-.23,.08-.44,.15-.64,.2-.59,.43-.97,.69-1.14,.26-.16,.46-.25,.59-.25-.26,1.19,.18,2.06,1.33,2.62,1.15,.56,2.16,.84,3.01,.84,.2,0,.41-.02,.64-.05,.23-.03,.44-.05,.64-.05,.53,0,1.1,.05,1.73,.15,.63,.1,1.3,.31,2.03,.64,.92,.46,1.7,1.17,2.32,2.12,.62,.96,.84,1.96,.64,3.01,1.51,0,2.9-.49,4.15-1.48,3.29-3.49,6.44-6.9,9.44-10.23,3-3.33,5.71-6.24,8.15-8.74,2.5-2.63,5.24-5.3,8.2-8,2.96-2.7,6.13-5.04,9.48-7.01-1.25-.72-2.41-1.4-3.46-2.03-1.05-.63-1.91-1.1-2.57-1.43-1.78-.99-4.18-2.06-7.21-3.21-3.03-1.15-6.29-2.14-9.78-2.96-3.49-.82-6.85-1.24-10.08-1.24-4.61,0-8.51,1.01-11.71,3.01-3.2,2.01-5.6,4.53-7.21,7.56-1.61,3.03-2.42,6.13-2.42,9.29,0,2.5,.54,4.88,1.63,7.11,1.09,2.24,2.73,4.04,4.94,5.38,2.21,1.35,4.96,2.03,8.25,2.03h.94c.3,0,.58-.03,.84-.1,.66-.33,1.2-.81,1.63-1.43,.43-.62,.71-1.17,.84-1.63,.13-.53,.2-.99,.2-1.38,0-.46-.08-.89-.25-1.28-.17-.4-.41-.62-.74-.69-.26-.06-.4-.2-.4-.4,0-.4,.46-.59,1.38-.59,.85,0,1.5,.25,1.93,.74,.43,.49,.64,1.1,.64,1.83,0,.79-.23,1.55-.69,2.27-.73,1.12-1.75,1.94-3.06,2.47,3.03-.46,5.57-1.38,7.61-2.77,2.04-1.38,3.57-3,4.59-4.84,1.02-1.84,1.53-3.66,1.53-5.43,0-2.3-.69-4.54-2.07-6.72-1.38-2.17-3.59-3.46-6.62-3.85h-.84c-.3,0-.61,.07-.94,.2-.59,.26-1.1,.68-1.53,1.24-.43,.56-.64,1.1-.64,1.63,0,.59,.23,1.02,.69,1.28,.13,.07,.2,.2,.2,.4,0,.26-.17,.4-.49,.4-.59,0-1.19-.46-1.78-1.38-.13-.4-.2-.72-.2-.99,0-.2,.06-.49,.2-.89-.26,.13-.43,.26-.49,.4-.53,.46-1.45,.89-2.77,1.28-1.32,.4-2.64,.59-3.95,.59-.33,0-.63-.02-.89-.05-.26-.03-.56-.08-.89-.15-.86-.2-1.6-.61-2.22-1.24-.63-.62-.94-1.4-.94-2.32,0-.26,.06-.4,.2-.4,.06,0,.4,.23,.99,.69,.33,.2,.76,.3,1.28,.3,1.38,0,2.57-.49,3.56-1.48,1.12-1.19,2.4-2.21,3.85-3.06,1.45-.86,2.77-1.28,3.95-1.28,1.58,0,2.82,.41,3.71,1.23,.89,.82,1.5,1.76,1.83,2.82,2.77,.66,4.86,2.03,6.27,4.1,1.42,2.08,2.12,4.5,2.12,7.26,0,2.31-.73,4.61-2.17,6.92-1.45,2.31-3.54,4.2-6.27,5.68-2.73,1.48-6.11,2.22-10.13,2.22-4.22,0-7.71-.77-10.47-2.32-2.77-1.55-4.84-3.56-6.22-6.03s-2.07-5.12-2.07-7.95c0-2.31,.46-4.68,1.38-7.11-.46,.2-.91,.36-1.33,.49-.43,.13-.94,.23-1.53,.3,.06,1.45-.66,2.9-2.17,4.35-1.52,1.45-3.56,2.17-6.13,2.17-1.91,0-3.89-.36-5.93-1.09-2.04-.72-3.36-1.78-3.95-3.16-.2-.53-.3-.92-.3-1.19,0-.46,.13-.76,.4-.89,.46,.79,1.19,1.19,2.17,1.19,.72,0,1.47-.2,2.22-.59,.76-.4,1.37-.82,1.83-1.28,.53-.53,1.14-1.1,1.83-1.73,.69-.63,1.66-1.17,2.91-1.63,.59-.2,1.28-.3,2.08-.3,1.05,0,2.06,.25,3.01,.74,.95,.49,1.6,1.3,1.93,2.42,.86-.13,1.58-.33,2.17-.59,.59-.26,1.22-.79,1.88-1.58,1.84-3.49,4.73-6.45,8.65-8.89,3.92-2.44,8.81-3.66,14.67-3.66,1.51,0,3.08,.13,4.69,.4,1.61,.26,3.24,.59,4.89,.99-.79-.79-1.19-1.65-1.19-2.57s.26-1.53,.79-1.83c.53-.3,1.02-.44,1.48-.44-.4,0-.59,.49-.59,1.48,0,.66,.16,1.42,.49,2.27,.33,.86,.82,1.45,1.48,1.78,3.1,.86,6.01,1.89,8.74,3.11,2.73,1.22,4.92,2.29,6.57,3.21,.53,.26,1.43,.76,2.72,1.48,1.28,.73,2.72,1.52,4.3,2.37,2.24-1.25,4.56-2.22,6.97-2.91,2.4-.69,4.86-1.04,7.36-1.04s4.58,.64,6.03,1.93c1.45,1.28,2.17,2.68,2.17,4.2s-.79,2.87-2.37,4.05c-1.58,1.19-4.12,1.65-7.61,1.38-.53-.06-1.28-.3-2.27-.69-.99-.4-2.11-.86-3.36-1.38-.46,.59-.99,1.22-1.58,1.88-.59,.66-1.19,1.35-1.78,2.08-1.12,1.38-2.31,3.15-3.56,5.29-1.25,2.14-2.44,4.31-3.56,6.52-1.12,2.21-2.14,4.13-3.06,5.78-1.98,3.75-4.59,7.46-7.85,11.12-3.26,3.66-6.88,6.85-10.87,9.58-3.99,2.73-8.09,4.59-12.3,5.58,1.78,.13,3.29,.23,4.54,.3,1.25,.06,2.49,.15,3.71,.25,1.22,.1,2.12,.18,2.72,.25,.59,.06,1.37,.15,2.32,.25,.95,.1,1.96,.15,3.01,.15,1.84,0,3.57-.25,5.19-.74,1.61-.49,2.42-1.5,2.42-3.01,0-.59-.13-1.19-.4-1.78l.89-.2c1.12,1.84,1.68,3.49,1.68,4.94,0,1.84-.76,3.23-2.27,4.15-1.52,.92-3.13,1.38-4.84,1.38-2.44,0-4.97-.43-7.61-1.28-2.64-.86-5.42-1.7-8.35-2.52-2.93-.82-6.11-1.23-9.53-1.23l-.3-.89c.26,.06,.53,.11,.79,.15,.26,.03,.53,.05,.79,.05,2.24,0,4.54-.79,6.92-2.37,2.37-1.58,4.71-3.59,7.02-6.03,2.3-2.44,4.5-4.99,6.57-7.66,2.08-2.67,3.9-5.09,5.48-7.26,.33-.72,.72-1.32,1.19-1.78h-13.04c-7.25,8.1-13.72,14.57-19.42,19.41-5.7,4.84-10.69,8.68-14.97,11.51v.1h-.2v.1c-1.19,.72-2.14,1.68-2.87,2.87-.86,1.32-1.22,2.57-1.09,3.75,.4-.2,.85-.3,1.38-.3,.79,0,1.56,.23,2.32,.69,.76,.46,1.33,1.05,1.73,1.78,.53,.92,.84,1.76,.94,2.52,.1,.76,.18,1.46,.25,2.12,.06,.86,.43,1.78,1.09,2.77,.66,.99,1.51,1.32,2.57,.99,0,.06-.05,.25-.15,.54-.1,.3-.41,.58-.94,.84-.46,.26-1.02,.4-1.68,.4Zm45.45-51.67c3.1-3.82,6.26-7.61,9.48-11.36,3.23-3.75,6.62-7.34,10.18-10.77-.86-.46-1.73-.94-2.62-1.43s-1.8-.97-2.72-1.43c-3.56,1.98-6.97,4.4-10.23,7.26-3.26,2.87-6.32,5.86-9.19,8.99-2.87,3.13-5.48,6.04-7.85,8.74h12.94Zm28.16-21.24c1.91,0,3.31-.41,4.2-1.23,.89-.82,1.33-1.7,1.33-2.62,0-1.05-.43-2.01-1.28-2.87-.86-.85-2.11-1.28-3.75-1.28-2.11,0-4.22,.3-6.32,.89-2.11,.59-4.18,1.38-6.22,2.37,.85,.46,1.69,.91,2.52,1.33,.82,.43,1.63,.81,2.42,1.14,1.65-1.51,3.29-2.96,4.94-4.35l.59,.69c-.26,.33-.76,.86-1.48,1.58s-1.58,1.65-2.57,2.77c1.65,.79,2.83,1.25,3.56,1.38,.33,.07,.67,.12,1.04,.15,.36,.03,.71,.05,1.04,.05Z"/><path class="e" d="M159.37,186.86c-.26,0-.46-.03-.59-.1-.13-.07-.26-.13-.4-.2,.72-.53,1.09-1.25,1.09-2.17,0-.79-.25-1.6-.74-2.42-.49-.82-1-1.47-1.53-1.93-.59-.53-1.23-1.12-1.93-1.78-.69-.66-1.3-1.61-1.83-2.87-.4-.79-.59-1.65-.59-2.57s.2-1.8,.59-2.62c.4-.82,.95-1.47,1.68-1.93-.46-.46-1.1-.86-1.93-1.19-.82-.33-1.7-.49-2.62-.49h-.89c-.92,0-1.78,.1-2.57,.3-1.12,.4-2.26,.72-3.41,.99-1.15,.26-2.29,.46-3.41,.59-.07,1.19,.02,2.72,.25,4.59,.23,1.88,.74,3.57,1.53,5.09,.79,1.51,1.98,2.34,3.56,2.47v.89c-1.45,.06-2.67-.48-3.66-1.63-.99-1.15-1.75-2.49-2.27-4-.2,.86-.54,1.68-1.04,2.47-.49,.79-1.17,1.38-2.03,1.78-.07,.86-.53,1.66-1.38,2.42-.86,.76-1.98,1.14-3.36,1.14-.86,0-1.81-.2-2.87-.59-1.05-.4-1.98-.92-2.77-1.58-.79-.66-1.28-1.35-1.48-2.07v-.3c0-.59,.13-.96,.4-1.09,.13,.46,.38,.77,.74,.94,.36,.16,.74,.25,1.14,.25,.85,0,1.58-.23,2.17-.69,.46-.26,.99-.56,1.58-.89,.59-.33,1.38-.49,2.37-.49,.72,0,1.42,.2,2.08,.59,.66,.4,1.09,.95,1.28,1.68,.92-.46,1.58-1.37,1.98-2.72,.4-1.35,.56-2.45,.49-3.31-.2-.92-.33-1.8-.4-2.62-.07-.82-.1-1.53-.1-2.12-3.56,.13-6.82-.43-9.78-1.68-2.96-1.25-5.34-3.21-7.11-5.88-1.78-2.67-2.67-5.98-2.67-9.93,0-1.98,.25-4.1,.74-6.37,.49-2.27,1.3-4.69,2.42-7.26,1.51-3.49,3.57-6.92,6.18-10.28,2.6-3.36,5.32-6.45,8.15-9.29-1.32-.53-2.65-1.1-4-1.73-1.35-.63-2.65-1.27-3.9-1.93-1.19-.4-2.37-.66-3.56-.79-1.78,0-3.13,.36-4.05,1.09,.53,.4,.92,.91,1.19,1.53,.26,.63,.4,1.3,.4,2.03,0,1.12-.23,2.04-.69,2.77-.59,1.05-1.23,1.83-1.93,2.32-.69,.49-1.3,.94-1.83,1.33-.53,.33-1.04,.87-1.53,1.63-.49,.76-.74,1.5-.74,2.22,0,.59,.23,1.12,.69,1.58-.13,.13-.36,.2-.69,.2s-.73-.13-1.19-.4c-.86-.53-1.48-1.43-1.88-2.72-.4-1.28-.59-2.62-.59-4,0-1.98,.33-3.69,.99-5.14,.59-1.32,1.43-2.32,2.52-3.01,1.09-.69,2.12-1.04,3.11-1.04,.26,0,.49,.02,.69,.05,.2,.03,.4,.08,.59,.15,1.32-1.19,2.87-1.78,4.64-1.78h.3c-1.71-1.19-3.03-2.24-3.95-3.16-1.52-1.65-2.62-3.28-3.31-4.89-.69-1.61-1.04-3.14-1.04-4.59,0-2.7,1.05-4.94,3.16-6.72,2.11-1.78,4.87-2.67,8.3-2.67,2.17,0,4.56,.41,7.16,1.23,2.6,.82,5.32,2.19,8.15,4.1,.2,0,.53,.23,.99,.69,.33,.26,.79,.4,1.38,.4,.72,0,1.43-.23,2.12-.69,.69-.46,1.27-.92,1.73-1.38,.99-.92,2.21-1.76,3.66-2.52,1.45-.76,2.77-1.14,3.95-1.14,1.71,0,3.03,.48,3.95,1.43,.92,.96,1.45,2.03,1.58,3.21-.4-.59-1.12-.89-2.17-.89s-2.04,.35-2.96,1.04c-.92,.69-1.75,1.37-2.47,2.03-.86,.66-1.73,1.27-2.62,1.83-.89,.56-2.03,.84-3.41,.84h-.74c-.23,0-.51-.03-.84-.1-.66-.13-1.33-.44-2.03-.94-.69-.49-1.27-1.07-1.73-1.73-.33-.33-.69-.69-1.09-1.09s-.66-.62-.79-.69c-.46-.33-.94-.63-1.43-.89-.49-.26-.97-.49-1.43-.69,.2,.2,.33,.36,.4,.49,1.25,1.38,1.88,2.93,1.88,4.64,0,1.12-.3,2.06-.89,2.82-.59,.76-1.32,1.14-2.17,1.14-.59,0-1.22-.23-1.88-.69-.46-.33-.69-.66-.69-.99s.23-.43,.69-.3c.53,.13,1.05-.1,1.58-.69,.53-.59,.89-1.28,1.09-2.07,.06-.26,.11-.54,.15-.84,.03-.3,.05-.58,.05-.84,0-.53-.07-1.05-.2-1.58-.13-.53-.36-1.02-.69-1.48-3.43-1.58-6.52-2.37-9.29-2.37s-5.09,.73-6.77,2.17c-1.68,1.45-2.52,3.33-2.52,5.63,0,1.38,.33,2.83,.99,4.35,.66,1.52,1.71,3.06,3.16,4.64,1.38,1.45,3.23,2.9,5.53,4.35,2.31,1.45,5.01,2.83,8.1,4.15,5.2-4.87,11.07-8.81,17.59-11.81,6.52-3,13.21-4.5,20.06-4.5,5.14,0,8.97,.89,11.51,2.67,2.54,1.78,3.8,3.89,3.8,6.32,0,2.11-.97,4.25-2.92,6.42-1.94,2.17-4.89,3.99-8.84,5.43-2.24,.86-4.63,1.47-7.16,1.83-2.54,.36-5.12,.54-7.76,.54-4.94,0-9.85-.56-14.72-1.68-.59,.07-1.12,.21-1.58,.44-.46,.23-.82,.51-1.09,.84-.73,.59-1.09,1.35-1.09,2.27,0,.4,.13,.73,.4,.99,.33,.26,.46,.46,.4,.59-.07,.13-.23,.2-.49,.2-.46,0-1.01-.21-1.63-.64-.63-.43-.94-1.07-.94-1.93s.36-1.58,1.09-2.17c.72-.59,1.58-.99,2.57-1.19-.86-.2-1.71-.43-2.57-.69-.86-.26-1.65-.53-2.37-.79-1.91,2.04-3.75,4.3-5.53,6.77-1.78,2.47-3.39,5.06-4.84,7.76,0,.07-.02,.12-.05,.15-.03,.03-.05,.12-.05,.25-.26,.73-.48,1.5-.64,2.32-.17,.82-.25,1.63-.25,2.42,0,1.38,.25,2.67,.74,3.85,.49,1.19,1.14,1.98,1.93,2.37l.4,.2c.4-.59,.94-1.04,1.63-1.33,.69-.3,1.4-.44,2.12-.44,.86,0,1.55,.13,2.07,.4,.92,.33,1.65,.73,2.17,1.19,.53,.46,1.02,.96,1.48,1.48,.66-1.51,1.37-2.98,2.12-4.4,.76-1.42,1.6-2.72,2.52-3.9,2.11-2.7,4.3-4.66,6.57-5.88,2.27-1.22,4.4-1.83,6.37-1.83,2.7,0,4.92,.92,6.67,2.77,1.75,1.84,2.62,4.22,2.62,7.11,0,1.52-.3,3.18-.89,4.99-.59,1.81-1.55,3.67-2.87,5.58-1.85,2.64-4.07,5.12-6.67,7.46-2.6,2.34-5.42,4.26-8.45,5.78l.1,.1c2.04,.2,3.72,1.05,5.04,2.57,.13-.07,.3-.1,.49-.1h.49c1.25,0,2.5,.48,3.75,1.43,1.25,.95,2.17,2.29,2.77,4,.4,1.05,.59,2.4,.59,4.05,0,1.84-.31,3.69-.94,5.53-.63,1.84-1.53,3.1-2.72,3.75-.53,.26-.96,.4-1.29,.4Zm-20.65-20.25c.06-1.85,.26-3.87,.59-6.08,.33-2.21,.82-4.43,1.48-6.67-1.25,0-2.27-.13-3.06-.4-1.65-.53-2.9-1.42-3.75-2.67-.86-1.25-1.15-2.4-.89-3.46,0-.13,.06-.33,.2-.59h-.1c-.66,0-1.38-.56-2.17-1.68-.79-1.12-1.28-2.27-1.48-3.46-.07-.26-.1-.69-.1-1.28v-.99c0-.33,.03-.62,.1-.89-.26,.53-.51,1.07-.74,1.63-.23,.56-.44,1.1-.64,1.63-.99,2.37-1.7,4.59-2.12,6.67-.43,2.07-.64,3.97-.64,5.68,0,4.35,1.25,7.59,3.75,9.73,2.5,2.14,5.7,3.08,9.58,2.82Zm1.78-.2c3.1-.53,6.14-1.63,9.14-3.31,3-1.68,5.76-3.71,8.3-6.08,2.53-2.37,4.63-4.84,6.27-7.41,1.05-1.58,1.81-3.11,2.27-4.59,.46-1.48,.69-2.85,.69-4.1,0-2.31-.64-4.18-1.93-5.63-1.28-1.45-2.98-2.17-5.09-2.17-1.65,0-3.46,.56-5.43,1.68-1.98,1.12-3.92,2.96-5.83,5.53-1.91,2.64-3.46,5.37-4.64,8.2,.86,.66,1.78,.99,2.77,.99,.86,0,1.48-.3,1.88-.89,.2,.2,.3,.46,.3,.79,0,1.25-.71,2.22-2.12,2.91-1.42,.69-2.95,1.17-4.59,1.43-.59,2.04-1.04,4.13-1.33,6.27s-.51,4.26-.64,6.37Zm20.45-44.66c6.26,0,11.86-.86,16.8-2.57,3.29-1.12,5.83-2.62,7.61-4.5,1.78-1.88,2.67-3.71,2.67-5.48s-.94-3.24-2.82-4.59c-1.88-1.35-4.83-2.03-8.84-2.03-2.57,0-5.42,.51-8.55,1.53-3.13,1.02-6.27,2.36-9.44,4-3.16,1.65-6.09,3.41-8.79,5.29-2.7,1.88-4.91,3.67-6.62,5.38,2.57,.99,5.4,1.73,8.5,2.22,3.1,.49,6.26,.74,9.48,.74Z"/><path class="e" d="M192.66,162.16c-1.32,0-2.47-.46-3.46-1.38-.99-.92-1.48-2.24-1.48-3.95,0-.72,.16-1.68,.49-2.87-.92,1.12-1.99,2.31-3.21,3.56-1.22,1.25-2.54,2.31-3.95,3.16-1.42,.85-2.85,1.28-4.3,1.28-.79,0-1.48-.13-2.07-.4-1.05-.4-1.8-1.04-2.22-1.93-.43-.89-.64-1.86-.64-2.91,0-1.84,.38-3.75,1.14-5.73,.76-1.98,1.43-3.52,2.03-4.64-.07,.07-.17,.1-.3,.1-.26,0-.51-.11-.74-.35-.23-.23-.25-.48-.05-.74,.46-.59,1.17-1.58,2.12-2.96,.95-1.38,2.03-2.9,3.21-4.54,1.19-1.65,2.29-3.19,3.31-4.64,1.02-1.45,1.79-2.57,2.32-3.36,.53-.13,1.3-.35,2.32-.64,1.02-.3,1.96-.44,2.82-.44,.99,0,1.71,.26,2.17,.79-.73,1.12-1.75,2.6-3.06,4.45-1.32,1.85-2.75,3.85-4.3,6.03-1.55,2.17-3.01,4.41-4.4,6.72-1.38,2.31-2.52,4.5-3.41,6.57-.89,2.07-1.33,3.87-1.33,5.38,0,1.12,.59,1.68,1.78,1.68,1.38-.06,3.01-.94,4.89-2.62s3.82-3.8,5.83-6.37c2.01-2.57,3.93-5.2,5.78-7.9,2.96-4.48,6.09-9.22,9.39-14.23,.53-.06,1.27-.25,2.22-.54s1.86-.44,2.72-.44c.99,0,1.61,.3,1.88,.89-.46,.73-1.4,2.08-2.82,4.05-1.42,1.98-3,4.25-4.74,6.82-1.75,2.57-3.41,5.17-4.99,7.81-.53,.86-1.12,1.86-1.78,3.01-.66,1.15-1.25,2.19-1.78,3.11-.59,1.05-.97,1.91-1.14,2.57-.17,.66-.25,1.19-.25,1.58,0,1.32,.66,1.98,1.98,1.98,.72,0,1.61-.28,2.67-.84,1.05-.56,2.04-1.33,2.96-2.32,1.25-1.19,2.52-2.65,3.8-4.4,1.28-1.74,2.78-4.13,4.5-7.16,.13-.26,.43-.4,.89-.4,.33,0,.53,.12,.59,.35,.06,.23,.03,.44-.1,.64-1.25,2.04-2.45,4-3.61,5.88-1.15,1.88-2.55,3.71-4.2,5.48-1.52,1.65-3.11,2.87-4.79,3.66-1.68,.79-3.25,1.19-4.69,1.19Z"/><path class="e" d="M213.81,162.26c-1.19,0-2.34-.2-3.46-.59-1.32-.46-2.42-1.35-3.31-2.67-.89-1.32-1.33-3-1.33-5.04,0-1.51,.3-3.21,.89-5.09,.59-1.88,1.58-3.94,2.96-6.18,.79-1.25,1.84-2.65,3.16-4.2,1.32-1.55,2.83-3.05,4.54-4.5,1.71-1.45,3.52-2.63,5.43-3.56,1.91-.92,3.82-1.38,5.73-1.38,2.3,0,3.9,.48,4.79,1.43,.89,.96,1.33,2.09,1.33,3.41,0,1.05-.2,2.11-.59,3.16-.4,1.05-.86,1.94-1.38,2.67-.79,1.05-1.57,1.81-2.32,2.27-.76,.46-1.5,.69-2.22,.69-.86,0-1.53-.28-2.03-.84-.49-.56-.68-1.14-.54-1.73,1.05-.26,2.12-.77,3.21-1.53,1.09-.76,2.03-1.58,2.82-2.47,.79-.89,1.22-1.66,1.29-2.32,.13-.99-.05-1.7-.54-2.12-.49-.43-1.14-.64-1.93-.64-1.19,0-2.72,.59-4.59,1.78s-3.77,2.78-5.68,4.79c-1.91,2.01-3.59,4.23-5.04,6.67-1.19,2.04-2.19,4.13-3.01,6.27-.82,2.14-1.23,4.07-1.23,5.78,0,.86,.13,1.63,.39,2.32,.26,.69,.69,1.24,1.29,1.63,.53,.4,1.22,.59,2.07,.59,1.65,0,3.69-.67,6.13-2.03,2.44-1.35,4.87-3.21,7.31-5.58,2.44-2.37,4.51-5.1,6.22-8.2,.2-.33,.43-.49,.69-.49,.2,0,.38,.12,.54,.35,.16,.23,.21,.48,.15,.74-1.84,3.1-3.99,5.91-6.42,8.45-2.44,2.54-4.97,4.53-7.61,5.98-2.63,1.45-5.21,2.17-7.71,2.17Z"/><path class="e" d="M237.22,161.67c-1.84,0-3.26-.71-4.25-2.12-.99-1.42-1.48-3.24-1.48-5.48,0-2.44,.66-5.27,1.98-8.5,.72-1.78,1.81-3.61,3.26-5.48,1.45-1.88,3.13-3.62,5.04-5.24,1.91-1.61,3.97-2.93,6.17-3.95,2.21-1.02,4.46-1.53,6.77-1.53,1.78,0,3,.46,3.66,1.38,.66,.92,.99,2.04,.99,3.36s-.2,2.54-.59,3.85l5.53-8.4c.46-.33,1.48-.49,3.06-.49,1.19,0,2.32,.13,3.41,.4,1.09,.26,1.4,.66,.94,1.19-.53,.66-1.43,1.66-2.72,3.01-1.28,1.35-2.67,2.95-4.15,4.79-1.48,1.84-2.88,3.79-4.2,5.83-.66,1.12-1.63,2.77-2.92,4.94s-2.29,4.25-3.01,6.22c-.4,1.19-.59,2.14-.59,2.87,0,1.38,.59,2.08,1.78,2.08,.66,0,1.55-.25,2.67-.74,1.12-.49,2.21-1.17,3.26-2.03,2.11-1.71,3.95-3.77,5.53-6.18,1.58-2.4,3-4.53,4.25-6.37,.06-.06,.15-.13,.25-.2,.1-.06,.28-.1,.54-.1s.46,.12,.59,.35c.13,.23,.07,.51-.2,.84-1.84,2.77-3.66,5.35-5.43,7.76-1.78,2.41-3.59,4.33-5.43,5.78-1.84,1.45-3.85,2.17-6.03,2.17-1.71,0-3.08-.51-4.1-1.53s-1.53-2.42-1.53-4.2c0-.79,.08-1.61,.25-2.47,.16-.85,.38-1.65,.64-2.37-1.05,1.38-2.36,2.9-3.9,4.54-1.55,1.65-3.18,3.06-4.89,4.25s-3.43,1.78-5.14,1.78Zm.89-1.88c1.32,0,2.72-.53,4.2-1.58,1.48-1.05,2.98-2.42,4.5-4.1,1.51-1.68,2.9-3.47,4.15-5.38,1.05-1.58,2.09-3.26,3.11-5.04,1.02-1.78,1.88-3.52,2.57-5.24,.69-1.71,1.04-3.26,1.04-4.64,0-2.11-.76-3.16-2.27-3.16-1.05,0-2.27,.46-3.66,1.38-1.38,.92-2.78,2.11-4.2,3.56-1.42,1.45-2.73,3.01-3.95,4.69-1.22,1.68-2.19,3.31-2.92,4.89-.2,.4-.68,1.35-1.43,2.87-.76,1.52-1.48,3.16-2.17,4.94-.69,1.78-1.04,3.33-1.04,4.64,0,1.45,.69,2.17,2.08,2.17Z"/></g><g class="c"><path d="M42.1,188.47c-1.45,0-3.01-.49-4.69-1.48-1.68-.99-2.92-2.04-3.71-3.16-.86-1.25-1.28-2.54-1.28-3.85,0-1.58,.46-2.73,1.38-3.46-.07-.2-.1-.4-.1-.59v-.59c0-.53,.06-1.09,.2-1.68,.13-.59,.33-1.12,.59-1.58l.4-.69c-2.44,1.25-4.76,2.12-6.97,2.62-2.21,.49-4.27,.74-6.18,.74-3.95,0-7.49-.64-10.62-1.93-3.13-1.28-5.6-3.28-7.41-5.98-1.81-2.7-2.72-6.16-2.72-10.37,0-3.29,.66-6.31,1.98-9.04,1.32-2.73,3-5.12,5.04-7.16,.33-.53,.54-1.1,.64-1.73,.1-.62,.15-1.17,.15-1.63,0-1.12-.3-2.16-.89-3.11-.59-.95-1.25-1.33-1.98-1.14-.07,0-.12,.02-.15,.05-.03,.03-.08,.05-.15,.05-.33,0-.49-.13-.49-.4,0-.46,.3-.82,.89-1.09,.66-.46,1.35-.69,2.07-.69,.92,0,1.68,.41,2.27,1.24,.59,.82,.89,1.89,.89,3.21-.13,1.12-.43,2.17-.89,3.16,2.77-2.24,5.76-3.95,8.99-5.14,3.23-1.19,6.16-1.78,8.79-1.78,4.54,0,7.84,1.17,9.88,3.51,2.04,2.34,3.06,4.99,3.06,7.95,0,2.37-.74,4.73-2.22,7.06-1.48,2.34-3.46,4.27-5.93,5.78-2.47,1.52-5.15,2.27-8.05,2.27-1.71,0-3.43-.3-5.14-.89-.07-.06-.13-.1-.2-.1s-.13-.03-.2-.1c-1.05-.33-2.03-1.05-2.91-2.17-.89-1.12-1.33-2.57-1.33-4.35,0-1.58,.35-3.28,1.04-5.09,.69-1.81,1.63-2.95,2.82-3.41,.4-.13,.66-.2,.79-.2,.26,0,.48,.05,.64,.15,.16,.1,.28,.18,.35,.25-.73,.33-1.09,.99-1.09,1.98,0,.53,.15,1.1,.44,1.73,.3,.63,.61,1.1,.94,1.43,.46,.46,.94,.99,1.43,1.58s.9,1.42,1.23,2.47c.06,.26,.11,.51,.15,.74,.03,.23,.05,.48,.05,.74,0,.79-.17,1.55-.49,2.27-.33,.73-.86,1.28-1.58,1.68,.4,.07,.77,.12,1.14,.15,.36,.03,.74,.05,1.14,.05,2.63,0,5.04-.72,7.21-2.17,2.17-1.45,3.94-3.26,5.29-5.43,1.35-2.17,2.03-4.35,2.03-6.52,0-2.63-.74-4.92-2.22-6.87-1.48-1.94-4.23-2.91-8.25-2.91-3.56,0-6.77,.74-9.63,2.22s-5.35,3.44-7.46,5.88c-2.11,2.44-3.72,5.12-4.84,8.05-1.12,2.93-1.68,5.81-1.68,8.65s.58,5.22,1.73,7.56c1.15,2.34,2.96,4.23,5.43,5.68,2.47,1.45,5.68,2.21,9.63,2.27-1.05-.33-1.93-.84-2.62-1.53-.69-.69-1.04-1.47-1.04-2.32,0-.92,.31-1.58,.94-1.98,.63-.4,1.24-.59,1.83-.59,.4,0,.66,.08,.79,.25,.13,.16-.03,.38-.49,.64-.46,.26-.69,.76-.69,1.48,0,.66,.2,1.28,.59,1.88,.26,.46,.71,.9,1.33,1.33,.63,.43,1.4,.64,2.32,.64h.2c3.16,0,6.36-.76,9.58-2.27,3.23-1.52,6.45-3.52,9.68-6.03,3.23-2.5,6.42-5.27,9.58-8.3,3.16-3.03,6.22-6.09,9.19-9.19-.66,.2-1.45,.3-2.37,.3v.1c-.73,1.25-2.07,1.88-4.05,1.88-1.19,0-2.41-.33-3.66-.99-1.32-.72-2.59-1.98-3.8-3.75-1.22-1.78-1.83-3.42-1.83-4.94,0-.2,.02-.41,.05-.64,.03-.23,.08-.44,.15-.64,.2-.59,.43-.97,.69-1.14,.26-.16,.46-.25,.59-.25-.26,1.19,.18,2.06,1.33,2.62,1.15,.56,2.16,.84,3.01,.84,.2,0,.41-.02,.64-.05,.23-.03,.44-.05,.64-.05,.53,0,1.1,.05,1.73,.15,.63,.1,1.3,.31,2.03,.64,.92,.46,1.7,1.17,2.32,2.12,.62,.96,.84,1.96,.64,3.01,1.51,0,2.9-.49,4.15-1.48,3.29-3.49,6.44-6.9,9.44-10.23,3-3.33,5.71-6.24,8.15-8.74,2.5-2.63,5.24-5.3,8.2-8,2.96-2.7,6.13-5.04,9.48-7.01-1.25-.72-2.41-1.4-3.46-2.03-1.05-.63-1.91-1.1-2.57-1.43-1.78-.99-4.18-2.06-7.21-3.21-3.03-1.15-6.29-2.14-9.78-2.96-3.49-.82-6.85-1.24-10.08-1.24-4.61,0-8.51,1.01-11.71,3.01-3.2,2.01-5.6,4.53-7.21,7.56-1.61,3.03-2.42,6.13-2.42,9.29,0,2.5,.54,4.88,1.63,7.11,1.09,2.24,2.73,4.04,4.94,5.38,2.21,1.35,4.96,2.03,8.25,2.03h.94c.3,0,.58-.03,.84-.1,.66-.33,1.2-.81,1.63-1.43,.43-.62,.71-1.17,.84-1.63,.13-.53,.2-.99,.2-1.38,0-.46-.08-.89-.25-1.28-.17-.4-.41-.62-.74-.69-.26-.06-.4-.2-.4-.4,0-.4,.46-.59,1.38-.59,.85,0,1.5,.25,1.93,.74,.43,.49,.64,1.1,.64,1.83,0,.79-.23,1.55-.69,2.27-.73,1.12-1.75,1.94-3.06,2.47,3.03-.46,5.57-1.38,7.61-2.77,2.04-1.38,3.57-3,4.59-4.84,1.02-1.84,1.53-3.66,1.53-5.43,0-2.3-.69-4.54-2.07-6.72-1.38-2.17-3.59-3.46-6.62-3.85h-.84c-.3,0-.61,.07-.94,.2-.59,.26-1.1,.68-1.53,1.24-.43,.56-.64,1.1-.64,1.63,0,.59,.23,1.02,.69,1.28,.13,.07,.2,.2,.2,.4,0,.26-.17,.4-.49,.4-.59,0-1.19-.46-1.78-1.38-.13-.4-.2-.72-.2-.99,0-.2,.06-.49,.2-.89-.26,.13-.43,.26-.49,.4-.53,.46-1.45,.89-2.77,1.28-1.32,.4-2.64,.59-3.95,.59-.33,0-.63-.02-.89-.05-.26-.03-.56-.08-.89-.15-.86-.2-1.6-.61-2.22-1.24-.63-.62-.94-1.4-.94-2.32,0-.26,.06-.4,.2-.4,.06,0,.4,.23,.99,.69,.33,.2,.76,.3,1.28,.3,1.38,0,2.57-.49,3.56-1.48,1.12-1.19,2.4-2.21,3.85-3.06,1.45-.86,2.77-1.28,3.95-1.28,1.58,0,2.82,.41,3.71,1.23,.89,.82,1.5,1.76,1.83,2.82,2.77,.66,4.86,2.03,6.27,4.1,1.42,2.08,2.12,4.5,2.12,7.26,0,2.31-.73,4.61-2.17,6.92-1.45,2.31-3.54,4.2-6.27,5.68-2.73,1.48-6.11,2.22-10.13,2.22-4.22,0-7.71-.77-10.47-2.32-2.77-1.55-4.84-3.56-6.22-6.03s-2.07-5.12-2.07-7.95c0-2.31,.46-4.68,1.38-7.11-.46,.2-.91,.36-1.33,.49-.43,.13-.94,.23-1.53,.3,.06,1.45-.66,2.9-2.17,4.35-1.52,1.45-3.56,2.17-6.13,2.17-1.91,0-3.89-.36-5.93-1.09-2.04-.72-3.36-1.78-3.95-3.16-.2-.53-.3-.92-.3-1.19,0-.46,.13-.76,.4-.89,.46,.79,1.19,1.19,2.17,1.19,.72,0,1.47-.2,2.22-.59,.76-.4,1.37-.82,1.83-1.28,.53-.53,1.14-1.1,1.83-1.73,.69-.63,1.66-1.17,2.91-1.63,.59-.2,1.28-.3,2.08-.3,1.05,0,2.06,.25,3.01,.74,.95,.49,1.6,1.3,1.93,2.42,.86-.13,1.58-.33,2.17-.59,.59-.26,1.22-.79,1.88-1.58,1.84-3.49,4.73-6.45,8.65-8.89,3.92-2.44,8.81-3.66,14.67-3.66,1.51,0,3.08,.13,4.69,.4,1.61,.26,3.24,.59,4.89,.99-.79-.79-1.19-1.65-1.19-2.57s.26-1.53,.79-1.83c.53-.3,1.02-.44,1.48-.44-.4,0-.59,.49-.59,1.48,0,.66,.16,1.42,.49,2.27,.33,.86,.82,1.45,1.48,1.78,3.1,.86,6.01,1.89,8.74,3.11,2.73,1.22,4.92,2.29,6.57,3.21,.53,.26,1.43,.76,2.72,1.48,1.28,.73,2.72,1.52,4.3,2.37,2.24-1.25,4.56-2.22,6.97-2.91,2.4-.69,4.86-1.04,7.36-1.04s4.58,.64,6.03,1.93c1.45,1.28,2.17,2.68,2.17,4.2s-.79,2.87-2.37,4.05c-1.58,1.19-4.12,1.65-7.61,1.38-.53-.06-1.28-.3-2.27-.69-.99-.4-2.11-.86-3.36-1.38-.46,.59-.99,1.22-1.58,1.88-.59,.66-1.19,1.35-1.78,2.08-1.12,1.38-2.31,3.15-3.56,5.29-1.25,2.14-2.44,4.31-3.56,6.52-1.12,2.21-2.14,4.13-3.06,5.78-1.98,3.75-4.59,7.46-7.85,11.12-3.26,3.66-6.88,6.85-10.87,9.58-3.99,2.73-8.09,4.59-12.3,5.58,1.78,.13,3.29,.23,4.54,.3,1.25,.06,2.49,.15,3.71,.25,1.22,.1,2.12,.18,2.72,.25,.59,.06,1.37,.15,2.32,.25,.95,.1,1.96,.15,3.01,.15,1.84,0,3.57-.25,5.19-.74,1.61-.49,2.42-1.5,2.42-3.01,0-.59-.13-1.19-.4-1.78l.89-.2c1.12,1.84,1.68,3.49,1.68,4.94,0,1.84-.76,3.23-2.27,4.15-1.52,.92-3.13,1.38-4.84,1.38-2.44,0-4.97-.43-7.61-1.28-2.64-.86-5.42-1.7-8.35-2.52-2.93-.82-6.11-1.23-9.53-1.23l-.3-.89c.26,.06,.53,.11,.79,.15,.26,.03,.53,.05,.79,.05,2.24,0,4.54-.79,6.92-2.37,2.37-1.58,4.71-3.59,7.02-6.03,2.3-2.44,4.5-4.99,6.57-7.66,2.08-2.67,3.9-5.09,5.48-7.26,.33-.72,.72-1.32,1.19-1.78h-13.04c-7.25,8.1-13.72,14.57-19.42,19.41-5.7,4.84-10.69,8.68-14.97,11.51v.1h-.2v.1c-1.19,.72-2.14,1.68-2.87,2.87-.86,1.32-1.22,2.57-1.09,3.75,.4-.2,.85-.3,1.38-.3,.79,0,1.56,.23,2.32,.69,.76,.46,1.33,1.05,1.73,1.78,.53,.92,.84,1.76,.94,2.52,.1,.76,.18,1.46,.25,2.12,.06,.86,.43,1.78,1.09,2.77,.66,.99,1.51,1.32,2.57,.99,0,.06-.05,.25-.15,.54-.1,.3-.41,.58-.94,.84-.46,.26-1.02,.4-1.68,.4Zm45.45-51.67c3.1-3.82,6.26-7.61,9.48-11.36,3.23-3.75,6.62-7.34,10.18-10.77-.86-.46-1.73-.94-2.62-1.43s-1.8-.97-2.72-1.43c-3.56,1.98-6.97,4.4-10.23,7.26-3.26,2.87-6.32,5.86-9.19,8.99-2.87,3.13-5.48,6.04-7.85,8.74h12.94Zm28.16-21.24c1.91,0,3.31-.41,4.2-1.23,.89-.82,1.33-1.7,1.33-2.62,0-1.05-.43-2.01-1.28-2.87-.86-.85-2.11-1.28-3.75-1.28-2.11,0-4.22,.3-6.32,.89-2.11,.59-4.18,1.38-6.22,2.37,.85,.46,1.69,.91,2.52,1.33,.82,.43,1.63,.81,2.42,1.14,1.65-1.51,3.29-2.96,4.94-4.35l.59,.69c-.26,.33-.76,.86-1.48,1.58s-1.58,1.65-2.57,2.77c1.65,.79,2.83,1.25,3.56,1.38,.33,.07,.67,.12,1.04,.15,.36,.03,.71,.05,1.04,.05Z"/><path d="M160.37,188.86c-.26,0-.46-.03-.59-.1-.13-.07-.26-.13-.4-.2,.72-.53,1.09-1.25,1.09-2.17,0-.79-.25-1.6-.74-2.42-.49-.82-1-1.47-1.53-1.93-.59-.53-1.23-1.12-1.93-1.78-.69-.66-1.3-1.61-1.83-2.87-.4-.79-.59-1.65-.59-2.57s.2-1.8,.59-2.62c.4-.82,.95-1.47,1.68-1.93-.46-.46-1.1-.86-1.93-1.19-.82-.33-1.7-.49-2.62-.49h-.89c-.92,0-1.78,.1-2.57,.3-1.12,.4-2.26,.72-3.41,.99-1.15,.26-2.29,.46-3.41,.59-.07,1.19,.02,2.72,.25,4.59,.23,1.88,.74,3.57,1.53,5.09,.79,1.51,1.98,2.34,3.56,2.47v.89c-1.45,.06-2.67-.48-3.66-1.63-.99-1.15-1.75-2.49-2.27-4-.2,.86-.54,1.68-1.04,2.47-.49,.79-1.17,1.38-2.03,1.78-.07,.86-.53,1.66-1.38,2.42-.86,.76-1.98,1.14-3.36,1.14-.86,0-1.81-.2-2.87-.59-1.05-.4-1.98-.92-2.77-1.58-.79-.66-1.28-1.35-1.48-2.07v-.3c0-.59,.13-.96,.4-1.09,.13,.46,.38,.77,.74,.94,.36,.16,.74,.25,1.14,.25,.85,0,1.58-.23,2.17-.69,.46-.26,.99-.56,1.58-.89,.59-.33,1.38-.49,2.37-.49,.72,0,1.42,.2,2.08,.59,.66,.4,1.09,.95,1.28,1.68,.92-.46,1.58-1.37,1.98-2.72,.4-1.35,.56-2.45,.49-3.31-.2-.92-.33-1.8-.4-2.62-.07-.82-.1-1.53-.1-2.12-3.56,.13-6.82-.43-9.78-1.68-2.96-1.25-5.34-3.21-7.11-5.88-1.78-2.67-2.67-5.98-2.67-9.93,0-1.98,.25-4.1,.74-6.37,.49-2.27,1.3-4.69,2.42-7.26,1.51-3.49,3.57-6.92,6.18-10.28,2.6-3.36,5.32-6.45,8.15-9.29-1.32-.53-2.65-1.1-4-1.73-1.35-.63-2.65-1.27-3.9-1.93-1.19-.4-2.37-.66-3.56-.79-1.78,0-3.13,.36-4.05,1.09,.53,.4,.92,.91,1.19,1.53,.26,.63,.4,1.3,.4,2.03,0,1.12-.23,2.04-.69,2.77-.59,1.05-1.23,1.83-1.93,2.32-.69,.49-1.3,.94-1.83,1.33-.53,.33-1.04,.87-1.53,1.63-.49,.76-.74,1.5-.74,2.22,0,.59,.23,1.12,.69,1.58-.13,.13-.36,.2-.69,.2s-.73-.13-1.19-.4c-.86-.53-1.48-1.43-1.88-2.72-.4-1.28-.59-2.62-.59-4,0-1.98,.33-3.69,.99-5.14,.59-1.32,1.43-2.32,2.52-3.01,1.09-.69,2.12-1.04,3.11-1.04,.26,0,.49,.02,.69,.05,.2,.03,.4,.08,.59,.15,1.32-1.19,2.87-1.78,4.64-1.78h.3c-1.71-1.19-3.03-2.24-3.95-3.16-1.52-1.65-2.62-3.28-3.31-4.89-.69-1.61-1.04-3.14-1.04-4.59,0-2.7,1.05-4.94,3.16-6.72,2.11-1.78,4.87-2.67,8.3-2.67,2.17,0,4.56,.41,7.16,1.23,2.6,.82,5.32,2.19,8.15,4.1,.2,0,.53,.23,.99,.69,.33,.26,.79,.4,1.38,.4,.72,0,1.43-.23,2.12-.69,.69-.46,1.27-.92,1.73-1.38,.99-.92,2.21-1.76,3.66-2.52,1.45-.76,2.77-1.14,3.95-1.14,1.71,0,3.03,.48,3.95,1.43,.92,.96,1.45,2.03,1.58,3.21-.4-.59-1.12-.89-2.17-.89s-2.04,.35-2.96,1.04c-.92,.69-1.75,1.37-2.47,2.03-.86,.66-1.73,1.27-2.62,1.83-.89,.56-2.03,.84-3.41,.84h-.74c-.23,0-.51-.03-.84-.1-.66-.13-1.33-.44-2.03-.94-.69-.49-1.27-1.07-1.73-1.73-.33-.33-.69-.69-1.09-1.09s-.66-.62-.79-.69c-.46-.33-.94-.63-1.43-.89-.49-.26-.97-.49-1.43-.69,.2,.2,.33,.36,.4,.49,1.25,1.38,1.88,2.93,1.88,4.64,0,1.12-.3,2.06-.89,2.82-.59,.76-1.32,1.14-2.17,1.14-.59,0-1.22-.23-1.88-.69-.46-.33-.69-.66-.69-.99s.23-.43,.69-.3c.53,.13,1.05-.1,1.58-.69,.53-.59,.89-1.28,1.09-2.07,.06-.26,.11-.54,.15-.84,.03-.3,.05-.58,.05-.84,0-.53-.07-1.05-.2-1.58-.13-.53-.36-1.02-.69-1.48-3.43-1.58-6.52-2.37-9.29-2.37s-5.09,.73-6.77,2.17c-1.68,1.45-2.52,3.33-2.52,5.63,0,1.38,.33,2.83,.99,4.35,.66,1.52,1.71,3.06,3.16,4.64,1.38,1.45,3.23,2.9,5.53,4.35,2.31,1.45,5.01,2.83,8.1,4.15,5.2-4.87,11.07-8.81,17.59-11.81,6.52-3,13.21-4.5,20.06-4.5,5.14,0,8.97,.89,11.51,2.67,2.54,1.78,3.8,3.89,3.8,6.32,0,2.11-.97,4.25-2.92,6.42-1.94,2.17-4.89,3.99-8.84,5.43-2.24,.86-4.63,1.47-7.16,1.83-2.54,.36-5.12,.54-7.76,.54-4.94,0-9.85-.56-14.72-1.68-.59,.07-1.12,.21-1.58,.44-.46,.23-.82,.51-1.09,.84-.73,.59-1.09,1.35-1.09,2.27,0,.4,.13,.73,.4,.99,.33,.26,.46,.46,.4,.59-.07,.13-.23,.2-.49,.2-.46,0-1.01-.21-1.63-.64-.63-.43-.94-1.07-.94-1.93s.36-1.58,1.09-2.17c.72-.59,1.58-.99,2.57-1.19-.86-.2-1.71-.43-2.57-.69-.86-.26-1.65-.53-2.37-.79-1.91,2.04-3.75,4.3-5.53,6.77-1.78,2.47-3.39,5.06-4.84,7.76,0,.07-.02,.12-.05,.15-.03,.03-.05,.12-.05,.25-.26,.73-.48,1.5-.64,2.32-.17,.82-.25,1.63-.25,2.42,0,1.38,.25,2.67,.74,3.85,.49,1.19,1.14,1.98,1.93,2.37l.4,.2c.4-.59,.94-1.04,1.63-1.33,.69-.3,1.4-.44,2.12-.44,.86,0,1.55,.13,2.07,.4,.92,.33,1.65,.73,2.17,1.19,.53,.46,1.02,.96,1.48,1.48,.66-1.51,1.37-2.98,2.12-4.4,.76-1.42,1.6-2.72,2.52-3.9,2.11-2.7,4.3-4.66,6.57-5.88,2.27-1.22,4.4-1.83,6.37-1.83,2.7,0,4.92,.92,6.67,2.77,1.75,1.84,2.62,4.22,2.62,7.11,0,1.52-.3,3.18-.89,4.99-.59,1.81-1.55,3.67-2.87,5.58-1.85,2.64-4.07,5.12-6.67,7.46-2.6,2.34-5.42,4.26-8.45,5.78l.1,.1c2.04,.2,3.72,1.05,5.04,2.57,.13-.07,.3-.1,.49-.1h.49c1.25,0,2.5,.48,3.75,1.43,1.25,.95,2.17,2.29,2.77,4,.4,1.05,.59,2.4,.59,4.05,0,1.84-.31,3.69-.94,5.53-.63,1.84-1.53,3.1-2.72,3.75-.53,.26-.96,.4-1.29,.4Zm-20.65-20.25c.06-1.85,.26-3.87,.59-6.08,.33-2.21,.82-4.43,1.48-6.67-1.25,0-2.27-.13-3.06-.4-1.65-.53-2.9-1.42-3.75-2.67-.86-1.25-1.15-2.4-.89-3.46,0-.13,.06-.33,.2-.59h-.1c-.66,0-1.38-.56-2.17-1.68-.79-1.12-1.28-2.27-1.48-3.46-.07-.26-.1-.69-.1-1.28v-.99c0-.33,.03-.62,.1-.89-.26,.53-.51,1.07-.74,1.63-.23,.56-.44,1.1-.64,1.63-.99,2.37-1.7,4.59-2.12,6.67-.43,2.07-.64,3.97-.64,5.68,0,4.35,1.25,7.59,3.75,9.73,2.5,2.14,5.7,3.08,9.58,2.82Zm1.78-.2c3.1-.53,6.14-1.63,9.14-3.31,3-1.68,5.76-3.71,8.3-6.08,2.53-2.37,4.63-4.84,6.27-7.41,1.05-1.58,1.81-3.11,2.27-4.59,.46-1.48,.69-2.85,.69-4.1,0-2.31-.64-4.18-1.93-5.63-1.28-1.45-2.98-2.17-5.09-2.17-1.65,0-3.46,.56-5.43,1.68-1.98,1.12-3.92,2.96-5.83,5.53-1.91,2.64-3.46,5.37-4.64,8.2,.86,.66,1.78,.99,2.77,.99,.86,0,1.48-.3,1.88-.89,.2,.2,.3,.46,.3,.79,0,1.25-.71,2.22-2.12,2.91-1.42,.69-2.95,1.17-4.59,1.43-.59,2.04-1.04,4.13-1.33,6.27s-.51,4.26-.64,6.37Zm20.45-44.66c6.26,0,11.86-.86,16.8-2.57,3.29-1.12,5.83-2.62,7.61-4.5,1.78-1.88,2.67-3.71,2.67-5.48s-.94-3.24-2.82-4.59c-1.88-1.35-4.83-2.03-8.84-2.03-2.57,0-5.42,.51-8.55,1.53-3.13,1.02-6.27,2.36-9.44,4-3.16,1.65-6.09,3.41-8.79,5.29-2.7,1.88-4.91,3.67-6.62,5.38,2.57,.99,5.4,1.73,8.5,2.22,3.1,.49,6.26,.74,9.48,.74Z"/><path d="M193.66,164.16c-1.32,0-2.47-.46-3.46-1.38-.99-.92-1.48-2.24-1.48-3.95,0-.72,.16-1.68,.49-2.87-.92,1.12-1.99,2.31-3.21,3.56-1.22,1.25-2.54,2.31-3.95,3.16-1.42,.85-2.85,1.28-4.3,1.28-.79,0-1.48-.13-2.07-.4-1.05-.4-1.8-1.04-2.22-1.93-.43-.89-.64-1.86-.64-2.91,0-1.84,.38-3.75,1.14-5.73,.76-1.98,1.43-3.52,2.03-4.64-.07,.07-.17,.1-.3,.1-.26,0-.51-.11-.74-.35-.23-.23-.25-.48-.05-.74,.46-.59,1.17-1.58,2.12-2.96,.95-1.38,2.03-2.9,3.21-4.54,1.19-1.65,2.29-3.19,3.31-4.64,1.02-1.45,1.79-2.57,2.32-3.36,.53-.13,1.3-.35,2.32-.64,1.02-.3,1.96-.44,2.82-.44,.99,0,1.71,.26,2.17,.79-.73,1.12-1.75,2.6-3.06,4.45-1.32,1.85-2.75,3.85-4.3,6.03-1.55,2.17-3.01,4.41-4.4,6.72-1.38,2.31-2.52,4.5-3.41,6.57-.89,2.07-1.33,3.87-1.33,5.38,0,1.12,.59,1.68,1.78,1.68,1.38-.06,3.01-.94,4.89-2.62s3.82-3.8,5.83-6.37c2.01-2.57,3.93-5.2,5.78-7.9,2.96-4.48,6.09-9.22,9.39-14.23,.53-.06,1.27-.25,2.22-.54s1.86-.44,2.72-.44c.99,0,1.61,.3,1.88,.89-.46,.73-1.4,2.08-2.82,4.05-1.42,1.98-3,4.25-4.74,6.82-1.75,2.57-3.41,5.17-4.99,7.81-.53,.86-1.12,1.86-1.78,3.01-.66,1.15-1.25,2.19-1.78,3.11-.59,1.05-.97,1.91-1.14,2.57-.17,.66-.25,1.19-.25,1.58,0,1.32,.66,1.98,1.98,1.98,.72,0,1.61-.28,2.67-.84,1.05-.56,2.04-1.33,2.96-2.32,1.25-1.19,2.52-2.65,3.8-4.4,1.28-1.74,2.78-4.13,4.5-7.16,.13-.26,.43-.4,.89-.4,.33,0,.53,.12,.59,.35,.06,.23,.03,.44-.1,.64-1.25,2.04-2.45,4-3.61,5.88-1.15,1.88-2.55,3.71-4.2,5.48-1.52,1.65-3.11,2.87-4.79,3.66-1.68,.79-3.25,1.19-4.69,1.19Z"/><path d="M214.81,164.26c-1.19,0-2.34-.2-3.46-.59-1.32-.46-2.42-1.35-3.31-2.67-.89-1.32-1.33-3-1.33-5.04,0-1.51,.3-3.21,.89-5.09,.59-1.88,1.58-3.94,2.96-6.18,.79-1.25,1.84-2.65,3.16-4.2,1.32-1.55,2.83-3.05,4.54-4.5,1.71-1.45,3.52-2.63,5.43-3.56,1.91-.92,3.82-1.38,5.73-1.38,2.3,0,3.9,.48,4.79,1.43,.89,.96,1.33,2.09,1.33,3.41,0,1.05-.2,2.11-.59,3.16-.4,1.05-.86,1.94-1.38,2.67-.79,1.05-1.57,1.81-2.32,2.27-.76,.46-1.5,.69-2.22,.69-.86,0-1.53-.28-2.03-.84-.49-.56-.68-1.14-.54-1.73,1.05-.26,2.12-.77,3.21-1.53,1.09-.76,2.03-1.58,2.82-2.47,.79-.89,1.22-1.66,1.29-2.32,.13-.99-.05-1.7-.54-2.12-.49-.43-1.14-.64-1.93-.64-1.19,0-2.72,.59-4.59,1.78s-3.77,2.78-5.68,4.79c-1.91,2.01-3.59,4.23-5.04,6.67-1.19,2.04-2.19,4.13-3.01,6.27-.82,2.14-1.23,4.07-1.23,5.78,0,.86,.13,1.63,.39,2.32,.26,.69,.69,1.24,1.29,1.63,.53,.4,1.22,.59,2.07,.59,1.65,0,3.69-.67,6.13-2.03,2.44-1.35,4.87-3.21,7.31-5.58,2.44-2.37,4.51-5.1,6.22-8.2,.2-.33,.43-.49,.69-.49,.2,0,.38,.12,.54,.35,.16,.23,.21,.48,.15,.74-1.84,3.1-3.99,5.91-6.42,8.45-2.44,2.54-4.97,4.53-7.61,5.98-2.63,1.45-5.21,2.17-7.71,2.17Z"/><path d="M238.22,163.67c-1.84,0-3.26-.71-4.25-2.12-.99-1.42-1.48-3.24-1.48-5.48,0-2.44,.66-5.27,1.98-8.5,.72-1.78,1.81-3.61,3.26-5.48,1.45-1.88,3.13-3.62,5.04-5.24,1.91-1.61,3.97-2.93,6.17-3.95,2.21-1.02,4.46-1.53,6.77-1.53,1.78,0,3,.46,3.66,1.38,.66,.92,.99,2.04,.99,3.36s-.2,2.54-.59,3.85l5.53-8.4c.46-.33,1.48-.49,3.06-.49,1.19,0,2.32,.13,3.41,.4,1.09,.26,1.4,.66,.94,1.19-.53,.66-1.43,1.66-2.72,3.01-1.28,1.35-2.67,2.95-4.15,4.79-1.48,1.84-2.88,3.79-4.2,5.83-.66,1.12-1.63,2.77-2.92,4.94s-2.29,4.25-3.01,6.22c-.4,1.19-.59,2.14-.59,2.87,0,1.38,.59,2.08,1.78,2.08,.66,0,1.55-.25,2.67-.74,1.12-.49,2.21-1.17,3.26-2.03,2.11-1.71,3.95-3.77,5.53-6.18,1.58-2.4,3-4.53,4.25-6.37,.06-.06,.15-.13,.25-.2,.1-.06,.28-.1,.54-.1s.46,.12,.59,.35c.13,.23,.07,.51-.2,.84-1.84,2.77-3.66,5.35-5.43,7.76-1.78,2.41-3.59,4.33-5.43,5.78-1.84,1.45-3.85,2.17-6.03,2.17-1.71,0-3.08-.51-4.1-1.53s-1.53-2.42-1.53-4.2c0-.79,.08-1.61,.25-2.47,.16-.85,.38-1.65,.64-2.37-1.05,1.38-2.36,2.9-3.9,4.54-1.55,1.65-3.18,3.06-4.89,4.25s-3.43,1.78-5.14,1.78Zm.89-1.88c1.32,0,2.72-.53,4.2-1.58,1.48-1.05,2.98-2.42,4.5-4.1,1.51-1.68,2.9-3.47,4.15-5.38,1.05-1.58,2.09-3.26,3.11-5.04,1.02-1.78,1.88-3.52,2.57-5.24,.69-1.71,1.04-3.26,1.04-4.64,0-2.11-.76-3.16-2.27-3.16-1.05,0-2.27,.46-3.66,1.38-1.38,.92-2.78,2.11-4.2,3.56-1.42,1.45-2.73,3.01-3.95,4.69-1.22,1.68-2.19,3.31-2.92,4.89-.2,.4-.68,1.35-1.43,2.87-.76,1.52-1.48,3.16-2.17,4.94-.69,1.78-1.04,3.33-1.04,4.64,0,1.45,.69,2.17,2.08,2.17Z"/></g></g><g><path d="M188.04,186.2h-1.55l-2.83-4.82h-3.2v4.82h-1.39v-11.86h4.5c.85,0,1.58,.14,2.19,.43,.61,.28,1.08,.69,1.42,1.21,.33,.52,.5,1.15,.5,1.88,0,.85-.23,1.56-.68,2.14-.45,.57-1.08,.97-1.89,1.19l2.93,5.01Zm-7.58-6.06h3.02c.86,0,1.54-.2,2.03-.61,.49-.41,.74-.96,.74-1.68s-.25-1.27-.74-1.68c-.49-.41-1.17-.61-2.03-.61h-3.02v4.57Z"/><path d="M196.72,185.23c-.98,.75-2.06,1.13-3.24,1.13-.82,0-1.56-.18-2.21-.55-.65-.37-1.17-.87-1.55-1.51-.38-.64-.57-1.35-.57-2.16s.17-1.46,.52-2.06c.35-.6,.83-1.08,1.43-1.43,.61-.35,1.29-.52,2.06-.52s1.49,.19,2.09,.57c.6,.38,1.07,.91,1.41,1.58,.34,.67,.51,1.46,.51,2.34v.25h-6.62c.09,.46,.28,.87,.57,1.21,.29,.34,.64,.61,1.07,.8s.91,.28,1.44,.28c.91,0,1.73-.3,2.48-.89l.6,.95Zm-6.21-3.46h5.44c-.06-.49-.21-.92-.46-1.29-.25-.37-.56-.65-.95-.86-.39-.21-.82-.31-1.31-.31s-.93,.1-1.33,.31c-.39,.21-.71,.49-.96,.86-.24,.37-.39,.79-.45,1.29Z"/><path d="M205.57,185.06c-.38,.42-.84,.74-1.37,.96-.53,.22-1.09,.34-1.7,.34-.79,0-1.49-.18-2.12-.54-.62-.36-1.12-.85-1.48-1.47-.36-.62-.54-1.32-.54-2.1s.18-1.49,.54-2.11,.85-1.11,1.48-1.47c.62-.36,1.33-.54,2.12-.54,.6,0,1.16,.11,1.69,.33s.98,.54,1.37,.96l-.78,.81c-.28-.29-.61-.52-1-.68-.39-.16-.8-.24-1.23-.24-.55,0-1.04,.13-1.47,.38s-.77,.59-1.01,1.03c-.25,.44-.37,.94-.37,1.51s.12,1.08,.37,1.52,.58,.79,1.01,1.04,.92,.38,1.47,.38c.43,0,.84-.08,1.23-.24,.39-.16,.72-.39,1-.68l.78,.81Z"/><path d="M214.32,185.23c-.98,.75-2.06,1.13-3.24,1.13-.82,0-1.56-.18-2.21-.55s-1.17-.87-1.55-1.51c-.38-.64-.57-1.35-.57-2.16s.17-1.46,.52-2.06c.35-.6,.83-1.08,1.43-1.43,.61-.35,1.29-.52,2.06-.52s1.49,.19,2.09,.57c.6,.38,1.07,.91,1.41,1.58,.34,.67,.51,1.46,.51,2.34v.25h-6.62c.1,.46,.29,.87,.57,1.21,.29,.34,.64,.61,1.07,.8s.91,.28,1.44,.28c.91,0,1.74-.3,2.48-.89l.6,.95Zm-6.21-3.46h5.44c-.06-.49-.21-.92-.46-1.29-.25-.37-.56-.65-.95-.86-.39-.21-.82-.31-1.31-.31s-.93,.1-1.33,.31c-.39,.21-.71,.49-.96,.86-.25,.37-.39,.79-.45,1.29Z"/><path d="M217.28,175.79c-.22,0-.41-.08-.56-.23-.15-.16-.23-.34-.23-.57s.08-.4,.23-.55,.34-.23,.56-.23,.42,.08,.57,.23c.15,.15,.23,.34,.23,.55s-.08,.41-.23,.57c-.15,.16-.34,.23-.57,.23Zm.65,10.41h-1.3v-7.91h1.3v7.91Z"/><path d="M225.01,186.01c-.52,.23-1.03,.35-1.53,.35s-.89-.1-1.25-.31c-.36-.21-.64-.5-.84-.88s-.3-.82-.3-1.32v-4.4h-1.38v-1.16h1.45v-1.98h1.23v1.98h2.37v1.16h-2.37v4.16c0,.47,.13,.86,.38,1.15,.25,.29,.59,.44,1.01,.44,.34,0,.67-.1,1.01-.3l.21,1.12Z"/><path d="M232.97,186.2h-1.12l-.09-1.04c-.29,.37-.66,.67-1.11,.88-.45,.21-.95,.32-1.5,.32s-1.08-.11-1.53-.34c-.45-.22-.8-.53-1.06-.92-.25-.39-.38-.83-.38-1.33,0-.52,.14-.98,.42-1.38,.28-.4,.65-.71,1.13-.94,.48-.23,1.02-.34,1.62-.34,.4,0,.8,.05,1.21,.15,.41,.1,.78,.23,1.1,.4v-.33c0-.42-.11-.78-.32-1.08s-.49-.53-.85-.69c-.35-.16-.74-.24-1.17-.24-.37,0-.75,.07-1.13,.2-.38,.13-.75,.34-1.11,.62l-.43-1.12c.46-.3,.94-.52,1.45-.67,.51-.15,1.01-.23,1.5-.23,.69,0,1.28,.14,1.78,.42s.88,.67,1.16,1.18c.27,.51,.41,1.11,.41,1.81v4.67Zm-3.58-1.03c.41,0,.78-.08,1.12-.25,.34-.17,.61-.41,.82-.73,.21-.32,.33-.7,.35-1.14v-.13c-.29-.23-.62-.4-.98-.53-.36-.12-.73-.19-1.1-.19-.58,0-1.07,.14-1.47,.43-.39,.28-.59,.65-.59,1.08,0,.27,.08,.52,.24,.74,.16,.22,.38,.4,.66,.52,.28,.13,.6,.19,.95,.19Z"/><path d="M234.71,185.51l.34-1.22c.19,.18,.41,.33,.65,.47s.5,.23,.77,.3c.27,.07,.54,.11,.81,.11,.49,0,.89-.11,1.19-.32,.3-.22,.45-.5,.45-.85,0-.25-.08-.46-.23-.63-.16-.17-.36-.31-.61-.43-.25-.12-.53-.24-.81-.35-.35-.14-.71-.29-1.05-.47-.35-.17-.64-.4-.87-.69-.23-.29-.34-.66-.34-1.12s.11-.83,.33-1.15c.22-.33,.53-.58,.93-.76,.4-.18,.86-.27,1.37-.27,.78,0,1.55,.19,2.3,.58l-.39,1.17c-.17-.11-.36-.21-.59-.3-.22-.09-.45-.15-.68-.2s-.45-.07-.66-.07c-.38,0-.7,.09-.93,.27-.24,.18-.36,.41-.36,.71,0,.17,.05,.32,.15,.46,.1,.14,.26,.28,.49,.42s.55,.29,.96,.46c.36,.15,.72,.32,1.08,.5,.35,.19,.65,.43,.88,.72s.35,.67,.35,1.14-.12,.87-.37,1.23c-.25,.36-.58,.63-1.02,.83-.44,.2-.94,.3-1.51,.3-.94,0-1.82-.28-2.64-.85Z"/><path d="M253.82,186.2h-1.15l-.07-1.15c-.36,.41-.81,.73-1.33,.96-.52,.23-1.09,.35-1.72,.35-.77,0-1.47-.18-2.09-.54-.62-.36-1.1-.85-1.46-1.47-.36-.62-.53-1.32-.53-2.1s.18-1.49,.53-2.11c.36-.62,.84-1.11,1.46-1.47,.62-.36,1.31-.54,2.09-.54,.6,0,1.16,.11,1.67,.32s.95,.52,1.31,.9v-5.02h1.3v11.86Zm-4.15-1.01c.53,0,1.01-.12,1.44-.37,.43-.25,.78-.58,1.03-1,.26-.42,.38-.91,.38-1.44v-.27c0-.54-.13-1.02-.38-1.44s-.6-.76-1.03-1c-.43-.24-.91-.36-1.44-.36s-1.04,.13-1.47,.39c-.43,.26-.77,.61-1.02,1.05-.25,.44-.38,.94-.38,1.5s.13,1.06,.38,1.51c.25,.45,.59,.8,1.02,1.06,.43,.26,.92,.39,1.47,.39Z"/><path d="M262.66,186.2h-1.12l-.09-1.04c-.29,.37-.66,.67-1.11,.88s-.95,.32-1.5,.32-1.08-.11-1.53-.34c-.45-.22-.8-.53-1.06-.92-.26-.39-.38-.83-.38-1.33,0-.52,.14-.98,.42-1.38,.28-.4,.65-.71,1.13-.94,.48-.23,1.02-.34,1.62-.34,.4,0,.8,.05,1.21,.15,.41,.1,.78,.23,1.1,.4v-.33c0-.42-.11-.78-.32-1.08s-.49-.53-.85-.69c-.35-.16-.74-.24-1.17-.24-.37,0-.75,.07-1.13,.2-.38,.13-.75,.34-1.11,.62l-.43-1.12c.46-.3,.94-.52,1.45-.67,.51-.15,1.01-.23,1.5-.23,.69,0,1.28,.14,1.78,.42s.88,.67,1.16,1.18,.41,1.11,.41,1.81v4.67Zm-3.58-1.03c.41,0,.78-.08,1.12-.25s.61-.41,.82-.73c.21-.32,.33-.7,.35-1.14v-.13c-.29-.23-.62-.4-.98-.53-.36-.12-.73-.19-1.1-.19-.59,0-1.07,.14-1.47,.43-.39,.28-.59,.65-.59,1.08,0,.27,.08,.52,.24,.74,.16,.22,.38,.4,.66,.52,.28,.13,.6,.19,.95,.19Z"/><path d="M268.91,186.2v-11.86h4.21c1.13,0,2.03,.26,2.67,.78s.97,1.24,.97,2.15c0,.65-.16,1.21-.48,1.7-.32,.48-.75,.83-1.29,1.05,.72,.18,1.29,.52,1.71,1.03s.62,1.13,.62,1.87c0,.65-.16,1.23-.49,1.72-.32,.49-.78,.88-1.36,1.15-.58,.27-1.26,.41-2.03,.41h-4.53Zm1.39-6.63h2.78c.7,0,1.25-.18,1.67-.55s.63-.86,.63-1.46-.21-1.1-.64-1.45-1.01-.53-1.75-.53h-2.7v4Zm0,5.39h2.84c.55,0,1.03-.09,1.44-.28s.73-.45,.96-.78c.23-.33,.35-.72,.35-1.16s-.11-.8-.33-1.12c-.22-.32-.53-.56-.93-.73s-.87-.26-1.4-.26h-2.93v4.33Z"/><path d="M286.15,185.23c-.98,.75-2.06,1.13-3.24,1.13-.82,0-1.56-.18-2.21-.55s-1.17-.87-1.55-1.51c-.38-.64-.56-1.35-.56-2.16s.17-1.46,.52-2.06c.35-.6,.83-1.08,1.43-1.43,.61-.35,1.29-.52,2.06-.52s1.49,.19,2.09,.57c.6,.38,1.07,.91,1.41,1.58,.34,.67,.51,1.46,.51,2.34v.25h-6.62c.09,.46,.28,.87,.57,1.21s.64,.61,1.07,.8,.91,.28,1.44,.28c.91,0,1.73-.3,2.48-.89l.6,.95Zm-6.21-3.46h5.44c-.06-.49-.21-.92-.46-1.29-.25-.37-.56-.65-.95-.86s-.82-.31-1.31-.31-.93,.1-1.32,.31-.71,.49-.96,.86c-.25,.37-.39,.79-.45,1.29Z"/><path d="M294.81,186.2h-1.12l-.09-1.04c-.29,.37-.66,.67-1.11,.88s-.95,.32-1.5,.32-1.08-.11-1.53-.34c-.45-.22-.8-.53-1.06-.92-.25-.39-.38-.83-.38-1.33,0-.52,.14-.98,.42-1.38,.28-.4,.65-.71,1.13-.94,.48-.23,1.02-.34,1.62-.34,.39,0,.8,.05,1.21,.15s.78,.23,1.1,.4v-.33c0-.42-.11-.78-.32-1.08s-.49-.53-.85-.69c-.35-.16-.74-.24-1.17-.24-.37,0-.75,.07-1.13,.2-.38,.13-.75,.34-1.11,.62l-.43-1.12c.46-.3,.94-.52,1.45-.67,.51-.15,1.01-.23,1.5-.23,.69,0,1.28,.14,1.78,.42,.5,.28,.88,.67,1.16,1.18,.27,.51,.41,1.11,.41,1.81v4.67Zm-3.58-1.03c.41,0,.78-.08,1.12-.25s.61-.41,.82-.73c.21-.32,.33-.7,.35-1.14v-.13c-.29-.23-.62-.4-.98-.53-.36-.12-.73-.19-1.1-.19-.58,0-1.07,.14-1.47,.43-.39,.28-.59,.65-.59,1.08,0,.27,.08,.52,.24,.74,.16,.22,.38,.4,.66,.52,.28,.13,.6,.19,.95,.19Z"/><path d="M301.45,186.01c-.52,.23-1.03,.35-1.53,.35s-.89-.1-1.25-.31c-.36-.21-.64-.5-.84-.88s-.3-.82-.3-1.32v-4.4h-1.38v-1.16h1.45v-1.98h1.23v1.98h2.36v1.16h-2.36v4.16c0,.47,.13,.86,.38,1.15s.59,.44,1.01,.44c.34,0,.67-.1,1.01-.3l.21,1.12Z"/><path d="M304.25,186.2h-1.3v-7.91h1.14l.05,1.57c.27-.54,.66-.97,1.16-1.27,.5-.3,1.07-.45,1.72-.45,.14,0,.29,0,.44,.02,.15,.02,.29,.04,.44,.07l-.16,1.17c-.29-.07-.58-.1-.86-.1-.52,0-.97,.13-1.37,.38-.4,.25-.71,.6-.93,1.04-.22,.44-.33,.95-.33,1.53v3.95Z"/><path d="M309.93,175.79c-.22,0-.41-.08-.56-.23-.15-.16-.23-.34-.23-.57s.08-.4,.23-.55,.34-.23,.56-.23,.42,.08,.57,.23c.15,.15,.23,.34,.23,.55s-.08,.41-.23,.57c-.15,.16-.34,.23-.57,.23Zm.65,10.41h-1.3v-7.91h1.3v7.91Z"/><path d="M319.5,186.2h-7.06v-.72l4.9-6.02h-4.66v-1.17h6.63v.62l-4.97,6.11h5.16v1.17Z"/></g></svg>