<svg xmlns="http://www.w3.org/2000/svg" width="350" height="219.08" viewBox="0 0 350 219.08">
  <g style="isolation: isolate">
    <g id="Calque_1" data-name="Calque 1">
      <rect width="350" height="219.08" style="fill: #fff;opacity: 0"/>
      <g>
        <g>
          <ellipse cx="175.43" cy="89.42" rx="17.3" ry="1.61" style="opacity: 0.14"/>
          <circle cx="185.91" cy="70.57" r="20.45" style="fill: #ead61f"/>
          <path d="M190.68,88.75c-12.66,0-22.92-9.83-22.92-22a21.14,21.14,0,0,1,1.73-8.37,20.42,20.42,0,0,0,27,29.6A23.92,23.92,0,0,1,190.68,88.75Z" style="opacity: 0.14"/>
          <polygon points="175.51 42.88 177.63 54.42 179.75 51.19 182.88 53.46 185 50.23 187.93 52.54 185.81 40.99 175.51 42.88" style="fill: #e2bf13"/>
          <circle cx="180.36" cy="40.66" r="5.07" style="fill: none;stroke: #e2bf13;stroke-miterlimit: 10"/>
          <g style="opacity: 0.68">
            <path d="M193,55.75c2,.75,4.62,2.5,4.35,5l-.09,0a14,14,0,0,1-1.91-2.67,9.06,9.06,0,0,0-2.4-2.25l0-.09Z" style="fill: #fff"/>
          </g>
        </g>
        <g>
          <ellipse cx="206.36" cy="97.5" rx="5.87" ry="14.1" transform="translate(101.14 300.04) rotate(-87.84)" style="opacity: 0.14"/>
          <circle cx="215.21" cy="82.04" r="20.45" style="fill: #aacc17"/>
          <path d="M216.61,100.66c-12.41-2.48-20.55-14.13-18.17-26a21.1,21.1,0,0,1,3.34-7.88,20.42,20.42,0,0,0,20.71,34.34A24.06,24.06,0,0,1,216.61,100.66Z" style="opacity: 0.14"/>
          <polygon points="237.8 62.94 227.64 68.81 231.4 69.72 230.31 73.44 234.07 74.35 232.88 77.88 243.04 72.01 237.8 62.94" style="fill: #e2bf13"/>
          <circle cx="241.52" cy="66.76" r="5.07" style="fill: none;stroke: #e2bf13;stroke-miterlimit: 10"/>
          <g style="opacity: 0.68">
            <path d="M218.74,65.15c1.81-.14,4.4,0,5.22,1.92l-.06.08a6.43,6.43,0,0,1-2.54-1.05,10.31,10.31,0,0,0-2.62-.85v-.1Z" style="fill: #fff"/>
          </g>
        </g>
      </g>
      <g>
        <ellipse cx="251.15" cy="131.37" rx="50.81" ry="8.1" style="opacity: 0.15"/>
        <path d="M329,112.16s-.51,4.6-2.56,7.13S293.23,134,250.67,134c-44.76,0-72.63-13.11-74.31-13.77s-4-8-4-8" style="fill: #efefef"/>
        <ellipse cx="250.67" cy="110.46" rx="78.31" ry="17.49" style="fill: #fff"/>
      </g>
      <g>
        <path d="M34.49,141.2s-1-57.7,3.57-64.34S80.45,60.23,92.19,61.4s92.43,13.42,96,19c2.77,4.36,3.39,36.82,3.53,51.21a10.13,10.13,0,0,1-6.23,9.46c-14.05,5.87-47,19.5-49.38,19.5C133,160.6,38.32,145,34.49,141.2Z" style="fill: #a81d2e"/>
        <path d="M136.11,101.08,36.57,81.84c-2.86,15.58-2.08,59.58-2.08,59.58,3.83,3.83,98.55,19.4,101.62,19.4Z" style="opacity: 0.24"/>
        <path d="M34.39,128v6.63l101.72,26a32.33,32.33,0,0,1-22.39,2.62c-12.76-3.06-93-18.38-92.53-22S34.39,128,34.39,128Z" style="opacity: 0.18"/>
        <path d="M187.65,80c-12.32,1.62-48.25,7.1-52.06,16.39-2.67,6.53-1.37,38.58.18,64.29l.34,0c2.42,0,36-13.9,49.79-19.67a9.5,9.5,0,0,0,5.83-8.84c-.13-14.16-.74-47.26-3.54-51.66A2.09,2.09,0,0,0,187.65,80Z" style="fill: #9e3b4c"/>
        <polyline points="149.89 110.95 149.89 116.18 154.49 116.18 152.19 108.66" style="fill: #439b7e"/>
        <polygon points="152.04 134.48 147.74 138.79 152.04 138.79 152.04 134.48" style="fill: #439b7e"/>
        <polygon points="167.25 93.2 167.25 99.02 172.36 96.11 167.25 93.2" style="fill: #439b7e"/>
        <path d="M175.42,124.86a29.15,29.15,0,0,1,.52,5.11l6-2Z" style="fill: #439b7e"/>
        <polygon points="178.68 105.97 178.68 112.42 181.94 112.42 178.68 105.97" style="fill: #439b7e"/>
        <path d="M181.94,106" style="fill: #439b7e"/>
        <circle cx="151.21" cy="97.69" r="1.32"/>
        <circle cx="169.25" cy="136.48" r="2"/>
        <circle cx="168.87" cy="107.58" r="1.61"/>
        <circle cx="182.55" cy="95.45" r="2.25"/>
        <circle cx="150.55" cy="125.52" r="0.66"/>
        <circle cx="146.52" cy="147.26" r="1.22"/>
        <circle cx="144.38" cy="108.11" r="2.14"/>
        <circle cx="164.75" cy="118.03" r="1.86"/>
        <polygon points="139.17 121.33 139.17 127.95 142.23 124.86 139.17 121.33" style="fill: #cc5f06"/>
        <path d="M163.82,130.89" style="fill: #cc5f06"/>
        <polygon points="184.8 119.89 184.8 124.64 188.19 124.64 184.8 119.89" style="fill: #cc5f06"/>
        <polygon points="183.79 102.8 184.8 105.35 186.5 104.07 185.22 102.8 183.79 102.8" style="fill: #cc5f06"/>
        <polygon points="166.6 127.95 164.75 129.01 162.89 125.52 166.6 127.95" style="fill: #cc5f06"/>
        <polygon points="157.06 144.33 157.06 147.26 160.13 146.04 159.28 144.33 157.06 144.33" style="fill: #cc5f06"/>
        <polygon points="161.32 89.35 161.32 92.58 162.94 90.97 161.32 89.35" style="fill: #cc5f06"/>
      </g>
      <g>
        <path d="M53.05,155s9.75,2,10.32,7-1.74,11.07-1.74,11.07,5.84-9.69,9.57-8.8,6.19,11.3,4.93,14.56c8.87-14.79,2.41-13.72,8.06-13.09s4.56,14.68,4.56,14.68,4.12-19.75,9.12-14.67,1.73,17.49,1.73,17.49,4.74-18,9.68-17.08,27.07,4.35,27.07,4.35l-.82-2.33-28.11-5.59s-7.6-13.94-4-18.14c-6.83,7.73-5,11.12-8,10.15s-6.11-9.92-6.11-9.92.09,8.82-2.44,7.9-7.1-8.16-7.1-8.16,2.27,6.44-1,7-9.91-11-9.91-11-.38,5.77-3.59,7.5S53.05,155,53.05,155Z" style="fill: #3e5500"/>
        <path d="M74.93,136.86s7.07,4.23,6.13,8.32-4.39,8.17-4.39,8.17,7.22-6,9.89-4.25,1.74,10.51-.14,12.71c11-9.11,5.64-10.05,9.88-8s-.46,12.72-.46,12.72,8.62-14.3,11.14-9-3.44,14.14-3.44,14.14S112.17,159,115.78,161s19.95,10.81,19.95,10.81v-2L115.31,157.7s-2.12-13,1.88-15.25c-7.45,4.17-7,7.31-9,5.74s-2-9.42-2-9.42-2.35,6.91-4.08,5.5-3.3-8.32-3.3-8.32,0,5.65-2.67,5.19-4.72-11.3-4.72-11.3-1.88,4.39-4.86,4.87S74.93,136.86,74.93,136.86Z" style="fill: #3e5500"/>
        <path d="M87.46,180.36s5.71-1.57,5.89-4.54A16.4,16.4,0,0,0,92,169.41s3.76,5.44,6,4.77,3.31-6.87,2.45-8.73c5.72,8.3,1.86,7.93,5.19,7.34S107.8,164,107.8,164s3.06,11.4,5.86,8.22.48-10.31.48-10.31,3.37,10.32,6.26,9.6,15.9-3.65,15.9-3.65l-.41,1.4-16.48,4.42s-4.06,8.47-1.76,10.78c-4.29-4.24-3.34-6.3-5.06-5.61s-3.3,6.05-3.3,6.05-.23-5.16-1.7-4.52-3.94,5.07-3.94,5.07,1.14-3.87-.79-4-5.52,6.84-5.52,6.84S96.93,184.88,95,184,87.46,180.36,87.46,180.36Z" style="fill: #3e5500"/>
        <circle cx="134.94" cy="168.73" r="3.48" style="fill: #f70618"/>
        <circle cx="127.6" cy="169.08" r="3.48" style="fill: #f70618"/>
        <circle cx="128.79" cy="173.51" r="3.48" style="fill: #f70618"/>
      </g>
      <g style="opacity: 0.11">
        <path d="M53.05,164.9s9.75,1.39,10.32,4.9-1.74,7.73-1.74,7.73,5.84-6.77,9.57-6.14,6.19,7.89,4.93,10.16c8.87-10.32,2.41-9.58,8.06-9.14s4.56,10.25,4.56,10.25,4.12-13.79,9.12-10.24,1.73,12.21,1.73,12.21,4.74-12.54,9.68-11.92,27.07,3,27.07,3l-.82-1.62-28.11-3.91s-7.6-9.73-4-12.66c-6.83,5.4-5,7.76-8,7.08s-6.11-6.92-6.11-6.92.09,6.16-2.44,5.52-7.1-5.7-7.1-5.7,2.27,4.5-1,4.87S69,154.72,69,154.72s-.38,4-3.59,5.24S53.05,164.9,53.05,164.9Z"/>
        <path d="M74.93,152.24c18.07-1,16.35,2.45,6.13,5.81-2.85.94-4.39,5.7-4.39,5.7s7.22-4.17,9.89-3,1.74,7.34-.14,8.87c11-6.36,5.64-7,9.88-5.59s-.46,8.88-.46,8.88,8.62-10,11.14-6.26-3.44,9.87-3.44,9.87,8.63-8.89,12.24-7.46,19.95,7.54,19.95,7.54v-1.42l-20.42-8.43s-2.12-9,1.88-10.64c-7.45,2.91-7,5.1-9,4s-2-6.57-2-6.57-2.35,4.82-4.08,3.84-3.3-5.81-3.3-5.81,0,3.95-2.67,3.62-4.72-7.89-4.72-7.89-1.88,3.07-4.86,3.4S74.93,152.24,74.93,152.24Z"/>
        <path d="M87.46,182.61s5.71-1.09,5.89-3.17A8.71,8.71,0,0,0,92,175s3.76,3.8,6,3.32,3.31-4.79,2.45-6.09c5.72,5.79,1.86,5.54,5.19,5.12s2.24-6.13,2.24-6.13,3.06,8,5.86,5.74.48-7.2.48-7.2,3.37,7.21,6.26,6.71,15.9-2.55,15.9-2.55l-.41,1L119.41,178s-4.06,5.91-1.76,7.53c-4.29-3-3.34-4.41-5.06-3.93s-3.3,4.23-3.3,4.23-.23-3.6-1.7-3.16-3.94,3.54-3.94,3.54,1.14-2.7-.79-2.82-5.52,4.77-5.52,4.77a4,4,0,0,0-2.37-3C93,184.53,87.46,182.61,87.46,182.61Z"/>
        <ellipse cx="134.94" cy="174.49" rx="3.48" ry="2.43"/>
        <ellipse cx="127.6" cy="174.73" rx="3.48" ry="2.43"/>
        <ellipse cx="128.79" cy="177.83" rx="3.48" ry="2.43"/>
      </g>
      <path d="M163.07,158.44c0,1.47,10,5.18,16.05,4.72s9.07-3.13,9.07-6-6.28-5.12-9.88-4.89S163.07,155.92,163.07,158.44Z" style="fill: #cea67a"/>
      <path d="M182.55,162.46c0,1.12,9.46,3.95,15.18,3.6s8.58-2.39,8.58-4.61-5.94-3.91-9.35-3.73S182.55,160.54,182.55,162.46Z" style="fill: #cea67a"/>
      <path d="M231.06,174.64c.1-1.11-9.07-4.77-14.79-4.92s-8.76,1.63-9,3.84,5.57,4.41,9,4.54S230.9,176.56,231.06,174.64Z" style="fill: #cea67a"/>
      <path d="M162.32,168.39c-.12-1.12-9.83-2.93-15.48-2s-8.27,3.29-8,5.49,6.32,3.26,9.69,2.73S162.52,170.3,162.32,168.39Z" style="fill: #cea67a"/>
      <g style="mix-blend-mode: multiply;opacity: 0.11">
        <path d="M162.07,161.88c0,1.36,10,4.79,16.05,4.37s9.07-2.9,9.07-5.6-6.28-4.74-9.88-4.53S162.07,159.54,162.07,161.88Z" style="fill: #020202"/>
        <path d="M181.55,165.6c0,1,9.46,3.67,15.18,3.34s8.58-2.21,8.58-4.27-5.94-3.63-9.35-3.46S181.55,163.82,181.55,165.6Z" style="fill: #020202"/>
        <path d="M230.06,176.9c.1-1-9.07-4.43-14.79-4.57s-8.76,1.51-9,3.56,5.57,4.09,9,4.21S229.89,178.67,230.06,176.9Z" style="fill: #020202"/>
        <path d="M161.32,171.1c-.12-1-9.83-2.72-15.48-1.84s-8.27,3.05-8,5.1,6.32,3,9.69,2.52S161.52,172.87,161.32,171.1Z" style="fill: #020202"/>
      </g>
      <circle cx="298.23" cy="153.28" r="0.89" style="fill: #fff"/>
      <circle cx="281.17" cy="162.01" r="1.19" style="fill: #fff"/>
      <ellipse cx="284.49" cy="153.2" rx="3.32" ry="0.98" style="fill: #fff"/>
      <circle cx="308.16" cy="161.29" r="0.61" style="fill: #fff"/>
      <circle cx="321.3" cy="146.79" r="0.47" style="fill: #fff"/>
      <circle cx="316.98" cy="170.45" r="0.75" style="fill: #fff"/>
      <circle cx="250.91" cy="166.33" r="0.24" style="fill: #fff"/>
      <ellipse cx="282.83" cy="170.83" rx="1.66" ry="0.37" style="fill: #fff"/>
      <circle cx="219.31" cy="166.45" r="0.12" style="fill: #fff"/>
      <ellipse cx="239.38" cy="167.9" rx="4.85" ry="1.81" style="fill: #fff"/>
      <circle cx="245.33" cy="177" r="1.1" style="fill: #fff"/>
      <circle cx="273.83" cy="174.91" r="1" style="fill: #fff"/>
      <path d="M207.31,152.39h0Z" style="fill: #fff"/>
      <circle cx="220.08" cy="153.28" r="0.89" style="fill: #fff"/>
      <path d="M219.43,164.13h0Z" style="fill: #fff"/>
      <path d="M202.36,143.48h0Z" style="fill: #fff"/>
      <circle cx="198.18" cy="154.42" r="1.14" style="fill: #fff"/>
      <ellipse cx="247.45" cy="153.85" rx="3.22" ry="0.57" style="fill: #fff"/>
      <g>
        <path d="M284.18,96.94c-14.13.76-22.92,4.09-28.6,8.81s-.88,10.69,3.95,12.27,25.91,3.14,33.15,1.57,15.83-4.41,17-9.28,2.77-6.77-2.89-9S291.44,96.55,284.18,96.94Z" style="fill: #f4e2ae"/>
        <path d="M294.13,118.1c-7.24,1.88-28.32,0-33.15-1.89-3.62-1.41-7.22-5.79-6.41-10.27-3.63,5.36.76,11.5,5.18,13.22,4.83,1.89,25.91,3.78,33.14,1.89s15.84-5.28,17-11.12a2,2,0,0,0,.05-.24C307.13,113.9,300.16,116.52,294.13,118.1Z" style="opacity: 0.18"/>
        <path d="M270.64,102.29c3.24,1,6.73.3,10.1-.09a49.34,49.34,0,0,1,20.76,2.1,3.78,3.78,0,0,1-2.86,2.61,28.28,28.28,0,0,0-2.92.26,10.08,10.08,0,0,0-2.05,1.14,13.55,13.55,0,0,1-6.11,1.42A121,121,0,0,1,266,109.2,2.39,2.39,0,0,1,265,109a1.81,1.81,0,0,1-.84-1.27,4,4,0,0,1,1.85-3.91,11.93,11.93,0,0,1,4.26-1.6" style="fill: #cc0f0a"/>
        <polygon points="272.03 106.86 271.49 106.34 270.2 106.25 271.16 105.85 270.98 105.27 272.12 105.54 273.29 105.27 273.03 105.85 273.94 106.26 272.65 106.34 272.03 106.86" style="fill: #3e5500"/>
        <polygon points="276.82 106.21 276.27 105.68 274.99 105.59 275.95 105.19 275.76 104.61 276.9 104.89 278.08 104.61 277.82 105.19 278.73 105.6 277.43 105.68 276.82 106.21" style="fill: #3e5500"/>
        <polygon points="273.53 106.64 272.98 106.11 271.69 106.03 272.66 105.62 272.47 105.04 273.61 105.32 274.79 105.05 274.53 105.62 275.44 106.03 274.14 106.11 273.53 106.64" style="fill: #3e5500"/>
        <polygon points="276.92 107.85 276.38 107.32 275.09 107.24 276.05 106.83 275.87 106.25 277 106.53 278.18 106.26 277.92 106.83 278.83 107.24 277.53 107.33 276.92 107.85" style="fill: #3e5500"/>
        <polygon points="286.85 105.41 286.3 104.88 285.01 104.8 285.97 104.39 285.79 103.81 286.93 104.09 288.1 103.82 287.85 104.39 288.75 104.8 287.46 104.89 286.85 105.41" style="fill: #3e5500"/>
        <polygon points="289.86 106.62 289.31 106.09 288.02 106 288.99 105.6 288.8 105.02 289.94 105.3 291.12 105.03 290.86 105.6 291.77 106.01 290.47 106.09 289.86 106.62" style="fill: #3e5500"/>
        <polygon points="282.51 106.86 281.96 106.34 280.67 106.25 281.63 105.85 281.45 105.27 282.59 105.54 283.76 105.27 283.51 105.85 284.42 106.26 283.12 106.34 282.51 106.86" style="fill: #3e5500"/>
        <polygon points="287.39 107.85 286.85 107.32 285.56 107.24 286.52 106.83 286.34 106.25 287.48 106.53 288.65 106.26 288.4 106.83 289.31 107.24 288.01 107.33 287.39 107.85" style="fill: #3e5500"/>
      </g>
      <g>
        <path d="M227.18,91.94c-14.14.76-22.93,4.09-28.61,8.81s-.87,10.69,4,12.26,25.91,3.15,33.14,1.58,15.84-4.41,17-9.28,2.78-6.77-2.88-9S234.44,91.55,227.18,91.94Z" style="fill: #f4e2ae"/>
        <path d="M237.12,113.1c-7.23,1.88-28.31,0-33.14-1.89-3.62-1.41-7.23-5.79-6.42-10.27-3.62,5.36.77,11.5,5.19,13.22,4.83,1.89,25.91,3.77,33.14,1.89s15.83-5.28,17-11.12c0-.08,0-.16,0-.24C250.12,108.9,243.15,111.52,237.12,113.1Z" style="opacity: 0.18"/>
        <path d="M213.64,97.29c3.23,1,6.73.3,10.1-.09a49.29,49.29,0,0,1,20.75,2.1,3.75,3.75,0,0,1-2.86,2.61,28.08,28.08,0,0,0-2.91.26,10.08,10.08,0,0,0-2.05,1.14,13.71,13.71,0,0,1-6.11,1.42A121,121,0,0,1,209,104.2,2.34,2.34,0,0,1,208,104a1.76,1.76,0,0,1-.84-1.27A4.06,4.06,0,0,1,209,98.8a12.07,12.07,0,0,1,4.26-1.6" style="fill: #cc0f0a"/>
        <polygon points="215.03 101.86 214.49 101.34 213.2 101.25 214.16 100.85 213.97 100.27 215.11 100.54 216.29 100.27 216.03 100.85 216.94 101.26 215.64 101.34 215.03 101.86" style="fill: #3e5500"/>
        <polygon points="219.82 101.21 219.27 100.68 217.98 100.59 218.94 100.19 218.76 99.61 219.9 99.88 221.07 99.61 220.82 100.19 221.73 100.6 220.43 100.68 219.82 101.21" style="fill: #3e5500"/>
        <polygon points="216.53 101.64 215.98 101.11 214.69 101.03 215.65 100.62 215.47 100.04 216.61 100.32 217.78 100.05 217.53 100.62 218.44 101.03 217.14 101.11 216.53 101.64" style="fill: #3e5500"/>
        <polygon points="219.92 102.85 219.37 102.32 218.08 102.24 219.05 101.83 218.86 101.25 220 101.53 221.18 101.26 220.92 101.83 221.83 102.24 220.53 102.33 219.92 102.85" style="fill: #3e5500"/>
        <polygon points="229.84 100.41 229.29 99.88 228.01 99.8 228.97 99.39 228.78 98.81 229.92 99.09 231.1 98.82 230.84 99.39 231.75 99.8 230.45 99.88 229.84 100.41" style="fill: #3e5500"/>
        <polygon points="232.86 101.62 232.31 101.09 231.02 101 231.98 100.6 231.8 100.02 232.94 100.3 234.11 100.02 233.86 100.6 234.77 101.01 233.47 101.09 232.86 101.62" style="fill: #3e5500"/>
        <polygon points="225.5 101.86 224.96 101.34 223.67 101.25 224.63 100.85 224.45 100.27 225.59 100.54 226.76 100.27 226.5 100.85 227.41 101.26 226.12 101.34 225.5 101.86" style="fill: #3e5500"/>
        <polygon points="230.39 102.85 229.85 102.32 228.56 102.24 229.52 101.83 229.34 101.25 230.47 101.53 231.65 101.26 231.39 101.83 232.3 102.24 231 102.33 230.39 102.85" style="fill: #3e5500"/>
      </g>
      <g>
        <path d="M243.18,98.94c-14.13.76-22.93,4.09-28.61,8.81s-.87,10.69,4,12.27,25.91,3.14,33.14,1.57,15.84-4.41,17-9.28,2.78-6.77-2.88-9S250.44,98.55,243.18,98.94Z" style="fill: #f4e2ae"/>
        <path d="M253.12,120.1c-7.23,1.88-28.31,0-33.14-1.89-3.62-1.41-7.22-5.79-6.42-10.27-3.62,5.36.77,11.5,5.19,13.22,4.83,1.89,25.91,3.78,33.14,1.89s15.83-5.28,17-11.12c0-.08,0-.16.05-.24C266.12,115.9,259.15,118.52,253.12,120.1Z" style="opacity: 0.18"/>
        <path d="M229.64,104.29c3.24,1,6.73.3,10.1-.09a49.29,49.29,0,0,1,20.75,2.1,3.75,3.75,0,0,1-2.85,2.61,28,28,0,0,0-2.92.26,10.08,10.08,0,0,0-2.05,1.14,13.55,13.55,0,0,1-6.11,1.42A121,121,0,0,1,225,111.2,2.39,2.39,0,0,1,224,111a1.76,1.76,0,0,1-.84-1.27A4.06,4.06,0,0,1,225,105.8a12,12,0,0,1,4.27-1.6" style="fill: #cc0f0a"/>
        <polygon points="231.03 108.86 230.49 108.34 229.2 108.25 230.16 107.85 229.97 107.27 231.12 107.54 232.29 107.27 232.03 107.85 232.94 108.26 231.64 108.34 231.03 108.86" style="fill: #3e5500"/>
        <polygon points="235.82 108.21 235.27 107.68 233.98 107.59 234.94 107.19 234.76 106.61 235.9 106.89 237.07 106.61 236.82 107.19 237.73 107.6 236.43 107.68 235.82 108.21" style="fill: #3e5500"/>
        <polygon points="232.53 108.64 231.98 108.11 230.69 108.03 231.65 107.62 231.47 107.04 232.61 107.32 233.78 107.05 233.53 107.62 234.44 108.03 233.14 108.11 232.53 108.64" style="fill: #3e5500"/>
        <polygon points="235.92 109.85 235.37 109.32 234.09 109.24 235.05 108.83 234.86 108.25 236 108.53 237.18 108.26 236.92 108.83 237.83 109.24 236.53 109.33 235.92 109.85" style="fill: #3e5500"/>
        <polygon points="245.84 107.41 245.3 106.88 244.01 106.8 244.97 106.39 244.78 105.81 245.93 106.09 247.1 105.82 246.84 106.39 247.75 106.8 246.45 106.89 245.84 107.41" style="fill: #3e5500"/>
        <polygon points="248.86 108.62 248.31 108.09 247.02 108 247.99 107.6 247.8 107.02 248.94 107.3 250.12 107.03 249.86 107.6 250.77 108.01 249.47 108.09 248.86 108.62" style="fill: #3e5500"/>
        <polygon points="241.5 108.86 240.96 108.34 239.67 108.25 240.63 107.85 240.45 107.27 241.59 107.54 242.76 107.27 242.5 107.85 243.42 108.26 242.12 108.34 241.5 108.86" style="fill: #3e5500"/>
        <polygon points="246.39 109.85 245.85 109.32 244.56 109.24 245.52 108.83 245.34 108.25 246.48 108.53 247.65 108.26 247.39 108.83 248.3 109.24 247 109.33 246.39 109.85" style="fill: #3e5500"/>
      </g>
      <path d="M163.07,81.84S105.36,66,66.11,65.23c-1.37.28,91,20.42,91,20.42Z" style="fill: #ed8f14;opacity: 0.25"/>
      <circle cx="221.55" cy="143.18" r="3.48" style="fill: #f70618"/>
      <rect x="213.55" y="125.18" width="33.47" height="33.47" style="fill: #fff;fill-opacity: 0"/>
    </g>
  </g>
</svg>
