<svg xmlns="http://www.w3.org/2000/svg" width="80" height="80" viewBox="0 0 80 80">
  <path d="M40,0A40,40,0,1,0,80,40,40,40,0,0,0,40,0ZM52.93,52.19l-3.34.22-.33-5.13L41.67,42.9v8.76L46,54.51l-1.86,2.78L40,54.56l-4.09,2.73-1.86-2.78,4.28-2.85V42.9l-7.59,4.38-.33,5.13-3.34-.22.32-4.91L23,45.1l1.48-3,4.61,2.28L36.65,40l-7.58-4.38L24.46,37.9,23,34.9l4.41-2.18-.32-4.91,3.34-.22.33,5.13,7.59,4.38V28.34l-4.28-2.85,1.86-2.78L40,25.44l4.09-2.73L46,25.49l-4.28,2.85V37.1l7.59-4.38.33-5.13,3.34.22-.32,4.91L57,34.9l-1.48,3-4.61-2.28L43.35,40l7.58,4.38,4.61-2.28,1.48,3-4.41,2.18Z" transform="translate(0 0)" style="fill: #fff; opacity: 0.6"/>
</svg>
