<?xml version="1.0" encoding="UTF-8"?><svg id="a" xmlns="http://www.w3.org/2000/svg" width="1200" height="630" viewBox="0 0 1200 630"><rect width="1200" height="630" style="fill:#b9e4af;"/><g><g><g><path d="M282.97,77.92h-79.67l2.5-22.13c0-6.11,9.22-15.35,15.32-15.35h43.99c6.13,0,15.35,9.25,15.35,15.35l2.5,22.13Z" style="fill:#086e84;"/><path d="M183.91,77.92h118.43c3.74,0,6.77,3.03,6.77,6.77h0c0,3.74-3.03,6.77-6.77,6.77h-118.43c-3.74,0-6.77-3.03-6.77-6.77h0c0-3.74,3.03-6.77,6.77-6.77Z" style="fill:#086e84;"/><path d="M297.72,91.47h-109.15s-10.09,40.04,1.37,68.27c29.74,.9,53.21,0,53.21,0,0,0,23.46,.9,53.21,0,11.46-28.2,1.37-68.27,1.37-68.27Z" style="fill:#ecdcc7;"/><path d="M309.11,216.96H175.28s-3.49-20.96-3.49-28.41c0-11.05,3.49-28.41,3.49-28.41h133.84s5.35,14.51,5.35,28.41-5.35,28.41-5.35,28.41Z" style="fill:#c62819;"/><circle cx="243.14" cy="134.91" r="5.29" style="fill:#c62819;"/><g><g><circle cx="224.15" cy="118.19" r="5.73" style="fill:#1d1d1b; stroke:#000; stroke-miterlimit:10; stroke-width:2.91px;"/><circle cx="265.5" cy="118.19" r="5.73" style="fill:#1d1d1b; stroke:#000; stroke-miterlimit:10; stroke-width:2.91px;"/></g><path d="M256.83,105.28s16.92-10.67,26.08,0" style="fill:#1d1d1b; stroke:#000; stroke-miterlimit:10; stroke-width:2.91px;"/><path d="M229.45,102.92s-16.92-10.67-26.08,0" style="fill:#1d1d1b; stroke:#000; stroke-miterlimit:10; stroke-width:2.91px;"/></g><path d="M298.47,216.96h-110.66s-29.54,95.8-13.81,175.12h138.28c15.73-79.29-13.81-175.12-13.81-175.12Z" style="fill:#086e84;"/><path d="M170.54,367.66c.76,8.23,1.86,16.4,3.46,24.42h138.28c1.6-8,2.7-16.2,3.46-24.42H170.54Z" style="fill:#c62819;"/><path d="M216.57,225.36c-1.51,40.82-8.64,81.21-9.68,122.06h-.29c-.26-20.44,1.1-40.85,2.56-61.23,1.54-20.18,2.85-41.58,7.44-60.83h-.03Z"/><path d="M270.62,225.33c3.84,20.12,5.87,40.44,7.15,60.86,1.45,20.38,2.79,40.79,2.56,61.23h-.29c-.76-40.68-8.78-81.94-9.42-122.09h0Z"/><path d="M243.29,225.33c2.79,40.65,.32,81.38,0,122.06h-.29c-.41-20.35-.76-40.68-1.02-61.03-.23-20.15-1.08-41.46,1.31-61.03h0Z"/><path d="M242.15,171.86c1.45,5.09,2.65,10.23,3.52,15.47,1.1,5.23,1.6,10.58,.2,15.88h-.29c-1.74-5.12-2.09-10.26-2.21-15.58-.35-5.23-.84-10.47-1.48-15.7l.29-.06h-.03Z"/><path d="M228.05,187.88c6.13-2.44,12.59-4.16,19.16-5.12,6.57-1.19,13.43-1.28,19.8,.99v.29c-6.63,.9-12.97,.84-19.57,1.05-6.48,.44-12.97,1.45-19.34,3.08l-.09-.29h.03Z"/><path d="M229.62,195.7c6.05-.96,12.1-2.24,18.2-2.67,2.04,.03,4.1,.2,6.19,.84v.29c-3.87,1.86-7.91,2.12-12.1,1.92-4.07,.06-8.17,0-12.27-.09v-.29h-.03Z"/><path d="M277.65,227.95c13.32,0,20.79,2.06,25.01,4.42-2.41-9.74-4.19-15.41-4.19-15.41h-110.66s-26.58,86.21-15.88,162.77l.06,.35c.26,1.86,.55,3.72,.84,5.55l.17,.96c.32,1.83,.64,3.66,1.02,5.5h37.33c-16.37-42.28-11.89-120.66-3.2-140.2s39.11-23.9,69.52-23.9l-.03-.03Z" style="isolation:isolate; opacity:.24;"/><path d="M243.14,201.72c-29.22-.84-52.83-7.01-71.29-14.83,0,.61-.03,1.22-.03,1.77,0,7.44,3.49,28.41,3.49,28.41h133.81s4.74-12.82,5.29-25.91c-21.17,6.72-45.36,11.28-71.26,10.53v.03Z" style="isolation:isolate; opacity:.24;"/><path d="M245.96,84.31c-32.54,.03-54.14-.81-68.47-1.95-.17,.61-.32,1.28-.32,1.95h0c0,3.75,3.02,6.77,6.77,6.77h118.4c3.75,0,6.77-3.02,6.77-6.77h0c0-.76-.15-1.48-.38-2.15-16.78,1.25-37.54,2.12-62.8,2.15h.03Z" style="isolation:isolate; opacity:.24;"/><path d="M217.99,58.61c-.58-6.25,2.04-13.32,4.36-18.17h-1.19c-6.11,0-15.35,9.25-15.35,15.35l-2.5,22.13h34.83c-9.39-5.87-19.6-13.52-20.15-19.28v-.03Z" style="isolation:isolate; opacity:.24;"/><path d="M232.03,99.78h67.43c-.9-5.38-1.74-8.69-1.74-8.69h-109.15s-10.09,40.04,1.37,68.27c13.64,.41,17.27,.47,26.6,.38-4.04-5.61-6.22-14.31-6.22-29.51,0-28.32,21.72-30.41,21.72-30.41v-.03Z" style="isolation:isolate; opacity:.16;"/><path d="M300.36,219.57c-1.16-1.69-1.89-2.65-1.89-2.65h-110.66s-.73,.93-1.89,2.65h114.44Z" style="isolation:isolate; opacity:.24;"/><path d="M267.16,45.18s8.84,4.36,9.71,12.59c-8.58-2.62-9.71-12.59-9.71-12.59Z" style="fill:#fff; isolation:isolate; opacity:.15;"/></g><g><path d="M255.03,582.61c-4.22,0-8.75-1.42-13.64-4.3-4.88-2.88-8.49-5.93-10.79-9.19-2.5-3.63-3.72-7.39-3.72-11.19,0-4.59,1.34-7.94,4.01-10.06-.2-.58-.29-1.16-.29-1.72v-1.72c0-1.54,.17-3.17,.58-4.88,.38-1.72,.96-3.26,1.72-4.59l1.16-2.01c-7.09,3.63-13.84,6.16-20.27,7.62-6.43,1.42-12.42,2.15-17.97,2.15-11.48,0-21.78-1.86-30.88-5.61-9.1-3.72-16.28-9.54-21.55-17.39-5.26-7.85-7.91-17.91-7.91-30.15,0-9.57,1.92-18.35,5.76-26.28,3.84-7.94,8.72-14.89,14.65-20.82,.96-1.54,1.57-3.2,1.86-5.03,.29-1.8,.44-3.4,.44-4.74,0-3.26-.87-6.28-2.59-9.04-1.72-2.76-3.63-3.87-5.76-3.31-.2,0-.35,.06-.44,.15s-.23,.15-.44,.15c-.96,0-1.42-.38-1.42-1.16,0-1.34,.87-2.38,2.59-3.17,1.92-1.34,3.93-2.01,6.02-2.01,2.67,0,4.88,1.19,6.6,3.61,1.72,2.38,2.59,5.5,2.59,9.33-.38,3.26-1.25,6.31-2.59,9.19,8.05-6.51,16.75-11.48,26.14-14.94,9.39-3.46,17.91-5.18,25.56-5.18,13.2,0,22.8,3.4,28.73,10.21s8.9,14.51,8.9,23.12c0,6.89-2.15,13.75-6.45,20.53-4.3,6.8-10.06,12.42-17.24,16.81-7.18,4.42-14.97,6.6-23.41,6.6-4.97,0-9.97-.87-14.94-2.59-.2-.17-.38-.29-.58-.29s-.38-.09-.58-.29c-3.05-.96-5.9-3.05-8.46-6.31-2.59-3.26-3.87-7.47-3.87-12.65,0-4.59,1.02-9.54,3.02-14.8s4.74-8.58,8.2-9.91c1.16-.38,1.92-.58,2.3-.58,.76,0,1.4,.15,1.86,.44,.47,.29,.81,.52,1.02,.73-2.12,.96-3.17,2.88-3.17,5.76,0,1.54,.44,3.2,1.28,5.03,.87,1.83,1.77,3.2,2.73,4.16,1.34,1.34,2.73,2.88,4.16,4.59s2.62,4.13,3.58,7.18c.17,.76,.32,1.48,.44,2.15,.09,.67,.15,1.4,.15,2.15,0,2.3-.49,4.51-1.42,6.6-.96,2.12-2.5,3.72-4.59,4.88,1.16,.2,2.24,.35,3.31,.44,1.05,.09,2.15,.15,3.31,.15,7.65,0,14.65-2.09,20.96-6.31,6.31-4.22,11.46-9.48,15.38-15.79,3.93-6.31,5.9-12.65,5.9-18.96,0-7.65-2.15-14.31-6.45-19.97-4.3-5.64-12.3-8.46-23.99-8.46-10.35,0-19.68,2.15-28,6.45-8.32,4.3-15.56,10-21.69,17.1-6.13,7.09-10.82,14.89-14.07,23.41-3.26,8.52-4.88,16.89-4.88,25.15s1.69,15.18,5.03,21.98,8.61,12.3,15.79,16.51,16.51,6.43,28,6.6c-3.05-.96-5.61-2.44-7.62-4.45-2.01-2.01-3.02-4.27-3.02-6.75,0-2.67,.9-4.59,2.73-5.76,1.83-1.16,3.61-1.72,5.32-1.72,1.16,0,1.92,.23,2.3,.73,.38,.47-.09,1.1-1.42,1.86s-2.01,2.21-2.01,4.3c0,1.92,.58,3.72,1.72,5.47,.76,1.34,2.06,2.62,3.87,3.87,1.83,1.25,4.07,1.86,6.75,1.86h.58c9.19,0,18.49-2.21,27.85-6.6,9.39-4.42,18.75-10.23,28.15-17.53,9.39-7.27,18.67-15.32,27.85-24.13,9.19-8.81,18.09-17.71,26.72-26.72-1.92,.58-4.22,.87-6.89,.87v.29c-2.12,3.63-6.02,5.47-11.78,5.47-3.46,0-7.01-.96-10.64-2.88-3.84-2.09-7.53-5.76-11.05-10.9-3.55-5.18-5.32-9.94-5.32-14.36,0-.58,.06-1.19,.15-1.86s.23-1.28,.44-1.86c.58-1.72,1.25-2.82,2.01-3.31,.76-.47,1.34-.73,1.72-.73-.76,3.46,.52,5.99,3.87,7.62s6.28,2.44,8.75,2.44c.58,0,1.19-.06,1.86-.15s1.28-.15,1.86-.15c1.54,0,3.2,.15,5.03,.44,1.83,.29,3.78,.9,5.9,1.86,2.67,1.34,4.94,3.4,6.75,6.16,1.8,2.79,2.44,5.7,1.86,8.75,4.39,0,8.43-1.42,12.07-4.3,9.57-10.15,18.72-20.06,27.45-29.74s16.6-18.14,23.7-25.41c7.27-7.65,15.24-15.41,23.84-23.26s17.82-14.65,27.56-20.38c-3.63-2.09-7.01-4.07-10.06-5.9-3.05-1.83-5.55-3.2-7.47-4.16-5.18-2.88-12.15-5.99-20.96-9.33-8.81-3.34-18.29-6.22-28.44-8.61-10.15-2.38-19.92-3.61-29.31-3.61-13.4,0-24.74,2.94-34.05,8.75-9.3,5.84-16.28,13.17-20.96,21.98s-7.04,17.82-7.04,27.01c0,7.27,1.57,14.19,4.74,20.67,3.17,6.51,7.94,11.75,14.36,15.64,6.43,3.93,14.42,5.9,23.99,5.9h2.73c.87,0,1.69-.09,2.44-.29,1.92-.96,3.49-2.36,4.74-4.16s2.06-3.4,2.44-4.74c.38-1.54,.58-2.88,.58-4.01,0-1.34-.23-2.59-.73-3.72-.49-1.16-1.19-1.8-2.15-2.01-.76-.17-1.16-.58-1.16-1.16,0-1.16,1.34-1.72,4.01-1.72,2.47,0,4.36,.73,5.61,2.15,1.25,1.42,1.86,3.2,1.86,5.32,0,2.3-.67,4.51-2.01,6.6-2.12,3.26-5.09,5.64-8.9,7.18,8.81-1.34,16.2-4.01,22.13-8.05,5.93-4.01,10.38-8.72,13.35-14.07,2.97-5.35,4.45-10.64,4.45-15.79,0-6.69-2.01-13.2-6.02-19.54-4.01-6.31-10.44-10.06-19.25-11.19h-2.44c-.87,0-1.77,.2-2.73,.58-1.72,.76-3.2,1.98-4.45,3.61s-1.86,3.2-1.86,4.74c0,1.72,.67,2.97,2.01,3.72,.38,.2,.58,.58,.58,1.16,0,.76-.49,1.16-1.42,1.16-1.72,0-3.46-1.34-5.18-4.01-.38-1.16-.58-2.09-.58-2.88,0-.58,.17-1.42,.58-2.59-.76,.38-1.25,.76-1.42,1.16-1.54,1.34-4.22,2.59-8.05,3.72-3.84,1.16-7.68,1.72-11.48,1.72-.96,0-1.83-.06-2.59-.15-.76-.09-1.63-.23-2.59-.44-2.5-.58-4.65-1.77-6.45-3.61-1.83-1.8-2.73-4.07-2.73-6.75,0-.76,.17-1.16,.58-1.16,.17,0,1.16,.67,2.88,2.01,.96,.58,2.21,.87,3.72,.87,4.01,0,7.47-1.42,10.35-4.3,3.26-3.46,6.98-6.43,11.19-8.9,4.22-2.5,8.05-3.72,11.48-3.72,4.59,0,8.2,1.19,10.79,3.58s4.36,5.12,5.32,8.2c8.05,1.92,14.13,5.9,18.23,11.92,4.13,6.05,6.16,13.08,6.16,21.11,0,6.72-2.12,13.4-6.31,20.12-4.22,6.72-10.29,12.21-18.23,16.51-7.94,4.3-17.77,6.45-29.45,6.45-12.27,0-22.42-2.24-30.44-6.75-8.05-4.51-14.07-10.35-18.09-17.53s-6.02-14.89-6.02-23.12c0-6.72,1.34-13.61,4.01-20.67-1.34,.58-2.65,1.05-3.87,1.42-1.25,.38-2.73,.67-4.45,.87,.17,4.22-1.92,8.43-6.31,12.65-4.42,4.22-10.35,6.31-17.82,6.31-5.55,0-11.31-1.05-17.24-3.17-5.93-2.09-9.77-5.18-11.48-9.19-.58-1.54-.87-2.67-.87-3.46,0-1.34,.38-2.21,1.16-2.59,1.34,2.3,3.46,3.46,6.31,3.46,2.09,0,4.27-.58,6.45-1.72,2.21-1.16,3.98-2.38,5.32-3.72,1.54-1.54,3.31-3.2,5.32-5.03,2.01-1.83,4.83-3.4,8.46-4.74,1.72-.58,3.72-.87,6.05-.87,3.05,0,5.99,.73,8.75,2.15,2.76,1.42,4.65,3.78,5.61,7.04,2.5-.38,4.59-.96,6.31-1.72,1.72-.76,3.55-2.3,5.47-4.59,5.35-10.15,13.75-18.75,25.15-25.85,11.4-7.09,25.62-10.64,42.65-10.64,4.39,0,8.96,.38,13.64,1.16,4.68,.76,9.42,1.72,14.22,2.88-2.3-2.3-3.46-4.8-3.46-7.47s.76-4.45,2.3-5.32,2.97-1.28,4.3-1.28c-1.16,0-1.72,1.42-1.72,4.3,0,1.92,.47,4.13,1.42,6.6,.96,2.5,2.38,4.22,4.3,5.18,9.01,2.5,17.47,5.5,25.41,9.04,7.94,3.55,14.31,6.66,19.1,9.33,1.54,.76,4.16,2.21,7.91,4.3,3.72,2.12,7.91,4.42,12.5,6.89,6.51-3.63,13.26-6.45,20.27-8.46,6.98-2.01,14.13-3.02,21.4-3.02s13.32,1.86,17.53,5.61c4.22,3.72,6.31,7.79,6.31,12.21s-2.3,8.34-6.89,11.78c-4.59,3.46-11.98,4.8-22.13,4.01-1.54-.17-3.72-.87-6.6-2.01-2.88-1.16-6.13-2.5-9.77-4.01-1.34,1.72-2.88,3.55-4.59,5.47-1.72,1.92-3.46,3.93-5.18,6.05-3.26,4.01-6.72,9.16-10.35,15.38-3.63,6.22-7.09,12.53-10.35,18.96-3.26,6.43-6.22,12.01-8.9,16.81-5.76,10.9-13.35,21.69-22.82,32.33-9.48,10.64-20,19.92-31.61,27.85-11.6,7.94-23.52,13.35-35.76,16.22,5.18,.38,9.57,.67,13.2,.87,3.63,.17,7.24,.44,10.79,.73s6.16,.52,7.91,.73c1.72,.17,3.98,.44,6.75,.73s5.7,.44,8.75,.44c5.35,0,10.38-.73,15.09-2.15,4.68-1.42,7.04-4.36,7.04-8.75,0-1.72-.38-3.46-1.16-5.18l2.59-.58c3.26,5.35,4.88,10.15,4.88,14.36,0,5.35-2.21,9.39-6.6,12.07-4.42,2.67-9.1,4.01-14.07,4.01-7.09,0-14.45-1.25-22.13-3.72-7.68-2.5-15.76-4.94-24.28-7.33s-17.77-3.58-27.71-3.58l-.87-2.59c.76,.17,1.54,.32,2.3,.44,.76,.09,1.54,.15,2.3,.15,6.51,0,13.2-2.3,20.12-6.89,6.89-4.59,13.69-10.44,20.41-17.53,6.69-7.09,13.08-14.51,19.1-22.27,6.05-7.76,11.34-14.8,15.93-21.11,.96-2.09,2.09-3.84,3.46-5.18h-37.91c-21.08,23.55-39.89,42.36-56.46,56.44-16.57,14.07-31.08,25.24-43.53,33.47v.29h-.58v.29c-3.46,2.09-6.22,4.88-8.34,8.34-2.5,3.84-3.55,7.47-3.17,10.9,1.16-.58,2.47-.87,4.01-.87,2.3,0,4.54,.67,6.75,2.01s3.87,3.05,5.03,5.18c1.54,2.67,2.44,5.12,2.73,7.33,.29,2.21,.52,4.25,.73,6.16,.17,2.5,1.25,5.18,3.17,8.05s4.39,3.84,7.47,2.88c0,.17-.15,.73-.44,1.57-.29,.87-1.19,1.69-2.73,2.44-1.34,.76-2.97,1.16-4.88,1.16l.06-.17Zm132.15-150.23c9.01-11.11,18.2-22.13,27.56-33.03,9.39-10.9,19.25-21.34,29.6-31.31-2.5-1.34-5.03-2.73-7.62-4.16s-5.23-2.82-7.91-4.16c-10.35,5.76-20.27,12.79-29.74,21.11-9.48,8.34-18.38,17.04-26.72,26.14-8.34,9.1-15.93,17.56-22.82,25.41h37.65Zm81.88-61.76c5.55,0,9.62-1.19,12.21-3.58s3.87-4.94,3.87-7.62c0-3.05-1.25-5.84-3.72-8.34-2.5-2.47-6.13-3.72-10.9-3.72-6.13,0-12.27,.87-18.38,2.59-6.13,1.72-12.15,4.01-18.09,6.89,2.47,1.34,4.91,2.65,7.33,3.87,2.38,1.25,4.74,2.36,7.04,3.31,4.8-4.39,9.57-8.61,14.36-12.65l1.72,2.01c-.76,.96-2.21,2.5-4.3,4.59s-4.59,4.8-7.47,8.05c4.8,2.3,8.23,3.63,10.35,4.01,.96,.2,1.95,.35,3.02,.44,1.05,.09,2.06,.15,3.02,.15h-.06Z" style="fill:#086e84;"/><path d="M598.91,583.75c-.76,0-1.34-.09-1.72-.29-.38-.2-.76-.38-1.16-.58,2.09-1.54,3.17-3.63,3.17-6.31,0-2.3-.73-4.65-2.15-7.04-1.42-2.38-2.91-4.27-4.45-5.61-1.72-1.54-3.58-3.26-5.61-5.18-2.01-1.92-3.78-4.68-5.32-8.34-1.16-2.3-1.72-4.8-1.72-7.47s.58-5.23,1.72-7.62c1.16-2.38,2.76-4.27,4.88-5.61-1.34-1.34-3.2-2.5-5.61-3.46-2.38-.96-4.94-1.42-7.62-1.42h-2.59c-2.67,0-5.18,.29-7.47,.87-3.26,1.16-6.57,2.09-9.91,2.88-3.34,.76-6.66,1.34-9.91,1.72-.2,3.46,.06,7.91,.73,13.35,.67,5.47,2.15,10.38,4.45,14.8,2.3,4.39,5.76,6.8,10.35,7.18v2.59c-4.22,.17-7.76-1.4-10.64-4.74-2.88-3.34-5.09-7.24-6.6-11.63-.58,2.5-1.57,4.88-3.02,7.18-1.42,2.3-3.4,4.01-5.9,5.18-.2,2.5-1.54,4.83-4.01,7.04-2.5,2.21-5.76,3.31-9.77,3.31-2.5,0-5.26-.58-8.34-1.72-3.05-1.16-5.76-2.67-8.05-4.59-2.3-1.92-3.72-3.93-4.3-6.02v-.87c0-1.72,.38-2.79,1.16-3.17,.38,1.34,1.1,2.24,2.15,2.73,1.05,.47,2.15,.73,3.31,.73,2.47,0,4.59-.67,6.31-2.01,1.34-.76,2.88-1.63,4.59-2.59s4.01-1.42,6.89-1.42c2.09,0,4.13,.58,6.05,1.72,1.92,1.16,3.17,2.76,3.72,4.88,2.67-1.34,4.59-3.98,5.76-7.91s1.63-7.12,1.42-9.62c-.58-2.67-.96-5.23-1.16-7.62-.2-2.38-.29-4.45-.29-6.16-10.35,.38-19.83-1.25-28.44-4.88-8.61-3.63-15.53-9.33-20.67-17.1-5.18-7.76-7.76-17.39-7.76-28.87,0-5.76,.73-11.92,2.15-18.52,1.42-6.6,3.78-13.64,7.04-21.11,4.39-10.15,10.38-20.12,17.97-29.89,7.56-9.77,15.47-18.75,23.7-27.01-3.84-1.54-7.71-3.2-11.63-5.03-3.93-1.83-7.71-3.69-11.34-5.61-3.46-1.16-6.89-1.92-10.35-2.3-5.18,0-9.1,1.05-11.78,3.17,1.54,1.16,2.67,2.65,3.46,4.45,.76,1.83,1.16,3.78,1.16,5.9,0,3.26-.67,5.93-2.01,8.05-1.72,3.05-3.58,5.32-5.61,6.75-2.01,1.42-3.78,2.73-5.32,3.87-1.54,.96-3.02,2.53-4.45,4.74-1.42,2.21-2.15,4.36-2.15,6.45,0,1.72,.67,3.26,2.01,4.59-.38,.38-1.05,.58-2.01,.58s-2.12-.38-3.46-1.16c-2.5-1.54-4.3-4.16-5.47-7.91-1.16-3.72-1.72-7.62-1.72-11.63,0-5.76,.96-10.73,2.88-14.94,1.72-3.84,4.16-6.75,7.33-8.75s6.16-3.02,9.04-3.02c.76,0,1.42,.06,2.01,.15,.58,.09,1.16,.23,1.72,.44,3.84-3.46,8.34-5.18,13.49-5.18h.87c-4.97-3.46-8.81-6.51-11.48-9.19-4.42-4.8-7.62-9.54-9.62-14.22-2.01-4.68-3.02-9.13-3.02-13.35,0-7.85,3.05-14.36,9.19-19.54s14.16-7.76,24.13-7.76c6.31,0,13.26,1.19,20.82,3.58,7.56,2.38,15.47,6.37,23.7,11.92,.58,0,1.54,.67,2.88,2.01,.96,.76,2.3,1.16,4.01,1.16,2.09,0,4.16-.67,6.16-2.01s3.69-2.67,5.03-4.01c2.88-2.67,6.43-5.12,10.64-7.33,4.22-2.21,8.05-3.31,11.48-3.31,4.97,0,8.81,1.4,11.48,4.16,2.67,2.79,4.22,5.9,4.59,9.33-1.16-1.72-3.26-2.59-6.31-2.59s-5.93,1.02-8.61,3.02c-2.67,2.01-5.09,3.98-7.18,5.9-2.5,1.92-5.03,3.69-7.62,5.32-2.59,1.63-5.9,2.44-9.91,2.44h-2.15c-.67,0-1.48-.09-2.44-.29-1.92-.38-3.87-1.28-5.9-2.73-2.01-1.42-3.69-3.11-5.03-5.03l-3.17-3.17c-1.16-1.16-1.92-1.8-2.3-2.01-1.34-.96-2.73-1.83-4.16-2.59-1.42-.76-2.82-1.42-4.16-2.01,.58,.58,.96,1.05,1.16,1.42,3.63,4.01,5.47,8.52,5.47,13.49,0,3.26-.87,5.99-2.59,8.2s-3.84,3.31-6.31,3.31c-1.72,0-3.55-.67-5.47-2.01-1.34-.96-2.01-1.92-2.01-2.88s.67-1.25,2.01-.87c1.54,.38,3.05-.29,4.59-2.01,1.54-1.72,2.59-3.72,3.17-6.02,.17-.76,.32-1.57,.44-2.44,.09-.87,.15-1.69,.15-2.44,0-1.54-.2-3.05-.58-4.59-.38-1.54-1.05-2.97-2.01-4.3-9.97-4.59-18.96-6.89-27.01-6.89s-14.8,2.12-19.68,6.31c-4.88,4.22-7.33,9.68-7.33,16.37,0,4.01,.96,8.23,2.88,12.65,1.92,4.42,4.97,8.9,9.19,13.49,4.01,4.22,9.39,8.43,16.08,12.65,6.72,4.22,14.57,8.23,23.55,12.07,15.12-14.16,32.19-25.62,51.14-34.34,18.96-8.72,38.41-13.08,58.33-13.08,14.94,0,26.08,2.59,33.47,7.76,7.39,5.18,11.05,11.31,11.05,18.38,0,6.13-2.82,12.36-8.49,18.67-5.64,6.31-14.22,11.6-25.7,15.79-6.51,2.5-13.46,4.27-20.82,5.32-7.39,1.05-14.89,1.57-22.56,1.57-14.36,0-28.64-1.63-42.8-4.88-1.72,.2-3.26,.61-4.59,1.28s-2.38,1.48-3.17,2.44c-2.12,1.72-3.17,3.93-3.17,6.6,0,1.16,.38,2.12,1.16,2.88,.96,.76,1.34,1.34,1.16,1.72-.2,.38-.67,.58-1.42,.58-1.34,0-2.94-.61-4.74-1.86-1.83-1.25-2.73-3.11-2.73-5.61s1.05-4.59,3.17-6.31c2.09-1.72,4.59-2.88,7.47-3.46-2.5-.58-4.97-1.25-7.47-2.01s-4.8-1.54-6.89-2.3c-5.55,5.93-10.9,12.5-16.08,19.68s-9.86,14.71-14.07,22.56c0,.2-.06,.35-.15,.44s-.15,.35-.15,.73c-.76,2.12-1.4,4.36-1.86,6.75-.49,2.38-.73,4.74-.73,7.04,0,4.01,.73,7.76,2.15,11.19,1.42,3.46,3.31,5.76,5.61,6.89l1.16,.58c1.16-1.72,2.73-3.02,4.74-3.87,2.01-.87,4.07-1.28,6.16-1.28,2.5,0,4.51,.38,6.02,1.16,2.67,.96,4.8,2.12,6.31,3.46,1.54,1.34,2.97,2.79,4.3,4.3,1.92-4.39,3.98-8.66,6.16-12.79,2.21-4.13,4.65-7.91,7.33-11.34,6.13-7.85,12.5-13.55,19.1-17.1s12.79-5.32,18.52-5.32c7.85,0,14.31,2.67,19.39,8.05,5.09,5.35,7.62,12.27,7.62,20.67,0,4.42-.87,9.25-2.59,14.51-1.72,5.26-4.51,10.67-8.34,16.22-5.38,7.68-11.83,14.89-19.39,21.69-7.56,6.8-15.76,12.39-24.57,16.81l.29,.29c5.93,.58,10.82,3.05,14.65,7.47,.38-.2,.87-.29,1.42-.29h1.42c3.63,0,7.27,1.4,10.9,4.16s6.31,6.66,8.05,11.63c1.16,3.05,1.72,6.98,1.72,11.78,0,5.35-.9,10.73-2.73,16.08-1.83,5.35-4.45,9.01-7.91,10.9-1.54,.76-2.79,1.16-3.75,1.16l.15,.06Zm-60.04-58.88c.17-5.38,.76-11.25,1.72-17.68s2.38-12.88,4.3-19.39c-3.63,0-6.6-.38-8.9-1.16-4.8-1.54-8.43-4.13-10.9-7.76-2.5-3.63-3.34-6.98-2.59-10.06,0-.38,.17-.96,.58-1.72h-.29c-1.92,0-4.01-1.63-6.31-4.88s-3.72-6.6-4.3-10.06c-.2-.76-.29-2.01-.29-3.72v-2.88c0-.96,.09-1.8,.29-2.59-.76,1.54-1.48,3.11-2.15,4.74-.67,1.63-1.28,3.2-1.86,4.74-2.88,6.89-4.94,13.35-6.16,19.39-1.25,6.02-1.86,11.54-1.86,16.51,0,12.65,3.63,22.07,10.9,28.29,7.27,6.22,16.57,8.96,27.85,8.2l-.03,.03Zm5.18-.58c9.01-1.54,17.85-4.74,26.58-9.62s16.75-10.79,24.13-17.68c7.36-6.89,13.46-14.07,18.23-21.55,3.05-4.59,5.26-9.04,6.6-13.35,1.34-4.3,2.01-8.29,2.01-11.92,0-6.72-1.86-12.15-5.61-16.37-3.72-4.22-8.66-6.31-14.8-6.31-4.8,0-10.06,1.63-15.79,4.88-5.76,3.26-11.4,8.61-16.95,16.08-5.55,7.68-10.06,15.61-13.49,23.84,2.5,1.92,5.18,2.88,8.05,2.88,2.5,0,4.3-.87,5.47-2.59,.58,.58,.87,1.34,.87,2.3,0,3.63-2.06,6.45-6.16,8.46-4.13,2.01-8.58,3.4-13.35,4.16-1.72,5.93-3.02,12.01-3.87,18.23s-1.48,12.39-1.86,18.52l-.06,.03Zm59.46-129.85c18.2,0,34.48-2.5,48.85-7.47,9.57-3.26,16.95-7.62,22.13-13.08s7.76-10.79,7.76-15.93-2.73-9.42-8.2-13.35-14.04-5.9-25.7-5.9c-7.47,0-15.76,1.48-24.86,4.45s-18.23,6.86-27.45,11.63c-9.19,4.8-17.71,9.91-25.56,15.38-7.85,5.47-14.28,10.67-19.25,15.64,7.47,2.88,15.7,5.03,24.71,6.45,9.01,1.42,18.2,2.15,27.56,2.15v.03Z" style="fill:#086e84;"/><path d="M695.7,511.93c-3.84,0-7.18-1.34-10.06-4.01s-4.3-6.51-4.3-11.48c0-2.09,.47-4.88,1.42-8.34-2.67,3.26-5.79,6.72-9.33,10.35s-7.39,6.72-11.48,9.19c-4.13,2.47-8.29,3.72-12.5,3.72-2.3,0-4.3-.38-6.02-1.16-3.05-1.16-5.23-3.02-6.45-5.61-1.25-2.59-1.86-5.41-1.86-8.46,0-5.35,1.1-10.9,3.31-16.66s4.16-10.23,5.9-13.49c-.2,.2-.49,.29-.87,.29-.76,0-1.48-.32-2.15-1.02-.67-.67-.73-1.4-.15-2.15,1.34-1.72,3.4-4.59,6.16-8.61s5.9-8.43,9.33-13.2c3.46-4.8,6.66-9.28,9.62-13.49s5.2-7.47,6.75-9.77c1.54-.38,3.78-1.02,6.75-1.86,2.97-.87,5.7-1.28,8.2-1.28,2.88,0,4.97,.76,6.31,2.3-2.12,3.26-5.09,7.56-8.9,12.94-3.84,5.38-8,11.19-12.5,17.53-4.51,6.31-8.75,12.82-12.79,19.54-4.01,6.72-7.33,13.08-9.91,19.1s-3.87,11.25-3.87,15.64c0,3.26,1.72,4.88,5.18,4.88,4.01-.17,8.75-2.73,14.22-7.62,5.47-4.88,11.11-11.05,16.95-18.52,5.84-7.47,11.43-15.12,16.81-22.97,8.61-13.03,17.71-26.81,27.3-41.37,1.54-.17,3.69-.73,6.45-1.57s5.41-1.28,7.91-1.28c2.88,0,4.68,.87,5.47,2.59-1.34,2.12-4.07,6.05-8.2,11.78-4.13,5.76-8.72,12.36-13.78,19.83-5.09,7.47-9.91,15.03-14.51,22.71-1.54,2.5-3.26,5.41-5.18,8.75s-3.63,6.37-5.18,9.04c-1.72,3.05-2.82,5.55-3.31,7.47s-.73,3.46-.73,4.59c0,3.84,1.92,5.76,5.76,5.76,2.09,0,4.68-.81,7.76-2.44,3.05-1.63,5.93-3.87,8.61-6.75,3.63-3.46,7.33-7.71,11.05-12.79,3.72-5.06,8.08-12.01,13.08-20.82,.38-.76,1.25-1.16,2.59-1.16,.96,0,1.54,.35,1.72,1.02,.17,.67,.09,1.28-.29,1.86-3.63,5.93-7.12,11.63-10.5,17.1-3.34,5.47-7.41,10.79-12.21,15.93-4.42,4.8-9.04,8.34-13.93,10.64-4.88,2.3-9.45,3.46-13.64,3.46v-.12Z" style="fill:#086e84;"/><path d="M757.2,512.22c-3.46,0-6.8-.58-10.06-1.72-3.84-1.34-7.04-3.93-9.62-7.76-2.59-3.84-3.87-8.72-3.87-14.65,0-4.39,.87-9.33,2.59-14.8,1.72-5.47,4.59-11.46,8.61-17.97,2.3-3.63,5.35-7.71,9.19-12.21s8.23-8.87,13.2-13.08c4.97-4.22,10.23-7.65,15.79-10.35,5.55-2.67,11.11-4.01,16.66-4.01,6.69,0,11.34,1.4,13.93,4.16,2.59,2.79,3.87,6.08,3.87,9.91,0,3.05-.58,6.13-1.72,9.19-1.16,3.05-2.5,5.64-4.01,7.76-2.3,3.05-4.56,5.26-6.75,6.6-2.21,1.34-4.36,2.01-6.45,2.01-2.5,0-4.45-.81-5.9-2.44-1.42-1.63-1.98-3.31-1.57-5.03,3.05-.76,6.16-2.24,9.33-4.45,3.17-2.21,5.9-4.59,8.2-7.18,2.3-2.59,3.55-4.83,3.75-6.75,.38-2.88-.15-4.94-1.57-6.16-1.42-1.25-3.31-1.86-5.61-1.86-3.46,0-7.91,1.72-13.35,5.18s-10.96,8.08-16.51,13.93c-5.55,5.84-10.44,12.3-14.65,19.39-3.46,5.93-6.37,12.01-8.75,18.23-2.38,6.22-3.58,11.83-3.58,16.81,0,2.5,.38,4.74,1.13,6.75s2.01,3.61,3.75,4.74c1.54,1.16,3.55,1.72,6.02,1.72,4.8,0,10.73-1.95,17.82-5.9,7.09-3.93,14.16-9.33,21.25-16.22s13.11-14.83,18.09-23.84c.58-.96,1.25-1.42,2.01-1.42,.58,0,1.1,.35,1.57,1.02,.47,.67,.61,1.4,.44,2.15-5.35,9.01-11.6,17.18-18.67,24.57-7.09,7.39-14.45,13.17-22.13,17.39-7.65,4.22-15.15,6.31-22.42,6.31v.03Z" style="fill:#086e84;"/><path d="M825.26,510.5c-5.35,0-9.48-2.06-12.36-6.16-2.88-4.13-4.3-9.42-4.3-15.93,0-7.09,1.92-15.32,5.76-24.71,2.09-5.18,5.26-10.5,9.48-15.93,4.22-5.47,9.1-10.53,14.65-15.24,5.55-4.68,11.54-8.52,17.94-11.48,6.43-2.97,12.97-4.45,19.68-4.45,5.18,0,8.72,1.34,10.64,4.01s2.88,5.93,2.88,9.77-.58,7.39-1.72,11.19l16.08-24.42c1.34-.96,4.3-1.42,8.9-1.42,3.46,0,6.75,.38,9.91,1.16,3.17,.76,4.07,1.92,2.73,3.46-1.54,1.92-4.16,4.83-7.91,8.75-3.72,3.93-7.76,8.58-12.07,13.93-4.3,5.35-8.37,11.02-12.21,16.95-1.92,3.26-4.74,8.05-8.49,14.36-3.75,6.31-6.66,12.36-8.75,18.09-1.16,3.46-1.72,6.22-1.72,8.34,0,4.01,1.72,6.05,5.18,6.05,1.92,0,4.51-.73,7.76-2.15s6.43-3.4,9.48-5.9c6.13-4.97,11.48-10.96,16.08-17.97,4.59-6.98,8.72-13.17,12.36-18.52,.17-.17,.44-.38,.73-.58,.29-.17,.81-.29,1.57-.29s1.34,.35,1.72,1.02c.38,.67,.2,1.48-.58,2.44-5.35,8.05-10.64,15.56-15.79,22.56-5.18,7.01-10.44,12.59-15.79,16.81s-11.19,6.31-17.53,6.31c-4.97,0-8.96-1.48-11.92-4.45s-4.45-7.04-4.45-12.21c0-2.3,.23-4.68,.73-7.18,.47-2.47,1.1-4.8,1.86-6.89-3.05,4.01-6.86,8.43-11.34,13.2-4.51,4.8-9.25,8.9-14.22,12.36-4.97,3.46-9.97,5.18-14.94,5.18l-.03-.03Zm2.59-5.47c3.84,0,7.91-1.54,12.21-4.59s8.66-7.04,13.08-11.92c4.39-4.88,8.43-10.09,12.07-15.64,3.05-4.59,6.08-9.48,9.04-14.65s5.47-10.23,7.47-15.24c2.01-4.97,3.02-9.48,3.02-13.49,0-6.13-2.21-9.19-6.6-9.19-3.05,0-6.6,1.34-10.64,4.01-4.01,2.67-8.08,6.13-12.21,10.35-4.13,4.22-7.94,8.75-11.48,13.64-3.55,4.88-6.37,9.62-8.49,14.22-.58,1.16-1.98,3.93-4.16,8.34-2.21,4.42-4.3,9.19-6.31,14.36-2.01,5.18-3.02,9.68-3.02,13.49,0,4.22,2.01,6.31,6.05,6.31h-.03Z" style="fill:#086e84;"/></g><g style="opacity:.31;"><path d="M257.94,588.43c-4.22,0-8.75-1.42-13.64-4.3-4.88-2.88-8.49-5.93-10.79-9.19-2.5-3.63-3.72-7.39-3.72-11.19,0-4.59,1.34-7.94,4.01-10.06-.2-.58-.29-1.16-.29-1.72v-1.72c0-1.54,.17-3.17,.58-4.88,.38-1.72,.96-3.26,1.72-4.59l1.16-2.01c-7.09,3.63-13.84,6.16-20.27,7.62-6.43,1.42-12.42,2.15-17.97,2.15-11.48,0-21.78-1.86-30.88-5.61-9.1-3.72-16.28-9.54-21.55-17.39s-7.91-17.91-7.91-30.15c0-9.57,1.92-18.35,5.76-26.28s8.72-14.89,14.65-20.82c.96-1.54,1.57-3.2,1.86-5.03,.29-1.8,.44-3.4,.44-4.74,0-3.26-.87-6.28-2.59-9.04-1.72-2.76-3.63-3.87-5.76-3.31-.2,0-.35,.06-.44,.15s-.23,.15-.44,.15c-.96,0-1.42-.38-1.42-1.16,0-1.34,.87-2.38,2.59-3.17,1.92-1.34,3.93-2.01,6.02-2.01,2.67,0,4.88,1.19,6.6,3.61,1.72,2.38,2.59,5.5,2.59,9.33-.38,3.26-1.25,6.31-2.59,9.19,8.05-6.51,16.75-11.48,26.14-14.94s17.91-5.18,25.56-5.18c13.2,0,22.8,3.4,28.73,10.21s8.9,14.51,8.9,23.12c0,6.89-2.15,13.75-6.45,20.53-4.3,6.8-10.06,12.42-17.24,16.81-7.18,4.42-14.97,6.6-23.41,6.6-4.97,0-9.97-.87-14.94-2.59-.2-.17-.38-.29-.58-.29s-.38-.09-.58-.29c-3.05-.96-5.9-3.05-8.46-6.31-2.59-3.26-3.87-7.47-3.87-12.65,0-4.59,1.02-9.54,3.02-14.8,2.01-5.26,4.74-8.58,8.2-9.91,1.16-.38,1.92-.58,2.3-.58,.76,0,1.4,.15,1.86,.44,.47,.29,.81,.52,1.02,.73-2.12,.96-3.17,2.88-3.17,5.76,0,1.54,.44,3.2,1.28,5.03,.87,1.83,1.77,3.2,2.73,4.16,1.34,1.34,2.73,2.88,4.16,4.59s2.62,4.13,3.58,7.18c.17,.76,.32,1.48,.44,2.15,.09,.67,.15,1.4,.15,2.15,0,2.3-.49,4.51-1.42,6.6-.96,2.12-2.5,3.72-4.59,4.88,1.16,.2,2.24,.35,3.31,.44,1.05,.09,2.15,.15,3.31,.15,7.65,0,14.65-2.09,20.96-6.31s11.46-9.48,15.38-15.79c3.93-6.31,5.9-12.65,5.9-18.96,0-7.65-2.15-14.31-6.45-19.97-4.3-5.64-12.3-8.46-23.99-8.46-10.35,0-19.68,2.15-28,6.45-8.32,4.3-15.56,10-21.69,17.1s-10.82,14.89-14.07,23.41c-3.26,8.52-4.88,16.89-4.88,25.15s1.69,15.18,5.03,21.98,8.61,12.3,15.79,16.51,16.51,6.43,28,6.6c-3.05-.96-5.61-2.44-7.62-4.45-2.01-2.01-3.02-4.27-3.02-6.75,0-2.67,.9-4.59,2.73-5.76,1.83-1.16,3.61-1.72,5.32-1.72,1.16,0,1.92,.23,2.3,.73,.38,.47-.09,1.1-1.42,1.86s-2.01,2.21-2.01,4.3c0,1.92,.58,3.72,1.72,5.47,.76,1.34,2.06,2.62,3.87,3.87,1.83,1.25,4.07,1.86,6.75,1.86h.58c9.19,0,18.49-2.21,27.85-6.6,9.39-4.42,18.75-10.23,28.15-17.53,9.39-7.27,18.67-15.32,27.85-24.13,9.19-8.81,18.09-17.71,26.72-26.72-1.92,.58-4.22,.87-6.89,.87v.29c-2.12,3.63-6.02,5.47-11.78,5.47-3.46,0-7.01-.96-10.64-2.88-3.84-2.09-7.53-5.76-11.05-10.9-3.55-5.18-5.32-9.94-5.32-14.36,0-.58,.06-1.19,.15-1.86s.23-1.28,.44-1.86c.58-1.72,1.25-2.82,2.01-3.31,.76-.47,1.34-.73,1.72-.73-.76,3.46,.52,5.99,3.87,7.62s6.28,2.44,8.75,2.44c.58,0,1.19-.06,1.86-.15s1.28-.15,1.86-.15c1.54,0,3.2,.15,5.03,.44,1.83,.29,3.78,.9,5.9,1.86,2.67,1.34,4.94,3.4,6.75,6.16,1.8,2.79,2.44,5.7,1.86,8.75,4.39,0,8.43-1.42,12.07-4.3,9.57-10.15,18.72-20.06,27.45-29.74,8.72-9.68,16.6-18.14,23.7-25.41,7.27-7.65,15.24-15.41,23.84-23.26s17.82-14.65,27.56-20.38c-3.63-2.09-7.01-4.07-10.06-5.9-3.05-1.83-5.55-3.2-7.47-4.16-5.18-2.88-12.15-5.99-20.96-9.33-8.81-3.34-18.29-6.22-28.44-8.61s-19.92-3.61-29.31-3.61c-13.4,0-24.74,2.94-34.05,8.75-9.3,5.84-16.28,13.17-20.96,21.98s-7.04,17.82-7.04,27.01c0,7.27,1.57,14.19,4.74,20.67,3.17,6.51,7.94,11.75,14.36,15.64,6.43,3.93,14.42,5.9,23.99,5.9h2.73c.87,0,1.69-.09,2.44-.29,1.92-.96,3.49-2.36,4.74-4.16,1.25-1.8,2.06-3.4,2.44-4.74,.38-1.54,.58-2.88,.58-4.01,0-1.34-.23-2.59-.73-3.72-.49-1.16-1.19-1.8-2.15-2.01-.76-.17-1.16-.58-1.16-1.16,0-1.16,1.34-1.72,4.01-1.72,2.47,0,4.36,.73,5.61,2.15,1.25,1.42,1.86,3.2,1.86,5.32,0,2.3-.67,4.51-2.01,6.6-2.12,3.26-5.09,5.64-8.9,7.18,8.81-1.34,16.2-4.01,22.13-8.05,5.93-4.01,10.38-8.72,13.35-14.07,2.97-5.35,4.45-10.64,4.45-15.79,0-6.69-2.01-13.2-6.02-19.54-4.01-6.31-10.44-10.06-19.25-11.19h-2.44c-.87,0-1.77,.2-2.73,.58-1.72,.76-3.2,1.98-4.45,3.61s-1.86,3.2-1.86,4.74c0,1.72,.67,2.97,2.01,3.72,.38,.2,.58,.58,.58,1.16,0,.76-.49,1.16-1.42,1.16-1.72,0-3.46-1.34-5.18-4.01-.38-1.16-.58-2.09-.58-2.88,0-.58,.17-1.42,.58-2.59-.76,.38-1.25,.76-1.42,1.16-1.54,1.34-4.22,2.59-8.05,3.72-3.84,1.16-7.68,1.72-11.48,1.72-.96,0-1.83-.06-2.59-.15-.76-.09-1.63-.23-2.59-.44-2.5-.58-4.65-1.77-6.45-3.61-1.83-1.8-2.73-4.07-2.73-6.75,0-.76,.17-1.16,.58-1.16,.17,0,1.16,.67,2.88,2.01,.96,.58,2.21,.87,3.72,.87,4.01,0,7.47-1.42,10.35-4.3,3.26-3.46,6.98-6.43,11.19-8.9,4.22-2.5,8.05-3.72,11.48-3.72,4.59,0,8.2,1.19,10.79,3.58s4.36,5.12,5.32,8.2c8.05,1.92,14.13,5.9,18.23,11.92,4.13,6.05,6.16,13.08,6.16,21.11,0,6.72-2.12,13.4-6.31,20.12-4.22,6.72-10.29,12.21-18.23,16.51-7.94,4.3-17.77,6.45-29.45,6.45-12.27,0-22.42-2.24-30.44-6.75-8.05-4.51-14.07-10.35-18.09-17.53s-6.02-14.89-6.02-23.12c0-6.72,1.34-13.61,4.01-20.67-1.34,.58-2.65,1.05-3.87,1.42-1.25,.38-2.73,.67-4.45,.87,.17,4.22-1.92,8.43-6.31,12.65-4.42,4.22-10.35,6.31-17.82,6.31-5.55,0-11.31-1.05-17.24-3.17-5.93-2.09-9.77-5.18-11.48-9.19-.58-1.54-.87-2.67-.87-3.46,0-1.34,.38-2.21,1.16-2.59,1.34,2.3,3.46,3.46,6.31,3.46,2.09,0,4.27-.58,6.45-1.72,2.21-1.16,3.98-2.38,5.32-3.72,1.54-1.54,3.31-3.2,5.32-5.03,2.01-1.83,4.83-3.4,8.46-4.74,1.72-.58,3.72-.87,6.05-.87,3.05,0,5.99,.73,8.75,2.15,2.76,1.42,4.65,3.78,5.61,7.04,2.5-.38,4.59-.96,6.31-1.72,1.72-.76,3.55-2.3,5.47-4.59,5.35-10.15,13.75-18.75,25.15-25.85s25.62-10.64,42.65-10.64c4.39,0,8.96,.38,13.64,1.16,4.68,.76,9.42,1.72,14.22,2.88-2.3-2.3-3.46-4.8-3.46-7.47s.76-4.45,2.3-5.32,2.97-1.28,4.3-1.28c-1.16,0-1.72,1.42-1.72,4.3,0,1.92,.47,4.13,1.42,6.6,.96,2.5,2.38,4.22,4.3,5.18,9.01,2.5,17.47,5.5,25.41,9.04,7.94,3.55,14.31,6.66,19.1,9.33,1.54,.76,4.16,2.21,7.91,4.3,3.72,2.12,7.91,4.42,12.5,6.89,6.51-3.63,13.26-6.45,20.27-8.46,6.98-2.01,14.13-3.02,21.4-3.02s13.32,1.86,17.53,5.61c4.22,3.72,6.31,7.79,6.31,12.21s-2.3,8.34-6.89,11.78c-4.59,3.46-11.98,4.8-22.13,4.01-1.54-.17-3.72-.87-6.6-2.01-2.88-1.16-6.13-2.5-9.77-4.01-1.34,1.72-2.88,3.55-4.59,5.47-1.72,1.92-3.46,3.93-5.18,6.05-3.26,4.01-6.72,9.16-10.35,15.38s-7.09,12.53-10.35,18.96c-3.26,6.43-6.22,12.01-8.9,16.81-5.76,10.9-13.35,21.69-22.82,32.33-9.48,10.64-20,19.92-31.61,27.85-11.6,7.94-23.52,13.35-35.76,16.22,5.18,.38,9.57,.67,13.2,.87,3.63,.17,7.24,.44,10.79,.73s6.16,.52,7.91,.73c1.72,.17,3.98,.44,6.75,.73s5.7,.44,8.75,.44c5.35,0,10.38-.73,15.09-2.15,4.68-1.42,7.04-4.36,7.04-8.75,0-1.72-.38-3.46-1.16-5.18l2.59-.58c3.26,5.35,4.88,10.15,4.88,14.36,0,5.35-2.21,9.39-6.6,12.07-4.42,2.67-9.1,4.01-14.07,4.01-7.09,0-14.45-1.25-22.13-3.72-7.68-2.5-15.76-4.94-24.28-7.33-8.52-2.38-17.77-3.58-27.71-3.58l-.87-2.59c.76,.17,1.54,.32,2.3,.44,.76,.09,1.54,.15,2.3,.15,6.51,0,13.2-2.3,20.12-6.89,6.89-4.59,13.69-10.44,20.41-17.53,6.69-7.09,13.08-14.51,19.1-22.27,6.05-7.76,11.34-14.8,15.93-21.11,.96-2.09,2.09-3.84,3.46-5.18h-37.91c-21.08,23.55-39.89,42.36-56.46,56.44-16.57,14.07-31.08,25.24-43.53,33.47v.29h-.58v.29c-3.46,2.09-6.22,4.88-8.34,8.34-2.5,3.84-3.55,7.47-3.17,10.9,1.16-.58,2.47-.87,4.01-.87,2.3,0,4.54,.67,6.75,2.01s3.87,3.05,5.03,5.18c1.54,2.67,2.44,5.12,2.73,7.33,.29,2.21,.52,4.25,.73,6.16,.17,2.5,1.25,5.18,3.17,8.05s4.39,3.84,7.47,2.88c0,.17-.15,.73-.44,1.57-.29,.87-1.19,1.69-2.73,2.44-1.34,.76-2.97,1.16-4.88,1.16l.06-.17Zm132.15-150.23c9.01-11.11,18.2-22.13,27.56-33.03,9.39-10.9,19.25-21.34,29.6-31.31-2.5-1.34-5.03-2.73-7.62-4.16s-5.23-2.82-7.91-4.16c-10.35,5.76-20.27,12.79-29.74,21.11-9.48,8.34-18.38,17.04-26.72,26.14-8.34,9.1-15.93,17.56-22.82,25.41h37.65Zm81.88-61.76c5.55,0,9.62-1.19,12.21-3.58s3.87-4.94,3.87-7.62c0-3.05-1.25-5.84-3.72-8.34-2.5-2.47-6.13-3.72-10.9-3.72-6.13,0-12.27,.87-18.38,2.59-6.13,1.72-12.15,4.01-18.09,6.89,2.47,1.34,4.91,2.65,7.33,3.87,2.38,1.25,4.74,2.36,7.04,3.31,4.8-4.39,9.57-8.61,14.36-12.65l1.72,2.01c-.76,.96-2.21,2.5-4.3,4.59s-4.59,4.8-7.47,8.05c4.8,2.3,8.23,3.63,10.35,4.01,.96,.2,1.95,.35,3.02,.44,1.05,.09,2.06,.15,3.02,.15h-.06Z"/><path d="M601.82,589.56c-.76,0-1.34-.09-1.72-.29-.38-.2-.76-.38-1.16-.58,2.09-1.54,3.17-3.63,3.17-6.31,0-2.3-.73-4.65-2.15-7.04-1.42-2.38-2.91-4.27-4.45-5.61-1.72-1.54-3.58-3.26-5.61-5.18-2.01-1.92-3.78-4.68-5.32-8.34-1.16-2.3-1.72-4.8-1.72-7.47s.58-5.23,1.72-7.62c1.16-2.38,2.76-4.27,4.88-5.61-1.34-1.34-3.2-2.5-5.61-3.46-2.38-.96-4.94-1.42-7.62-1.42h-2.59c-2.67,0-5.18,.29-7.47,.87-3.26,1.16-6.57,2.09-9.91,2.88-3.34,.76-6.66,1.34-9.91,1.72-.2,3.46,.06,7.91,.73,13.35,.67,5.47,2.15,10.38,4.45,14.8,2.3,4.39,5.76,6.8,10.35,7.18v2.59c-4.22,.17-7.76-1.4-10.64-4.74-2.88-3.34-5.09-7.24-6.6-11.63-.58,2.5-1.57,4.88-3.02,7.18-1.42,2.3-3.4,4.01-5.9,5.18-.2,2.5-1.54,4.83-4.01,7.04-2.5,2.21-5.76,3.31-9.77,3.31-2.5,0-5.26-.58-8.34-1.72-3.05-1.16-5.76-2.67-8.05-4.59s-3.72-3.93-4.3-6.02v-.87c0-1.72,.38-2.79,1.16-3.17,.38,1.34,1.1,2.24,2.15,2.73,1.05,.47,2.15,.73,3.31,.73,2.47,0,4.59-.67,6.31-2.01,1.34-.76,2.88-1.63,4.59-2.59s4.01-1.42,6.89-1.42c2.09,0,4.13,.58,6.05,1.72,1.92,1.16,3.17,2.76,3.72,4.88,2.67-1.34,4.59-3.98,5.76-7.91s1.63-7.12,1.42-9.62c-.58-2.67-.96-5.23-1.16-7.62-.2-2.38-.29-4.45-.29-6.16-10.35,.38-19.83-1.25-28.44-4.88-8.61-3.63-15.53-9.33-20.67-17.1-5.18-7.76-7.76-17.39-7.76-28.87,0-5.76,.73-11.92,2.15-18.52,1.42-6.6,3.78-13.64,7.04-21.11,4.39-10.15,10.38-20.12,17.97-29.89,7.56-9.77,15.47-18.75,23.7-27.01-3.84-1.54-7.71-3.2-11.63-5.03-3.93-1.83-7.71-3.69-11.34-5.61-3.46-1.16-6.89-1.92-10.35-2.3-5.18,0-9.1,1.05-11.78,3.17,1.54,1.16,2.67,2.65,3.46,4.45,.76,1.83,1.16,3.78,1.16,5.9,0,3.26-.67,5.93-2.01,8.05-1.72,3.05-3.58,5.32-5.61,6.75-2.01,1.42-3.78,2.73-5.32,3.87-1.54,.96-3.02,2.53-4.45,4.74-1.42,2.21-2.15,4.36-2.15,6.45,0,1.72,.67,3.26,2.01,4.59-.38,.38-1.05,.58-2.01,.58s-2.12-.38-3.46-1.16c-2.5-1.54-4.3-4.16-5.47-7.91-1.16-3.72-1.72-7.62-1.72-11.63,0-5.76,.96-10.73,2.88-14.94,1.72-3.84,4.16-6.75,7.33-8.75s6.16-3.02,9.04-3.02c.76,0,1.42,.06,2.01,.15,.58,.09,1.16,.23,1.72,.44,3.84-3.46,8.34-5.18,13.49-5.18h.87c-4.97-3.46-8.81-6.51-11.48-9.19-4.42-4.8-7.62-9.54-9.62-14.22-2.01-4.68-3.02-9.13-3.02-13.35,0-7.85,3.05-14.36,9.19-19.54,6.13-5.18,14.16-7.76,24.13-7.76,6.31,0,13.26,1.19,20.82,3.58,7.56,2.38,15.47,6.37,23.7,11.92,.58,0,1.54,.67,2.88,2.01,.96,.76,2.3,1.16,4.01,1.16,2.09,0,4.16-.67,6.16-2.01s3.69-2.67,5.03-4.01c2.88-2.67,6.43-5.12,10.64-7.33,4.22-2.21,8.05-3.31,11.48-3.31,4.97,0,8.81,1.4,11.48,4.16,2.67,2.79,4.22,5.9,4.59,9.33-1.16-1.72-3.26-2.59-6.31-2.59s-5.93,1.02-8.61,3.02c-2.67,2.01-5.09,3.98-7.18,5.9-2.5,1.92-5.03,3.69-7.62,5.32-2.59,1.63-5.9,2.44-9.91,2.44h-2.15c-.67,0-1.48-.09-2.44-.29-1.92-.38-3.87-1.28-5.9-2.73-2.01-1.42-3.69-3.11-5.03-5.03l-3.17-3.17c-1.16-1.16-1.92-1.8-2.3-2.01-1.34-.96-2.73-1.83-4.16-2.59-1.42-.76-2.82-1.42-4.16-2.01,.58,.58,.96,1.05,1.16,1.42,3.63,4.01,5.47,8.52,5.47,13.49,0,3.26-.87,5.99-2.59,8.2s-3.84,3.31-6.31,3.31c-1.72,0-3.55-.67-5.47-2.01-1.34-.96-2.01-1.92-2.01-2.88s.67-1.25,2.01-.87c1.54,.38,3.05-.29,4.59-2.01,1.54-1.72,2.59-3.72,3.17-6.02,.17-.76,.32-1.57,.44-2.44,.09-.87,.15-1.69,.15-2.44,0-1.54-.2-3.05-.58-4.59-.38-1.54-1.05-2.97-2.01-4.3-9.97-4.59-18.96-6.89-27.01-6.89s-14.8,2.12-19.68,6.31c-4.88,4.22-7.33,9.68-7.33,16.37,0,4.01,.96,8.23,2.88,12.65,1.92,4.42,4.97,8.9,9.19,13.49,4.01,4.22,9.39,8.43,16.08,12.65,6.72,4.22,14.57,8.23,23.55,12.07,15.12-14.16,32.19-25.62,51.14-34.34,18.96-8.72,38.41-13.08,58.33-13.08,14.94,0,26.08,2.59,33.47,7.76,7.39,5.18,11.05,11.31,11.05,18.38,0,6.13-2.82,12.36-8.49,18.67-5.64,6.31-14.22,11.6-25.7,15.79-6.51,2.5-13.46,4.27-20.82,5.32-7.39,1.05-14.89,1.57-22.56,1.57-14.36,0-28.64-1.63-42.8-4.88-1.72,.2-3.26,.61-4.59,1.28s-2.38,1.48-3.17,2.44c-2.12,1.72-3.17,3.93-3.17,6.6,0,1.16,.38,2.12,1.16,2.88,.96,.76,1.34,1.34,1.16,1.72-.2,.38-.67,.58-1.42,.58-1.34,0-2.94-.61-4.74-1.86-1.83-1.25-2.73-3.11-2.73-5.61s1.05-4.59,3.17-6.31c2.09-1.72,4.59-2.88,7.47-3.46-2.5-.58-4.97-1.25-7.47-2.01s-4.8-1.54-6.89-2.3c-5.55,5.93-10.9,12.5-16.08,19.68s-9.86,14.71-14.07,22.56c0,.2-.06,.35-.15,.44s-.15,.35-.15,.73c-.76,2.12-1.4,4.36-1.86,6.75-.49,2.38-.73,4.74-.73,7.04,0,4.01,.73,7.76,2.15,11.19,1.42,3.46,3.31,5.76,5.61,6.89l1.16,.58c1.16-1.72,2.73-3.02,4.74-3.87,2.01-.87,4.07-1.28,6.16-1.28,2.5,0,4.51,.38,6.02,1.16,2.67,.96,4.8,2.12,6.31,3.46,1.54,1.34,2.97,2.79,4.3,4.3,1.92-4.39,3.98-8.66,6.16-12.79,2.21-4.13,4.65-7.91,7.33-11.34,6.13-7.85,12.5-13.55,19.1-17.1s12.79-5.32,18.52-5.32c7.85,0,14.31,2.67,19.39,8.05,5.09,5.35,7.62,12.27,7.62,20.67,0,4.42-.87,9.25-2.59,14.51-1.72,5.26-4.51,10.67-8.34,16.22-5.38,7.68-11.83,14.89-19.39,21.69-7.56,6.8-15.76,12.39-24.57,16.81l.29,.29c5.93,.58,10.82,3.05,14.65,7.47,.38-.2,.87-.29,1.42-.29h1.42c3.63,0,7.27,1.4,10.9,4.16s6.31,6.66,8.05,11.63c1.16,3.05,1.72,6.98,1.72,11.78,0,5.35-.9,10.73-2.73,16.08s-4.45,9.01-7.91,10.9c-1.54,.76-2.79,1.16-3.75,1.16l.15,.06Zm-60.04-58.88c.17-5.38,.76-11.25,1.72-17.68s2.38-12.88,4.3-19.39c-3.63,0-6.6-.38-8.9-1.16-4.8-1.54-8.43-4.13-10.9-7.76-2.5-3.63-3.34-6.98-2.59-10.06,0-.38,.17-.96,.58-1.72h-.29c-1.92,0-4.01-1.63-6.31-4.88s-3.72-6.6-4.3-10.06c-.2-.76-.29-2.01-.29-3.72v-2.88c0-.96,.09-1.8,.29-2.59-.76,1.54-1.48,3.11-2.15,4.74-.67,1.63-1.28,3.2-1.86,4.74-2.88,6.89-4.94,13.35-6.16,19.39-1.25,6.02-1.86,11.54-1.86,16.51,0,12.65,3.63,22.07,10.9,28.29,7.27,6.22,16.57,8.96,27.85,8.2l-.03,.03Zm5.18-.58c9.01-1.54,17.85-4.74,26.58-9.62s16.75-10.79,24.13-17.68c7.36-6.89,13.46-14.07,18.23-21.55,3.05-4.59,5.26-9.04,6.6-13.35,1.34-4.3,2.01-8.29,2.01-11.92,0-6.72-1.86-12.15-5.61-16.37-3.72-4.22-8.66-6.31-14.8-6.31-4.8,0-10.06,1.63-15.79,4.88-5.76,3.26-11.4,8.61-16.95,16.08-5.55,7.68-10.06,15.61-13.49,23.84,2.5,1.92,5.18,2.88,8.05,2.88,2.5,0,4.3-.87,5.47-2.59,.58,.58,.87,1.34,.87,2.3,0,3.63-2.06,6.45-6.16,8.46-4.13,2.01-8.58,3.4-13.35,4.16-1.72,5.93-3.02,12.01-3.87,18.23s-1.48,12.39-1.86,18.52l-.06,.03Zm59.46-129.85c18.2,0,34.48-2.5,48.85-7.47,9.57-3.26,16.95-7.62,22.13-13.08,5.18-5.47,7.76-10.79,7.76-15.93s-2.73-9.42-8.2-13.35-14.04-5.9-25.7-5.9c-7.47,0-15.76,1.48-24.86,4.45s-18.23,6.86-27.45,11.63c-9.19,4.8-17.71,9.91-25.56,15.38-7.85,5.47-14.28,10.67-19.25,15.64,7.47,2.88,15.7,5.03,24.71,6.45,9.01,1.42,18.2,2.15,27.56,2.15v.03Z"/><path d="M698.61,517.74c-3.84,0-7.18-1.34-10.06-4.01s-4.3-6.51-4.3-11.48c0-2.09,.47-4.88,1.42-8.34-2.67,3.26-5.79,6.72-9.33,10.35s-7.39,6.72-11.48,9.19c-4.13,2.47-8.29,3.72-12.5,3.72-2.3,0-4.3-.38-6.02-1.16-3.05-1.16-5.23-3.02-6.45-5.61-1.25-2.59-1.86-5.41-1.86-8.46,0-5.35,1.1-10.9,3.31-16.66s4.16-10.23,5.9-13.49c-.2,.2-.49,.29-.87,.29-.76,0-1.48-.32-2.15-1.02-.67-.67-.73-1.4-.15-2.15,1.34-1.72,3.4-4.59,6.16-8.61s5.9-8.43,9.33-13.2c3.46-4.8,6.66-9.28,9.62-13.49s5.2-7.47,6.75-9.77c1.54-.38,3.78-1.02,6.75-1.86,2.97-.87,5.7-1.28,8.2-1.28,2.88,0,4.97,.76,6.31,2.3-2.12,3.26-5.09,7.56-8.9,12.94-3.84,5.38-8,11.19-12.5,17.53-4.51,6.31-8.75,12.82-12.79,19.54-4.01,6.72-7.33,13.08-9.91,19.1s-3.87,11.25-3.87,15.64c0,3.26,1.72,4.88,5.18,4.88,4.01-.17,8.75-2.73,14.22-7.62s11.11-11.05,16.95-18.52c5.84-7.47,11.43-15.12,16.81-22.97,8.61-13.03,17.71-26.81,27.3-41.37,1.54-.17,3.69-.73,6.45-1.57,2.76-.84,5.41-1.28,7.91-1.28,2.88,0,4.68,.87,5.47,2.59-1.34,2.12-4.07,6.05-8.2,11.78-4.13,5.76-8.72,12.36-13.78,19.83-5.09,7.47-9.91,15.03-14.51,22.71-1.54,2.5-3.26,5.41-5.18,8.75s-3.63,6.37-5.18,9.04c-1.72,3.05-2.82,5.55-3.31,7.47s-.73,3.46-.73,4.59c0,3.84,1.92,5.76,5.76,5.76,2.09,0,4.68-.81,7.76-2.44,3.05-1.63,5.93-3.87,8.61-6.75,3.63-3.46,7.33-7.71,11.05-12.79,3.72-5.06,8.08-12.01,13.08-20.82,.38-.76,1.25-1.16,2.59-1.16,.96,0,1.54,.35,1.72,1.02,.17,.67,.09,1.28-.29,1.86-3.63,5.93-7.12,11.63-10.5,17.1-3.34,5.47-7.41,10.79-12.21,15.93-4.42,4.8-9.04,8.34-13.93,10.64-4.88,2.3-9.45,3.46-13.64,3.46v-.12Z"/><path d="M760.1,518.04c-3.46,0-6.8-.58-10.06-1.72-3.84-1.34-7.04-3.93-9.62-7.76-2.59-3.84-3.87-8.72-3.87-14.65,0-4.39,.87-9.33,2.59-14.8,1.72-5.47,4.59-11.46,8.61-17.97,2.3-3.63,5.35-7.71,9.19-12.21s8.23-8.87,13.2-13.08c4.97-4.22,10.23-7.65,15.79-10.35,5.55-2.67,11.11-4.01,16.66-4.01,6.69,0,11.34,1.4,13.93,4.16,2.59,2.79,3.87,6.08,3.87,9.91,0,3.05-.58,6.13-1.72,9.19-1.16,3.05-2.5,5.64-4.01,7.76-2.3,3.05-4.56,5.26-6.75,6.6-2.21,1.34-4.36,2.01-6.45,2.01-2.5,0-4.45-.81-5.9-2.44-1.42-1.63-1.98-3.31-1.57-5.03,3.05-.76,6.16-2.24,9.33-4.45,3.17-2.21,5.9-4.59,8.2-7.18,2.3-2.59,3.55-4.83,3.75-6.75,.38-2.88-.15-4.94-1.57-6.16-1.42-1.25-3.31-1.86-5.61-1.86-3.46,0-7.91,1.72-13.35,5.18-5.44,3.46-10.96,8.08-16.51,13.93-5.55,5.84-10.44,12.3-14.65,19.39-3.46,5.93-6.37,12.01-8.75,18.23-2.38,6.22-3.58,11.83-3.58,16.81,0,2.5,.38,4.74,1.13,6.75s2.01,3.61,3.75,4.74c1.54,1.16,3.55,1.72,6.02,1.72,4.8,0,10.73-1.95,17.82-5.9,7.09-3.93,14.16-9.33,21.25-16.22s13.11-14.83,18.09-23.84c.58-.96,1.25-1.42,2.01-1.42,.58,0,1.1,.35,1.57,1.02,.47,.67,.61,1.4,.44,2.15-5.35,9.01-11.6,17.18-18.67,24.57-7.09,7.39-14.45,13.17-22.13,17.39-7.65,4.22-15.15,6.31-22.42,6.31v.03Z"/><path d="M828.17,516.32c-5.35,0-9.48-2.06-12.36-6.16-2.88-4.13-4.3-9.42-4.3-15.93,0-7.09,1.92-15.32,5.76-24.71,2.09-5.18,5.26-10.5,9.48-15.93,4.22-5.47,9.1-10.53,14.65-15.24,5.55-4.68,11.54-8.52,17.94-11.48,6.43-2.97,12.97-4.45,19.68-4.45,5.18,0,8.72,1.34,10.64,4.01s2.88,5.93,2.88,9.77-.58,7.39-1.72,11.19l16.08-24.42c1.34-.96,4.3-1.42,8.9-1.42,3.46,0,6.75,.38,9.91,1.16,3.17,.76,4.07,1.92,2.73,3.46-1.54,1.92-4.16,4.83-7.91,8.75-3.72,3.93-7.76,8.58-12.07,13.93-4.3,5.35-8.37,11.02-12.21,16.95-1.92,3.26-4.74,8.05-8.49,14.36s-6.66,12.36-8.75,18.09c-1.16,3.46-1.72,6.22-1.72,8.34,0,4.01,1.72,6.05,5.18,6.05,1.92,0,4.51-.73,7.76-2.15,3.26-1.42,6.43-3.4,9.48-5.9,6.13-4.97,11.48-10.96,16.08-17.97,4.59-6.98,8.72-13.17,12.36-18.52,.17-.17,.44-.38,.73-.58,.29-.17,.81-.29,1.57-.29s1.34,.35,1.72,1.02c.38,.67,.2,1.48-.58,2.44-5.35,8.05-10.64,15.56-15.79,22.56-5.18,7.01-10.44,12.59-15.79,16.81-5.35,4.22-11.19,6.31-17.53,6.31-4.97,0-8.96-1.48-11.92-4.45s-4.45-7.04-4.45-12.21c0-2.3,.23-4.68,.73-7.18,.47-2.47,1.1-4.8,1.86-6.89-3.05,4.01-6.86,8.43-11.34,13.2-4.51,4.8-9.25,8.9-14.22,12.36-4.97,3.46-9.97,5.18-14.94,5.18l-.03-.03Zm2.59-5.47c3.84,0,7.91-1.54,12.21-4.59s8.66-7.04,13.08-11.92c4.39-4.88,8.43-10.09,12.07-15.64,3.05-4.59,6.08-9.48,9.04-14.65s5.47-10.23,7.47-15.24c2.01-4.97,3.02-9.48,3.02-13.49,0-6.13-2.21-9.19-6.6-9.19-3.05,0-6.6,1.34-10.64,4.01-4.01,2.67-8.08,6.13-12.21,10.35s-7.94,8.75-11.48,13.64c-3.55,4.88-6.37,9.62-8.49,14.22-.58,1.16-1.98,3.93-4.16,8.34-2.21,4.42-4.3,9.19-6.31,14.36-2.01,5.18-3.02,9.68-3.02,13.49,0,4.22,2.01,6.31,6.05,6.31h-.03Z"/></g></g><g><path d="M682.27,581.83h-4.51l-8.23-14.01h-9.3v14.01h-4.04v-34.48h13.08c2.47,0,4.59,.41,6.37,1.25,1.77,.81,3.14,2.01,4.13,3.52,.96,1.51,1.45,3.34,1.45,5.47,0,2.47-.67,4.54-1.98,6.22-1.31,1.66-3.14,2.82-5.5,3.46l8.52,14.57Zm-22.04-17.62h8.78c2.5,0,4.48-.58,5.9-1.77s2.15-2.79,2.15-4.88-.73-3.69-2.15-4.88c-1.42-1.19-3.4-1.77-5.9-1.77h-8.78v13.32Z"/><path d="M707.51,579.01c-2.85,2.18-5.99,3.29-9.42,3.29-2.38,0-4.54-.52-6.43-1.6-1.89-1.08-3.4-2.53-4.51-4.39s-1.66-3.93-1.66-6.28,.49-4.25,1.51-5.99c1.02-1.74,2.41-3.14,4.16-4.16,1.77-1.02,3.75-1.51,5.99-1.51s4.33,.55,6.08,1.66c1.74,1.1,3.11,2.65,4.1,4.59s1.48,4.25,1.48,6.8v.73h-19.25c.26,1.34,.81,2.53,1.66,3.52,.84,.99,1.86,1.77,3.11,2.33s2.65,.81,4.19,.81c2.65,0,5.03-.87,7.21-2.59l1.74,2.76,.03,.03Zm-18.06-10.06h15.82c-.17-1.42-.61-2.67-1.34-3.75s-1.63-1.89-2.76-2.5-2.38-.9-3.81-.9-2.7,.29-3.87,.9c-1.13,.61-2.06,1.42-2.79,2.5-.7,1.08-1.13,2.3-1.31,3.75h.06Z"/><path d="M733.24,578.51c-1.1,1.22-2.44,2.15-3.98,2.79s-3.17,.99-4.94,.99c-2.3,0-4.33-.52-6.16-1.57-1.8-1.05-3.26-2.47-4.3-4.27s-1.57-3.84-1.57-6.11,.52-4.33,1.57-6.13,2.47-3.23,4.3-4.27c1.8-1.05,3.87-1.57,6.16-1.57,1.74,0,3.37,.32,4.91,.96s2.85,1.57,3.98,2.79l-2.27,2.36c-.81-.84-1.77-1.51-2.91-1.98-1.13-.47-2.33-.7-3.58-.7-1.6,0-3.02,.38-4.27,1.1s-2.24,1.72-2.94,2.99c-.73,1.28-1.08,2.73-1.08,4.39s.35,3.14,1.08,4.42,1.69,2.3,2.94,3.02,2.67,1.1,4.27,1.1c1.25,0,2.44-.23,3.58-.7s2.09-1.13,2.91-1.98l2.27,2.36h.03Z"/><path d="M758.68,579.01c-2.85,2.18-5.99,3.29-9.42,3.29-2.38,0-4.54-.52-6.43-1.6s-3.4-2.53-4.51-4.39-1.66-3.93-1.66-6.28,.49-4.25,1.51-5.99c1.02-1.74,2.41-3.14,4.16-4.16,1.77-1.02,3.75-1.51,5.99-1.51s4.33,.55,6.08,1.66c1.74,1.1,3.11,2.65,4.1,4.59s1.48,4.25,1.48,6.8v.73h-19.25c.29,1.34,.84,2.53,1.66,3.52,.84,.99,1.86,1.77,3.11,2.33s2.65,.81,4.19,.81c2.65,0,5.06-.87,7.21-2.59l1.74,2.76,.03,.03Zm-18.06-10.06h15.82c-.17-1.42-.61-2.67-1.34-3.75s-1.63-1.89-2.76-2.5-2.38-.9-3.81-.9-2.7,.29-3.87,.9c-1.13,.61-2.06,1.42-2.79,2.5s-1.13,2.3-1.31,3.75h.06Z"/><path d="M767.29,551.56c-.64,0-1.19-.23-1.63-.67-.44-.47-.67-.99-.67-1.66s.23-1.16,.67-1.6,.99-.67,1.63-.67,1.22,.23,1.66,.67c.44,.44,.67,.99,.67,1.6s-.23,1.19-.67,1.66-.99,.67-1.66,.67Zm1.89,30.27h-3.78v-23h3.78v23Z"/><path d="M789.76,581.27c-1.51,.67-2.99,1.02-4.45,1.02s-2.59-.29-3.63-.9c-1.05-.61-1.86-1.45-2.44-2.56s-.87-2.38-.87-3.84v-12.79h-4.01v-3.37h4.22v-5.76h3.58v5.76h6.89v3.37h-6.89v12.1c0,1.37,.38,2.5,1.1,3.34s1.72,1.28,2.94,1.28c.99,0,1.95-.29,2.94-.87l.61,3.26,.03-.03Z"/><path d="M812.91,581.83h-3.26l-.26-3.02c-.84,1.08-1.92,1.95-3.23,2.56s-2.76,.93-4.36,.93-3.14-.32-4.45-.99c-1.31-.64-2.33-1.54-3.08-2.67-.73-1.13-1.1-2.41-1.1-3.87s.41-2.85,1.22-4.01c.81-1.16,1.89-2.06,3.29-2.73,1.4-.67,2.97-.99,4.71-.99,1.16,0,2.33,.15,3.52,.44,1.19,.29,2.27,.67,3.2,1.16v-.96c0-1.22-.32-2.27-.93-3.14s-1.42-1.54-2.47-2.01c-1.02-.47-2.15-.7-3.4-.7-1.08,0-2.18,.2-3.29,.58-1.1,.38-2.18,.99-3.23,1.8l-1.25-3.26c1.34-.87,2.73-1.51,4.22-1.95s2.94-.67,4.36-.67c2.01,0,3.72,.41,5.18,1.22s2.56,1.95,3.37,3.43c.79,1.48,1.19,3.23,1.19,5.26v13.58h.06Zm-10.41-2.99c1.19,0,2.27-.23,3.26-.73s1.77-1.19,2.38-2.12c.61-.93,.96-2.04,1.02-3.31v-.38c-.84-.67-1.8-1.16-2.85-1.54-1.05-.35-2.12-.55-3.2-.55-1.69,0-3.11,.41-4.27,1.25-1.13,.81-1.72,1.89-1.72,3.14,0,.79,.23,1.51,.7,2.15s1.1,1.16,1.92,1.51c.81,.38,1.74,.55,2.76,.55v.03Z"/><path d="M817.97,579.82l.99-3.55c.55,.52,1.19,.96,1.89,1.37s1.45,.67,2.24,.87,1.57,.32,2.36,.32c1.42,0,2.59-.32,3.46-.93,.87-.64,1.31-1.45,1.31-2.47,0-.73-.23-1.34-.67-1.83-.47-.49-1.05-.9-1.77-1.25s-1.54-.7-2.36-1.02c-1.02-.41-2.06-.84-3.05-1.37-1.02-.49-1.86-1.16-2.53-2.01-.67-.84-.99-1.92-.99-3.26s.32-2.41,.96-3.34c.64-.96,1.54-1.69,2.7-2.21s2.5-.79,3.98-.79c2.27,0,4.51,.55,6.69,1.69l-1.13,3.4c-.49-.32-1.05-.61-1.72-.87-.64-.26-1.31-.44-1.98-.58s-1.31-.2-1.92-.2c-1.1,0-2.04,.26-2.7,.79-.7,.52-1.05,1.19-1.05,2.06,0,.49,.15,.93,.44,1.34,.29,.41,.76,.81,1.42,1.22s1.6,.84,2.79,1.34c1.05,.44,2.09,.93,3.14,1.45,1.02,.55,1.89,1.25,2.56,2.09s1.02,1.95,1.02,3.31-.35,2.53-1.08,3.58-1.69,1.83-2.97,2.41-2.73,.87-4.39,.87c-2.73,0-5.29-.81-7.68-2.47l.03,.03Z"/><path d="M873.53,581.83h-3.34l-.2-3.34c-1.05,1.19-2.36,2.12-3.87,2.79-1.51,.67-3.17,1.02-5,1.02-2.24,0-4.27-.52-6.08-1.57s-3.2-2.47-4.25-4.27-1.54-3.84-1.54-6.11,.52-4.33,1.54-6.13c1.05-1.8,2.44-3.23,4.25-4.27,1.8-1.05,3.81-1.57,6.08-1.57,1.74,0,3.37,.32,4.86,.93s2.76,1.51,3.81,2.62v-14.6h3.78v34.48l-.03,.03Zm-12.07-2.94c1.54,0,2.94-.35,4.19-1.08,1.25-.73,2.27-1.69,2.99-2.91,.76-1.22,1.1-2.65,1.1-4.19v-.79c0-1.57-.38-2.97-1.1-4.19s-1.74-2.21-2.99-2.91-2.65-1.05-4.19-1.05-3.02,.38-4.27,1.13c-1.25,.76-2.24,1.77-2.97,3.05s-1.1,2.73-1.1,4.36,.38,3.08,1.1,4.39,1.72,2.33,2.97,3.08c1.25,.76,2.67,1.13,4.27,1.13v-.06Z"/><path d="M899.23,581.83h-3.26l-.26-3.02c-.84,1.08-1.92,1.95-3.23,2.56s-2.76,.93-4.36,.93-3.14-.32-4.45-.99c-1.31-.64-2.33-1.54-3.08-2.67-.76-1.13-1.1-2.41-1.1-3.87s.41-2.85,1.22-4.01c.81-1.16,1.89-2.06,3.29-2.73s2.97-.99,4.71-.99c1.16,0,2.33,.15,3.52,.44,1.19,.29,2.27,.67,3.2,1.16v-.96c0-1.22-.32-2.27-.93-3.14s-1.42-1.54-2.47-2.01c-1.02-.47-2.15-.7-3.4-.7-1.08,0-2.18,.2-3.29,.58-1.1,.38-2.18,.99-3.23,1.8l-1.25-3.26c1.34-.87,2.73-1.51,4.22-1.95s2.94-.67,4.36-.67c2.01,0,3.72,.41,5.18,1.22s2.56,1.95,3.37,3.43,1.19,3.23,1.19,5.26v13.58h.06Zm-10.41-2.99c1.19,0,2.27-.23,3.26-.73s1.77-1.19,2.38-2.12c.61-.93,.96-2.04,1.02-3.31v-.38c-.84-.67-1.8-1.16-2.85-1.54-1.05-.35-2.12-.55-3.2-.55-1.72,0-3.11,.41-4.27,1.25-1.13,.81-1.72,1.89-1.72,3.14,0,.79,.23,1.51,.7,2.15s1.1,1.16,1.92,1.51c.81,.38,1.74,.55,2.76,.55v.03Z"/><path d="M917.4,581.83v-34.48h12.24c3.29,0,5.9,.76,7.76,2.27s2.82,3.61,2.82,6.25c0,1.89-.47,3.52-1.4,4.94-.93,1.4-2.18,2.41-3.75,3.05,2.09,.52,3.75,1.51,4.97,2.99s1.8,3.29,1.8,5.44c0,1.89-.47,3.58-1.42,5-.93,1.42-2.27,2.56-3.95,3.34-1.69,.79-3.66,1.19-5.9,1.19h-13.17Zm4.04-19.28h8.08c2.04,0,3.63-.52,4.86-1.6s1.83-2.5,1.83-4.25-.61-3.2-1.86-4.22-2.94-1.54-5.09-1.54h-7.85v11.63l.03-.03Zm0,15.67h8.26c1.6,0,2.99-.26,4.19-.81s2.12-1.31,2.79-2.27c.67-.96,1.02-2.09,1.02-3.37s-.32-2.33-.96-3.26c-.64-.93-1.54-1.63-2.7-2.12s-2.53-.76-4.07-.76h-8.52v12.59h0Z"/><path d="M967.53,579.01c-2.85,2.18-5.99,3.29-9.42,3.29-2.38,0-4.54-.52-6.43-1.6s-3.4-2.53-4.51-4.39c-1.1-1.86-1.63-3.93-1.63-6.28s.49-4.25,1.51-5.99c1.02-1.74,2.41-3.14,4.16-4.16,1.77-1.02,3.75-1.51,5.99-1.51s4.33,.55,6.08,1.66,3.11,2.65,4.1,4.59,1.48,4.25,1.48,6.8v.73h-19.25c.26,1.34,.81,2.53,1.66,3.52s1.86,1.77,3.11,2.33,2.65,.81,4.19,.81c2.65,0,5.03-.87,7.21-2.59l1.74,2.76v.03Zm-18.06-10.06h15.82c-.17-1.42-.61-2.67-1.34-3.75s-1.63-1.89-2.76-2.5-2.38-.9-3.81-.9-2.7,.29-3.84,.9-2.06,1.42-2.79,2.5-1.13,2.3-1.31,3.75h.03Z"/><path d="M992.71,581.83h-3.26l-.26-3.02c-.84,1.08-1.92,1.95-3.23,2.56s-2.76,.93-4.36,.93-3.14-.32-4.45-.99c-1.31-.64-2.33-1.54-3.08-2.67-.73-1.13-1.1-2.41-1.1-3.87s.41-2.85,1.22-4.01c.81-1.16,1.89-2.06,3.29-2.73s2.97-.99,4.71-.99c1.13,0,2.33,.15,3.52,.44s2.27,.67,3.2,1.16v-.96c0-1.22-.32-2.27-.93-3.14s-1.42-1.54-2.47-2.01c-1.02-.47-2.15-.7-3.4-.7-1.08,0-2.18,.2-3.29,.58-1.1,.38-2.18,.99-3.23,1.8l-1.25-3.26c1.34-.87,2.73-1.51,4.22-1.95s2.94-.67,4.36-.67c2.01,0,3.72,.41,5.18,1.22s2.56,1.95,3.37,3.43c.79,1.48,1.19,3.23,1.19,5.26v13.58h.06Zm-10.41-2.99c1.19,0,2.27-.23,3.26-.73s1.77-1.19,2.38-2.12c.61-.93,.96-2.04,1.02-3.31v-.38c-.84-.67-1.8-1.16-2.85-1.54-1.05-.35-2.12-.55-3.2-.55-1.69,0-3.11,.41-4.27,1.25-1.13,.81-1.72,1.89-1.72,3.14,0,.79,.23,1.51,.7,2.15s1.1,1.16,1.92,1.51c.81,.38,1.74,.55,2.76,.55v.03Z"/><path d="M1012.02,581.27c-1.51,.67-2.99,1.02-4.45,1.02s-2.59-.29-3.63-.9c-1.05-.61-1.86-1.45-2.44-2.56s-.87-2.38-.87-3.84v-12.79h-4.01v-3.37h4.22v-5.76h3.58v5.76h6.86v3.37h-6.86v12.1c0,1.37,.38,2.5,1.1,3.34s1.72,1.28,2.94,1.28c.99,0,1.95-.29,2.94-.87l.61,3.26,.03-.03Z"/><path d="M1020.16,581.83h-3.78v-23h3.31l.15,4.56c.79-1.57,1.92-2.82,3.37-3.69s3.11-1.31,5-1.31c.41,0,.84,0,1.28,.06s.84,.12,1.28,.2l-.47,3.4c-.84-.2-1.69-.29-2.5-.29-1.51,0-2.82,.38-3.98,1.1s-2.06,1.74-2.7,3.02c-.64,1.28-.96,2.76-.96,4.45v11.48h0Z"/><path d="M1036.67,551.56c-.64,0-1.19-.23-1.63-.67-.44-.47-.67-.99-.67-1.66s.23-1.16,.67-1.6,.99-.67,1.63-.67,1.22,.23,1.66,.67,.67,.99,.67,1.6-.23,1.19-.67,1.66c-.44,.47-.99,.67-1.66,.67Zm1.89,30.27h-3.78v-23h3.78v23Z"/><path d="M1064.5,581.83h-20.53v-2.09l14.25-17.5h-13.55v-3.4h19.28v1.8l-14.45,17.77h15v3.43Z"/></g></g></svg>