<svg xmlns="http://www.w3.org/2000/svg" width="489.97" height="271.69" viewBox="0 0 489.97 271.69">
  <g style="isolation: isolate">
    <g id="Calque_2" data-name="Calque 2">
      <g>
        <rect width="489.97" height="271.69" style="fill: #fff;opacity: 0"/>
        <g>
          <path d="M303.28,29.45h-7.91s-4.64.87-5.8,3.92-28.25,75.53-28.25,75.53l-6-6S282.44,30.45,283.6,27.4s5.8-3.91,5.8-3.91h13.88s2.78.54,2.78,2.77S303.28,29.45,303.28,29.45Z" style="fill: #bab9b9"/>
          <g>
            <path d="M34,175.55s4.84-58.41,67.36-65.27,84.56,24.83,86.42,35.75-.07,55.65-61.11,61.23S38.06,199.66,34,175.55Z" style="fill: #8dc92f"/>
            <path d="M101.33,110.76C38.81,117.62,34,176,34,176c3.53,20.84,24.58,33.51,69.61,33-25.63-9.75-36.26-23.69-35.4-40.16,0,0-32.8-32.58,33.15-58.08" style="fill: #b13c32"/>
            <ellipse cx="37.78" cy="181.37" rx="3.89" ry="5.17" transform="translate(-50.96 18.74) rotate(-16.85)" style="fill: #40541d"/>
            <path d="M37.78,186.79c-6.1,24.11,20.12,29.31,81.16,23.73,12.89-1.18,23.13-4.11,31.27-8.09a102.59,102.59,0,0,1-19.68,3.63c-61,5.58-96.21-32.72-92.39-47.13" style="opacity: 0.11"/>
          </g>
          <ellipse cx="150.21" cy="121.55" rx="4.36" ry="18.28" transform="translate(-2.92 239.4) rotate(-76.56)" style="fill: #fff;opacity: 0.35"/>
          <path d="M199.08,84c13.38-6.45,29.19,3.1,43.9,1.11,6.11-.82,12.25-3.65,18.2-2,2.91.78,5.45,2.56,8.34,3.41,6.66,2,14.47-1.23,20.49,2.23,3.68,2.11,5.74,6.28,6.59,10.43,2.21,10.79-2.33,21.77-2.57,32.77-.14,6.5,1.22,13,.56,19.46-.56,5.49-2.56,10.78-2.78,16.29-.2,5.17,1.16,10.25,2.22,15.31a134.22,134.22,0,0,1,2.68,20.56c.09,1.65.11,3.43-.83,4.79-1.3,1.9-3.91,2.27-6.2,2.44-13.71,1-27.46,1.2-41.2,1.37a76.26,76.26,0,0,1-13.77-.66c-3.27-.56-6.49-1.55-9.81-1.69-6.53-.26-13,2.83-19.45,1.9-6.29-.91-11.37-5.42-16-9.72a7.34,7.34,0,0,1-3.17-6.83l-.83-40.92a96.56,96.56,0,0,1,.5-15.4c1.11-8.06,4.25-15.86,4.23-24,0-7.18-2.49-14.21-2.21-21.39a5.67,5.67,0,0,1,.73-2.93c1-1.44,2.88-1.8,4.49-2.44,2.68-1,4.77-1.43,5.94-4.05" style="fill: #eac00f"/>
          <polygon points="235.69 127.46 261.38 112.31 266.6 131.9 237.87 146.27 235.69 127.46" style="fill: #f7a42b;mix-blend-mode: multiply"/>
          <polygon points="235.6 161.39 261.02 176.98 246.16 190.78 220 172.12 235.6 161.39" style="fill: #fcd430;mix-blend-mode: multiply"/>
          <polygon points="255.28 129.29 280.09 131.47 274.87 152.51 247.88 152.51 255.28 129.29" style="fill: #fcd430;mix-blend-mode: multiply"/>
          <polygon points="207.82 83.74 224.59 85.53 221.06 102.89 202.82 102.89 207.82 83.74" style="fill: #f7a42b;mix-blend-mode: multiply"/>
          <polygon points="226.28 188.18 243.04 189.97 239.51 207.33 221.28 207.33 226.28 188.18" style="fill: #f7a42b;mix-blend-mode: multiply"/>
          <polygon points="220.64 166.63 237.41 168.43 233.88 185.78 215.64 185.78 220.64 166.63" style="fill: #fcd430;mix-blend-mode: multiply"/>
          <polygon points="251.32 186.79 268.09 188.58 264.56 205.94 246.32 205.94 251.32 186.79" style="fill: #fcd430;mix-blend-mode: multiply"/>
          <polygon points="195 171.2 211.76 169.14 208.23 149.26 190 149.26 195 171.2" style="fill: #fcd430;mix-blend-mode: multiply"/>
          <polygon points="230.66 135.53 253.97 148.44 238.18 164.24 221.51 149.88 230.66 135.53" style="fill: #f7a42b;mix-blend-mode: multiply"/>
          <polygon points="224.56 110.48 228.59 129.29 251.14 129.29 247.88 105.35 224.56 110.48" style="fill: #fcd430;mix-blend-mode: multiply"/>
          <polygon points="193.14 157.4 197.17 176.21 219.72 176.21 216.46 152.26 193.14 157.4" style="fill: #f7a42b;mix-blend-mode: multiply"/>
          <polygon points="208.26 113.39 205.68 124.19 191.23 124.19 193.32 110.44 208.26 113.39" style="fill: #fcd430;mix-blend-mode: multiply"/>
          <polygon points="276.99 97.65 279.44 108.46 293.15 108.46 291.17 94.7 276.99 97.65" style="fill: #f7a42b;mix-blend-mode: multiply"/>
          <polygon points="268.5 145.96 270.95 156.76 284.67 156.76 282.68 143.01 268.5 145.96" style="fill: #fcd430;mix-blend-mode: multiply"/>
          <polygon points="242.97 152.51 256.34 178.05 276.58 157.81 266.6 135.53 242.97 152.51" style="fill: #fcd430;mix-blend-mode: multiply"/>
          <polygon points="217.16 112.31 235.69 123.2 232.83 146.27 210.2 131.03 217.16 112.31" style="fill: #fcd430;mix-blend-mode: multiply"/>
          <polygon points="199.75 98.82 204.1 119.71 235.69 114.49 228.59 98.82 199.75 98.82" style="fill: #f7a42b;mix-blend-mode: multiply"/>
          <polygon points="259.78 105.35 253.97 119.71 280.09 129.29 286.94 109.27 259.78 105.35" style="fill: #fcd430;mix-blend-mode: multiply"/>
          <polygon points="209.33 172.42 203.52 186.79 229.65 196.37 236.49 176.34 209.33 172.42" style="fill: #fcd430;mix-blend-mode: multiply"/>
          <polygon points="245.42 185.9 235.78 180.53 225.96 194.26 239.53 201.02 245.42 185.9" style="fill: #fcd430;mix-blend-mode: multiply"/>
          <polygon points="197.44 182.2 211.62 190.14 209.43 208.67 190.14 197.05 197.44 182.2" style="fill: #fcd430;mix-blend-mode: multiply"/>
          <polygon points="265.91 184.39 260.1 198.76 286.23 208.34 293.07 188.31 265.91 184.39" style="fill: #fcd430;mix-blend-mode: multiply"/>
          <polygon points="280.62 178.8 284.11 193.17 268.39 202.75 264.27 182.72 280.62 178.8" style="fill: #fcd430;mix-blend-mode: multiply"/>
          <polygon points="253.72 172.42 250.24 186.79 265.86 196.37 269.95 176.34 253.72 172.42" style="fill: #fcd430;mix-blend-mode: multiply"/>
          <polygon points="222.01 133.37 226.53 147.73 206.21 157.31 200.88 137.28 222.01 133.37" style="fill: #fcd430;mix-blend-mode: multiply"/>
          <polygon points="240.88 160.97 259.41 160.97 269.61 177.08 238.4 181.43 240.88 160.97" style="fill: #f7a42b;mix-blend-mode: multiply"/>
          <polygon points="270.45 156.79 263.99 178.05 285.07 178.05 286.94 156.79 270.45 156.79" style="fill: #fcd430;mix-blend-mode: multiply"/>
          <polygon points="270.45 135.53 282.03 149.88 291.36 142.71 286.94 127.55 270.45 135.53" style="fill: #fcd430;mix-blend-mode: multiply"/>
          <polygon points="227.4 95.63 238.97 109.98 248.3 102.81 243.89 87.65 227.4 95.63" style="fill: #fcd430;mix-blend-mode: multiply"/>
          <polygon points="234.97 194.57 246.54 208.92 255.87 201.75 251.45 186.59 234.97 194.57" style="fill: #fcd430;mix-blend-mode: multiply"/>
          <polygon points="207.27 193.18 218.84 207.53 228.17 200.35 223.76 185.2 207.27 193.18" style="fill: #fcd430;mix-blend-mode: multiply"/>
          <polygon points="277.83 108.73 269.75 125.3 280.21 130.7 292.06 120.26 277.83 108.73" style="fill: #fcd430;mix-blend-mode: multiply"/>
          <polygon points="241.14 98.84 239.39 113.99 263.12 118 268.62 98.84 241.14 98.84" style="fill: #fcd430;mix-blend-mode: multiply"/>
          <polygon points="266.19 85.23 257.21 102.32 283.7 108.42 281.09 85.23 266.19 85.23" style="fill: #fcd430;mix-blend-mode: multiply"/>
          <polygon points="192.79 169.18 187.63 161.89 202.82 159.29 201.32 169.18 192.79 169.18" style="fill: #fcd430;mix-blend-mode: multiply"/>
          <polygon points="276.92 188.21 270.22 177.25 289.97 173.34 288.02 188.21 276.92 188.21" style="fill: #f7a42b;mix-blend-mode: multiply"/>
          <polygon points="217.72 78.39 221.51 101.58 237.74 89.98 237.74 73.72 217.72 78.39" style="fill: #fcd430;mix-blend-mode: multiply"/>
          <polygon points="245.02 77.05 248.2 100.56 266.6 92.41 258.58 74.87 245.02 77.05" style="fill: #fcd430;mix-blend-mode: multiply"/>
          <polygon points="186.69 135.6 189.86 159.11 208.26 150.97 200.25 133.43 186.69 135.6" style="fill: #fcd430;mix-blend-mode: multiply"/>
          <polygon points="205.84 85.43 212.5 104.91 194.26 105.35 193.14 88.04 205.84 85.43" style="fill: #fcd430;mix-blend-mode: multiply"/>
          <polygon points="194.26 123.2 197.57 140.9 221.51 133.75 210.2 119.71 194.26 123.2" style="fill: #f7a42b;mix-blend-mode: multiply"/>
          <polygon points="211.5 149.26 231.53 152.21 228.91 169.74 213.68 169.74 211.5 149.26" style="fill: #fcd430;mix-blend-mode: multiply"/>
          <polygon points="253.6 181.2 254.59 196.34 241.17 200.35 238.06 181.2 253.6 181.2" style="fill: #fcd430;mix-blend-mode: multiply"/>
          <polygon points="214.08 179.57 208.27 193.65 187.68 187.1 192.45 167.91 214.08 179.57" style="fill: #fcd430;mix-blend-mode: multiply"/>
          <g style="opacity: 0.26">
            <path d="M195.82,56.35H286.7a1.53,1.53,0,1,0,0-3.05H195.82a1.53,1.53,0,0,0,0,3.05Z" style="fill: #fff"/>
            <path d="M195.82,59.76H286.7a1.53,1.53,0,1,0,0-3H195.82a1.53,1.53,0,0,0,0,3Z" style="fill: #fff"/>
            <path d="M195.82,63.17H286.7a1.53,1.53,0,1,0,0-3.05H195.82a1.53,1.53,0,0,0,0,3.05Z" style="fill: #fff"/>
            <path d="M292.39,81.4c-4.46-3.48-4.25-17.87-4.25-17.87H194.38s.22,14.39-4.24,17.87-10.3,4.35-10.3,17.85V207s1.74,10.67,20.89,10.67h81.06c19.16,0,20.9-10.67,20.9-10.67V99.25C302.69,85.75,296.85,84.88,292.39,81.4Z" style="fill: #fff"/>
          </g>
          <path d="M301.65,132.61l-.35-27.14c-.22-6.52.57-14-4.59-18.8-1.61-1.51-3.64-2.62-5.35-4.12l.07-.08c1.86,1.26,3.93,2.2,5.73,3.68,5.76,4.61,5,12.73,4.94,19.32-.1,0-.17,27.34-.45,27.14Z" style="fill: #fff"/>
          <path d="M287,56.4c-12.9,1-25.83.11-38.74,0v-.1q9.67-.21,19.37-.35c6.39-.08,13.18-.37,19.37.45Z" style="fill: #fff"/>
          <path d="M287,53c-12.9,1-25.83.11-38.74,0v-.1q9.67-.21,19.37-.35c6.39-.08,13.18-.37,19.37.45Z" style="fill: #fff"/>
          <path d="M287,59.8c-12.71.72-31.06.05-44,0v-.08c12.93,0,31.38-.86,44,.08Z" style="fill: #fff"/>
          <path d="M287,63.22c-12.9,1-25.83.11-38.74,0v-.1q9.67-.21,19.37-.35c6.39-.08,13.18-.37,19.37.45Z" style="fill: #fff"/>
          <g style="opacity: 0.1">
            <path d="M295.47,89.79a116.31,116.31,0,0,1-20.73,2.7c-6.92.43-13.83-.34-20.74-.6-13.44-.49-28.08-1.23-41.46-2.1v-.6c13.36-.87,28-1.61,41.46-2.1,3.46-.13,6.91-.37,10.37-.57a116.83,116.83,0,0,1,20.73.86,85.3,85.3,0,0,1,10.37,1.81v.6Z" style="fill: #fff"/>
          </g>
          <g style="mix-blend-mode: multiply;opacity: 0.1">
            <path d="M179.84,196.36c-14.9,10.09-8.88,15.89-8.88,15.89s9.83,8.73,29,8.73H281c16.05,0,19.87-8.45,20.69-11.2-2.72,3.17-8,6.53-18.08,6.53H202.56c-19.16,0-22.72-15.36-22.72-15.36"/>
          </g>
          <ellipse cx="343.97" cy="222.42" rx="37.91" ry="3.15" style="opacity: 0.15"/>
          <path d="M262.12,188.18s33.13,35.61,81.45,35.18,104.92-36.57,104.92-36.57l-2.39-2.4s-54.74,33.06-103,33.27-81.7-33.27-81.7-33.27Z" style="fill: #b13c32"/>
          <path d="M446.1,184.39s-51.19,11.33-97.3,9.26a776.81,776.81,0,0,1-87.36-9.26s41.29,37.37,83.89,35.46C394.51,217.66,446.1,184.39,446.1,184.39Z" style="fill: #ffe36e"/>
          <g>
            <path d="M320.17,232.39c0,2,4.66,2.79,7,3.12s6.66,2.27,8.33,2.22,10.82-1,13.82-.44,10,2.78,12.84,2.42,6.48-.87,8-.53,1,2,7.92,1.17,4.41-.52,13.06-.18,21.75,5.68,28.44,4.76,15.85-6,12.35-21.71c1.83-11-5.94-14.21-16.46-13.36s-54.18,1.85-67,10.5C333.65,227.69,331,230,328,230.1S320.17,230.11,320.17,232.39Z" style="fill: #dd1234"/>
            <path d="M420.38,242.53c-6.27.93-18.55-4.42-26.66-4.76s-5.79-.66-12.25.19-6-.85-7.43-1.18-4.84.17-7.47.53-9.23-1.86-12-2.41-11.4.38-13,.43-5.62-1.88-7.81-2.21c-.47-.07-1.05-.17-1.66-.3-4.88,2.08-6.7,2.85-8.66,2.9-3.12.07-8.16,0-8.16,1.92,0,1.63,4.86,2.33,7.3,2.61s6.95,1.89,8.68,1.85,11.3-.83,14.43-.37,10.47,2.33,13.4,2,6.76-.72,8.32-.44,1.08,1.68,8.27,1,4.6-.44,13.63-.16,22.7,4.75,29.68,4c6.69-.74,15.74-4.69,13.26-16.57A13.65,13.65,0,0,1,420.38,242.53Z" style="opacity: 0.11"/>
            <path d="M430.73,219l-.94.94,1.72,2.5a5.66,5.66,0,0,1,.72,2.08v2.74L431,231.54l3.65-3.65,2.4-.29s8.83-.55,10.83-2,8.16-5,8.32-9.06c-2.16-2.88-6.33-1.55-6.16,1.12s-1.5,2.56-6.33,3.36-8.09,1-10.15,1.22S430.73,219,430.73,219Z" style="fill: #afc436"/>
            <g style="opacity: 0.5">
              <path d="M428,215.29c-3.6-2.17-8.1-2.09-12.18-1.89s-8.37.88-12.54,1.52c-8.36,1.28-16.76,3-25.26,2.85v-.12c8.49-.14,16.77-2.14,25.1-3.64,6.23-1.13,12.71-2.5,19.08-1.32a12.25,12.25,0,0,1,5.88,2.51l-.08.09Z" style="fill: #fff"/>
            </g>
          </g>
          <ellipse cx="155.73" cy="224.46" rx="3.7" ry="1.1"/>
          <ellipse cx="159.14" cy="232.99" rx="3.7" ry="1.1"/>
          <ellipse cx="167.66" cy="231.28" rx="3.7" ry="1.1"/>
          <ellipse cx="177.04" cy="222.76" rx="3.7" ry="1.1"/>
          <ellipse cx="185.57" cy="224.46" rx="3.7" ry="1.1"/>
          <ellipse cx="194.09" cy="223.61" rx="3.7" ry="1.1"/>
          <ellipse cx="111.07" cy="228.49" rx="3.7" ry="1.1"/>
          <ellipse cx="197.5" cy="232.99" rx="3.7" ry="1.1"/>
        </g>
        <circle cx="236.55" cy="115.35" r="0.86"/>
        <circle cx="266.03" cy="94.35" r="1.04"/>
        <circle cx="270.88" cy="111.38" r="0.93"/>
        <circle cx="216.64" cy="97.82" r="1"/>
        <circle cx="223.77" cy="153.03" r="0.82"/>
        <circle cx="262.63" cy="151.07" r="1.19"/>
        <circle cx="251.65" cy="140.09" r="0.5"/>
        <circle cx="271.02" cy="131.5" r="0.8"/>
        <circle cx="268.63" cy="112.93" r="1.56"/>
        <path d="M284.67,155.31v0Z"/>
        <circle cx="253.06" cy="170.09" r="0.91"/>
        <circle cx="251.2" cy="191.73" r="0.95"/>
        <circle cx="211.35" cy="197.96" r="1.15"/>
        <circle cx="221.47" cy="173.59" r="1.47"/>
        <circle cx="216.84" cy="151.07" r="1.2"/>
        <circle cx="207.65" cy="130.51" r="1.22"/>
        <circle cx="207.94" cy="137.76" r="1.51"/>
        <circle cx="232.58" cy="134.48" r="1.05"/>
        <circle cx="239.52" cy="131.97" r="1.46"/>
        <circle cx="250.95" cy="101.26" r="0.7"/>
        <circle cx="254.92" cy="98.77" r="0.95"/>
        <circle cx="282.62" cy="150.47" r="0.59"/>
        <circle cx="281.37" cy="168.57" r="0.66"/>
        <circle cx="286.13" cy="155.32" r="1.47"/>
        <circle cx="284.58" cy="180.49" r="0.88"/>
        <circle cx="207.65" cy="102.48" r="1.22"/>
        <circle cx="198.79" cy="97.82" r="1"/>
      </g>
    </g>
  </g>
</svg>
