<svg xmlns="http://www.w3.org/2000/svg" width="340.58" height="281.64" viewBox="0 0 340.58 281.64">
  <g style="isolation: isolate">
    <g id="Calque_5" data-name="Calque 5">
      <g>
        <ellipse cx="302.82" cy="269.57" rx="36.88" ry="19.64" transform="translate(-37.19 -23.71) rotate(-0.51)" style="mix-blend-mode: multiply;opacity: 0.1"/>
        <ellipse cx="26.5" cy="223.54" rx="23.8" ry="3.56" style="mix-blend-mode: multiply;opacity: 0.1"/>
        <g>
          <g>
            <g>
              <path d="M109.28,205c5.28-9.11,10.65-12.26,10.65-12.26l-5.34,1.86-.24-8.77c-.09,1.75-1,5.6-6.43,8.69a13.2,13.2,0,0,1-3.77,1.44c-12-16-33.3-20.42-48.11-9.88S38.39,219,50.23,235.64s33.65,21.42,48.7,10.7c12.68-9,16.53-26.18,10.35-41.3Z" transform="translate(-34.82 -26.39)" style="fill: #edad0c"/>
              <path d="M114.36,185.85a5,5,0,0,0,0-1Z" transform="translate(-34.82 -26.39)" style="fill: #edad0c"/>
            </g>
            <path d="M48.46,232.84c-3.89,1.38-10,4.24-13.64,5,3.18.15,7.15-1.49,10.77-2a11.31,11.31,0,0,1-2,1.42c-3,1.5-5.65,3.83-8.6,5.33a67.79,67.79,0,0,1,9.43-4.07c.36-.11.75-.2.89,0s-.07.5-.27.79a24.51,24.51,0,0,1-4.42,4.85c2-1.51,4.13-2.94,6.27-4.26l-3.12,3.25A7,7,0,0,0,42.41,246c.13.42,1.56-1.23,2.22-1.74a5.92,5.92,0,0,0,1.42-1.72c1.12-1.8,3.92-4.18,5-6" transform="translate(-34.82 -26.39)" style="fill: #f7ebd2"/>
          </g>
          <path d="M44.06,222.55c25.07-38.84,60.43-26.16,60.43-26.16s-34.37-1-60.38,26.53" transform="translate(-34.82 -26.39)" style="fill: none;stroke: #edad0c;stroke-miterlimit: 10;stroke-width: 0.8386163115501404px;mix-blend-mode: multiply;opacity: 0.39"/>
          <path d="M109.69,205.89c-16.13,41.82-52.75,35.59-52.75,35.59s33.26-4.91,52.63-35.94" transform="translate(-34.82 -26.39)" style="fill: none;stroke: #edad0c;stroke-miterlimit: 10;stroke-width: 0.8236919706349135px;mix-blend-mode: multiply;opacity: 0.39"/>
          <path d="M107.57,203.59C85,240.57,54.21,237,54.21,237s30.07-5.92,53.32-33.73" transform="translate(-34.82 -26.39)" style="fill: none;stroke: #edad0c;stroke-miterlimit: 10;stroke-width: 0.7113536546072416px;mix-blend-mode: multiply;opacity: 0.39"/>
        </g>
        <ellipse cx="142.66" cy="120.98" rx="78.79" ry="29.33" style="fill: #fff"/>
        <path d="M177.48,170.19c-39.69,0-72.52-10.93-78-25.14a11.54,11.54,0,0,0-.8,4.19c0,16.2,35.27,29.34,78.79,29.34s78.79-13.14,78.79-29.34a11.54,11.54,0,0,0-.8-4.19C250,159.26,217.17,170.19,177.48,170.19Z" transform="translate(-34.82 -26.39)" style="fill: #efefef"/>
        <path d="M235.72,258.41c4.45,13.35-26.08,25.48-58.24,25.48S115.63,272,119.24,258.41c6.32-23.76,26.08-25.48,58.24-25.48S228.68,237.3,235.72,258.41Z" transform="translate(-34.82 -26.39)" style="fill: #fff"/>
        <path d="M235.78,263.45c-4.5,10.78-31.09,17.64-57.66,17.64-31.35,0-55.1-10.63-53.29-24.84.3-2.39,3.62-8.95,0-9.87-4,1.79-8.44,4.7-10.54,9.73-8.9,21.41,20.86,32.55,60,32.55,23.19,0,63.49-12.18,61.49-25.21C235.73,263.14,236.35,265.67,235.78,263.45Z" transform="translate(-34.82 -26.39)" style="mix-blend-mode: multiply;opacity: 0.21"/>
        <path d="M272.56,201.24c0-30-16.71-58-16.71-58h-.38a11.54,11.54,0,0,1,.8,4.19c0,16.2-35.27,29.34-78.79,29.34s-78.79-13.14-78.79-29.34a11.54,11.54,0,0,1,.8-4.19h-.38s-16.71,28.05-16.71,58,21.68,48.67,94.66,52.21v0l.42,0,.42,0v0C250.88,249.91,272.56,231.1,272.56,201.24Z" transform="translate(-34.82 -26.39)" style="fill: #fff"/>
        <path d="M266.17,224.63c-15.52,9.22-41.18,15-81.23,16.82v.05l-.45,0-.45,0v-.05c-73.55-3.31-98.57-20.09-101.36-46.83-.17,2.19-.28,4.4-.28,6.62,0,29.86,21.68,48.67,94.66,52.21v0l.42,0,.42,0v0C229.4,251,255.35,240.85,266.17,224.63Z" transform="translate(-34.82 -26.39)" style="mix-blend-mode: multiply;opacity: 0.05"/>
        <ellipse cx="144.07" cy="123.04" rx="66.14" ry="19.27" style="fill: #fcc12d"/>
        <polygon points="124.45 114.31 120.28 116.99 123.07 116.17 121.02 118.74 125.3 117.25 123.81 119.61 128.13 118.39 130.29 119.17 129.94 117.83 133.42 116.81 129.03 116.16 132.85 115.2 127.9 114.72 131.29 114.05 124.45 114.31" style="fill: #37bc90"/>
        <polygon points="132.84 115.15 128.66 117.83 131.45 117.01 129.4 119.58 133.69 118.08 132.19 120.45 136.52 119.22 138.68 120.01 138.33 118.67 141.8 117.65 137.42 117 141.23 116.04 136.29 115.56 139.68 114.89 132.84 115.15" style="fill: #37bc90"/>
        <polygon points="139.54 119.34 135.38 122.02 138.16 121.2 136.11 123.78 140.4 122.28 138.9 124.64 143.23 123.42 145.39 124.2 145.04 122.86 148.51 121.85 144.13 121.19 147.94 120.23 143 119.75 146.39 119.08 139.54 119.34" style="fill: #37bc90"/>
        <polygon points="171.04 127.95 169.21 129.13 170.44 128.77 169.53 129.9 171.42 129.25 170.76 130.28 172.66 129.75 173.61 130.09 173.46 129.5 174.98 129.06 173.06 128.77 174.73 128.35 172.56 128.14 174.05 127.84 171.04 127.95" style="fill: #37bc90"/>
        <polygon points="147.51 111.23 144.5 113.17 146.51 112.58 145.03 114.44 148.13 113.36 147.05 115.07 150.18 114.18 151.74 114.75 151.49 113.78 154 113.05 150.83 112.57 153.59 111.88 150.01 111.53 152.47 111.04 147.51 111.23" style="fill: #37bc90"/>
        <g style="opacity: 0.76">
          <path d="M171.15,133.36c4.12-4.25,4.27-10.72,2.46-16.06a60.35,60.35,0,0,0-4.46-9.32,60.91,60.91,0,0,1-4.24-9.3,54.78,54.78,0,0,1-3-19.87c.24-7.13,2.51-13.77,3.71-20.74,1.15-6.72.83-14-3.73-19.47-1-1.25-2.81.54-1.78,1.78,3.92,4.67,4.07,11.29,3.08,17-1.13,6.6-3.27,12.94-3.71,19.66a57.13,57.13,0,0,0,1.95,19,57.75,57.75,0,0,0,3.3,8.91c1.35,2.89,3,5.62,4.45,8.46,2.78,5.46,5.06,13.16.18,18.2-1.13,1.16.65,2.95,1.78,1.78Z" transform="translate(-34.82 -26.39)" style="fill: #fff"/>
          <path d="M181.14,133.47c4.74-8,1.9-17.33-.84-25.48-3-8.82-5.38-17.95-5.52-27.31A46.79,46.79,0,0,1,177,65.41c.51-1.54-1.92-2.2-2.43-.67-2.81,8.57-2.78,17.69-1.29,26.52a101.75,101.75,0,0,0,3.3,13.44c1.35,4.36,3,8.63,4,13.11,1,4.83,1,10-1.61,14.39a1.26,1.26,0,0,0,2.17,1.27Z" transform="translate(-34.82 -26.39)" style="fill: #fff"/>
          <path d="M186.62,95.29a74,74,0,0,1-2-23.76c.63-7.89,2.46-15.73,1.84-23.67a30.57,30.57,0,0,0-3.13-11.71c-.74-1.44-2.91-.17-2.18,1.27,4.55,8.86,2.74,19.15,1.55,28.57a81.05,81.05,0,0,0,1.46,30,1.26,1.26,0,0,0,2.43-.67Z" transform="translate(-34.82 -26.39)" style="fill: #fff"/>
          <path d="M191.83,27.91a47,47,0,0,1,2.68,22c-.19,1.61,2.33,1.6,2.51,0a48.55,48.55,0,0,0-2.76-22.62c-.56-1.5-3-.85-2.43.67Z" transform="translate(-34.82 -26.39)" style="fill: #fff"/>
        </g>
        <path d="M357.58,265.76c-8.24-4.45-22.86-4.8-32.64-.78s-11,10.88-2.79,15.33,22.85,4.8,32.63.78S365.82,270.21,357.58,265.76Zm-4.18,14.59c-8.87,3.64-22.13,3.33-29.61-.71s-6.35-10.27,2.53-13.92,22.14-3.33,29.62.71S362.28,276.7,353.4,280.35Z" transform="translate(-34.82 -26.39)" style="fill: #fff;stroke: #b9e4af;stroke-miterlimit: 10;stroke-width: 0.22018464397689747px"/>
        <path d="M370.89,279c-6.69-3.61-18.54-3.9-26.48-.63s-9,8.83-2.27,12.44,18.55,3.89,26.49.63S377.58,282.64,370.89,279Zm-3.38,11.84c-7.21,3-18,2.7-24-.58S338.32,282,345.53,279s18-2.7,24,.58S374.71,287.91,367.51,290.87Z" transform="translate(-34.82 -26.39)" style="fill: #fff;stroke: #b9e4af;stroke-miterlimit: 10;stroke-width: 0.1786775709652866px"/>
        <path d="M49.85,192.28s4.28,19.92,10.81,31.13S76.1,250.51,95,247.68c-17.16,10.72-39.64-.84-46.33-14.85C37.09,208.66,49.85,192.28,49.85,192.28Z" transform="translate(-34.82 -26.39)" style="mix-blend-mode: multiply;opacity: 0.06"/>
        <g>
          <path d="M92.58,253.22c-.51.42.33,2,.33,2a2,2,0,0,0-1.94-.67c-1.2.27-3.35,1.81-2.62,2.16-1.12.21-1.28-.74-1.12.21s2.57,2,2.57,2-2.64-.89-3.73,2.23c-1.78,0-1.67.29-.95,1-2.52.4-2.34,1.5-2.34,1.5l-.57.46a2.77,2.77,0,0,1,2.29.09A27.07,27.07,0,0,0,92,266.86c1.37,2.42,3.61,5.88,7.12,7s8.32,1.7,17.74,3.58,17.63,3.36,17.63,3.36l1-.37s-4.68-2.35-15.43-3.38-17.26-2.4-19.76-3.66-6.69-4.59-6-6.55,4.72-3.57,6.45-4.49,4.71-2.3,3.14-2.08l-1.58.22,4.3-.79s1.47-1-.14-.79,2,.56,2.44-.33-1.9-1.12-1.9-1.12-1.23-.47-1.69-.23-3.88.38-6,2.12c.65-2.45,5.54-4.81,5.54-4.81l-2.14.39,1.73-1.43c.17-.14-4-.21-5.18,1s3.51-2.06,2.76-2.52a5.26,5.26,0,0,0-2.64-.11,4.7,4.7,0,0,0-2.88-.24,8.59,8.59,0,0,0-2.85,1.51Z" transform="translate(-34.82 -26.39)" style="fill: #37bc90"/>
          <path d="M97.66,274.56s-4.22.78-5.47-.55.89-1.47,0-3-3.59-2.36-3.3-1.06c-3.17-.61-4.11-.17-2.79,1.65-4.48-.59-7.74-1.13-6.54.28-3.44.15-5.23,1.56-3,2.52a15.93,15.93,0,0,0,3.26,1.13S78,276.07,78,277s5.36.52,5.36.52-2.81,1.38-2.07,2.73c-2.47,1-1.66.88-1.66.88s8.69.13,9.81-1.5,1.77-.22,4.17-2.18a15.62,15.62,0,0,1,6.13-2.65Z" transform="translate(-34.82 -26.39)" style="fill: #37bc90"/>
          <path d="M98.27,288.9s-4.91,1.34-4.16-1.45a16.7,16.7,0,0,0,.2-6.13l-1.88,1.55s.38-1.7-1.27-1.87-2,3.66-2,3.66-4.32-2.77-5.58-2.57.28,2.14.28,2.14a44.06,44.06,0,0,0-5.48-.87c-1.77-.07,1.56,2.18,1.56,2.18l-1.5.28s3.76,2.69,10.47,2.54c-10.77.62-14.5.31-14.5.31l.11.65-3.06.21,1.46,1-3.57-.05a4.27,4.27,0,0,0,3.68,1.28c-1.51.76.31,1.89,5.77.31-5.27,2.15-6.59,1.69-5.27,2.15s14.89-2.58,14.89-2.58-6.92,3.56-6.87,4.17,2-.18,2-.18-4,2.27-3.3,2.72,3.33,0,3.33,0l.15.9,3-.9-.77,1.52,3.55-2.94s-.21,4.3.74,4S91.94,299,91.94,299l.83.29.89-5.85s-.47-3,2-3.55S98.27,288.9,98.27,288.9Z" transform="translate(-34.82 -26.39)" style="fill: #37bc90"/>
          <path d="M64.09,304.16c-.56-.46.23-2,.23-2a1.88,1.88,0,0,1-2,.57c-1.29-.35-3.63-2.06-2.88-2.38-1.19-.27-1.3.69-1.19-.27s2.58-1.87,2.58-1.87-2.72.75-4.06-2.52c-1.87-.14-1.76-.4-1.06-1.11-2.66-.56-2.54-1.68-2.54-1.68l-.62-.51a3,3,0,0,0,2.4.05,26.14,26.14,0,0,1,7.74-2.28c1.3-2.4,3.45-5.82,7.07-6.76s8.62-1.25,18.39-2.62,18.31-2.39,18.31-2.39l1.1.44s-4.77,2.14-16,2.56-18,1.42-20.52,2.57-6.75,4.3-5.93,6.36,5.17,3.95,7,5,5.08,2.65,3.42,2.33l-1.67-.32,4.56,1.06s1.6,1.09-.09.8,2.06-.45,2.57.49-1.92,1-1.92,1-1.27.42-1.76.14-4.1-.62-6.42-2.54c.83,2.56,6.1,5.28,6.1,5.28L74.69,303l1.91,1.58c.18.15-4.22,0-5.5-1.31s3.8,2.31,3,2.74-2.76,0-2.76,0a4.84,4.84,0,0,1-3,.08,10.76,10.76,0,0,1-3.08-1.73Z" transform="translate(-34.82 -26.39)" style="fill: #37bc90"/>
          <path d="M68.15,282.56s-4.48-1.05-5.71.24,1,1.56.16,3.05-3.62,2.22-3.4.9c-3.28.44-4.29-.08-3-1.87-4.66.34-8.06.7-6.88-.67-3.62-.36-5.58-1.92-3.35-2.77a15.43,15.43,0,0,1,3.37-1s-1.91-.64-1.93-1.59,5.6-.21,5.6-.21-3-1.59-2.35-2.93c-2.65-1.2-1.79-1-1.79-1s9.12.39,10.39,2.13,1.86.33,4.5,2.49a18.79,18.79,0,0,0,6.6,3.08Z" transform="translate(-34.82 -26.39)" style="fill: #37bc90"/>
          <path d="M138.09,292s-3-1.26-3.24.66a13.39,13.39,0,0,1-1.6,4.13l-.84-1.18a1.44,1.44,0,0,1-1.4,1.16c-1.17,0-.31-2.59-.31-2.59s-3.73,1.54-4.53,1.32.79-1.41.79-1.41a34.47,34.47,0,0,1-4,.18c-1.24-.08,1.67-1.35,1.67-1.35l-.94-.29a15.65,15.65,0,0,1,7.86-.95,83.16,83.16,0,0,0-9.82-1.25L122,290l-2-.36,1.28-.57-2.45-.23a3.9,3.9,0,0,1,2.87-.59c-.81-.62.75-1.24,4,.21-3-1.82-4-1.6-3-1.82s9.44,2.8,9.44,2.8-3.72-2.88-3.52-3.29,1.35.27,1.35.27-2.12-1.8-1.49-2.06a5.27,5.27,0,0,1,2.27.26l.36-.59,1.8.82-.1-1.07,1.61,2.22s1.06-2.89,1.63-2.65.54,1.41.54,1.41l.65-.13-1,4s-1.16,2,.36,2.52S138.09,292,138.09,292Z" transform="translate(-34.82 -26.39)" style="fill: #37bc90"/>
        </g>
        <g style="mix-blend-mode: multiply;opacity: 0.06">
          <path d="M92.58,255c-.51.42.33,2,.33,2a2,2,0,0,0-1.94-.68c-1.2.28-3.35,1.81-2.62,2.17-1.12.2-1.28-.75-1.12.2s2.57,2,2.57,2-2.64-.88-3.73,2.23c-1.78,0-1.67.3-.95,1-2.52.4-2.34,1.5-2.34,1.5l-.57.47a2.8,2.8,0,0,1,2.29.08A27.07,27.07,0,0,0,92,268.63c1.37,2.42,3.61,5.88,7.12,7s8.32,1.7,17.74,3.59,17.63,3.36,17.63,3.36l1-.37s-4.68-2.36-15.43-3.39-17.26-2.4-19.76-3.66-6.69-4.59-6-6.55,4.72-3.57,6.45-4.48,4.71-2.31,3.14-2.09l-1.58.22,4.3-.79s1.47-1-.14-.78,2,.56,2.44-.34-1.9-1.12-1.9-1.12-1.23-.47-1.69-.23-3.88.38-6,2.13c.65-2.46,5.54-4.82,5.54-4.82l-2.14.4,1.73-1.44c.17-.14-4-.21-5.18,1s3.51-2.06,2.76-2.51a5.3,5.3,0,0,0-2.64-.12,4.7,4.7,0,0,0-2.88-.24,8.79,8.79,0,0,0-2.85,1.51Z" transform="translate(-34.82 -26.39)"/>
          <path d="M97.66,276.34s-4.22.77-5.47-.55.89-1.48,0-3-3.59-2.37-3.3-1.07c-3.17-.61-4.11-.16-2.79,1.66-4.48-.59-7.74-1.13-6.54.28-3.44.14-5.23,1.56-3,2.51a15.7,15.7,0,0,0,3.26,1.14s-1.78.51-1.75,1.44,5.36.52,5.36.52-2.81,1.39-2.07,2.73c-2.47,1-1.66.88-1.66.88s8.69.13,9.81-1.5,1.77-.21,4.17-2.18a15.79,15.79,0,0,1,6.13-2.65Z" transform="translate(-34.82 -26.39)"/>
          <path d="M98.27,290.67s-4.91,1.34-4.16-1.44a16.75,16.75,0,0,0,.2-6.14l-1.88,1.55s.38-1.7-1.27-1.87-2,3.66-2,3.66-4.32-2.77-5.58-2.57.28,2.14.28,2.14a44.06,44.06,0,0,0-5.48-.87c-1.77-.06,1.56,2.18,1.56,2.18l-1.5.28s3.76,2.69,10.47,2.54c-10.77.63-14.5.31-14.5.31l.11.66-3.06.2,1.46,1-3.57-.05a4.24,4.24,0,0,0,3.68,1.28c-1.51.77.31,1.89,5.77.31-5.27,2.15-6.59,1.69-5.27,2.15s14.89-2.57,14.89-2.57-6.92,3.55-6.87,4.17,2-.19,2-.19-4,2.27-3.3,2.73,3.33,0,3.33,0l.15.89,3-.9-.77,1.52,3.55-2.93s-.21,4.29.74,4,1.58-1.93,1.58-1.93l.83.29.89-5.85s-.47-3,2-3.54S98.27,290.67,98.27,290.67Z" transform="translate(-34.82 -26.39)"/>
          <path d="M64.09,305.93c-.56-.46.23-2,.23-2a1.88,1.88,0,0,1-2,.57c-1.29-.35-3.63-2.05-2.88-2.37-1.19-.28-1.3.68-1.19-.28S60.84,300,60.84,300s-2.72.75-4.06-2.51c-1.87-.14-1.76-.4-1.06-1.11-2.66-.57-2.54-1.68-2.54-1.68l-.62-.52a3,3,0,0,0,2.4.05,26.14,26.14,0,0,1,7.74-2.28c1.3-2.4,3.45-5.82,7.07-6.76s8.62-1.24,18.39-2.61,18.31-2.4,18.31-2.4l1.1.45s-4.77,2.13-16,2.55-18,1.42-20.52,2.57-6.75,4.31-5.93,6.36,5.17,3.95,7,5,5.08,2.65,3.42,2.33l-1.67-.32,4.56,1.07s1.6,1.08-.09.8,2.06-.46,2.57.49-1.92,1-1.92,1-1.27.41-1.76.13-4.1-.62-6.42-2.54c.83,2.56,6.1,5.28,6.1,5.28l-2.27-.53,1.91,1.57c.18.15-4.22,0-5.5-1.31s3.8,2.32,3,2.74-2.76,0-2.76,0a4.84,4.84,0,0,1-3,.08,10.76,10.76,0,0,1-3.08-1.73Z" transform="translate(-34.82 -26.39)"/>
          <path d="M68.15,284.33s-4.48-1.05-5.71.24,1,1.57.16,3.06-3.62,2.21-3.4.89c-3.28.44-4.29-.07-3-1.86-4.66.33-8.06.69-6.88-.68-3.62-.35-5.58-1.91-3.35-2.76a15.43,15.43,0,0,1,3.37-1s-1.91-.64-1.93-1.6,5.6-.21,5.6-.21-3-1.59-2.35-2.92c-2.65-1.2-1.79-1-1.79-1s9.12.38,10.39,2.12,1.86.33,4.5,2.49a18.9,18.9,0,0,0,6.6,3.09Z" transform="translate(-34.82 -26.39)"/>
          <path d="M138.09,293.75s-3-1.25-3.24.67a13.28,13.28,0,0,1-1.6,4.12l-.84-1.18a1.45,1.45,0,0,1-1.4,1.17c-1.17,0-.31-2.6-.31-2.6s-3.73,1.54-4.53,1.32.79-1.41.79-1.41a36.19,36.19,0,0,1-4,.19c-1.24-.09,1.67-1.36,1.67-1.36l-.94-.29a15.65,15.65,0,0,1,7.86-.95,83.16,83.16,0,0,0-9.82-1.25l.26-.43-2-.36,1.28-.57-2.45-.22a3.85,3.85,0,0,1,2.87-.59c-.81-.63.75-1.25,4,.21-3-1.82-4-1.61-3-1.82s9.44,2.8,9.44,2.8-3.72-2.89-3.52-3.29,1.35.27,1.35.27-2.12-1.81-1.49-2.06a5.15,5.15,0,0,1,2.27.25l.36-.59,1.8.82-.1-1.07,1.61,2.22s1.06-2.89,1.63-2.64.54,1.4.54,1.4l.65-.13-1,4s-1.16,2,.36,2.52S138.09,293.75,138.09,293.75Z" transform="translate(-34.82 -26.39)"/>
        </g>
        <g>
          <ellipse cx="303.55" cy="265.45" rx="36.88" ry="19.64" transform="translate(-37.15 -23.7) rotate(-0.51)" style="fill: #fff;stroke: #b9e4af;stroke-miterlimit: 10;stroke-width: 0.6369670999405912px"/>
          <ellipse cx="305.64" cy="267.04" rx="36.88" ry="19.64" transform="translate(-37.17 -23.68) rotate(-0.51)" style="fill: #fff;stroke: #b9e4af;stroke-miterlimit: 10;stroke-width: 0.6369670999405912px"/>
          <ellipse cx="303.55" cy="265.45" rx="33.79" ry="17.99" transform="translate(-37.15 -23.7) rotate(-0.51)" style="fill: #fff;stroke: #b9e4af;stroke-miterlimit: 10;stroke-width: 0.3184835499702956px"/>
          <ellipse cx="303.55" cy="265.45" rx="31.43" ry="16.73" transform="translate(-37.15 -23.7) rotate(-0.51)" style="fill: #fff;stroke: #b9e4af;stroke-miterlimit: 10;stroke-width: 0.3184835499702956px"/>
          <ellipse cx="303.55" cy="265.45" rx="28.52" ry="15.18" transform="translate(-37.15 -23.7) rotate(-0.51)" style="fill: #fff;stroke: #b9e4af;stroke-miterlimit: 10;stroke-width: 0.3184835499702956px"/>
          <ellipse cx="303.55" cy="265.45" rx="24.35" ry="12.96" transform="matrix(1, -0.01, 0.01, 1, -37.15, -23.7)" style="fill: #fff;stroke: #b9e4af;stroke-miterlimit: 10;stroke-width: 0.3184835499702956px"/>
          <ellipse cx="303.55" cy="265.45" rx="20.22" ry="10.76" transform="translate(-37.15 -23.7) rotate(-0.51)" style="fill: #fff;stroke: #b9e4af;stroke-miterlimit: 10;stroke-width: 0.3184835499702956px"/>
          <ellipse cx="303.55" cy="265.45" rx="16.44" ry="8.75" transform="translate(-37.15 -23.7) rotate(-0.51)" style="fill: #fff;stroke: #b9e4af;stroke-miterlimit: 10;stroke-width: 0.3184835499702956px"/>
          <ellipse cx="303.55" cy="265.45" rx="13.14" ry="6.99" transform="translate(-37.15 -23.7) rotate(-0.51)" style="fill: #fff;stroke: #b9e4af;stroke-miterlimit: 10;stroke-width: 0.3184835499702956px"/>
          <ellipse cx="304.59" cy="267.85" rx="8.35" ry="4.44" transform="matrix(1, -0.01, 0.01, 1, -37.17, -23.69)" style="fill: #fff;stroke: #b9e4af;stroke-miterlimit: 10;stroke-width: 0.3184835499702956px"/>
          <ellipse cx="302.82" cy="261.63" rx="4.9" ry="2.61" transform="translate(-37.12 -23.71) rotate(-0.51)" style="fill: #fff;stroke: #b9e4af;stroke-miterlimit: 10;stroke-width: 0.3184835499702956px"/>
        </g>
      </g>
    </g>
  </g>
</svg>
