<?xml version="1.0" encoding="UTF-8"?><svg id="a" xmlns="http://www.w3.org/2000/svg" width="1460.14" height="950.65" viewBox="0 0 1460.14 950.65"><defs><style>.b,.c,.d,.e,.f{fill:#fff;}.g,.h,.i,.j,.e,.f,.k{stroke:#fff;}.g,.h,.j,.e,.f{stroke-miterlimit:10;}.g,.i,.j,.k{fill:none;}.h{fill:#b9e4af;}.c{opacity:.5;}.i,.k{stroke-linecap:round;stroke-linejoin:round;}.d,.l,.e{opacity:.19;}.j,.k{stroke-width:.5px;}</style></defs><g><path class="g" d="M107.52,47.98l-43.62,13.14,1.29-13.51c-.67-2.21,.59-4.55,2.8-5.22l25.77-7.77c2.21-.67,4.55,.59,5.22,2.8l8.54,10.54Z"/><rect class="g" x="61.48" y="54.45" width="49.95" height="5.13" rx="2.57" ry="2.57" transform="translate(-12.77 27.37) rotate(-16.77)"/><path class="g" d="M106.97,53.51l-19.77,5.96-19.77,5.96s.72,15.61,7.94,24.59c10.88-2.92,19.28-5.81,19.28-5.81,0,0,8.6-2.23,19.28-5.81,1.07-11.47-6.96-24.88-6.96-24.88Z"/><rect class="g" x="71.28" y="84.07" width="50.65" height="13.28" transform="translate(-22.06 31.73) rotate(-16.77)"/><rect class="g" x="90.98" y="83.92" width="11.21" height="13.43" transform="translate(-22.04 31.72) rotate(-16.77)"/><path class="g" d="M120.22,90.53l-21.58,6.5-.23,.07-21.58,6.5s7.86,44.07,25.66,63.13l15.48-4.66h.02l.23-.07h.02l15.48-4.67c4.31-25.72-13.49-66.8-13.49-66.8Z"/><rect class="g" x="95.18" y="161.89" width="47.75" height="6.64" transform="translate(-42.6 41.37) rotate(-16.77)"/><g><circle class="b" cx="82.61" cy="71.4" r="2.17"/><circle class="b" cx="97.6" cy="66.89" r="2.17"/></g><circle class="b" cx="91.94" cy="75.21" r="2"/><path class="f" d="M93.32,62.15s4.97-5.72,9.45-2.85"/><path class="f" d="M84.09,64.93s-7.3-2.02-9.45,2.85"/></g><g><path class="g" d="M223.91,284.88l4.66,9.59s2.21-2.21,5.16-1.84,16.6,15.86,7.01,23.97c8.48,4.79,11.06,4.79,11.06,4.79,0,0,4.06-3.32,8.48-2.58s8.11,.74,8.11,.74l-4.79-5.9s-6.27,2.58-7.74,.37-13.35-40.57-31.01-29.13"/><path class="g" d="M241.54,300.99s-5.79-.8-12.06,2.15c-6.27,2.95-9.59,9.59-9.59,9.59,0,0-20.65,2.58-17.33,21.02,3.32,18.44,10.33,61.96,30.24,66.38,4.79,4.43,9.22,2.58,12.54,2.95,3.32,.37,8.11,4.43,12.17,4.43s10.88-5.31,10.88-5.31c0,0,12.72,4.94,18.26-7.96s25.45-60.11,10.7-77.08c-9.96-17.7-26.55-16.6-31.72-11.8-5.9-6.64-16.56-6.44-16.56-6.44"/><path class="j" d="M240.92,316.78c2.63,.29-13.87-2.52-16.23,9.96-2.36,12.45-1.84,58.27,8.11,73.39"/><path class="j" d="M266.35,319.48s17.35,10.21,15.87,27.92-9.59,26.55-9.96,32.09-3.87,22.72-3.87,22.72"/><path class="j" d="M268.39,319.55s6.85-2.83,12.72-4.61c12.17-3.69,16.23,2.21,16.23,2.21"/><path class="j" d="M219.89,312.73s11.28-1.54,12.46,5.13"/></g><g><path class="g" d="M411.4,223.41c.56,18.35-12.85,33.64-29.93,34.16s-31.39-13.94-31.94-32.28,13.05-43.8,30.13-44.32c17.09-.52,31.19,24.1,31.74,42.44Z"/><ellipse class="d" cx="381" cy="233.6" rx="20.3" ry="20.17" transform="translate(-6.89 11.63) rotate(-1.73)"/></g><path class="g" d="M320.98,230.27c3.48-1.58,28.37-14.31,15.6-50.41-8.99-25.41-36.3-33.63-44.74-29.83-8.92,2.45-24.72,26.2-15.43,51.5,13.19,35.95,40.48,29.88,44.16,28.88"/><g><path class="i" d="M34.06,685.87c4.18,14.45,13.72,41.28,30.91,60.22,24.6,27.1,38.26,35.57,59.91,36.51,21.66,.94,35.06-15.03,34.48-31.65s-14-30.03-32.36-38.98c-18.36-8.95-20.68-9.69-24.94-13.44-3.22-2.84-23.87-27.43-38.04-38.73"/><path class="g" d="M20.18,645.27v10.11s6.9,4.53,7.47,7.92-1.36,16.42,2.78,22.85c-.45,9.32,.78,7.58-.45,9.32-1.23,1.75,4.35-9.16,3.93-15.98,6.3,2.18,11.06,2.74,11.06,2.74,0,0-4.13-5.24-3.71-8.22,3.48-.5,10.72,1.28,10.72,1.28,0,0-5.53-7.6-3.3-8.39,2.24-.78,9.1,1.12,14.11-1.06-4.49-3.27-5.78-5.17-5.78-5.17,0,0,9.58,1.7,11.77-.79-8.55-1.98-11.77-3.66-11.77-3.66,0,0-.23-1.92-6.73-3.37-6.5-1.46-10.87,2.12-13.96,.88-3.09-1.24-9.42-10.43-16.16-9.24"/></g><g><path class="g" d="M1418.9,869.83c-9.75-3.88-22.45,5.04-28.38,19.92-5.92,14.88-2.82,30.09,6.93,33.97l14,6"/><ellipse class="g" cx="1422.18" cy="902.77" rx="29" ry="19" transform="translate(57.48 1890.29) rotate(-68.3)"/><line class="g" x1="1418.9" y1="869.83" x2="1432.9" y2="875.83"/><path class="g" d="M1405.94,925.47c8.54-1.02,17.37-9.8,21.4-22.27,3.51-10.85,2.44-21.57-2.07-28"/></g><g><path class="g" d="M1399.02,237.8c-2.3,10.24,8.51,21.38,24.13,24.89,15.63,3.51,30.16-1.95,32.46-12.19l3.72-14.77"/><ellipse class="g" cx="1431.04" cy="229.39" rx="19" ry="29" transform="translate(893.73 1575.42) rotate(-77.35)"/><line class="g" x1="1399.02" y1="237.8" x2="1402.75" y2="223.04"/><path class="g" d="M1456,241.85c-2.35-8.28-12.41-15.61-25.36-17.63-11.27-1.76-21.68,.98-27.33,6.45"/></g><g><g><path class="g" d="M1312.85,471.09c-4.57-17.16-42.39-41.94-42.39-41.94l-8.85,9.74s21.07,12.11,37.28,36.91c16.2,24.8,1.23,66.3-2.35,81.96-3.58,15.66-7.49,22.9-.23,26.18,7.27,3.28,10.31,2.35,11.69-2.14s14.44-64.16,23.91-95.24c9.47-31.08,62.19-48.24,62.19-48.24l-9.62-12.38s-35.84,8.25-52.86,28.83"/><path class="g" d="M1313.2,483.3s7.31-35.06,5.79-53.86c-1.27-15.7-3.34-15.47-3.34-15.47l13.66-.38s5.27,38.54,.45,53.1"/><path class="g" d="M1318.67,447.73s-3.47-11.94-14.67-22.44c-9.06-8.5-10.89-6.21-10.89-6.21l-6.7,8.36s21.76,15.53,20.46,32.93"/><polyline class="g" points="1331.69 441.73 1347.46 415.7 1361.21 419.51 1349.36 440.16"/><polyline class="g" points="1293.06 581.25 1282.13 598.44 1290.46 590.64 1283.72 603.82 1288.73 596.9 1287.31 602.05 1291.52 597.63 1289.37 605.38 1295.84 593.53 1293.76 601.06 1295.98 597.35 1296.18 603.84 1298.8 594.37 1300.58 600.9 1302.68 593.32 1303.52 603.22 1304.86 592.62 1307.16 597.73 1306.2 584.89"/></g><g class="l"><path class="b" d="M1312.85,471.09c-4.57-17.16-42.39-41.94-42.39-41.94l-8.85,9.74s21.92,11.58,37.28,36.91c11.8,19.46,7.3,30.96,7.3,30.96-3.58,15.66-.14,7.9,7.12,11.18,7.27,3.28,10.31,2.35,11.69-2.14s-2.56,1.84,6.91-29.24c9.47-31.08,62.19-48.24,62.19-48.24l-9.62-12.38s-35.84,8.25-52.86,28.83"/><path class="b" d="M1313.2,483.3s7.31-35.06,5.79-53.86c-1.27-15.7-3.34-15.47-3.34-15.47l13.66-.38s5.27,38.54,.45,53.1"/><path class="b" d="M1318.67,447.73s-3.47-11.94-14.67-22.44c-9.06-8.5-10.89-6.21-10.89-6.21l-6.7,8.36s21.76,15.53,20.46,32.93"/><polyline class="b" points="1331.69 441.73 1347.46 415.7 1361.21 419.51 1349.36 440.16"/></g></g><g><ellipse class="g" cx="1207.44" cy="20.96" rx="33" ry="7.5" transform="translate(221.94 718.91) rotate(-36.3)"/><path class="g" d="M1317.51,115.05c2.45,3.34-7.47,14.79-22.16,25.58-14.69,10.79-28.58,16.83-31.04,13.49"/><line class="g" x1="1264.91" y1="154.93" x2="1180.85" y2="40.49"/><line class="g" x1="1318.1" y1="115.86" x2="1234.04" y2="1.42"/><line class="j" x1="1187.45" y1="40.66" x2="1270.92" y2="154.3"/><line class="j" x1="1196.59" y1="38.23" x2="1278.59" y2="149.85"/><line class="j" x1="1202.34" y1="33.43" x2="1286.09" y2="147.44"/><line class="j" x1="1211.88" y1="27" x2="1295.36" y2="140.63"/><line class="j" x1="1220.87" y1="19.81" x2="1304.49" y2="133.64"/><line class="j" x1="1230.07" y1="10.61" x2="1312.77" y2="123.19"/></g><g><ellipse class="g" cx="1206.44" cy="20.96" rx="33" ry="7.5" transform="translate(221.74 718.32) rotate(-36.3)"/><path class="g" d="M1316.51,115.05c2.45,3.34-7.47,14.79-22.16,25.58-14.69,10.79-28.58,16.83-31.04,13.49"/><line class="g" x1="1263.91" y1="154.93" x2="1179.85" y2="40.49"/><line class="g" x1="1317.1" y1="115.86" x2="1233.04" y2="1.42"/><line class="j" x1="1186.45" y1="40.66" x2="1269.92" y2="154.3"/><line class="j" x1="1195.59" y1="38.23" x2="1277.59" y2="149.85"/><line class="j" x1="1201.34" y1="33.43" x2="1285.09" y2="147.44"/><line class="j" x1="1210.88" y1="27" x2="1294.36" y2="140.63"/><line class="j" x1="1219.87" y1="19.81" x2="1303.49" y2="133.64"/><line class="j" x1="1229.07" y1="10.61" x2="1311.77" y2="123.19"/></g><g><ellipse class="g" cx="255.09" cy="37.03" rx="3.76" ry="16.54" transform="translate(177.88 282.96) rotate(-80.83)"/><path class="g" d="M227.5,104.16c-.33,2.05,6.71,4.89,15.73,6.35,9.02,1.46,16.6,.97,16.93-1.08"/><line class="g" x1="260.08" y1="109.93" x2="271.42" y2="39.67"/><line class="g" x1="227.42" y1="104.65" x2="238.76" y2="34.39"/><line class="j" x1="268.51" y1="41.25" x2="257.25" y2="111.02"/><line class="j" x1="263.88" y1="42.26" x2="252.81" y2="110.78"/><line class="j" x1="260.22" y1="41.43" x2="248.92" y2="111.43"/><line class="j" x1="254.49" y1="40.74" x2="243.23" y2="110.51"/><line class="j" x1="248.84" y1="39.59" x2="237.56" y2="109.48"/><line class="j" x1="242.63" y1="37.59" x2="231.47" y2="106.71"/></g><g><ellipse class="g" cx="1261.51" cy="247.59" rx="21.33" ry="4.35" transform="translate(-17.79 374.47) rotate(-16.77)"/><path class="g" d="M1264.65,331.96c.69,2.3,10.4,1.4,21.68-1.99s19.86-8.02,19.17-10.31"/><line class="g" x1="1305.67" y1="320.2" x2="1281.93" y2="241.43"/><line class="g" x1="1264.81" y1="332.51" x2="1241.08" y2="253.74"/><line class="j" x1="1279.38" y1="244.65" x2="1302.94" y2="322.86"/><line class="j" x1="1274.5" y1="248.21" x2="1297.65" y2="325.04"/><line class="j" x1="1269.8" y1="249.34" x2="1293.45" y2="327.82"/><line class="j" x1="1262.76" y1="251.75" x2="1286.33" y2="329.96"/><line class="j" x1="1255.56" y1="253.63" x2="1279.17" y2="331.98"/><line class="j" x1="1247.27" y1="254.94" x2="1270.62" y2="332.43"/></g><g><ellipse class="g" cx="1212.01" cy="149.48" rx="5.16" ry="22.72" transform="translate(460.04 1111.69) rotate(-59.02)"/><path class="g" d="M1181.52,244.42c-1.47,2.45-11.38-.81-22.14-7.27-10.76-6.46-18.29-13.68-16.82-16.12"/><line class="g" x1="1142.2" y1="221.62" x2="1192.53" y2="137.78"/><line class="g" x1="1181.16" y1="245.01" x2="1231.49" y2="161.18"/><line class="j" x1="1194.17" y1="142.02" x2="1144.2" y2="225.27"/><line class="j" x1="1198.15" y1="147.18" x2="1149.06" y2="228.95"/><line class="j" x1="1202.73" y1="149.56" x2="1152.59" y2="233.08"/><line class="j" x1="1209.35" y1="153.91" x2="1159.38" y2="237.15"/><line class="j" x1="1216.31" y1="157.71" x2="1166.25" y2="241.09"/><line class="j" x1="1224.6" y1="161.1" x2="1175.09" y2="243.57"/></g><g><circle class="g" cx="218.74" cy="882.71" r="67.44"/><circle class="e" cx="218.07" cy="882.71" r="50.07"/><polygon class="b" points="207.88 849.78 204.9 853.79 207.88 857.56 211.08 853.79 207.88 849.78"/><polygon class="b" points="220.82 862.1 217.84 866.11 220.82 869.88 224.02 866.11 220.82 862.1"/><polygon class="b" points="209.11 880.58 206.14 884.59 209.11 888.36 212.31 884.59 209.11 880.58"/><polygon class="b" points="198.03 896.6 195.05 900.61 198.03 904.37 201.22 900.61 198.03 896.6"/><polygon class="b" points="190.02 868.26 187.04 872.27 190.02 876.04 193.22 872.27 190.02 868.26"/><polygon class="b" points="228.21 880.58 225.23 884.59 228.21 888.36 231.41 884.59 228.21 880.58"/><polygon class="b" points="234.99 859.02 232.01 863.03 234.99 866.8 238.18 863.03 234.99 859.02"/><polygon class="b" points="241.15 892.9 238.17 896.91 241.15 900.68 244.34 896.91 241.15 892.9"/><polygon class="b" points="247.31 882.43 244.33 886.44 247.31 890.21 250.5 886.44 247.31 882.43"/><polygon class="b" points="222.36 904.37 219.1 908.76 222.36 912.89 225.86 908.76 222.36 904.37"/><polygon class="b" points="228.21 843.01 225.23 847.01 228.21 850.78 231.41 847.01 228.21 843.01"/></g><g><circle class="g" cx="176.38" cy="559.52" r="42.25"/><circle class="j" cx="176.38" cy="559.52" r="38.71"/><circle class="j" cx="176.38" cy="559.52" r="36"/><circle class="j" cx="176.38" cy="559.52" r="32.67"/><circle class="j" cx="176.38" cy="559.52" r="27.89"/><circle class="j" cx="176.38" cy="559.52" r="23.16"/><circle class="j" cx="176.38" cy="559.52" r="18.83"/><circle class="j" cx="176.38" cy="559.52" r="15.05"/><circle class="j" cx="172.85" cy="563.47" r="9.56"/><circle class="j" cx="182.63" cy="554.1" r="5.61"/></g><g><circle class="g" cx="1396.38" cy="644.52" r="42.25"/><circle class="j" cx="1396.38" cy="644.52" r="38.71"/><circle class="j" cx="1396.38" cy="644.52" r="36"/><circle class="j" cx="1396.38" cy="644.52" r="32.67"/><circle class="j" cx="1396.38" cy="644.52" r="27.89"/><circle class="j" cx="1396.38" cy="644.52" r="23.16"/><circle class="j" cx="1396.38" cy="644.52" r="18.83"/><circle class="j" cx="1396.38" cy="644.52" r="15.05"/><circle class="j" cx="1392.85" cy="648.47" r="9.56"/><circle class="j" cx="1402.63" cy="639.1" r="5.61"/></g><g><g><path class="h" d="M113.89,499.11c-5.19-11.43-4.54-18.83-4.54-18.83l-1.88,6.48-8.69-5.84c1.64,1.31,4.77,4.82,3.99,12.26-.19,1.77-.62,3.32-1.2,4.66-23.79,.58-42.88,18.22-42.88,39.89s19.74,39.91,44.08,39.91,44.08-17.87,44.08-39.91c0-18.56-14-34.16-32.96-38.62Z"/><path class="h" d="M98.77,480.91c-.56-.45-.95-.64-.95-.64l.95,.64Z"/></g><path class="h" d="M98.82,577.42c-1.34,4.73-2.76,12.59-4.53,16.73,2.34-2.99,3.49-7.98,5.48-11.86,.12,.55,.09,2.36,0,2.93-.58,3.9-.19,8.14-.78,12.04,.68-4.14,1.38-8.34,2.58-11.98,.14-.42,.32-.87,.57-.89,.25-.01,.44,.41,.59,.81,.84,2.25,1.41,4.89,1.65,7.65-.06-3.02,0-6.04,.19-9.04l1,5.28c.15,.79,1.38,3.13,1.81,3.27,.49,.17-.12-2.37-.16-3.36s-.37-1.81-.69-2.57c-.97-2.33-1.35-6.7-2.32-9.03"/></g><path class="k" d="M85.79,574.57c-20.39-51.21,16.39-76.79,16.39-76.79,0,0-24.73,32.7-16,77"/><g><path class="i" d="M.82,872.3l27.89,69.76c1.43,3.57,6.42,3.59,7.88,.03l19.92-48.7c.89-2.16-.11-4.65-2.23-5.58l-47.81-21.06c-3.49-1.54-7.07,1.98-5.65,5.55Z"/><path class="i" d="M6.47,866.75s16.86,13.48,24.79,33.7c7.93,20.22,5.32,41.64,5.32,41.64"/><path class="d" d="M.48,871.82l27.89,69.76c1.43,3.57,6.42,3.59,7.88,.03,0,0,2.61-21.42-5.32-41.64-7.93-20.22-24.79-33.7-24.79-33.7-3.49-1.54-7.07,1.98-5.65,5.55Z"/></g><polygon class="c" points="61.18 806.3 62.79 809.56 66.38 810.08 63.78 812.62 64.39 816.2 61.18 814.51 57.96 816.2 58.58 812.62 55.98 810.08 59.57 809.56 61.18 806.3"/><polygon class="c" points="93.18 842.3 94.79 845.56 98.38 846.08 95.78 848.62 96.39 852.2 93.18 850.51 89.96 852.2 90.58 848.62 87.98 846.08 91.57 845.56 93.18 842.3"/><polygon class="c" points="34.18 806.3 35.79 809.56 39.38 810.08 36.78 812.62 37.39 816.2 34.18 814.51 30.96 816.2 31.58 812.62 28.98 810.08 32.57 809.56 34.18 806.3"/><polygon class="c" points="55.3 846.06 54.09 848.41 51.38 848.79 53.34 850.62 52.88 853.2 55.3 851.98 57.72 853.2 57.26 850.62 59.22 848.79 56.51 848.41 55.3 846.06"/><g><g><ellipse class="g" cx="1331.63" cy="826.51" rx="49.11" ry="25.05" transform="translate(-129.43 259.36) rotate(-10.61)"/><ellipse class="e" cx="1331.15" cy="826.6" rx="36.46" ry="18.6" transform="translate(-129.46 259.28) rotate(-10.61)"/><polygon class="b" points="1321.58 815.95 1319.73 817.81 1322.12 818.79 1324.15 816.98 1321.58 815.95"/><polygon class="b" points="1331.69 818.71 1329.84 820.57 1332.23 821.55 1334.26 819.74 1331.69 818.71"/><polygon class="b" points="1324.59 827.03 1322.74 828.89 1325.13 829.86 1327.16 828.06 1324.59 827.03"/><polygon class="b" points="1317.76 834.36 1315.9 836.22 1318.3 837.2 1320.32 835.39 1317.76 834.36"/><polygon class="b" points="1310.07 825.1 1308.22 826.96 1310.61 827.93 1312.64 826.13 1310.07 825.1"/><polygon class="b" points="1338.26 824.46 1336.4 826.32 1338.79 827.3 1340.82 825.49 1338.26 824.46"/><polygon class="b" points="1341.62 815.68 1339.77 817.54 1342.16 818.52 1344.19 816.71 1341.62 815.68"/><polygon class="b" points="1348.37 827.22 1346.51 829.08 1348.9 830.06 1350.93 828.25 1348.37 827.22"/><polygon class="b" points="1352.05 822.57 1350.2 824.43 1352.59 825.41 1354.62 823.6 1352.05 822.57"/><polygon class="b" points="1335.71 833.93 1333.68 835.97 1336.3 837.04 1338.52 835.06 1335.71 833.93"/><polygon class="b" points="1335.67 810.75 1333.81 812.61 1336.2 813.58 1338.23 811.78 1335.67 810.75"/></g><path class="g" d="M1283.36,835.57c-7.5,53.37,131.72,28.91,95.2-22.13"/></g><g><path class="g" d="M128.64,260.45c-4.1,3.46-8.63,12-12.19,16.15-4.72,2.76-13.93,5.68-18.08,9.08-6.46,5.31-12.01,14.45-5.85,21.7,6.1,7.19,19.44,14.32,43.04-7.86,26.07-19.22,21.46-33.62,15.48-40.92-6.03-7.37-16.02-3.55-22.4,1.85Z"/><path class="g" d="M109.99,279.68s2.25,5.86,8.8,.35,1.84-9.22,1.84-9.22l-4.19,5.79-6.45,3.08Z"/></g><g><path class="g" d="M86.74,346.52c-2.02-2.44-7.79-4.58-10.4-6.57-1.41-2.97-2.3-9.05-4.27-11.53-3.07-3.87-9.15-6.65-15.46-1.47-6.25,5.13-13.48,15.32-.15,29.12,10.76,15.89,22.21,10.93,28.53,5.87,6.37-5.1,4.91-11.62,1.76-15.43Z"/><path class="g" d="M74.94,335.82s-4.71,2.28-1.5,6.19c3.21,3.91,6.66,.17,6.66,.17l-3.76-2.23-1.4-4.14Z"/></g></svg>