<?xml version="1.0" encoding="UTF-8"?><svg id="a" xmlns="http://www.w3.org/2000/svg" width="48" height="48" viewBox="0 0 48 48"><defs><style>path {fill: #40BFBF;} .b{fill: #40BFBF; opacity:.9;}</style></defs><g><path class="b" d="M0,0C5.82,4.85,11.16,10.18,16,16,10.18,11.16,4.85,5.82,0,0H0Z"/><path d="M16,0C11.15,5.82,5.82,11.16,0,16,4.84,10.18,10.18,4.85,16,0h0Z"/></g><g><path class="b" d="M16,0c5.82,4.85,11.16,10.18,16,16C26.18,11.16,20.85,5.82,16,0h0Z"/><path d="M32,0c-4.85,5.82-10.18,11.16-16,16C20.84,10.18,26.18,4.85,32,0h0Z"/></g><g><path class="b" d="M0,32c5.82,4.85,11.16,10.18,16,16-5.82-4.84-11.15-10.18-16-16H0Z"/><path d="M16,32C11.15,37.82,5.82,43.16,0,48c4.84-5.82,10.18-11.15,16-16h0Z"/></g><g><path class="b" d="M0,16c5.82,4.85,11.16,10.18,16,16C10.18,27.16,4.85,21.82,0,16H0Z"/><path d="M16,16C11.15,21.82,5.82,27.16,0,32c4.84-5.82,10.18-11.15,16-16h0Z"/></g><g><path class="b" d="M16,32c5.82,4.85,11.16,10.18,16,16-5.82-4.84-11.15-10.18-16-16h0Z"/><path d="M32,32c-4.85,5.82-10.18,11.16-16,16,4.84-5.82,10.18-11.15,16-16h0Z"/></g><g><path class="b" d="M32,0c5.82,4.85,11.16,10.18,16,16-5.82-4.84-11.15-10.18-16-16h0Z"/><path d="M48,0c-4.85,5.82-10.18,11.16-16,16C36.84,10.18,42.18,4.85,48,0h0Z"/></g><g><path class="b" d="M32,16c5.82,4.85,11.16,10.18,16,16-5.82-4.84-11.15-10.18-16-16h0Z"/><path d="M48,16c-4.85,5.82-10.18,11.16-16,16,4.84-5.82,10.18-11.15,16-16h0Z"/></g><g><path class="b" d="M32,32c5.82,4.85,11.16,10.18,16,16-5.82-4.84-11.15-10.18-16-16h0Z"/><path d="M48,32c-4.85,5.82-10.18,11.16-16,16,4.84-5.82,10.18-11.15,16-16h0Z"/></g></svg>