<?xml version="1.0" encoding="UTF-8"?><svg xmlns="http://www.w3.org/2000/svg" width="541" height="423" xmlns:xlink="http://www.w3.org/1999/xlink" viewBox="0 0 541 423"><defs><style>.g,.h,.i,.j,.k{fill:#fff;}.l{opacity:.04;}.m{opacity:.07;}.m,.n{mix-blend-mode:multiply;}.h{opacity:0;}.o{fill:#6b279b;}.p{isolation:isolate;}.q{opacity:.33;}.r,.n{opacity:.05;}.s{fill:#d0d3d6;}.t{fill:#90dac4;}.u{fill:url(#c);opacity:.28;}.i{opacity:.19;}.v{fill:#59177f;}.w{opacity:.03;}.x{stroke:#fff;stroke-linecap:round;stroke-linejoin:round;stroke-width:2px;}.x,.y{fill:none;}.j{opacity:.25;}.k{opacity:.22;}.a`{fill:#dde1e8;}.aa{opacity:.3;}</style><pattern id="c" x="0" y="0" width="53.71" height="55" patternTransform="translate(-6 -48)" patternUnits="userSpaceOnUse" viewBox="0 0 53.71 55"><g><rect width="53.71" height="55" style="fill:none;"/><path d="M13.28,13.07S14.53,1,26.64,1s13.78,12.07,13.78,12.07" style="fill:none; stroke:#fff; stroke-linecap:round; stroke-linejoin:round; stroke-width:2px;"/><path d="M13.28,41.93s1.25,12.07,13.36,12.07,13.78-12.07,13.78-12.07" style="fill:none; stroke:#fff; stroke-linecap:round; stroke-linejoin:round; stroke-width:2px;"/><path d="M13.06,41.29S1,40,1,27.5,13.06,13.28,13.06,13.28" style="fill:none; stroke:#fff; stroke-linecap:round; stroke-linejoin:round; stroke-width:2px;"/><path d="M40.64,41.29s12.07-1.29,12.07-13.79c0-12.5-12.07-14.22-12.07-14.22" style="fill:none; stroke:#fff; stroke-linecap:round; stroke-linejoin:round; stroke-width:2px;"/></g></pattern></defs><g style="isolation:isolate;"><g id="a"><rect width="541" height="423" style="fill:#fff; opacity:0;"/></g><g id="b"><rect x="3" y="85" width="534" height="154" style="fill:url(#c); opacity:.28;"/></g><g id="d"><polygon points="224 369 411 286 500 310.78 335 402 224 369" style="mix-blend-mode:multiply; opacity:.07;"/><polygon points="224 369 410 283 500 307.78 335 399 224 369" style="fill:#fff;"/><g><path d="M398.56,313.39c-.89-.35-1.48-.81-1.79-1.39-.31-.58-.38-1.2-.23-1.87,.15-.67,.45-1.3,.91-1.89,.37-.48,.77-.88,1.21-1.21,.86-.64,1.87-1.09,3.03-1.36,1.16-.27,2.27-.2,3.32,.22,.13,.05,.25,.11,.37,.18,.12,.07,.22,.14,.31,.22,.17,.05,.36,.04,.58,0,.22-.05,.4-.1,.53-.15,.14-.07,.28-.14,.4-.23,.12-.09,.21-.17,.28-.25,.09-.11,.11-.2,.08-.28-.02-.05-.01-.09,.01-.12,.09-.11,.2-.1,.33,.04,.19,.2,.18,.44-.04,.73-.21,.27-.51,.45-.91,.54-.17,.06-.34,.08-.5,.07-.16-.01-.32-.05-.46-.1,.35,.35,.58,.8,.66,1.35h.14c.23,0,.41,.12,.52,.35,.11,.23,.1,.53-.05,.88-.11,.27-.28,.53-.48,.81-.22,.29-.48,.55-.76,.79s-.56,.38-.81,.43c-.25,.04-.37,.01-.33-.1,.17-.06,.31-.15,.41-.28s.16-.27,.19-.44c.03-.17,.02-.3-.01-.39-.02-.11-.04-.24-.06-.38-.02-.14,0-.33,.09-.57,.05-.19,.13-.35,.24-.5,.16-.21,.36-.37,.59-.48-.21-.94-.83-1.54-1.84-1.82-.82-.22-1.64-.25-2.44-.08-.81,.17-1.56,.47-2.24,.91-.69,.44-1.26,.95-1.71,1.54-.6,.78-.91,1.56-.93,2.34v-.09c.09-.26,.24-.54,.47-.85,.15-.19,.3-.36,.47-.5,.59-.45,1.05-.61,1.39-.48,.23,.09,.32,.28,.27,.57,0,.1-.04,.2-.12,.3-.11,.14-.19,.14-.22,0-.04-.12-.17-.16-.41-.11-.23,.04-.48,.14-.74,.28-.12,.06-.26,.16-.42,.3-.17,.14-.32,.3-.45,.48-.07,.1-.15,.21-.22,.35,.03,.41,.17,.77,.42,1.1,.24,.33,.62,.59,1.12,.79,.73,.29,1.61,.37,2.64,.25,1.03-.12,2.14-.39,3.33-.79,1.19-.4,2.42-.9,3.67-1.48,1.26-.58,2.5-1.2,3.72-1.85,1.22-.65,2.36-1.28,3.42-1.88,1.06-.6,1.97-1.11,2.74-1.54,1.61-.9,3.22-1.74,4.81-2.53s3.08-1.34,4.45-1.67c-.7-.75-1.44-1.56-2.23-2.41-.78-.85-1.66-1.59-2.64-2.23-.28-.21-.56-.39-.86-.53,0,.02-.01,.02-.04-.02-.16-.1-.35-.12-.59-.06-.23,.06-.41,.13-.54,.21-.25,.15-.43,.31-.55,.47-.11,.14-.14,.26-.09,.34,.05,.06,.05,.11,.01,.16-.05,.06-.12,.08-.22,.04-.11-.04-.21-.14-.28-.3-.07-.15-.03-.33,.13-.54s.38-.37,.66-.49c.28-.12,.56-.16,.84-.14-1.11-.48-2.22-.72-3.3-.71s-2.11,.18-3.07,.52c-.96,.34-1.83,.79-2.61,1.35,.06,.02,.05,.07,0,.15-.27,.33-.45,.61-.52,.85s-.11,.48-.11,.71c.22-.14,.44-.22,.65-.24s.41,0,.58,.07c.14,.06,.24,.13,.3,.21,.17,.19,.27,.37,.31,.54,.04,.17,.06,.34,.06,.51,0,.12,.03,.25,.11,.39,.08,.13,.18,.23,.31,.28,.2,.08,.41,.05,.65-.09,0,.06-.03,.14-.1,.24-.18,.24-.45,.41-.78,.5-.34,.1-.69,.13-1.05,.11-.36-.02-.68-.08-.96-.19-.51-.2-.77-.53-.8-.98-.02-.46,.11-.82,.4-1.1l.06-.04c-.05-.25-.04-.49,.03-.72,.07-.23,.16-.48,.28-.75-.59,.5-1.07,.99-1.45,1.49-.5,.65-.86,1.32-1.07,1.99-.21,.68-.22,1.28-.02,1.81,.19,.53,.62,.93,1.28,1.19s1.45,.32,2.37,.17,1.83-.48,2.73-1.01,1.66-1.23,2.27-2.11c.19-.28,.33-.59,.4-.93s-.03-.57-.31-.68c-.07-.03-.16-.04-.27-.04-.11,0-.21,.03-.3,.1-.05,.04-.1,.06-.14,.04-.07-.03-.05-.11,.06-.26,.17-.22,.39-.38,.65-.46s.48-.09,.66-.02c.2,.08,.3,.27,.32,.56s-.18,.73-.6,1.29c.15-.13,.32-.25,.5-.36,.34-.18,.61-.23,.82-.14,.22,.09,.28,.27,.17,.53-.04,.11-.1,.18-.17,.21-.07,.04-.1,.01-.11-.07,0-.06-.04-.11-.09-.13-.11-.04-.32-.03-.61,.04-.08,.03-.18,.08-.31,.16-.13,.07-.26,.17-.38,.28-.72,.98-1.53,1.76-2.42,2.32-.89,.56-1.77,.93-2.64,1.11,.08,.01,.15,.03,.22,.04,.06,.01,.12,.03,.18,.05,.28,.11,.44,.28,.49,.52,.05,.24,0,.45-.15,.64-.16,.21-.39,.35-.68,.42-.15,.02-.24,.01-.28-.03s0-.1,.12-.16c.14-.07,.23-.19,.27-.36s.02-.34-.03-.51c-.04-.2-.2-.36-.47-.46l-.11-.04s-.08-.02-.12-.02c-.85,.08-1.61-.01-2.29-.28-.86-.34-1.44-.82-1.73-1.45-.3-.63-.39-1.3-.27-2.02-.07,.09-.17,.2-.3,.32-.32,.27-.67,.47-1.05,.61-.05,.19-.15,.37-.28,.54-.31,.4-.74,.71-1.29,.92-.33,.14-.71,.22-1.15,.25s-.81-.02-1.1-.14c-.24-.09-.39-.24-.44-.42-.04-.12-.03-.22,0-.29s.07-.12,.1-.13c.02,.05,.07,.09,.15,.12,.17,.07,.39,.03,.67-.1,.27-.13,.49-.27,.64-.42,.15-.15,.32-.3,.51-.45,.19-.15,.43-.3,.72-.43,.43-.2,.81-.24,1.13-.11,.23,.09,.35,.24,.36,.45,.29-.14,.59-.35,.91-.64,.07-.07,.15-.15,.22-.23,.07-.08,.13-.15,.18-.21,.11-.14,.18-.25,.22-.32,.23-.66,.6-1.31,1.1-1.96,.43-.56,.95-1.09,1.54-1.59,.6-.5,1.26-.93,1.98-1.29-.07,0-.14-.02-.23-.04s-.16-.05-.23-.08c-.18-.07-.33-.18-.45-.33-.11-.15-.18-.33-.2-.55-.05,0-.12-.02-.21-.05-.2-.08-.34-.25-.42-.51-.08-.26-.06-.56,.06-.91,.1-.27,.28-.58,.54-.91,.28-.37,.6-.7,.96-.99,.36-.29,.68-.46,.96-.49,.17-.04,.28-.03,.33,0,.04,.04,.07,.07,.09,.1-.2,.07-.37,.19-.5,.36-.12,.16-.2,.33-.23,.52-.03,.18-.03,.34,0,.45,.04,.14,.07,.3,.09,.47,.02,.17,0,.39-.08,.65-.08,.22-.18,.41-.3,.57-.3,.38-.64,.62-1.02,.72,.05,.27,.24,.47,.56,.59l.13,.05c.2,.08,.43,.12,.7,.12,1.09-.48,2.26-.77,3.52-.85s2.54,.13,3.85,.65c.32,.13,.64,.27,.95,.44,.31,.17,.62,.35,.92,.55,.65,.42,1.3,.95,1.96,1.58,.66,.63,1.29,1.28,1.9,1.93,.61,.66,1.15,1.25,1.62,1.79,.62-.11,1.2-.16,1.74-.15,.54,0,1.04,.1,1.49,.28,.39,.16,.62,.37,.67,.64,.06,.27,0,.53-.19,.77-.2,.26-.5,.44-.91,.55s-.86,.05-1.37-.17c-.87,.49-1.76,1.05-2.66,1.69-.9,.64-1.77,1.3-2.6,1.96-.84,.67-1.59,1.29-2.26,1.88-.84,.73-1.66,1.41-2.47,2.05s-1.7,1.16-2.66,1.57c1.45-.4,2.91-.95,4.39-1.63,1.47-.69,2.9-1.42,4.28-2.21,.92-.53,2-1.12,3.23-1.76,1.23-.65,2.53-1.28,3.89-1.89,1.36-.62,2.7-1.17,4.02-1.66,1.32-.49,2.54-.84,3.66-1.05,1.12-.21,2.03-.22,2.74-.02,.1,.02,.19,.04,.27,.08l.23,.09c.82,.32,1.25,.75,1.3,1.28,.05,.53-.1,1.02-.44,1.46-.22,.29-.5,.53-.83,.72-.33,.19-.65,.29-.97,.29l.14-.26c.51-.09,.92-.34,1.24-.76,.25-.32,.35-.66,.31-1.03-.04-.37-.3-.65-.79-.84-.25-.1-.58-.17-.97-.2-.63-.04-1.44,.06-2.44,.31-1,.25-2.1,.59-3.3,1.01-1.2,.42-2.41,.89-3.65,1.41-1.24,.52-2.41,1.03-3.51,1.53-1.1,.5-2.06,.95-2.86,1.33-.81,.39-1.38,.67-1.72,.85-.56,.3-1.25,.65-2.07,1.05-.82,.41-1.69,.8-2.63,1.19-.93,.39-1.86,.73-2.78,1.02s-1.78,.48-2.56,.58c-.79,.09-1.44,.04-1.96-.17-.28-.11-.4-.2-.35-.26,.06-.08,.22-.13,.48-.15s.44-.06,.54-.1c.12-.04,.39-.18,.8-.43,.41-.25,.91-.56,1.5-.92,.58-.36,1.19-.74,1.81-1.14s1.2-.77,1.73-1.11,.93-.63,1.23-.84c.23-.16,.65-.44,1.27-.86,.61-.41,1.33-.88,2.15-1.39s1.67-1.04,2.54-1.55c.87-.52,1.67-.96,2.4-1.31-.09-.05-.18-.12-.28-.2-.1-.08-.21-.17-.33-.25l-.45-.46c-.78,.25-1.62,.59-2.51,1s-1.76,.86-2.61,1.32-1.63,.91-2.34,1.34c-.71,.43-1.29,.77-1.73,1.03-1.05,.65-2.26,1.34-3.65,2.08-1.38,.74-2.84,1.46-4.37,2.14-1.54,.68-3.06,1.26-4.58,1.74-1.52,.48-2.95,.78-4.29,.91s-2.5,0-3.47-.39Zm31.64-10.29c.25,.08,.5,.08,.74,0,.24-.07,.42-.19,.54-.35,.11-.14,.14-.3,.09-.46-.05-.16-.23-.31-.54-.43-.28-.09-.62-.12-1.04-.08-.41,.03-.86,.12-1.36,.26,.17,.19,.33,.35,.49,.47,.16,.13,.35,.24,.58,.35,.2-.09,.38-.17,.55-.23s.33-.11,.48-.14l.07,.12c-.12,.06-.24,.12-.37,.2s-.27,.14-.41,.21l.17,.07Zm-9.85,15.56c-.29-.12-.48-.33-.56-.63-.07-.22-.04-.48,.1-.8s.34-.66,.61-1.01c.22-.29,.48-.58,.77-.88,.3-.3,.61-.6,.96-.9,.95-.83,2.11-1.7,3.47-2.62,1.36-.92,2.81-1.82,4.34-2.71s3.05-1.7,4.56-2.42,2.88-1.31,4.12-1.76v.22c-.96,.45-2,1.01-3.13,1.68-1.13,.67-2.28,1.39-3.46,2.17-1.18,.78-2.34,1.58-3.47,2.39-1.13,.81-2.18,1.6-3.13,2.36-.05,.04-.23,.19-.55,.44s-.69,.57-1.12,.95c-.43,.38-.86,.77-1.27,1.16s-.75,.75-.99,1.07c-.17,.22-.29,.42-.34,.58s-.02,.27,.11,.32,.35,.04,.67-.02c.16-.04,.31-.08,.45-.12,.14-.04,.29-.09,.45-.15v.28c-.39,.18-.84,.32-1.33,.42-.49,.11-.91,.09-1.25-.04Z" style="fill:#90dac4;"/><path d="M426.89,318.93c-.37-.14-.63-.38-.8-.71s-.16-.74,.03-1.25c.12-.33,.33-.67,.61-1.04,.34-.45,.76-.85,1.25-1.22,.6-.45,1.29-.85,2.06-1.21,.77-.36,1.55-.65,2.33-.89,.78-.23,1.5-.38,2.16-.44,.65-.06,1.16-.02,1.53,.12,.31,.12,.48,.31,.52,.58,.02,.19-.08,.43-.29,.7-.27,.35-.7,.71-1.28,1.07s-1.21,.63-1.89,.8c-.43,.1-.87,.15-1.33,.14-.46,0-.89-.09-1.29-.24-.13-.05-.25-.11-.37-.18-.12-.07-.23-.14-.33-.23-.2,.09-.47,.25-.82,.47s-.7,.49-1.05,.79c-.35,.3-.64,.6-.88,.9-.31,.42-.43,.75-.37,.99s.22,.42,.49,.52c.53,.21,1.2,.22,2,.03,.8-.19,1.63-.5,2.48-.91,.85-.41,1.62-.83,2.31-1.24,.09-.05,.15-.07,.19-.07,.03,0,.06,0,.07,.01,.04,.02,.06,.06,.06,.12,0,.06-.05,.13-.14,.19-.44,.26-.98,.57-1.63,.92-.65,.35-1.32,.66-2.04,.93-.71,.27-1.41,.44-2.1,.53-.27,.04-.53,.04-.79,0s-.49-.1-.7-.18Zm3.67-4c.66,.26,1.41,.3,2.26,.13,.84-.18,1.6-.5,2.27-.96,.17-.1,.31-.2,.41-.3,.11-.1,.18-.19,.23-.25,.21-.27,.18-.46-.09-.56-.17-.07-.39-.09-.67-.08-.28,.02-.54,.06-.8,.12-.44,.12-.93,.28-1.47,.5-.54,.21-1.04,.43-1.51,.65-.47,.22-.82,.4-1.07,.53,.06,.04,.13,.09,.2,.13s.15,.08,.22,.1Z" style="fill:#90dac4;"/><path d="M435.84,322.62c-.34-.13-.53-.37-.58-.71-.05-.34,.11-.74,.46-1.2,.43-.56,1.02-1.08,1.76-1.57s1.53-.95,2.37-1.39,1.58-.85,2.25-1.23c.39-.24,.66-.46,.8-.65,.17-.22,.17-.37-.02-.44-.14-.06-.43-.04-.86,.05-.44,.09-1.05,.28-1.86,.59-.79,.31-1.6,.68-2.44,1.11-.84,.43-1.63,.87-2.39,1.32s-1.44,.87-2.04,1.25c-.6,.39-1.06,.68-1.37,.89-.14,0-.28,0-.44-.05-.16-.04-.32-.09-.47-.16-.35-.14-.57-.25-.64-.35,.4-.21,.95-.52,1.65-.91s1.44-.82,2.24-1.28c.8-.46,1.54-.9,2.23-1.32,.39-.24,.81-.5,1.26-.78,.45-.28,.86-.55,1.23-.81s.61-.47,.73-.63,.13-.26,.02-.31c-.07-.03-.19-.02-.37,.01-.18,.04-.36,.1-.56,.19-.4,.16-.95,.42-1.67,.79s-1.72,.94-3,1.7c-.1,.06-.2,.08-.3,.04-.11-.04-.07-.14,.12-.3,.61-.36,1.23-.72,1.86-1.09,.63-.37,1.24-.7,1.83-1.01,.6-.3,1.12-.53,1.56-.68,.44-.15,.8-.17,1.08-.06,.27,.11,.39,.29,.37,.55-.02,.26-.13,.53-.34,.8-.25,.32-.58,.64-1,.98,.11-.04,.21-.08,.3-.13s.2-.09,.31-.13c.95-.39,1.76-.64,2.45-.73s1.2-.07,1.56,.07c.27,.11,.43,.28,.5,.51s0,.49-.21,.76c-.25,.32-.64,.66-1.18,1.03-.54,.37-1.09,.7-1.64,1-.55,.3-.99,.53-1.32,.69-.22,.12-.64,.34-1.24,.65s-1.18,.65-1.72,1.02c-.25,.15-.44,.3-.6,.43-.15,.14-.28,.27-.38,.4-.28,.37-.28,.61,.02,.72,.32,.13,.89,.07,1.7-.17,.64-.18,1.36-.46,2.18-.84,.81-.37,1.67-.83,2.56-1.37,.1-.06,.18-.09,.23-.08,.05,0,.08,.02,.09,.02,.1,.04,.05,.15-.14,.32-.97,.57-1.92,1.08-2.84,1.53-.92,.45-1.75,.76-2.48,.95-.65,.16-1.18,.16-1.59,0Z" style="fill:#90dac4;"/><path d="M443.45,325.52c-.28-.11-.44-.32-.48-.63s.1-.67,.42-1.08c.13-.17,.35-.39,.64-.65-.41,.19-.86,.39-1.35,.59s-.97,.34-1.43,.43-.85,.07-1.16-.05c-.17-.07-.29-.16-.37-.27-.15-.18-.19-.4-.11-.65,.07-.25,.21-.5,.41-.76,.34-.44,.78-.88,1.31-1.29,.53-.41,.96-.73,1.3-.95-.03,.01-.05,.01-.08,0-.06-.02-.09-.07-.09-.15,0-.08,.04-.14,.13-.18,.21-.1,.54-.28,1.01-.54,.46-.25,.97-.53,1.53-.83,.56-.3,1.08-.58,1.57-.84s.86-.47,1.12-.62c.14,.01,.34,.03,.62,.04,.27,.01,.5,.06,.68,.13,.21,.08,.32,.21,.32,.37-.36,.21-.86,.48-1.48,.82-.63,.34-1.31,.7-2.04,1.1-.74,.4-1.47,.81-2.19,1.25-.73,.44-1.38,.87-1.95,1.3s-1.01,.82-1.29,1.19c-.21,.27-.19,.46,.07,.56,.31,.1,.82,.03,1.53-.22s1.53-.6,2.43-1.05c.91-.45,1.81-.93,2.71-1.42,1.47-.83,3.02-1.72,4.66-2.65,.12,.03,.32,.05,.58,.06,.26,0,.48,.05,.66,.12,.21,.08,.29,.21,.23,.37-.23,.14-.69,.38-1.36,.74-.67,.36-1.43,.77-2.29,1.25-.85,.47-1.69,.96-2.52,1.47-.27,.16-.59,.36-.94,.58s-.68,.42-.96,.6c-.32,.2-.56,.38-.72,.52-.16,.15-.27,.27-.35,.36-.25,.32-.23,.53,.05,.64,.15,.06,.4,.07,.73,.02,.33-.05,.68-.15,1.07-.31,.49-.18,1.03-.43,1.63-.74,.6-.31,1.36-.76,2.3-1.35,.08-.05,.16-.06,.26-.02,.07,.03,.09,.07,.06,.13-.03,.06-.08,.11-.14,.15-.65,.39-1.27,.76-1.87,1.12s-1.24,.68-1.92,.97c-.63,.27-1.2,.43-1.7,.48-.51,.05-.91,.01-1.22-.11Z" style="fill:#90dac4;"/></g></g><g id="e"><g><g><path d="M144.17,47.55c-13.96-1.82-16.53-1.81-19.72-1.82-3.77-1.82-20.75-.58-20.75-.58,0,0,17.98,.58,17.86,.58-.12,0-19.02-.58-19.02-.58h-8.64c-28.24,1.15-25.36,1.15-31.56,2.4,0,0-46.53,80.58,33.57,107.09,9.22,66.27-5.19,100.27-5.19,100.27,0,0,3.77,3.89,9.8,4.36v.25h4.61v-.24c6.52,.27,10.65-4.37,10.65-4.37,0,0-14.41-34-5.19-100.27,80.1-26.51,33.57-107.09,33.57-107.09Z" style="fill:#fff; opacity:.22;"/><ellipse cx="103.26" cy="261.29" rx="41.2" ry="10.99" style="fill:#fff; opacity:.25;"/><path d="M62.4,47.86c-12.35,23.58-19.86,54.31-5.58,78.65,8.87,14.75,23.83,22.77,39.36,28.38,3.37,24.99,4.5,50.79,.84,75.79-1.32,8.37-2.93,16.7-5.93,24.66l-.08-.42c2.66,2.5,6.27,4.03,9.92,4.26v.62l-.4-.4h4.61l-.4,.4v-.64h.42c3.83,.15,7.67-1.52,10.32-4.25l-.07,.44c-5.78-15.97-7.53-33.06-8.22-49.92-.42-12.59,.23-25.46,1.42-37.99l1.51-12.59,.04-.3c10.47-3.46,20.55-8.45,28.91-15.66,8.17-7.27,14.19-16.9,16.57-27.61,4.83-21.53-1.59-44.21-11.5-63.42l.09-.05c10.23,19.21,16.83,41.88,12.07,63.62-4.74,22.63-24.5,37.27-45.52,43.97l.34-.4-1.5,12.55c-2.03,20.9-2.31,42.19,.72,63.01,1.3,8.27,2.92,16.63,5.87,24.47l.1,.26c-2.16,2.3-5.02,3.88-8.12,4.46-1,.21-2.02,.23-3.04,.22l.42-.4v.64h-5.41v-.66l.37,.4c-3.81-.33-7.47-1.98-10.21-4.65,3.04-7.91,4.7-16.35,6.03-24.72,3.1-20.82,2.84-42.13,.83-63.05l-1.49-12.56,.18,.21c-10.44-3.47-20.45-8.56-28.8-15.8-17.61-15.45-21.16-38.74-16.21-60.74,2.42-10.63,6.17-21.5,11.56-30.77h0Z" style="fill:#fff;"/><path d="M144.96,261.5c-.63,6.01-14.11,8.39-19.07,9.37-14.65,2.44-29.71,2.52-44.39,.22-25.77-4.2-25.8-14.93-.03-19.33,14.69-2.36,29.79-2.37,44.45,.22,4.96,1.03,18.48,3.56,19.05,9.53h0Zm-.1,0c-.73-5.94-14.1-8.12-19.04-9-14.61-2.08-29.62-2.08-44.19,.22-24.81,4.14-24.85,13.37-.03,17.72,14.59,2.36,29.63,2.44,44.25,.22,4.93-.93,18.35-3.27,19.01-9.16h0Z" style="fill:#fff;"/><ellipse cx="96.5" cy="263.01" rx="41.2" ry="10.99" style="opacity:.04;"/></g><path d="M144.52,47.46c-.09,.48-.63,.63-1.01,.8-2.86,.95-5.9,1.18-8.88,1.53-10.26,.97-20.56,1.28-30.86,1.38-10.3,0-20.62-.17-30.89-1.09-3.22-.42-6.61-.46-9.62-1.8-.27-.15-.57-.46-.58-.81,.19-1.95,8.38-2.4,10.19-2.7,10.27-1.03,20.59-1.23,30.9-1.26,10.3,.08,20.62,.49,30.87,1.58,2.98,.37,6.02,.61,8.87,1.57,.39,.18,.9,.32,1,.81h0Zm-.1,0c-.09-.37-.58-.54-.95-.7-2.85-.92-5.89-1.11-8.85-1.43-10.25-.83-20.56-.85-30.84-.83-10.28,.02-20.57,.26-30.81,1.15-3.13,.42-6.7,.43-9.48,1.81,.43,.35,1.27,.58,1.9,.74,2.48,.6,5.03,.87,7.57,1.15,10.24,1,20.53,1.25,30.82,1.32,10.29,.04,20.6-.08,30.85-1.03,2.97-.33,6-.54,8.85-1.47,.37-.15,.85-.33,.94-.7h0Z" style="fill:#fff;"/><path d="M142.21,47.46c-.1,.28-.34,.29-.52,.37-2.97,.73-6.07,.79-9.11,1.03-9.76,.56-19.54,.78-29.32,.86-9.78,.02-19.56-.07-29.33-.58-3.07-.23-6.19-.26-9.2-.99-.33-.14-.71-.2-.77-.7,.09-.69,.89-.71,1.39-.87,2.83-.55,5.7-.69,8.56-.9,9.77-.61,19.56-.72,29.34-.74,9.78,.07,19.56,.38,29.32,1.07,3.04,.26,6.14,.33,9.11,1.08,.18,.08,.43,.1,.52,.37h0Zm-.1,0c-.19-.27-.7-.33-1.04-.42-2.8-.5-5.66-.61-8.5-.78-9.76-.42-19.54-.36-29.3-.32-12.18,.12-24.42,0-36.55,1.24-.66,.1-1.34,.18-1.96,.42-.07,0-.05,.13,.01-.15-.06-.28-.09-.15-.01-.15,.61,.25,1.29,.33,1.95,.44,12.12,1.36,24.37,1.32,36.56,1.47,9.77,.06,19.55,.02,29.31-.52,2.84-.19,5.7-.31,8.5-.83,.36-.09,.85-.15,1.04-.42h0Z" style="fill:#fff;"/><path d="M153.26,88.95H53.57s-.88,57.94,49.19,59.69v.04c.22,0,.43-.02,.65-.02,.22,0,.43,.02,.65,.02v-.04c50.07-1.75,49.19-59.69,49.19-59.69Z" style="fill:#59177f;"/><ellipse cx="103.42" cy="88.66" rx="49.85" ry="2.59" style="fill:#6b279b;"/><g style="opacity:.33;"><path d="M153.32,88.66c-.1,.34-.42,.39-.64,.51-3.77,1.16-7.76,1.31-11.66,1.7-12.52,.71-25.07,.59-37.59,.44v-.1c12.05-.18,25.43-.65,37.53-1.34,3.64-.17,7.29-.27,10.9-.74,.43-.1,1.11-.12,1.36-.47h.1Z" style="fill:#fff;"/></g><path d="M137.71,54.21s8.97,7.55,9.86,25.31" style="fill:#fff;"/></g></g><g id="f"><ellipse cx="250.5" cy="320.5" rx="154.5" ry="31.5" style="mix-blend-mode:multiply; opacity:.07;"/><ellipse cx="262.5" cy="308" rx="154.5" ry="39" style="fill:#d0d3d6;"/><ellipse cx="262.5" cy="306.5" rx="154.5" ry="31.5" style="fill:#dde1e8;"/><path d="M406.17,298s-8.1-123.4-140.76-125.96v-.04c-.88,0-1.75,0-2.61,0-.1,0-.2,0-.3,0-.1,0-.2,0-.3,0-.87,0-1.73,0-2.61,0v.04c-132.66,2.56-140.76,125.96-140.76,125.96h.2c-.01,.17-.03,.33-.03,.5,0,17.4,64.25,31.5,143.5,31.5s143.5-14.1,143.5-31.5c0-.17-.02-.33-.03-.5h.2Z" style="fill:#dde1e8;"/><path d="M262,331c-79.25,0-143.5-14.1-143.5-31.5,0-.17,.02-.33,.03-.5h-.2s5.16-78.64,74.73-111.67c0,0-22.06,27.67-2.9,81.92,10.78,30.51,71.84,61.75,71.84,61.75Z" style="opacity:.03;"/><path d="M321,333c-85.33,0-203-19.1-203-36.5,0-.41,.05-.83,.13-1.24-6.54,3.49-10.13,7.28-10.13,11.24,0,17.4,69.17,31.5,154.5,31.5,34.33,0,66.03-2.28,91.68-6.15-9.79,.74-20.8,1.15-33.18,1.15Z" style="mix-blend-mode:multiply; opacity:.05;"/><path d="M287.62,180c-1.86,0-3.38-1.43-3.38-3.2,0-8.22-9.42-14.91-21-14.91s-21,6.69-21,14.91c0,1.76-1.51,3.2-3.38,3.2s-3.38-1.43-3.38-3.2c0-11.75,12.45-21.3,27.75-21.3s27.75,9.56,27.75,21.3c0,1.76-1.51,3.2-3.38,3.2Z" style="fill:#d0d3d6;"/><path d="M287.44,183c-1.96,0-3.56-1.43-3.56-3.2,0-8.22-9.93-14.91-22.14-14.91s-22.14,6.69-22.14,14.91c0,1.76-1.59,3.2-3.56,3.2s-3.56-1.43-3.56-3.2c0-11.75,13.12-21.3,29.25-21.3s29.25,9.56,29.25,21.3c0,1.76-1.59,3.2-3.56,3.2Z" style="opacity:.05;"/><g style="opacity:.3;"><path d="M405.49,292.73c.26,2.1,.34,3.27,.34,3.27h-.2c.01,.17,.03,.33,.03,.5,0,15.46-47.71,34.81-113.95,38.92,71.19-2.81,124.95-15.59,124.95-30.92,0-4.16-3.97-8.14-11.16-11.77Z" style="fill:#fff;"/></g><path d="M317,190s27,2,48,37" style="fill:#fff; opacity:.19;"/></g></g></svg>