<svg xmlns="http://www.w3.org/2000/svg" width="1347.97" height="732.14" viewBox="0 0 1347.97 732.14">
  <g style="isolation: isolate">
    <g id="Calque_3" data-name="Calque 3">
      <polygon points="456.87 249.5 456.87 375.77 1208.62 375.77 1208.62 268.52 1140.42 249.5 456.87 249.5" style="fill: #fff"/>
    </g>
    <g id="Calque_1" data-name="Calque 1">
      <g>
        <rect x="498.64" y="423.61" width="442.7" height="242.39" style="fill: #2b231c;stroke: #000;stroke-miterlimit: 10"/>
        <rect x="1104.87" y="144.39" width="68.49" height="80.37" style="fill: #fff;stroke: #000;stroke-miterlimit: 10"/>
        <g>
          <path d="M679.68,57.73H627.43s27.83,8.81,27.83,28.51v28.5h37.45V86.24c0-19.7,27.83-28.51,27.83-28.51Z" style="fill: #7c4343;stroke: #000;stroke-miterlimit: 10"/>
          <path d="M624.26,57.3s20.43,5.21,49.73,5.21,49.72-5.21,49.72-5.21l-42-53a9.89,9.89,0,0,0-15.52,0Z" style="fill: #722d2d;stroke: #000;stroke-miterlimit: 10"/>
        </g>
        <rect x="1096.36" y="133.14" width="85.5" height="11.25" style="fill: #844e4d;stroke: #000;stroke-miterlimit: 10"/>
        <line x1="572.04" y1="148.4" x2="778.03" y2="148.4" style="fill: none;stroke: #000;stroke-miterlimit: 10"/>
        <g>
          <polygon points="208.31 249.5 1140.42 249.5 675.23 119.72 208.31 249.5" style="fill: #844e4d;stroke: #000;stroke-miterlimit: 10"/>
          <rect x="661.59" y="148.4" width="37.97" height="101.1" style="fill: #844e4d;stroke: #000;stroke-miterlimit: 10"/>
          <rect x="699.59" y="148.4" width="37.97" height="101.1" style="fill: #844e4d;stroke: #000;stroke-miterlimit: 10"/>
          <rect x="737.59" y="148.4" width="37.97" height="101.1" style="fill: #844e4d;stroke: #000;stroke-miterlimit: 10"/>
          <rect x="775.59" y="148.4" width="37.97" height="101.1" style="fill: #844e4d;stroke: #000;stroke-miterlimit: 10"/>
          <rect x="813.59" y="148.4" width="37.97" height="101.1" style="fill: #844e4d;stroke: #000;stroke-miterlimit: 10"/>
          <rect x="851.59" y="148.4" width="37.97" height="101.1" style="fill: #844e4d;stroke: #000;stroke-miterlimit: 10"/>
          <polygon points="927.55 249.5 889.59 249.5 889.59 148.4 927.55 174.49 927.55 249.5" style="fill: #844e4d;stroke: #000;stroke-miterlimit: 10"/>
          <rect x="927.59" y="174.49" width="37.97" height="75.01" style="fill: #844e4d;stroke: #000;stroke-miterlimit: 10"/>
          <polygon points="1003.55 249.5 965.59 249.5 965.59 174.49 1003.55 180.39 1003.55 249.5" style="fill: #844e4d;stroke: #000;stroke-miterlimit: 10"/>
          <polygon points="1041.55 249.5 1003.59 249.5 1003.59 180.39 1041.55 189.67 1041.55 249.5" style="fill: #844e4d;stroke: #000;stroke-miterlimit: 10"/>
          <polygon points="1079.55 249.5 1041.59 249.5 1041.59 189.67 1079.55 198.95 1079.55 249.5" style="fill: #844e4d;stroke: #000;stroke-miterlimit: 10"/>
          <polygon points="281.55 249.5 243.59 249.5 243.59 205.49 281.55 196.45 281.55 249.5" style="fill: #844e4d;stroke: #000;stroke-miterlimit: 10"/>
          <polygon points="319.55 249.5 281.58 249.5 281.58 196.45 319.55 184.61 319.55 249.5" style="fill: #844e4d;stroke: #000;stroke-miterlimit: 10"/>
          <polygon points="357.55 249.5 319.58 249.5 319.58 184.61 357.55 174.49 357.55 249.5" style="fill: #844e4d;stroke: #000;stroke-miterlimit: 10"/>
          <rect x="357.59" y="174.49" width="37.97" height="75.01" style="fill: #844e4d;stroke: #000;stroke-miterlimit: 10"/>
          <polygon points="433.55 249.5 395.58 249.5 395.58 174.49 433.55 158.4 433.55 249.5" style="fill: #844e4d;stroke: #000;stroke-miterlimit: 10"/>
          <polygon points="471.55 249.5 433.58 249.5 433.58 158.4 471.55 148.4 471.55 249.5" style="fill: #844e4d;stroke: #000;stroke-miterlimit: 10"/>
          <rect x="471.59" y="148.4" width="37.97" height="101.1" style="fill: #844e4d;stroke: #000;stroke-miterlimit: 10"/>
          <rect x="509.59" y="148.4" width="37.97" height="101.1" style="fill: #844e4d;stroke: #000;stroke-miterlimit: 10"/>
          <rect x="547.59" y="148.4" width="37.97" height="101.1" style="fill: #844e4d;stroke: #000;stroke-miterlimit: 10"/>
          <rect x="585.59" y="148.4" width="37.97" height="101.1" style="fill: #844e4d;stroke: #000;stroke-miterlimit: 10"/>
          <rect x="623.59" y="148.4" width="37.97" height="101.1" style="fill: #844e4d;stroke: #000;stroke-miterlimit: 10"/>
          <polygon points="604.57 182.16 590.29 199.31 604.57 216.47 618.85 199.31 604.57 182.16" style="fill: none;stroke: #000;stroke-miterlimit: 10"/>
          <polygon points="755.57 182.16 741.29 199.31 755.57 216.47 769.85 199.31 755.57 182.16" style="fill: none;stroke: #000;stroke-miterlimit: 10"/>
        </g>
        <polygon points="673.99 85.64 0.5 273.18 0.5 307.26 675.23 119.72 1347.47 307.26 1347.47 273.18 673.99 85.64" style="fill: #722d2d;stroke: #000;stroke-miterlimit: 10"/>
        <g>
          <rect x="94.31" y="280.59" width="362.56" height="169.24" style="fill: #844e4d;stroke: #000;stroke-miterlimit: 10"/>
          <polygon points="190.28 356.22 176.01 371.82 190.28 387.42 204.56 371.82 190.28 356.22" style="fill: #844e4d;stroke: #000;stroke-miterlimit: 10"/>
          <polygon points="354.28 356.22 340.01 371.82 354.28 387.42 368.56 371.82 354.28 356.22" style="fill: #844e4d;stroke: #000;stroke-miterlimit: 10"/>
          <line x1="128.87" y1="280.59" x2="128.87" y2="449.83" style="fill: #844e4d;stroke: #000;stroke-miterlimit: 10"/>
          <line x1="169.87" y1="280.59" x2="169.87" y2="449.83" style="fill: #844e4d;stroke: #000;stroke-miterlimit: 10"/>
          <line x1="210.87" y1="280.59" x2="210.87" y2="449.83" style="fill: #844e4d;stroke: #000;stroke-miterlimit: 10"/>
          <line x1="251.87" y1="280.59" x2="251.87" y2="449.83" style="fill: #844e4d;stroke: #000;stroke-miterlimit: 10"/>
          <line x1="292.87" y1="280.59" x2="292.87" y2="449.83" style="fill: #844e4d;stroke: #000;stroke-miterlimit: 10"/>
          <line x1="333.87" y1="280.59" x2="333.87" y2="449.83" style="fill: #844e4d;stroke: #000;stroke-miterlimit: 10"/>
          <line x1="374.87" y1="280.59" x2="374.87" y2="449.83" style="fill: #844e4d;stroke: #000;stroke-miterlimit: 10"/>
          <line x1="415.87" y1="280.59" x2="415.87" y2="449.83" style="fill: #844e4d;stroke: #000;stroke-miterlimit: 10"/>
          <polygon points="208.31 249.5 456.87 249.5 456.87 280.59 94.31 280.59 208.31 249.5" style="fill: #844e4d;stroke: #000;stroke-miterlimit: 10"/>
          <line x1="452.05" y1="249.5" x2="419.43" y2="280.59" style="fill: #844e4d;stroke: #000;stroke-miterlimit: 10"/>
          <line x1="441.05" y1="249.5" x2="408.43" y2="280.59" style="fill: #844e4d;stroke: #000;stroke-miterlimit: 10"/>
          <line x1="430.05" y1="249.5" x2="397.43" y2="280.59" style="fill: #844e4d;stroke: #000;stroke-miterlimit: 10"/>
          <line x1="456.87" y1="276.36" x2="452.43" y2="280.59" style="fill: #844e4d;stroke: #000;stroke-miterlimit: 10"/>
          <line x1="456.87" y1="265.04" x2="441.43" y2="280.59" style="fill: #844e4d;stroke: #000;stroke-miterlimit: 10"/>
          <line x1="456.87" y1="255.39" x2="430.43" y2="280.59" style="fill: #844e4d;stroke: #000;stroke-miterlimit: 10"/>
          <line x1="419.05" y1="249.5" x2="386.43" y2="280.59" style="fill: #844e4d;stroke: #000;stroke-miterlimit: 10"/>
          <line x1="408.05" y1="249.5" x2="375.43" y2="280.59" style="fill: #844e4d;stroke: #000;stroke-miterlimit: 10"/>
          <line x1="397.05" y1="249.5" x2="364.43" y2="280.59" style="fill: #844e4d;stroke: #000;stroke-miterlimit: 10"/>
          <line x1="386.05" y1="249.5" x2="353.43" y2="280.59" style="fill: #844e4d;stroke: #000;stroke-miterlimit: 10"/>
          <line x1="375.05" y1="249.5" x2="342.43" y2="280.59" style="fill: #844e4d;stroke: #000;stroke-miterlimit: 10"/>
          <line x1="364.05" y1="249.5" x2="331.43" y2="280.59" style="fill: #844e4d;stroke: #000;stroke-miterlimit: 10"/>
          <line x1="353.05" y1="249.5" x2="320.43" y2="280.59" style="fill: #844e4d;stroke: #000;stroke-miterlimit: 10"/>
          <line x1="342.05" y1="249.5" x2="309.43" y2="280.59" style="fill: #844e4d;stroke: #000;stroke-miterlimit: 10"/>
          <line x1="331.05" y1="249.5" x2="298.43" y2="280.59" style="fill: #844e4d;stroke: #000;stroke-miterlimit: 10"/>
          <line x1="320.05" y1="249.5" x2="287.43" y2="280.59" style="fill: #844e4d;stroke: #000;stroke-miterlimit: 10"/>
          <line x1="309.05" y1="249.5" x2="276.43" y2="280.59" style="fill: #844e4d;stroke: #000;stroke-miterlimit: 10"/>
          <line x1="298.05" y1="249.5" x2="265.43" y2="280.59" style="fill: #844e4d;stroke: #000;stroke-miterlimit: 10"/>
          <line x1="287.05" y1="249.5" x2="254.43" y2="280.59" style="fill: #844e4d;stroke: #000;stroke-miterlimit: 10"/>
          <line x1="276.05" y1="249.5" x2="243.43" y2="280.59" style="fill: #844e4d;stroke: #000;stroke-miterlimit: 10"/>
          <line x1="265.05" y1="249.5" x2="232.43" y2="280.59" style="fill: #844e4d;stroke: #000;stroke-miterlimit: 10"/>
          <line x1="254.05" y1="249.5" x2="221.43" y2="280.59" style="fill: #844e4d;stroke: #000;stroke-miterlimit: 10"/>
          <line x1="243.05" y1="249.5" x2="210.43" y2="280.59" style="fill: #844e4d;stroke: #000;stroke-miterlimit: 10"/>
          <line x1="232.05" y1="249.5" x2="199.43" y2="280.59" style="fill: #844e4d;stroke: #000;stroke-miterlimit: 10"/>
          <line x1="221.05" y1="249.5" x2="188.43" y2="280.59" style="fill: #844e4d;stroke: #000;stroke-miterlimit: 10"/>
          <line x1="210.05" y1="249.5" x2="177.43" y2="280.59" style="fill: #844e4d;stroke: #000;stroke-miterlimit: 10"/>
          <line x1="195.24" y1="253.13" x2="166.43" y2="280.59" style="fill: #844e4d;stroke: #000;stroke-miterlimit: 10"/>
          <line x1="179.71" y1="257.45" x2="155.43" y2="280.59" style="fill: #844e4d;stroke: #000;stroke-miterlimit: 10"/>
          <line x1="166.35" y1="261.16" x2="144.43" y2="280.59" style="fill: #844e4d;stroke: #000;stroke-miterlimit: 10"/>
          <line x1="152.39" y1="265.04" x2="133.43" y2="280.59" style="fill: #844e4d;stroke: #000;stroke-miterlimit: 10"/>
          <rect x="94.31" y="453.38" width="362.56" height="9.6" style="fill: #844e4d;stroke: #000;stroke-miterlimit: 10"/>
        </g>
        <g>
          <polygon points="125.24 417.77 97.67 417.77 97.67 280.25 125.24 272.25 125.24 417.77" style="fill: #722d2d;stroke: #000;stroke-miterlimit: 10"/>
          <line x1="97.67" y1="322.14" x2="125.24" y2="322.14" style="fill: #722d2d;stroke: #000;stroke-miterlimit: 10"/>
          <line x1="97.67" y1="384.02" x2="125.24" y2="384.02" style="fill: #722d2d;stroke: #000;stroke-miterlimit: 10"/>
        </g>
        <g>
          <rect x="537.86" y="267.46" width="123.73" height="108.31" style="fill: #af6556;stroke: #000;stroke-miterlimit: 10"/>
          <rect x="545.35" y="274.59" width="108.73" height="101.18" style="fill: none;stroke: #000;stroke-miterlimit: 10"/>
          <polygon points="599.72 276.36 546.21 332.65 599.72 388.94 653.23 332.65 599.72 276.36" style="fill: none;stroke: #000;stroke-miterlimit: 10"/>
          <rect x="597.8" y="321.61" width="3.85" height="15.72" style="fill: #1d1d1b;stroke: #000;stroke-miterlimit: 10"/>
        </g>
        <g>
          <polygon points="919.27 375.77 728.14 375.77 728.14 286.7 755.14 286.7 919.27 286.7 919.27 375.77" style="fill: #af6556;stroke: #000;stroke-miterlimit: 10"/>
          <line x1="764.87" y1="331.24" x2="883.87" y2="331.24" style="fill: none;stroke: #000;stroke-miterlimit: 10"/>
          <line x1="824.37" y1="286.7" x2="824.37" y2="375.77" style="fill: none;stroke: #000;stroke-miterlimit: 10"/>
          <rect x="728.14" y="286.7" width="36.72" height="89.06" style="fill: #38692c;stroke: #000;stroke-miterlimit: 10"/>
          <rect x="882.14" y="286.7" width="36.72" height="89.06" style="fill: #38692c;stroke: #000;stroke-miterlimit: 10"/>
        </g>
        <g>
          <polygon points="1160.27 375.77 969.14 375.77 969.14 286.7 996.14 286.7 1160.27 286.7 1160.27 375.77" style="fill: #af6556;stroke: #000;stroke-miterlimit: 10"/>
          <line x1="1005.87" y1="331.24" x2="1124.87" y2="331.24" style="fill: none;stroke: #000;stroke-miterlimit: 10"/>
          <line x1="1065.37" y1="286.7" x2="1065.37" y2="375.77" style="fill: none;stroke: #000;stroke-miterlimit: 10"/>
          <rect x="969.14" y="286.7" width="36.72" height="89.06" style="fill: #38692c;stroke: #000;stroke-miterlimit: 10"/>
          <rect x="1123.14" y="286.7" width="36.72" height="89.06" style="fill: #38692c;stroke: #000;stroke-miterlimit: 10"/>
        </g>
        <rect x="94.31" y="462.98" width="362.56" height="193.28" style="fill: #fff;stroke: #000;stroke-miterlimit: 10"/>
        <g>
          <rect x="456.87" y="375.77" width="751.75" height="59.56" style="fill: #844e4d;stroke: #000;stroke-miterlimit: 10"/>
          <line x1="456.87" y1="386.61" x2="1208.62" y2="386.61" style="fill: #844e4d;stroke: #000;stroke-miterlimit: 10"/>
          <line x1="456.87" y1="423.61" x2="1208.62" y2="423.61" style="fill: #844e4d;stroke: #000;stroke-miterlimit: 10"/>
          <polygon points="470.97 387.61 456.87 404.77 470.97 421.92 485.08 404.77 470.97 387.61" style="fill: #844e4d;stroke: #000;stroke-miterlimit: 10"/>
          <polygon points="498.64 387.61 484.54 404.77 498.64 421.92 512.75 404.77 498.64 387.61" style="fill: #844e4d;stroke: #000;stroke-miterlimit: 10"/>
          <polygon points="526.31 387.61 512.2 404.77 526.31 421.92 540.42 404.77 526.31 387.61" style="fill: #844e4d;stroke: #000;stroke-miterlimit: 10"/>
          <polygon points="554.97 387.61 540.86 404.77 554.97 421.92 569.08 404.77 554.97 387.61" style="fill: #844e4d;stroke: #000;stroke-miterlimit: 10"/>
          <polygon points="582.64 387.61 568.53 404.77 582.64 421.92 596.74 404.77 582.64 387.61" style="fill: #844e4d;stroke: #000;stroke-miterlimit: 10"/>
          <polygon points="610.31 387.61 596.2 404.77 610.31 421.92 624.41 404.77 610.31 387.61" style="fill: #844e4d;stroke: #000;stroke-miterlimit: 10"/>
          <polygon points="638.96 387.61 624.86 404.77 638.96 421.92 653.07 404.77 638.96 387.61" style="fill: #844e4d;stroke: #000;stroke-miterlimit: 10"/>
          <polygon points="666.63 387.61 652.52 404.77 666.63 421.92 680.74 404.77 666.63 387.61" style="fill: #844e4d;stroke: #000;stroke-miterlimit: 10"/>
          <polygon points="694.3 387.61 680.19 404.77 694.3 421.92 708.41 404.77 694.3 387.61" style="fill: #844e4d;stroke: #000;stroke-miterlimit: 10"/>
          <polygon points="720.98 387.61 706.87 404.77 720.98 421.92 735.09 404.77 720.98 387.61" style="fill: #844e4d;stroke: #000;stroke-miterlimit: 10"/>
          <polygon points="748.65 387.61 734.54 404.77 748.65 421.92 762.76 404.77 748.65 387.61" style="fill: #844e4d;stroke: #000;stroke-miterlimit: 10"/>
          <polygon points="776.32 387.61 762.21 404.77 776.32 421.92 790.42 404.77 776.32 387.61" style="fill: #844e4d;stroke: #000;stroke-miterlimit: 10"/>
          <polygon points="804.98 387.61 790.87 404.77 804.98 421.92 819.08 404.77 804.98 387.61" style="fill: #844e4d;stroke: #000;stroke-miterlimit: 10"/>
          <polygon points="832.64 387.61 818.54 404.77 832.64 421.92 846.75 404.77 832.64 387.61" style="fill: #844e4d;stroke: #000;stroke-miterlimit: 10"/>
          <polygon points="860.31 387.61 846.21 404.77 860.31 421.92 874.42 404.77 860.31 387.61" style="fill: #844e4d;stroke: #000;stroke-miterlimit: 10"/>
          <polygon points="888.97 387.61 874.86 404.77 888.97 421.92 903.08 404.77 888.97 387.61" style="fill: #844e4d;stroke: #000;stroke-miterlimit: 10"/>
          <polygon points="916.64 387.61 902.53 404.77 916.64 421.92 930.75 404.77 916.64 387.61" style="fill: #844e4d;stroke: #000;stroke-miterlimit: 10"/>
          <polygon points="944.31 387.61 930.2 404.77 944.31 421.92 958.41 404.77 944.31 387.61" style="fill: #844e4d;stroke: #000;stroke-miterlimit: 10"/>
          <polygon points="970.99 387.61 956.88 404.77 970.99 421.92 985.1 404.77 970.99 387.61" style="fill: #844e4d;stroke: #000;stroke-miterlimit: 10"/>
          <polygon points="998.66 387.61 984.55 404.77 998.66 421.92 1012.76 404.77 998.66 387.61" style="fill: #844e4d;stroke: #000;stroke-miterlimit: 10"/>
          <polygon points="1026.33 387.61 1012.22 404.77 1026.33 421.92 1040.43 404.77 1026.33 387.61" style="fill: #844e4d;stroke: #000;stroke-miterlimit: 10"/>
          <polygon points="1054.98 387.61 1040.88 404.77 1054.98 421.92 1069.09 404.77 1054.98 387.61" style="fill: #844e4d;stroke: #000;stroke-miterlimit: 10"/>
          <polygon points="1082.65 387.61 1068.54 404.77 1082.65 421.92 1096.76 404.77 1082.65 387.61" style="fill: #844e4d;stroke: #000;stroke-miterlimit: 10"/>
          <polygon points="1110.32 387.61 1096.21 404.77 1110.32 421.92 1124.43 404.77 1110.32 387.61" style="fill: #844e4d;stroke: #000;stroke-miterlimit: 10"/>
          <polygon points="1138.98 387.61 1124.87 404.77 1138.98 421.92 1153.08 404.77 1138.98 387.61" style="fill: #844e4d;stroke: #000;stroke-miterlimit: 10"/>
          <polygon points="1166.64 387.61 1152.54 404.77 1166.64 421.92 1180.75 404.77 1166.64 387.61" style="fill: #844e4d;stroke: #000;stroke-miterlimit: 10"/>
          <polygon points="1194.31 387.61 1180.21 404.77 1194.31 421.92 1208.42 404.77 1194.31 387.61" style="fill: #844e4d;stroke: #000;stroke-miterlimit: 10"/>
        </g>
        <path d="M456.87,656.64h56.71V528.35S507.89,436,609.42,436h-3.68c101.53,0,95.83,92.4,95.83,92.4V656.64h32.92V528.35s-5.7-92.4,95.83-92.4h-3.68c101.53,0,95.84,92.4,95.84,92.4V656.64h324.17V436H456.87Z" style="fill: #fff;stroke: #000;stroke-miterlimit: 10"/>
        <g>
          <rect x="133.77" y="514.94" width="110.63" height="75.38" style="fill: #af6556;stroke: #000;stroke-miterlimit: 10"/>
          <line x1="189.08" y1="514.94" x2="189.08" y2="590.31" style="fill: #af6556;stroke: #000;stroke-miterlimit: 10"/>
          <line x1="135.36" y1="552.62" x2="242.8" y2="552.62" style="fill: #af6556;stroke: #000;stroke-miterlimit: 10"/>
        </g>
        <g>
          <g>
            <path d="M145.41,618.27h-38s12,0,11.53,13.5S119,656,119,656h14.9s.54-10.68,0-24.18S145.41,618.27,145.41,618.27Z" style="fill: #722d2d;stroke: #000;stroke-miterlimit: 10"/>
            <path d="M260.41,618.27h-38s12.05,0,11.53,13.5S234,656,234,656h14.9s.54-10.68,0-24.18S260.41,618.27,260.41,618.27Z" style="fill: #722d2d;stroke: #000;stroke-miterlimit: 10"/>
          </g>
          <rect x="100.03" y="602.52" width="167.76" height="15.75" style="fill: #722d2d;stroke: #000;stroke-miterlimit: 10"/>
        </g>
        <g>
          <rect x="295.48" y="489.77" width="129.48" height="166.5" style="fill: #844e4d;stroke: #000;stroke-miterlimit: 10"/>
          <rect x="306.48" y="501.02" width="107.48" height="155.25" style="fill: #844e4d;stroke: #000;stroke-miterlimit: 10"/>
          <g>
            <line x1="316.62" y1="501.02" x2="316.62" y2="656.27" style="fill: #844e4d;stroke: #000;stroke-miterlimit: 10"/>
            <line x1="328.05" y1="501.02" x2="328.05" y2="656.27" style="fill: #844e4d;stroke: #000;stroke-miterlimit: 10"/>
            <line x1="339.3" y1="501.02" x2="339.3" y2="656.27" style="fill: #844e4d;stroke: #000;stroke-miterlimit: 10"/>
            <line x1="349.82" y1="501.02" x2="349.82" y2="656.27" style="fill: #844e4d;stroke: #000;stroke-miterlimit: 10"/>
            <line x1="360.34" y1="501.02" x2="360.34" y2="656.27" style="fill: #844e4d;stroke: #000;stroke-miterlimit: 10"/>
            <line x1="370.62" y1="501.02" x2="370.62" y2="656.27" style="fill: #844e4d;stroke: #000;stroke-miterlimit: 10"/>
            <line x1="382.05" y1="501.02" x2="382.05" y2="656.27" style="fill: #844e4d;stroke: #000;stroke-miterlimit: 10"/>
            <line x1="393.3" y1="501.02" x2="393.3" y2="656.27" style="fill: #844e4d;stroke: #000;stroke-miterlimit: 10"/>
            <line x1="403.82" y1="501.02" x2="403.82" y2="656.27" style="fill: #844e4d;stroke: #000;stroke-miterlimit: 10"/>
          </g>
          <rect x="306.48" y="529.7" width="107.48" height="8.72" style="fill: #844e4d;stroke: #000;stroke-miterlimit: 10"/>
          <rect x="306.48" y="630.7" width="107.48" height="8.72" style="fill: #844e4d;stroke: #000;stroke-miterlimit: 10"/>
          <rect x="349.82" y="529.7" width="20.8" height="8.72" style="fill: #e2bf96;stroke: #000;stroke-miterlimit: 10"/>
        </g>
        <path d="M45.67,656.27v75.37H210.92a53.45,53.45,0,0,1,102.15,0h722.85a53.45,53.45,0,0,1,102.15,0H1302.3V656.27Z" style="fill: #722d2d;stroke: #000;stroke-miterlimit: 10"/>
        <polygon points="916.64 442.52 860.31 442.52 860.31 375.77 878.72 375.77 916.64 375.77 916.64 442.52" style="fill: #086e84;stroke: #000;stroke-miterlimit: 10"/>
        <polygon points="987.64 442.52 931.31 442.52 931.31 375.77 949.72 375.77 987.64 375.77 987.64 442.52" style="fill: #c62819;stroke: #000;stroke-miterlimit: 10"/>
        <line x1="880.22" y1="442.52" x2="880.22" y2="375.77" style="fill: #fff;stroke: #000;stroke-miterlimit: 10"/>
        <line x1="902.53" y1="442.52" x2="902.53" y2="375.77" style="fill: #fff;stroke: #000;stroke-miterlimit: 10"/>
        <line x1="860.31" y1="430.69" x2="916.64" y2="430.69" style="fill: #fff;stroke: #000;stroke-miterlimit: 10"/>
        <rect x="903" y="431.13" width="13.03" height="10.72" style="fill: #fff;stroke: #000;stroke-miterlimit: 10;opacity: 0.8"/>
        <rect x="973" y="431.13" width="13.03" height="10.72" style="fill: #fff;stroke: #000;stroke-miterlimit: 10;opacity: 0.8"/>
        <g>
          <line x1="860.31" y1="393.94" x2="916.64" y2="393.94" style="fill: #fff;stroke: #000;stroke-miterlimit: 10"/>
          <line x1="860.31" y1="412.69" x2="916.64" y2="412.69" style="fill: #fff;stroke: #000;stroke-miterlimit: 10"/>
          <rect x="860.97" y="394.5" width="18.75" height="17.72" style="fill: #fff;stroke: #000;stroke-miterlimit: 10;opacity: 0.8"/>
          <rect x="903" y="394.5" width="13.03" height="17.72" style="fill: #fff;stroke: #000;stroke-miterlimit: 10;opacity: 0.8"/>
          <rect x="860.97" y="431.13" width="18.75" height="10.72" style="fill: #fff;stroke: #000;stroke-miterlimit: 10;opacity: 0.8"/>
          <rect x="880.97" y="376.41" width="20.91" height="16.78" style="fill: #fff;stroke: #000;stroke-miterlimit: 10;opacity: 0.38"/>
          <rect x="880.97" y="413.41" width="20.91" height="16.78" style="fill: #fff;stroke: #000;stroke-miterlimit: 10;opacity: 0.38"/>
        </g>
        <g>
          <line x1="931.31" y1="393.94" x2="987.64" y2="393.94" style="fill: #fff;stroke: #000;stroke-miterlimit: 10"/>
          <line x1="931.31" y1="412.69" x2="987.64" y2="412.69" style="fill: #fff;stroke: #000;stroke-miterlimit: 10"/>
          <rect x="931.97" y="394.5" width="18.75" height="17.72" style="fill: #fff;stroke: #000;stroke-miterlimit: 10;opacity: 0.8"/>
          <rect x="974" y="394.5" width="13.03" height="17.72" style="fill: #fff;stroke: #000;stroke-miterlimit: 10;opacity: 0.8"/>
          <rect x="931.97" y="431.13" width="18.75" height="10.72" style="fill: #fff;stroke: #000;stroke-miterlimit: 10;opacity: 0.8"/>
          <rect x="951.97" y="376.41" width="20.91" height="16.78" style="fill: #fff;stroke: #000;stroke-miterlimit: 10;opacity: 0.38"/>
          <rect x="951.97" y="413.41" width="20.91" height="16.78" style="fill: #fff;stroke: #000;stroke-miterlimit: 10;opacity: 0.38"/>
        </g>
        <g>
          <polygon points="1208.62 463.89 1246.99 463.89 1246.99 279.23 1208.62 268.52 1208.62 463.89" style="fill: #722d2d;stroke: #000;stroke-miterlimit: 10"/>
          <line x1="1246.99" y1="306.46" x2="1208.62" y2="306.46" style="fill: #722d2d;stroke: #000;stroke-miterlimit: 10"/>
          <line x1="1246.99" y1="435.25" x2="1208.62" y2="435.25" style="fill: #722d2d;stroke: #000;stroke-miterlimit: 10"/>
          <line x1="1246.99" y1="333.63" x2="1208.62" y2="333.63" style="fill: #722d2d;stroke: #000;stroke-miterlimit: 10"/>
        </g>
        <g>
          <polygon points="1192.32 572.67 1001.19 572.67 1001.19 483.6 1028.19 483.6 1192.32 483.6 1192.32 572.67" style="fill: #af6556;stroke: #000;stroke-miterlimit: 10"/>
          <line x1="1037.92" y1="528.14" x2="1156.92" y2="528.14" style="fill: none;stroke: #000;stroke-miterlimit: 10"/>
          <line x1="1097.42" y1="483.6" x2="1097.42" y2="572.67" style="fill: none;stroke: #000;stroke-miterlimit: 10"/>
          <rect x="1001.19" y="483.6" width="36.72" height="89.06" style="fill: #38692c;stroke: #000;stroke-miterlimit: 10"/>
          <rect x="1155.19" y="483.6" width="36.72" height="89.06" style="fill: #38692c;stroke: #000;stroke-miterlimit: 10"/>
        </g>
        <g>
          <rect x="1019.88" y="552.62" width="57.38" height="103.64" style="fill: #722d2d;stroke: #000;stroke-miterlimit: 10"/>
          <rect x="1119.52" y="552.62" width="57.38" height="103.64" style="fill: #722d2d;stroke: #000;stroke-miterlimit: 10"/>
          <rect x="1000.22" y="581.76" width="201.05" height="14.02" style="fill: #722d2d;stroke: #000;stroke-miterlimit: 10"/>
          <rect x="1000.22" y="624.43" width="201.05" height="14.02" style="fill: #722d2d;stroke: #000;stroke-miterlimit: 10"/>
        </g>
        <g>
          <path d="M635.87,510.14H580.46l6.25-15.28a5.09,5.09,0,0,1,5.09-5.09h32.74a5.09,5.09,0,0,1,5.09,5.09Z" style="fill: #38692c;stroke: #000;stroke-miterlimit: 10"/>
          <rect x="577.79" y="510.14" width="60.76" height="6.24" rx="3.12" style="fill: #38692c;stroke: #000;stroke-miterlimit: 10"/>
          <path d="M633.29,516.38H583.05s-4.65,18.43.62,31.42c13.7.42,24.5,0,24.5,0s10.8.42,24.49,0C637.93,534.81,633.29,516.38,633.29,516.38Z" style="fill: #ecdcc7;stroke: #000;stroke-miterlimit: 10"/>
          <rect x="577.37" y="548.11" width="61.6" height="26.53" style="fill: #38692c;stroke: #000;stroke-miterlimit: 10"/>
          <rect x="601.35" y="547.8" width="13.63" height="26.83" style="fill: #c62819;stroke: #000;stroke-miterlimit: 10"/>
          <path d="M635.73,574.63H580.61s-6.32,47.21,7.73,72H628C642,621.84,635.73,574.63,635.73,574.63Z" style="fill: #722d2d;stroke: #000;stroke-miterlimit: 10"/>
          <rect x="579.13" y="646.67" width="58.08" height="8.08" style="fill: #722d2d;stroke: #000;stroke-miterlimit: 10"/>
          <g>
            <circle cx="598.65" cy="528.67" r="2.63" style="fill: #1d1d1b;stroke: #000;stroke-miterlimit: 10"/>
            <circle cx="617.69" cy="528.67" r="2.63" style="fill: #1d1d1b;stroke: #000;stroke-miterlimit: 10"/>
          </g>
          <circle cx="608.17" cy="536.37" r="2.44" style="fill: #c62819;stroke: #000;stroke-miterlimit: 10"/>
          <path d="M614.36,521.65s7.79-4.92,12,0" style="fill: #1d1d1b;stroke: #000;stroke-miterlimit: 10"/>
          <path d="M602.64,521.65s-7.79-4.92-12,0" style="fill: #1d1d1b;stroke: #000;stroke-miterlimit: 10"/>
        </g>
        <g>
          <path d="M847.25,510.63H810.57l1.15-10.18c0-2.82,4.25-7.07,7.06-7.07H839c2.81,0,7.06,4.25,7.06,7.07Z" style="fill: #086e84;stroke: #000;stroke-miterlimit: 10"/>
          <rect x="798.53" y="510.63" width="60.76" height="6.24" rx="3.12" style="fill: #086e84;stroke: #000;stroke-miterlimit: 10"/>
          <path d="M854,516.87H803.79s-4.64,18.44.62,31.42c13.7.42,24.5,0,24.5,0s10.8.42,24.5,0C858.67,535.31,854,516.87,854,516.87Z" style="fill: #ecdcc7;stroke: #000;stroke-miterlimit: 10"/>
          <path d="M859.28,574.63h-61.6s-1.61-9.64-1.61-13.07a85.54,85.54,0,0,1,1.61-13.08h61.6a35.84,35.84,0,0,1,0,26.15Z" style="fill: #c62819;stroke: #000;stroke-miterlimit: 10"/>
          <circle cx="828.91" cy="536.87" r="2.44" style="fill: #c62819;stroke: #000;stroke-miterlimit: 10"/>
          <g>
            <g>
              <circle cx="820.16" cy="529.17" r="2.63" style="fill: #1d1d1b;stroke: #000;stroke-miterlimit: 10"/>
              <circle cx="839.21" cy="529.17" r="2.63" style="fill: #1d1d1b;stroke: #000;stroke-miterlimit: 10"/>
            </g>
            <path d="M835.21,523.23s7.79-4.91,12,0" style="fill: #1d1d1b;stroke: #000;stroke-miterlimit: 10"/>
            <path d="M822.61,522.14s-7.79-4.91-12,0" style="fill: #1d1d1b;stroke: #000;stroke-miterlimit: 10"/>
          </g>
          <path d="M854.38,574.63H803.44s-13.6,44.11-6.36,80.61h63.66C868,618.74,854.38,574.63,854.38,574.63Z" style="fill: #086e84;stroke: #000;stroke-miterlimit: 10"/>
          <path d="M795.49,644a107,107,0,0,0,1.59,11.24h63.66A107,107,0,0,0,862.33,644Z" style="fill: #c62819;stroke: #000;stroke-miterlimit: 10"/>
          <path d="M816.61,578.5s-4.47,38.63-4.47,56.19" style="fill: none;stroke: #000;stroke-miterlimit: 10"/>
          <path d="M841.49,578.5S846,617.13,846,634.69" style="fill: none;stroke: #000;stroke-miterlimit: 10"/>
          <line x1="828.91" y1="578.5" x2="828.91" y2="634.69" style="fill: none;stroke: #000;stroke-miterlimit: 10"/>
          <path d="M827.78,554.06a87.57,87.57,0,0,1,1.69,14.25c0,.8,1.28.81,1.25,0A90.39,90.39,0,0,0,829,553.73c-.16-.79-1.36-.46-1.21.33Z"/>
          <path d="M822.15,561.92A43.74,43.74,0,0,1,839.9,560c.8.08.79-1.17,0-1.25a44.82,44.82,0,0,0-18.08,1.93c-.77.25-.44,1.45.33,1.21Z"/>
          <path d="M822.69,565.54l11.22-.84c.8-.06.81-1.31,0-1.25l-11.22.84c-.8.06-.81,1.31,0,1.25Z"/>
        </g>
      </g>
      <rect x="457.99" y="437.07" width="751" height="15" style="opacity: 0.15"/>
    </g>
    <g id="Calque_2" data-name="Calque 2">
      <polygon points="675.23 119.72 1246.98 279.07 1246.98 293.07 675.99 148.07 93.98 293.07 93.98 281.07 675.23 119.72" style="mix-blend-mode: multiply;opacity: 0.18"/>
      <rect x="97.99" y="322.07" width="27" height="65" style="opacity: 0.17"/>
      <rect x="97.99" y="385.07" width="27" height="39" style="opacity: 0.29"/>
      <rect x="1208.99" y="306.07" width="38" height="132" style="opacity: 0.17"/>
      <rect x="1208.99" y="436.07" width="38" height="34" style="opacity: 0.29"/>
      <rect x="1019.99" y="596.07" width="57" height="8" style="opacity: 0.22"/>
      <rect x="1118.99" y="596.07" width="57" height="8" style="opacity: 0.22"/>
      <rect x="1019.99" y="638.07" width="57" height="8" style="opacity: 0.22"/>
      <rect x="1118.99" y="638.07" width="57" height="8" style="opacity: 0.22"/>
      <polygon points="253.99 618.07 99.98 618.07 100.03 636.75 240.99 638.07 241.99 624.07 253.99 618.07" style="opacity: 0.13"/>
      <path d="M701,656.16H534.77V538.88s-1.28-92.41,73.83-92.41h-3.68c101.54,0,95.84,92.41,95.84,92.41V656.16" style="opacity: 0.35"/>
      <path d="M922,656.16H755.77V538.88s-1.28-92.41,73.83-92.41h-3.68c101.54,0,95.84,92.41,95.84,92.41V656.16" style="opacity: 0.35"/>
      <path d="M654.45,80.07c0,.1,0,6.2,0,6.3C662,79.07,664.9,77,671,75.07c11-3.5,17.93-.54,24,0,4.08-6.33-.08.09,0,0,14-17,24.74-17.51,24.74-17.51L675,62.07h-8l-40.37-4.51S648,61.07,654.45,80.07Z" style="opacity: 0.14"/>
      <rect x="1104.99" y="144.07" width="68" height="6" style="opacity: 0.11"/>
    </g>
    <g id="Calque_4" data-name="Calque 4">
      <path d="M844.35,580c6.08,0,9.53.94,11.4,2-1.09-4.45-1.9-7-1.9-7H803.39s-12.13,39.3-7.25,74.22v.17c.12.84.25,1.69.39,2.52l.08.44c.14.84.3,1.67.46,2.5h17c-7.46-19.27-5.43-55-1.46-63.93s17.86-10.89,31.7-10.89Z" style="isolation: isolate;opacity: 0.23999999463558197"/>
      <path d="M624.35,579.36c6.08,0,9.53.81,11.4,1.74-1.09-3.85-1.9-6.08-1.9-6.08H581.39s-6.4,32.05,5.6,69.05l-10.85-4.73c.12.73,12.71,5,12.85,5.73h0c-1-1-.17-.72,0,0l5.11-1c-7.46-16.66-5.43-47.58-1.46-55.28s17.86-9.42,31.7-9.42Z" style="isolation: isolate;opacity: 0.23999999463558197"/>
      <path d="M828.61,568.06a89.36,89.36,0,0,1-32.5-6.75v.81c0,3.4,1.58,13,1.58,13h61a45,45,0,0,0,2.38-11.82,98,98,0,0,1-32.5,4.77Z" style="isolation: isolate;opacity: 0.23999999463558197"/>
      <path d="M829.9,514.53c-14.83,0-24.69-.37-31.22-.89a3.39,3.39,0,0,0-.15.89h0a3.09,3.09,0,0,0,3.08,3.09h54a3.1,3.1,0,0,0,3.1-3.08h0a3.33,3.33,0,0,0-.18-1c-7.65.57-17.12,1-28.65,1Z" style="isolation: isolate;opacity: 0.23999999463558197"/>
      <path d="M609.9,514.53c-14.83,0-24.69-.37-31.22-.89a3.39,3.39,0,0,0-.15.89h0a3.09,3.09,0,0,0,3.08,3.09h54a3.1,3.1,0,0,0,3.1-3.08h0a3.33,3.33,0,0,0-.18-1c-7.65.57-17.12,1-28.65,1Z" style="isolation: isolate;opacity: 0.23999999463558197"/>
      <path d="M817.14,502.81a17.13,17.13,0,0,1,2-8.33h-.54c-2.78,0-7,4.21-7,7l-1.14,10.09h15.89c-4.29-2.68-8.94-6.17-9.2-8.79Z" style="isolation: isolate;opacity: 0.23999999463558197"/>
      <path d="M823.55,521.58H854.3c-.42-2.45-.8-4-.8-4H803.73s-4.61,18.25.62,31.13c6.22.19,7.87.21,12.14.18-1.85-2.56-2.84-6.53-2.84-13.46,0-12.92,9.9-13.88,9.9-13.88Z" style="isolation: isolate;opacity: 0.1599999964237213"/>
      <path d="M603.55,519.58H634.3c-.42-2.45-.8-4-.8-4H583.73s-4.61,18.25.62,31.13c6.22.19,7.87.21,12.14.18-1.85-2.56-2.84-6.53-2.84-13.46,0-12.92,9.9-13.88,9.9-13.88Z" style="isolation: isolate;opacity: 0.1599999964237213"/>
      <path d="M854.75,576.21c-.53-.77-.87-1.19-.87-1.19H803.39s-.34.42-.87,1.19Z" style="isolation: isolate;opacity: 0.23999999463558197"/>
      <polygon points="580.61 574.63 634.74 574.63 635.87 581.2 579.19 581.2 580.61 574.63" style="mix-blend-mode: multiply;opacity: 0.17"/>
    </g>
  </g>
</svg>
