<svg id="Calque_1" data-name="Calque 1" xmlns="http://www.w3.org/2000/svg" width="90.11" height="178.02" viewBox="0 0 90.11 178.02">
  <rect width="90.11" height="178.02" style="fill: #fff;opacity: 0"/>
  <g>
    <path d="M60.31,36H29.8l1-8.47c0-2.34,3.53-5.88,5.87-5.88H53.47c2.35,0,5.88,3.54,5.88,5.88Z" style="fill: #086e84"/>
    <path d="M22.38,36H67.72a2.6,2.6,0,0,1,2.6,2.59h0a2.6,2.6,0,0,1-2.6,2.6H22.38a2.59,2.59,0,0,1-2.6-2.6h0A2.59,2.59,0,0,1,22.38,36Z" style="fill: #086e84"/>
    <path d="M66,41.23H24.16s-3.87,15.33.52,26.14c11.39.34,20.37,0,20.37,0s9,.34,20.38,0C69.82,56.57,66,41.23,66,41.23Z" style="fill: #ecdcc7"/>
    <path d="M70.32,89.28H19.07s-1.34-8-1.34-10.88a71.19,71.19,0,0,1,1.34-10.88H70.32a36.67,36.67,0,0,1,2,10.88A36.67,36.67,0,0,1,70.32,89.28Z" style="fill: #c62819"/>
    <circle cx="45.05" cy="57.86" r="2.03" style="fill: #c62819"/>
    <g>
      <g>
        <circle cx="37.78" cy="51.46" r="2.19" style="fill: #1d1d1b;stroke: #000;stroke-miterlimit: 10;stroke-width: 1.1133275032043457px"/>
        <circle cx="53.62" cy="51.46" r="2.19" style="fill: #1d1d1b;stroke: #000;stroke-miterlimit: 10;stroke-width: 1.1133275032043457px"/>
      </g>
      <path d="M50.3,46.52s6.48-4.09,10,0" style="fill: #1d1d1b;stroke: #000;stroke-miterlimit: 10;stroke-width: 1.1133275032043457px"/>
      <path d="M39.81,45.61s-6.48-4.08-10,0" style="fill: #1d1d1b;stroke: #000;stroke-miterlimit: 10;stroke-width: 1.1133275032043457px"/>
    </g>
    <path d="M66.24,89.28H23.87S12.56,126,18.58,156.33h53C77.55,126,66.24,89.28,66.24,89.28Z" style="fill: #086e84"/>
    <path d="M17.26,147a88,88,0,0,0,1.32,9.35h53A87.65,87.65,0,0,0,72.85,147Z" style="fill: #c62819"/>
    <path d="M34.88,92.5c-.58,15.63-3.31,31.09-3.71,46.73h-.11c-.1-7.82.42-15.64,1-23.44s1.09-15.92,2.85-23.29h0Z"/>
    <path d="M55.58,92.48a186.37,186.37,0,0,1,2.73,23.31c.56,7.8,1.07,15.62,1,23.44h-.11c-.29-15.57-3.36-31.37-3.6-46.75Z"/>
    <path d="M45.11,92.48c1.07,15.57.12,31.17,0,46.74H45q-.24-11.68-.39-23.37c-.09-7.71-.41-15.87.5-23.37Z"/>
    <path d="M44.68,72A54.48,54.48,0,0,1,46,77.93,12.89,12.89,0,0,1,46.1,84H46a19.51,19.51,0,0,1-.85-6q-.2-3-.56-6l.11,0h0Z"/>
    <path d="M39.28,78.14a32.51,32.51,0,0,1,7.33-2,14.8,14.8,0,0,1,7.59.37v.12a72.62,72.62,0,0,1-7.5.4,39.88,39.88,0,0,0-7.4,1.18l0-.12h0Z"/>
    <path d="M39.88,81.14c2.31-.37,4.63-.86,7-1a8.15,8.15,0,0,1,2.37.32v.11a9.31,9.31,0,0,1-4.63.73c-1.56,0-3.13,0-4.7,0v-.11h0Z"/>
    <path d="M58.27,93.49c5.1,0,8,.79,9.57,1.69-.92-3.73-1.6-5.9-1.6-5.9H23.87s-10.18,33-6.08,62.32l0,.14c.1.71.21,1.42.32,2.12l.07.37q.18,1.05.39,2.1h14.3c-6.27-16.18-4.56-46.2-1.23-53.68s15-9.15,26.62-9.15Z" style="isolation: isolate;opacity: 0.23999999463558197"/>
    <path d="M45.05,83.44a75.06,75.06,0,0,1-27.29-5.67c0,.23,0,.46,0,.68,0,2.85,1.33,10.87,1.33,10.87H70.32a37.44,37.44,0,0,0,2-9.92,82.42,82.42,0,0,1-27.29,4Z" style="isolation: isolate;opacity: 0.23999999463558197"/>
    <path d="M46.13,38.49c-12.45,0-20.73-.31-26.21-.75a2.68,2.68,0,0,0-.13.75h0a2.59,2.59,0,0,0,2.6,2.59H67.72a2.59,2.59,0,0,0,2.6-2.59h0a2.54,2.54,0,0,0-.15-.83c-6.42.48-14.37.82-24.05.83Z" style="isolation: isolate;opacity: 0.23999999463558197"/>
    <path d="M35.42,28.65a14.38,14.38,0,0,1,1.67-7h-.45c-2.34,0-5.88,3.54-5.88,5.88L29.8,36H43.14c-3.6-2.25-7.5-5.18-7.72-7.38Z" style="isolation: isolate;opacity: 0.23999999463558197"/>
    <path d="M40.8,44.41H66.62c-.35-2.06-.67-3.33-.67-3.33H24.16s-3.87,15.33.52,26.14c5.22.16,6.61.18,10.19.15-1.55-2.15-2.38-5.48-2.38-11.3,0-10.85,8.31-11.65,8.31-11.65Z" style="isolation: isolate;opacity: 0.1599999964237213"/>
    <path d="M67,90.28c-.45-.65-.73-1-.73-1H23.87s-.28.35-.73,1Z" style="isolation: isolate;opacity: 0.23999999463558197"/>
    <path d="M54.25,23.5s3.39,1.67,3.72,4.82C54.69,27.32,54.25,23.5,54.25,23.5Z" style="fill: #fff;isolation: isolate;opacity: 0.15000000596046448"/>
  </g>
</svg>
