<svg xmlns="http://www.w3.org/2000/svg" width="350" height="250.33" viewBox="0 0 350 250.33">
  <g style="isolation: isolate">
    <g id="Calque_1" data-name="Calque 1">
      <rect width="350" height="250.33" style="fill: #fff;opacity: 0"/>
      <g>
        <path d="M52.51,33.44,55.17,43.5a1.46,1.46,0,0,0,1.41,1.09H71.83a1.48,1.48,0,0,0,1.44-1.19l2.22-11.66A1.46,1.46,0,0,0,73.94,30l-20.13,1.6A1.46,1.46,0,0,0,52.51,33.44Z" style="fill: #b28318"/>
        <g>
          <ellipse cx="52.06" cy="161.66" rx="43.63" ry="6.69" style="opacity: 0.14"/>
          <g>
            <path d="M97.3,99.39c24.93-28.72-.38-40-16.81-40.41-3-.07-3.4-3.4-3.4-3.4V48.4s5.29-3.21,4.72-6.9-7.37-2.36-7.37-2.36a80,80,0,0,1-9.82,1.14,68.24,68.24,0,0,1-11.9-1.14S40.07,41,40.07,43.87s4.81,2.73,7.55,3.4,1.89,4,1.89,4V85.8c0,2.26-1.7,6.79-10,8.87-26.44,9.26-35.7,47-12.84,64,21.91,13,62.29,11.33,75.92,0C113.67,148.56,123,117.28,97.3,99.39ZM87.1,93.66c-6.24,1.7-9.45-4.09-9.45-7.3V68.42c18.32-2.27,23,3.43,23,11.55S93.33,92,87.1,93.66Z" style="fill: #fff;opacity: 0.32"/>
            <g>
              <path d="M112,118.43a37.55,37.55,0,0,0-14.88-19c6.61-7.8,14.56-19.57,7.92-29.56-4.86-6.73-13.54-9.38-21.48-10.23-1-.09-2.08-.14-3.07-.18a4.12,4.12,0,0,1-3.79-3.83v-7.5a13.76,13.76,0,0,0,3.7-3.3c1.41-1.72,1.7-4.56-.93-5.19-2.31-.66-4.77-.09-7.1.25a52.3,52.3,0,0,1-19.55-.7c3,.18,6.54.86,9.75.83a56.52,56.52,0,0,0,9.69-.89c2.46-.4,5-1,7.46-.34,3.26.77,3.28,4.39,1.48,6.62a13.85,13.85,0,0,1-3.75,3.41l.24-.42v7.18c.16,1.26,1.26,3,2.84,2.89,1,.05,2.12.12,3.13.22,14.41,1.41,29.61,10.5,22.92,26.93-2,5.2-5.43,9.7-9,13.9l0-.28c6.57,4.63,12.42,11.51,14.49,19.19Z" style="fill: #fff"/>
              <path d="M87.22,93.71c-4.6,1.86-10.41-2.31-9.51-7.35h.1c1,3.07,2.65,6.47,6,7.24a8,8,0,0,0,3.35,0l0,.1Z" style="fill: #fff"/>
            </g>
            <ellipse cx="65.61" cy="157.77" rx="35.04" ry="8.86" style="fill: #fff;opacity: 0.22"/>
            <path d="M79.45,95.26c-3-1.15-9.93-2-18.05-2s-15,.8-18,1.94h-.12s-26.82,8.85-26.44,32.09S29.49,160.8,42.52,162.2s13.79,2.07,25.5,1.93,44.43-2.13,44-32.49C111.66,102.27,81.41,95.66,79.45,95.26Z" style="fill: #e8aa1f"/>
            <ellipse cx="61.34" cy="96.23" rx="19.58" ry="3.2" style="fill: #e8aa1f;mix-blend-mode: multiply;opacity: 0.33"/>
            <ellipse cx="65.61" cy="157.77" rx="35.04" ry="8.86" style="fill: #e8aa1f;mix-blend-mode: multiply;opacity: 0.33"/>
            <path d="M90.54,103.36s10.79,6.8,11.87,11.24l-2.61,2.17s-3.92-8-12-11.52C90.31,103.83,90.54,103.36,90.54,103.36Z" style="fill: #fff;opacity: 0.4"/>
            <g style="opacity: 0.61">
              <path d="M73.09,51q.21,8.43.35,16.85c.08,5.56.36,11.51-.45,16.86a133.6,133.6,0,0,1-.35-16.86c.19-5.55,0-11.49.45-16.85Z" style="fill: #fff"/>
            </g>
          </g>
        </g>
        <path d="M238.57,212.13c0,.19-41.94,2.14-51.26,1.17s-20.81-4.83-19-6.82,2.77-7.79,9.86-8,29.1,1.59,29.1,1.59Z" style="opacity: 0.14"/>
        <path d="M207.15,197.78a21.09,21.09,0,0,1-3.8.45c-8.9.54-17.85,1.08-26.68-.06a58.72,58.72,0,0,0-9.42-.93c-4.73.13-9.27,1.85-13.95,2.61-7.55,1.22-15.25-.09-22.79-1.39l-21.79-3.77c-2.47-.43-5.18-1-6.68-3s-1.26-4.83-.22-7.08c1.69-3.63,5.2-6.15,9-7.48s7.82-1.62,11.82-1.83c22.75-1.19,45.55-.24,68.31.78,5,.23,10.27.52,14.57,3.12,3.88,2.34,7.32,6.75,9.2,10.85C216.65,194.3,211,196.87,207.15,197.78Z" style="opacity: 0.14"/>
        <g>
          <g>
            <path d="M161.51,75.7c-2.44-.41-4.84-1.16-7.31-1.06s-5.06,1.14-7.62,1.52c-6.18.9-13.18-1.93-18.37,1.54-2.23,1.5-3.66,3.92-5.71,5.66A49.76,49.76,0,0,1,116.61,87c-8.86,5.53-12.6,16.32-15.72,26.28,1.72.8,1.37,3.3.81,5.12-2.6,8.39-3.9,17.7-.53,25.81,1,2.51,2.51,4.84,3.34,7.43,2.12,6.62.24,15,5.36,19.72,2.41,2.2,5.82,2.94,8.51,4.78,3.72,2.56,5.73,7,9.18,9.88,4.28,3.6,10.17,4.43,15.72,5.11l20,2.46a77.29,77.29,0,0,0,14.32.87c6.5-.42,13.29-2.43,19.32,0,1.46.6,2.89,1.45,4.47,1.41a13.2,13.2,0,0,0,3.63-1.05c3.67-1.23,7.69-.47,11.51-1s7.27-2.41,10.65-4.23c5.2-2.8,10.45-5.62,14.91-9.49,10.6-9.18,15.62-23.17,19-36.78,1.58-6.35,2.91-12.94,1.82-19.39-1.22-7.29-5.39-13.69-9.47-19.86a57.42,57.42,0,0,0-7-9.14,57.37,57.37,0,0,0-9.11-7A87.14,87.14,0,0,0,225,80.63c-10.68-4.8-22.76-5.14-34.47-5.39-5.18-.11-10.43-.5-15.6-.35C170.34,75,166.25,76.49,161.51,75.7Z" style="fill: #1f633c"/>
            <path d="M248.24,172.9c-4.18,4.72-9.09,8.16-14,11.57-3.17,2.21-6.42,4.46-10,5.15s-7.35-.23-10.79,1.26a10,10,0,0,1-3.4,1.28c-1.48.05-2.82-1-4.18-1.71-5.66-3-12-.53-18.11,0-4.48.37-9-.34-13.41-1.05l-18.78-3c-5.2-.83-10.71-1.84-14.72-6.22-3.23-3.55-5.12-8.94-8.6-12.05-2.52-2.25-5.72-3.14-8-5.83-4.81-5.73-3-16-5-24.05-.77-3.15-2.15-6-3.12-9.05-3.16-9.89-2-21.24.49-31.47.53-2.21.85-5.27-.76-6.25.37-1.55.76-3.13,1.16-4.7l-.47.28c-8.86,5.53-12.6,16.32-15.72,26.28,1.72.8,1.37,3.3.81,5.12-2.6,8.39-3.9,17.7-.53,25.81,1,2.51,2.51,4.84,3.34,7.43,2.12,6.62.24,15,5.36,19.72,2.41,2.2,5.82,2.94,8.51,4.78,3.72,2.56,5.73,7,9.18,9.88,4.28,3.6,10.17,4.43,15.72,5.11l20,2.47a78.15,78.15,0,0,0,14.32.86c6.5-.41,13.29-2.43,19.32,0,1.46.59,2.89,1.44,4.47,1.4a12.86,12.86,0,0,0,3.63-1c3.67-1.23,7.69-.47,11.51-1s7.27-2.41,10.65-4.23c5.2-2.79,10.45-5.62,14.91-9.49A46,46,0,0,0,251.35,169,47.78,47.78,0,0,1,248.24,172.9Z" style="opacity: 0.14"/>
            <path d="M170.88,81.16s3.83-.7,3.92-3.92S175.93,73,175.93,73l12.7,2.61v2.26s3.3,3.83,3,4.52-7.63,3.13-10.34,3S170.88,81.16,170.88,81.16Z" style="fill: #84893b"/>
            <path d="M170.88,81.16s-59.44-4.3-56.95,92.67C111,143.1,108.42,84.29,170.88,81.16Z" style="fill: #2c513b;mix-blend-mode: multiply;opacity: 0.32"/>
            <path d="M191.61,83.24S255.27,91.85,212.47,194C226.35,121.41,226.26,103.6,191.61,83.24Z" style="fill: #2c513b;mix-blend-mode: multiply;opacity: 0.32"/>
          </g>
          <path d="M190.22,83.24s11.89-7.13,35.86-1.74C194.55,78.55,190.22,83.24,190.22,83.24Z" style="fill: #2c513b;mix-blend-mode: multiply;opacity: 0.32"/>
          <path d="M181.25,85.33s-17.6,26.45-17.93,108.3C170.88,127.48,181.25,85.33,181.25,85.33Z" style="fill: #2c513b"/>
        </g>
        <g>
          <path d="M210.82,114.4s6.34.35,6.08,1.91-.23,16.5,3.24,20.34,11.3,9.24,24.52,4.54,18.69-14.44,18.69-14.44S260,161.9,241.53,169.47s-43.33,4.78-43.33,4.78S186,158,187.42,147.67,210.82,114.4,210.82,114.4Z" style="fill: #ffe7b0"/>
          <path d="M294.57,144.87c2.52,4,6,7.5,7.88,11.84a34.38,34.38,0,0,1,2.29,9.58c.89,6.89,1,14.88-4.14,19.6-1.86,1.71-4.21,2.78-6.25,4.28-3.46,2.55-6,6.35-9.84,8.3-3.63,1.85-8,1.82-11.62,3.73-2.07,1.1-3.78,2.79-5.84,3.91a23.47,23.47,0,0,1-6,2,160.4,160.4,0,0,1-32.66,4.09,30.73,30.73,0,0,1-7.54-.51c-4.58-1.06-8.51-4-12.88-5.7-2.2-.88-4.51-1.47-6.77-2.19-6.8-2.16-13.32-5.6-18.26-10.74S174.74,181,175,173.84c1.09,6.87,6.24,12.29,11.14,17.23a21.82,21.82,0,0,0,5.58,4.52c2.84,1.41,6.13,1.51,9.31,1.58,6.05.14,12.17.27,18.11-.92,13.64-2.73,25.13-12.26,33.26-23.54s13.37-24.34,18.75-37.16a14.46,14.46,0,0,1,3.12-5.2c3.58-3.32,8.83-2,12,1.09C290.05,135.16,291.79,140.42,294.57,144.87Z" style="fill: #1f633c"/>
          <path d="M213.34,115.27s-10.44-3.65-11.13-3.48S193,122.58,190.37,123.1c-8.52,11.83-20.2,37.76-16.19,49.93s6.67,21.23,19.17,24.36,60.36,3.83,82.11-64.37l6.78-4.35s-7.13-6.48-9.57-6.72-8.52-3.07-9.74,0-29.22,55.4-50.11,47.52C184.46,158.77,213.34,115.27,213.34,115.27Z" style="fill: #f9d67a"/>
          <path d="M210.67,148.18s-8,4-5,8.88S215.89,151.66,210.67,148.18Z" style="fill: #f4ddab;mix-blend-mode: multiply"/>
          <path d="M216.21,145.68s-5.36,7.16-.53,10.19S222.44,146.45,216.21,145.68Z" style="fill: #f4ddab;mix-blend-mode: multiply"/>
          <path d="M216,154s-1.66,4.74,1.44,7.94S219.42,155.63,216,154Z" style="fill: #f4ddab;mix-blend-mode: multiply"/>
          <path d="M228.42,145.49s-3.91,5.22-.39,7.43S233,146.05,228.42,145.49Z" style="fill: #f4ddab;mix-blend-mode: multiply"/>
          <path d="M224.82,153.26s-3.9,5.23-.39,7.43S229.36,153.83,224.82,153.26Z" style="fill: #f4ddab;mix-blend-mode: multiply"/>
          <path d="M238.37,153.1s5.47-4.35,1.8-6.95S233.21,151.9,238.37,153.1Z" style="fill: #f4ddab;mix-blend-mode: multiply"/>
          <path d="M235.23,151.66s2.49-5.88-2.22-6.87S230,152.47,235.23,151.66Z" style="fill: #f4ddab;mix-blend-mode: multiply"/>
          <path d="M223.51,148.5s1.31-4.71-2.87-6.23S219.12,148.45,223.51,148.5Z" style="fill: #f4ddab;mix-blend-mode: multiply"/>
          <path d="M244.72,147.31a5.47,5.47,0,0,0-3.24-5C238.12,140.88,241.46,146.94,244.72,147.31Z" style="fill: #f4ddab;mix-blend-mode: multiply"/>
          <path d="M225.34,154.37s1.82-4.29-1.62-5S221.49,155,225.34,154.37Z" style="fill: #f4ddab;mix-blend-mode: multiply"/>
          <path d="M205.13,145.82s2.89,6.37,6.31,3.44S207.55,141.11,205.13,145.82Z" style="fill: #f4ddab;mix-blend-mode: multiply"/>
          <path d="M207.29,143.12s5.1,3.86,7.21-.48S207.79,137.81,207.29,143.12Z" style="fill: #f4ddab;mix-blend-mode: multiply"/>
          <path d="M213.15,142.58a5.46,5.46,0,0,0,5.6-1.93C221,137.75,214.3,139.52,213.15,142.58Z" style="fill: #f4ddab;mix-blend-mode: multiply"/>
          <path d="M207.07,132.87s3.72,2.81,5.25-.35S207.44,129,207.07,132.87Z" style="fill: #f4ddab;mix-blend-mode: multiply"/>
          <path d="M228.54,159.1s3.72,2.81,5.25-.35S228.9,155.23,228.54,159.1Z" style="fill: #f4ddab;mix-blend-mode: multiply"/>
          <path d="M304.74,166.29a34.38,34.38,0,0,0-2.29-9.58,34.89,34.89,0,0,0-4.19-6.67A66.11,66.11,0,0,1,294,171.89a19.44,19.44,0,0,1-3,5.68,18.5,18.5,0,0,1-5.27,4.05c-9.74,5.41-21.13,6.91-31.56,10.86-2,.77-4,1.63-6.13,2.21a47.86,47.86,0,0,1-6.73,1.18c-7.37.93-14.77,7.16-22.08,5.87-.16,0-9.25-3.25-9.41-3.28-5.79,1.09-2.93-1.16-8.82-1.29-3.18-.08-6.47-.18-9.31-1.58-2.16-1.07-6-2.44-7.7-4.15a31.33,31.33,0,0,1-9-17.6c-.23,7.13,3,14.12,7.94,19.26s11.46,8.59,18.26,10.75c2.26.72,4.57,1.3,6.77,2.19,4.37,1.75,8.3,4.64,12.88,5.69a30.25,30.25,0,0,0,7.54.52,159.71,159.71,0,0,0,32.66-4.1,23.07,23.07,0,0,0,6-2c2.06-1.13,3.77-2.81,5.84-3.91,3.6-1.91,8-1.88,11.62-3.73,3.84-1.95,6.38-5.75,9.84-8.3,2-1.5,4.39-2.57,6.25-4.29C305.7,181.17,305.63,173.18,304.74,166.29Z" style="opacity: 0.14"/>
        </g>
        <path d="M258.06,215.79s5.32,7.2,9.61,3.46S260.6,210.05,258.06,215.79Z" style="fill: #f4ddab"/>
        <path d="M332.2,213.46s-5.64-3.28-7.42.46S332.16,218,332.2,213.46Z" style="fill: #f4ddab"/>
        <path d="M334.47,210.54s6.29,3.07,7-1.37S333.34,205.37,334.47,210.54Z" style="fill: #f4ddab"/>
        <path d="M299.15,210.34s5.1,3.85,7.21-.48S299.65,205,299.15,210.34Z" style="fill: #f4ddab"/>
        <path d="M268.63,214.13s3.72,2.81,5.25-.35S269,210.26,268.63,214.13Z" style="fill: #f4ddab"/>
        <path d="M33,192.1c-.09-2.6,12.77-3.6,16.88-4.28s-7.92-9.08-7.23-10.67,12.61,9,16.08,8.18-7.64-7-5.67-8.72,21.56,16,18.83,8.95-4.93-9-2.89-10.58,8.44,9.71,12.55,9.82-2.57-8.24.57-9.14,8.47,11.4,13.24,11.74,26-.46,26-.46l1,1.79s-30.14-.17-31.6,1.19-1.51,10.22-4.15,10.32-.22-7.55-3.85-7.67-4.77,7.73-7.87,6.55,4.27-6.42-2.71-5.89-6.7,5.72-8.82,5.8.8-6.8-2.12-6.95-6.82,6.64-9.74,6.88,2.53-4.52,1.07-6.29S33.05,194.18,33,192.1Z" style="fill: #37aa65"/>
        <path d="M44.48,192.76c0,1.17,12.82,2,16.94,2.4s-7.76,3.84-7,4.57S66.82,196,70.3,196.52s-7.51,2.91-5.51,3.75,21.26-6.57,18.65-3.48-4.76,3.89-2.69,4.65,8.26-4.11,12.36-4-2.43,3.62.73,4.11,8.26-4.87,13-4.89,26,.94,26,.94l.93-.78s-30.11-.77-31.59-1.42-1.68-4.62-4.33-4.74S97.81,194,94.18,194s-4.9-3.6-8-3.15,4.38,3-2.6,2.56-6.79-2.75-8.91-2.85.91,3.07-2,3.06-6.93-3.17-9.85-3.36,2.61,2.1,1.18,2.85S44.52,191.83,44.48,192.76Z" style="fill: #37aa65;mix-blend-mode: multiply"/>
      </g>
    </g>
  </g>
</svg>
