<?xml version="1.0" encoding="UTF-8"?><svg id="a" xmlns="http://www.w3.org/2000/svg" width="340.58" height="281.66" viewBox="0 0 340.58 281.66"><defs><style>.c{stroke-width:.71px;}.c,.d,.e,.f,.g{stroke-miterlimit:10;}.c,.h,.f,.g,.i,.j,.k{isolation:isolate;}.c,.f,.g{fill:none;opacity:.39;stroke:#edad0c;}.l,.d,.e{fill:#fff;}.d{stroke-width:.18px;}.d,.e{stroke:#b9e4af;}.m{fill:#f7ebd2;}.h{opacity:.21;}.e{stroke-width:.22px;}.n{fill:#fcc12d;}.o{fill:#b9e4af;}.f{stroke-width:.84px;}.p{opacity:.76;}.g{stroke-width:.82px;}.i,.q{opacity:.06;}.j{opacity:.05;}.r{fill:#edad0c;}.s{fill:#37bc90;}.k{opacity:.1;}.t{fill:#efefef;}</style></defs><g id="b"><g><ellipse class="k" cx="268.02" cy="243.1" rx="36.88" ry="19.64" transform="translate(-2.15 2.4) rotate(-.51)"/><ellipse class="k" cx="26.5" cy="223.49" rx="23.8" ry="3.56"/><g><g><g><path class="r" d="M74.46,178.56c5.28-9.11,10.65-12.26,10.65-12.26l-5.34,1.86-.24-8.77c-.09,1.75-1,5.6-6.43,8.69-1.18,.67-2.45,1.16-3.77,1.44-12-16-33.3-20.42-48.11-9.88s-17.65,32.92-5.81,49.56,33.65,21.42,48.7,10.7c12.68-9,16.53-26.18,10.35-41.3v-.04Z"/><path class="r" d="M79.54,159.41c.03-.33,.03-.67,0-1v1Z"/></g><path class="m" d="M13.64,206.4c-3.89,1.38-10,4.24-13.64,5,3.18,.15,7.15-1.49,10.77-2-.61,.54-1.28,1.02-2,1.42-3,1.5-5.65,3.83-8.6,5.33,3.04-1.59,6.19-2.95,9.43-4.07,.36-.11,.75-.2,.89,0s-.07,.5-.27,.79c-1.25,1.81-2.74,3.44-4.42,4.85,2-1.51,4.13-2.94,6.27-4.26l-3.12,3.25c-.66,.83-1.13,1.81-1.36,2.85,.13,.42,1.56-1.23,2.22-1.74,.58-.48,1.06-1.06,1.42-1.72,1.12-1.8,3.92-4.18,5-6"/></g><path class="f" d="M9.24,196.11c25.07-38.84,60.43-26.16,60.43-26.16,0,0-34.37-1-60.38,26.53"/><path class="g" d="M74.87,179.45c-16.13,41.82-52.75,35.59-52.75,35.59,0,0,33.26-4.91,52.63-35.94"/><path class="c" d="M72.75,177.15c-22.57,36.98-53.36,33.41-53.36,33.41,0,0,30.07-5.92,53.32-33.73"/></g><ellipse class="l" cx="142.66" cy="120.93" rx="78.79" ry="29.33"/><path class="t" d="M142.66,143.75c-39.69,0-72.52-10.93-78-25.14-.52,1.33-.8,2.76-.8,4.19,0,16.2,35.27,29.34,78.79,29.34s78.79-13.14,78.79-29.34c0-1.43-.28-2.86-.8-4.19-5.46,14.21-38.29,25.14-77.98,25.14Z"/><path class="l" d="M200.9,231.97c4.45,13.35-26.08,25.48-58.24,25.48s-61.85-11.89-58.24-25.48c6.32-23.76,26.08-25.48,58.24-25.48s51.2,4.37,58.24,25.48Z"/><path class="h" d="M200.96,237.01c-4.5,10.78-31.09,17.64-57.66,17.64-31.35,0-55.1-10.63-53.29-24.84,.3-2.39,3.62-8.95,0-9.87-4,1.79-8.44,4.7-10.54,9.73-8.9,21.41,20.86,32.55,60,32.55,23.19,0,63.49-12.18,61.49-25.21-.05-.31,.57,2.22,0,0Z"/><path class="l" d="M237.74,174.8c0-30-16.71-58-16.71-58h-.38c.52,1.33,.8,2.76,.8,4.19,0,16.2-35.27,29.34-78.79,29.34s-78.79-13.14-78.79-29.34c0-1.43,.28-2.86,.8-4.19h-.38s-16.71,28.05-16.71,58,21.68,48.67,94.66,52.21h.84c72.98-3.54,94.66-22.35,94.66-52.21Z"/><path class="j" d="M231.35,198.19c-15.52,9.22-41.18,15-81.23,16.82v.05h-.9v-.05c-73.55-3.31-98.57-20.09-101.36-46.83-.17,2.19-.28,4.4-.28,6.62,0,29.86,21.68,48.67,94.66,52.21h.84c51.5-2.45,77.45-12.6,88.27-28.82Z"/><ellipse class="n" cx="144.07" cy="122.99" rx="66.14" ry="19.27"/><polygon class="s" points="124.45 114.26 120.28 116.94 123.07 116.12 121.02 118.69 125.3 117.2 123.81 119.56 128.13 118.34 130.29 119.12 129.94 117.78 133.42 116.76 129.03 116.11 132.85 115.15 127.9 114.67 131.29 114 124.45 114.26"/><polygon class="s" points="132.84 115.1 128.66 117.78 131.45 116.96 129.4 119.53 133.69 118.03 132.19 120.4 136.52 119.17 138.68 119.96 138.33 118.62 141.8 117.6 137.42 116.95 141.23 115.99 136.29 115.51 139.68 114.84 132.84 115.1"/><polygon class="s" points="139.54 119.29 135.38 121.97 138.16 121.15 136.11 123.73 140.4 122.23 138.9 124.59 143.23 123.37 145.39 124.15 145.04 122.81 148.51 121.8 144.13 121.14 147.94 120.18 143 119.7 146.39 119.03 139.54 119.29"/><polygon class="s" points="171.04 127.9 169.21 129.08 170.44 128.72 169.53 129.85 171.42 129.2 170.76 130.23 172.66 129.7 173.61 130.04 173.46 129.45 174.98 129.01 173.06 128.72 174.73 128.3 172.56 128.09 174.05 127.79 171.04 127.9"/><polygon class="s" points="147.51 111.18 144.5 113.12 146.51 112.53 145.03 114.39 148.13 113.31 147.05 115.02 150.18 114.13 151.74 114.7 151.49 113.73 154 113 150.83 112.52 153.59 111.83 150.01 111.48 152.47 110.99 147.51 111.18"/><g class="p"><path class="l" d="M136.33,106.92c4.12-4.25,4.27-10.72,2.46-16.06-1.22-3.23-2.71-6.35-4.46-9.32-1.67-2.98-3.09-6.09-4.24-9.3-2.22-6.38-3.23-13.12-3-19.87,.24-7.13,2.51-13.77,3.71-20.74,1.15-6.72,.83-14-3.73-19.47-1-1.25-2.81,.54-1.78,1.78,3.92,4.67,4.07,11.29,3.08,17-1.13,6.6-3.27,12.94-3.71,19.66-.42,6.4,.24,12.82,1.95,19,.85,3.06,1.96,6.04,3.3,8.91,1.35,2.89,3,5.62,4.45,8.46,2.78,5.46,5.06,13.16,.18,18.2-1.13,1.16,.65,2.95,1.78,1.78v-.03Z"/><path class="l" d="M146.32,107.03c4.74-8,1.9-17.33-.84-25.48-3-8.82-5.38-17.95-5.52-27.31-.11-5.18,.64-10.34,2.22-15.27,.51-1.54-1.92-2.2-2.43-.67-2.81,8.57-2.78,17.69-1.29,26.52,.79,4.55,1.9,9.04,3.3,13.44,1.35,4.36,3,8.63,4,13.11,1,4.83,1,10-1.61,14.39-.31,.62-.06,1.38,.57,1.69,.56,.28,1.25,.1,1.6-.42h0Z"/><path class="l" d="M151.8,68.85c-1.95-7.76-2.62-15.78-2-23.76,.63-7.89,2.46-15.73,1.84-23.67-.25-4.07-1.32-8.05-3.13-11.71-.74-1.44-2.91-.17-2.18,1.27,4.55,8.86,2.74,19.15,1.55,28.57-1.39,10-.89,20.18,1.46,30,.19,.67,.88,1.07,1.55,.88,.67-.19,1.07-.88,.88-1.55h0l.03-.03Z"/><path class="l" d="M157.01,1.47c2.63,7.01,3.55,14.56,2.68,22-.19,1.61,2.33,1.6,2.51,0,.89-7.65-.06-15.41-2.76-22.62-.56-1.5-3-.85-2.43,.67v-.05Z"/></g><path class="e" d="M322.76,239.32c-8.24-4.45-22.86-4.8-32.64-.78s-11,10.88-2.79,15.33,22.85,4.8,32.63,.78,11.04-10.88,2.8-15.33Zm-4.18,14.59c-8.87,3.64-22.13,3.33-29.61-.71s-6.35-10.27,2.53-13.92,22.14-3.33,29.62,.71,6.34,10.27-2.54,13.92Z"/><path class="d" d="M336.07,252.56c-6.69-3.61-18.54-3.9-26.48-.63s-9,8.83-2.27,12.44,18.55,3.89,26.49,.63,8.95-8.8,2.26-12.44Zm-3.38,11.84c-7.21,3-18,2.7-24-.58s-5.19-8.26,2.02-11.26,18-2.7,24,.58,5.18,8.33-2.02,11.29v-.03Z"/><path class="i" d="M15.03,165.84s4.28,19.92,10.81,31.13,15.44,27.1,34.34,24.27c-17.16,10.72-39.64-.84-46.33-14.85-11.58-24.17,1.18-40.55,1.18-40.55Z"/><g><path class="s" d="M57.76,226.78c-.51,.42,.33,2,.33,2-.47-.56-1.22-.82-1.94-.67-1.2,.27-3.35,1.81-2.62,2.16-1.12,.21-1.28-.74-1.12,.21,.16,.95,2.57,2,2.57,2,0,0-2.64-.89-3.73,2.23-1.78,0-1.67,.29-.95,1-2.52,.4-2.34,1.5-2.34,1.5l-.57,.46c.74-.3,1.58-.27,2.29,.09,2.36,1.25,4.88,2.15,7.5,2.66,1.37,2.42,3.61,5.88,7.12,7s8.32,1.7,17.74,3.58,17.63,3.36,17.63,3.36l1-.37s-4.68-2.35-15.43-3.38-17.26-2.4-19.76-3.66-6.69-4.59-6-6.55,4.72-3.57,6.45-4.49,4.71-2.3,3.14-2.08l-1.58,.22,4.3-.79s1.47-1-.14-.79,2,.56,2.44-.33-1.9-1.12-1.9-1.12c0,0-1.23-.47-1.69-.23s-3.88,.38-6,2.12c.65-2.45,5.54-4.81,5.54-4.81l-2.14,.39,1.73-1.43c.17-.14-4-.21-5.18,1s3.51-2.06,2.76-2.52c-.86-.26-1.76-.3-2.64-.11-.91-.38-1.92-.46-2.88-.24-1.04,.32-2,.83-2.85,1.51l-1.08,.08Z"/><path class="s" d="M62.84,248.12s-4.22,.78-5.47-.55,.89-1.47,0-3-3.59-2.36-3.3-1.06c-3.17-.61-4.11-.17-2.79,1.65-4.48-.59-7.74-1.13-6.54,.28-3.44,.15-5.23,1.56-3,2.52,1.04,.49,2.14,.87,3.26,1.13,0,0-1.82,.54-1.82,1.47s5.36,.52,5.36,.52c0,0-2.81,1.38-2.07,2.73-2.47,1-1.66,.88-1.66,.88,0,0,8.69,.13,9.81-1.5s1.77-.22,4.17-2.18c1.83-1.31,3.92-2.22,6.13-2.65l-2.08-.24Z"/><path class="s" d="M63.45,262.46s-4.91,1.34-4.16-1.45c.44-2.01,.51-4.09,.2-6.13l-1.88,1.55s.38-1.7-1.27-1.87-2,3.66-2,3.66c0,0-4.32-2.77-5.58-2.57s.28,2.14,.28,2.14c-1.81-.4-3.64-.7-5.48-.87-1.77-.07,1.56,2.18,1.56,2.18l-1.5,.28s3.76,2.69,10.47,2.54c-10.77,.62-14.5,.31-14.5,.31l.11,.65-3.06,.21,1.46,1-3.57-.05c.95,.99,2.32,1.47,3.68,1.28-1.51,.76,.31,1.89,5.77,.31-5.27,2.15-6.59,1.69-5.27,2.15s14.89-2.58,14.89-2.58c0,0-6.92,3.56-6.87,4.17s2-.18,2-.18c0,0-4,2.27-3.3,2.72s3.33,0,3.33,0l.15,.9,3-.9-.77,1.52,3.55-2.94s-.21,4.3,.74,4,1.69-1.93,1.69-1.93l.83,.29,.89-5.85s-.47-3,2-3.55,2.61-.99,2.61-.99Z"/><path class="s" d="M29.27,277.72c-.56-.46,.23-2,.23-2-.49,.58-1.28,.8-2,.57-1.29-.35-3.63-2.06-2.88-2.38-1.19-.27-1.3,.69-1.19-.27s2.58-1.87,2.58-1.87c0,0-2.72,.75-4.06-2.52-1.87-.14-1.76-.4-1.06-1.11-2.66-.56-2.54-1.68-2.54-1.68l-.62-.51c.76,.35,1.63,.37,2.4,.05,2.45-1.16,5.06-1.93,7.74-2.28,1.3-2.4,3.45-5.82,7.07-6.76s8.62-1.25,18.39-2.62,18.31-2.39,18.31-2.39l1.1,.44s-4.77,2.14-16,2.56-18,1.42-20.52,2.57-6.75,4.3-5.93,6.36,5.17,3.95,7,5,5.08,2.65,3.42,2.33l-1.67-.32,4.56,1.06s1.6,1.09-.09,.8,2.06-.45,2.57,.49-1.92,1-1.92,1c0,0-1.27,.42-1.76,.14s-4.1-.62-6.42-2.54c.83,2.56,6.1,5.28,6.1,5.28l-2.21-.56,1.91,1.58c.18,.15-4.22,0-5.5-1.31s3.8,2.31,3,2.74-2.76,0-2.76,0c-.97,.34-2.02,.37-3,.08-1.11-.4-2.16-.99-3.08-1.73l-1.17-.2Z"/><path class="s" d="M33.33,256.12s-4.48-1.05-5.71,.24,1,1.56,.16,3.05-3.62,2.22-3.4,.9c-3.28,.44-4.29-.08-3-1.87-4.66,.34-8.06,.7-6.88-.67-3.62-.36-5.58-1.92-3.35-2.77,1.08-.46,2.21-.8,3.37-1,0,0-1.91-.64-1.93-1.59s5.6-.21,5.6-.21c0,0-3-1.59-2.35-2.93-2.65-1.2-1.79-1-1.79-1,0,0,9.12,.39,10.39,2.13s1.86,.33,4.5,2.49c1.98,1.45,4.22,2.49,6.6,3.08l-2.21,.15Z"/><path class="s" d="M103.27,265.56s-3-1.26-3.24,.66c-.3,1.46-.84,2.85-1.6,4.13l-.84-1.18c-.13,.67-.72,1.15-1.4,1.16-1.17,0-.31-2.59-.31-2.59,0,0-3.73,1.54-4.53,1.32s.79-1.41,.79-1.41c-1.33,.14-2.66,.2-4,.18-1.24-.08,1.67-1.35,1.67-1.35l-.94-.29c2.5-.99,5.2-1.31,7.86-.95-3.25-.61-6.52-1.03-9.82-1.25l.27-.43-2-.36,1.28-.57-2.45-.23c.84-.56,1.87-.77,2.87-.59-.81-.62,.75-1.24,4,.21-3-1.82-4-1.6-3-1.82s9.44,2.8,9.44,2.8c0,0-3.72-2.88-3.52-3.29s1.35,.27,1.35,.27c0,0-2.12-1.8-1.49-2.06,.77-.08,1.54,0,2.27,.26l.36-.59,1.8,.82-.1-1.07,1.61,2.22s1.06-2.89,1.63-2.65,.54,1.41,.54,1.41l.65-.13-1,4s-1.16,2,.36,2.52,1.49,.85,1.49,.85Z"/></g><g class="q"><path d="M57.76,228.56c-.51,.42,.33,2,.33,2-.47-.57-1.22-.83-1.94-.68-1.2,.28-3.35,1.81-2.62,2.17-1.12,.2-1.28-.75-1.12,.2s2.57,2,2.57,2c0,0-2.64-.88-3.73,2.23-1.78,0-1.67,.3-.95,1-2.52,.4-2.34,1.5-2.34,1.5l-.57,.47c.74-.3,1.57-.27,2.29,.08,2.36,1.25,4.88,2.15,7.5,2.66,1.37,2.42,3.61,5.88,7.12,7s8.32,1.7,17.74,3.59,17.63,3.36,17.63,3.36l1-.37s-4.68-2.36-15.43-3.39-17.26-2.4-19.76-3.66-6.69-4.59-6-6.55,4.72-3.57,6.45-4.48,4.71-2.31,3.14-2.09l-1.58,.22,4.3-.79s1.47-1-.14-.78,2,.56,2.44-.34-1.9-1.12-1.9-1.12c0,0-1.23-.47-1.69-.23s-3.88,.38-6,2.13c.65-2.46,5.54-4.82,5.54-4.82l-2.14,.4,1.73-1.44c.17-.14-4-.21-5.18,1-1.18,1.21,3.51-2.06,2.76-2.51-.86-.26-1.76-.3-2.64-.12-.91-.38-1.92-.46-2.88-.24-1.04,.32-2,.84-2.85,1.51l-1.08,.09Z"/><path d="M62.84,249.9s-4.22,.77-5.47-.55,.89-1.48,0-3-3.59-2.37-3.3-1.07c-3.17-.61-4.11-.16-2.79,1.66-4.48-.59-7.74-1.13-6.54,.28-3.44,.14-5.23,1.56-3,2.51,1.04,.5,2.13,.88,3.26,1.14,0,0-1.78,.51-1.75,1.44s5.36,.52,5.36,.52c0,0-2.81,1.39-2.07,2.73-2.47,1-1.66,.88-1.66,.88,0,0,8.69,.13,9.81-1.5s1.77-.21,4.17-2.18c1.83-1.31,3.92-2.21,6.13-2.65l-2.15-.21Z"/><path d="M63.45,264.23s-4.91,1.34-4.16-1.44c.44-2.02,.51-4.1,.2-6.14l-1.88,1.55s.38-1.7-1.27-1.87-2,3.66-2,3.66c0,0-4.32-2.77-5.58-2.57s.28,2.14,.28,2.14c-1.81-.4-3.64-.7-5.48-.87-1.77-.06,1.56,2.18,1.56,2.18l-1.5,.28s3.76,2.69,10.47,2.54c-10.77,.63-14.5,.31-14.5,.31l.11,.66-3.06,.2,1.46,1-3.57-.05c.95,1,2.32,1.48,3.68,1.28-1.51,.77,.31,1.89,5.77,.31-5.27,2.15-6.59,1.69-5.27,2.15s14.89-2.57,14.89-2.57c0,0-6.92,3.55-6.87,4.17s2-.19,2-.19c0,0-4,2.27-3.3,2.73s3.33,0,3.33,0l.15,.89,3-.9-.77,1.52,3.55-2.93s-.21,4.29,.74,4,1.58-1.93,1.58-1.93l.83,.29,.89-5.85s-.47-3,2-3.54,2.72-1.01,2.72-1.01Z"/><path d="M29.27,279.49c-.56-.46,.23-2,.23-2-.49,.58-1.28,.8-2,.57-1.29-.35-3.63-2.05-2.88-2.37-1.19-.28-1.3,.68-1.19-.28s2.59-1.85,2.59-1.85c0,0-2.72,.75-4.06-2.51-1.87-.14-1.76-.4-1.06-1.11-2.66-.57-2.54-1.68-2.54-1.68l-.62-.52c.76,.35,1.63,.37,2.4,.05,2.45-1.16,5.06-1.93,7.74-2.28,1.3-2.4,3.45-5.82,7.07-6.76s8.62-1.24,18.39-2.61,18.31-2.4,18.31-2.4l1.1,.45s-4.77,2.13-16,2.55-18,1.42-20.52,2.57-6.75,4.31-5.93,6.36,5.17,3.95,7,5,5.08,2.65,3.42,2.33l-1.67-.32,4.56,1.07s1.6,1.08-.09,.8,2.06-.46,2.57,.49-1.92,1-1.92,1c0,0-1.27,.41-1.76,.13s-4.1-.62-6.42-2.54c.83,2.56,6.1,5.28,6.1,5.28l-2.27-.53,1.91,1.57c.18,.15-4.22,0-5.5-1.31s3.8,2.32,3,2.74-2.76,0-2.76,0c-.97,.34-2.02,.37-3,.08-1.11-.4-2.16-.99-3.08-1.73l-1.12-.24Z"/><path d="M33.33,257.89s-4.48-1.05-5.71,.24,1,1.57,.16,3.06-3.62,2.21-3.4,.89c-3.28,.44-4.29-.07-3-1.86-4.66,.33-8.06,.69-6.88-.68-3.62-.35-5.58-1.91-3.35-2.76,1.08-.46,2.21-.8,3.37-1,0,0-1.91-.64-1.93-1.6s5.6-.21,5.6-.21c0,0-3-1.59-2.35-2.92-2.65-1.2-1.79-1-1.79-1,0,0,9.12,.38,10.39,2.12s1.86,.33,4.5,2.49c1.98,1.45,4.22,2.5,6.6,3.09l-2.21,.14Z"/><path d="M103.27,267.31s-3-1.25-3.24,.67c-.3,1.45-.84,2.85-1.6,4.12l-.84-1.18c-.13,.67-.72,1.16-1.4,1.17-1.17,0-.31-2.6-.31-2.6,0,0-3.73,1.54-4.53,1.32s.79-1.41,.79-1.41c-1.33,.14-2.66,.2-4,.19-1.24-.09,1.67-1.36,1.67-1.36l-.94-.29c2.5-.99,5.2-1.31,7.86-.95-3.25-.61-6.52-1.03-9.82-1.25l.26-.43-2-.36,1.28-.57-2.45-.22c.84-.57,1.87-.78,2.87-.59-.81-.63,.75-1.25,4,.21-3-1.82-4-1.61-3-1.82s9.44,2.8,9.44,2.8c0,0-3.72-2.89-3.52-3.29s1.35,.27,1.35,.27c0,0-2.12-1.81-1.49-2.06,.77-.09,1.54,0,2.27,.25l.36-.59,1.8,.82-.1-1.07,1.61,2.22s1.06-2.89,1.63-2.64,.54,1.4,.54,1.4l.65-.13-1,4s-1.16,2,.36,2.52,1.5,.85,1.5,.85Z"/></g><g><g><ellipse class="l" cx="268.75" cy="238.99" rx="36.88" ry="19.64" transform="translate(-2.12 2.4) rotate(-.51)"/><path class="o" d="M268.58,219.3c11.99-.04,28.93,2.87,35.75,13.84,3.2,5.26,1.02,11.8-3.39,15.62-8.65,7.67-20.77,9.98-32.01,10.27-11.26,0-23.49-2.01-32.33-9.54-6.83-5.86-6.91-14.41-.12-20.36,8.77-7.54,20.88-9.61,32.1-9.83h0Zm0,.1c-11.12,.29-23.09,2.71-31.54,10.33-6.24,5.65-6.17,13.52,.23,19.01,8.64,7.31,20.59,9.38,31.66,9.48,11.08-.21,23.07-2.41,31.63-9.89,6.41-5.67,6.37-13.73-.1-19.34-8.66-7.47-20.74-9.51-31.87-9.59h0Z"/></g><g><ellipse class="l" cx="270.83" cy="240.58" rx="36.88" ry="19.64" transform="translate(-2.13 2.42) rotate(-.51)"/><path class="o" d="M270.66,220.89c11.99-.04,28.93,2.87,35.75,13.84,3.2,5.26,1.02,11.8-3.39,15.62-8.65,7.67-20.77,9.98-32.01,10.27-11.26,0-23.49-2.01-32.33-9.54-6.83-5.86-6.91-14.41-.12-20.36,8.77-7.54,20.88-9.61,32.1-9.83h0Zm0,.1c-11.12,.29-23.09,2.71-31.54,10.33-6.24,5.65-6.17,13.52,.23,19.01,8.64,7.31,20.59,9.38,31.66,9.48,11.08-.21,23.07-2.41,31.63-9.89,6.41-5.67,6.37-13.73-.1-19.34-8.66-7.47-20.74-9.51-31.87-9.59h0Z"/></g><g><ellipse class="l" cx="268.75" cy="238.99" rx="33.79" ry="17.99" transform="translate(-2.12 2.4) rotate(-.51)"/><path class="o" d="M268.59,220.95c11.03-.02,26.47,2.6,32.77,12.67,2.94,4.77,.93,10.87-3.1,14.34-7.93,7.04-19.04,9.15-29.35,9.42-10.32,0-21.54-1.83-29.65-8.74-6.28-5.39-6.35-13.25-.11-18.71,8.05-6.9,19.14-8.79,29.43-8.98h0Zm0,.1c-10.18,.27-21.14,2.5-28.87,9.48-5.69,5.12-5.62,12.39,.21,17.36,7.91,6.69,18.85,8.59,28.98,8.68,10.14-.19,21.12-2.2,28.96-9.04,5.87-5.18,5.84-12.55-.08-17.69-7.93-6.85-19-8.72-29.19-8.79h0Z"/></g><g><ellipse class="l" cx="268.75" cy="238.99" rx="31.43" ry="16.73" transform="translate(-2.12 2.4) rotate(-.51)"/><path class="o" d="M268.6,222.21c10.29-.01,24.59,2.39,30.5,11.78,2.75,4.44,.87,10.13-2.89,13.35-7.38,6.55-17.72,8.52-27.31,8.78-9.61,0-20.05-1.7-27.6-8.13-5.84-4.97-5.91-12.41-.1-17.44,7.5-6.42,17.82-8.16,27.4-8.33h0Zm0,.1c-9.47,.25-19.66,2.34-26.83,8.84-5.27,4.75-5.21,11.49,.2,16.1,7.35,6.21,17.52,7.98,26.93,8.07,9.43-.17,19.63-2.04,26.92-8.4,5.44-4.76,5.42-11.69-.07-16.43-7.37-6.37-17.66-8.11-27.15-8.18h0Z"/></g><g><ellipse class="l" cx="268.75" cy="238.99" rx="28.52" ry="15.18" transform="translate(-2.12 2.4) rotate(-.51)"/><path class="o" d="M268.62,223.76c9.57-.12,27.86,3.18,28.9,14.97-.14,6.33-6.12,10.28-11.36,12.5-10.95,4.33-23.58,4.5-34.66,.47-3.08-1.23-6.13-2.88-8.49-5.31-4.26-4.18-4.3-10.08-.07-14.3,6.67-6.5,16.74-8.14,25.68-8.33h0Zm0,.1c-8.57,.26-17.8,2.15-24.31,8.05-4.74,4.19-4.68,10.47,.19,14.53,6.67,5.62,15.85,7.22,24.39,7.33,8.55-.18,17.78-1.85,24.4-7.61,4.92-4.25,4.9-10.63-.06-14.86-6.69-5.77-16-7.4-24.61-7.44h0Z"/></g><g><ellipse class="l" cx="269.05" cy="238.66" rx="24.35" ry="12.96" transform="translate(-2.37 2.7) rotate(-.57)"/><path class="o" d="M268.92,225.65c8.24-.08,23.75,2.62,24.73,12.76-.64,10.23-16.17,13.52-24.47,13.61-5.03,.04-10.13-.6-14.88-2.42-7.82-2.77-14.34-10.47-6.66-17.52,5.84-4.97,13.86-6.28,21.27-6.43h0Zm0,.1c-4.97,.14-9.98,.96-14.54,2.98-6.97,2.82-13.15,9.88-5.99,16.26,9.13,7.44,24.65,7.72,35.3,3.55,4.31-1.78,9.3-4.99,9.45-10.12-.76-9.81-16.23-12.85-24.23-12.67h0Z"/></g><g><ellipse class="l" cx="268.75" cy="238.99" rx="20.22" ry="10.76" transform="translate(-2.12 2.4) rotate(-.51)"/><path class="o" d="M268.65,228.18c6.14,.07,12.77,1.1,17.65,5.13,3.74,3.02,3.82,7.96,.17,11.12-7.67,6.58-20.81,7.05-30.01,3.7-3.86-1.54-8.23-4.3-8.44-8.96,.76-8.77,13.56-10.95,20.62-10.99h0Zm0,.1c-6.06,.19-12.59,1.58-17.15,5.78-3.27,2.83-3.22,7.38,.15,10.1,7.67,6.18,20.29,6.43,29.23,2.99,3.57-1.47,7.7-4.11,7.84-8.34-.7-8.2-13.35-10.64-20.06-10.53h0Z"/></g><g><ellipse class="l" cx="268.75" cy="238.99" rx="16.44" ry="8.75" transform="translate(-2.12 2.4) rotate(-.51)"/><path class="o" d="M268.67,230.19c5,.06,10.39,.89,14.37,4.16,3.06,2.42,3.13,6.56,.16,9.1-6.41,5.42-16.81,5.77-24.47,3.06-3.18-1.24-6.77-3.53-6.92-7.37,.67-7.23,11.05-8.9,16.86-8.95h0Zm0,.1c-4.91,.17-10.21,1.33-13.89,4.75-2.61,2.25-2.56,5.93,.14,8.08,6.34,5.07,16.28,5.23,23.67,2.46,2.89-1.18,6.23-3.31,6.35-6.73-.63-6.69-10.76-8.62-16.27-8.56h0Z"/></g><g><ellipse class="l" cx="268.75" cy="238.99" rx="13.14" ry="6.99" transform="translate(-2.12 2.4) rotate(-.51)"/><path class="o" d="M268.69,231.95c4,.05,8.31,.7,11.51,3.31,2.48,1.94,2.53,5.29,.14,7.34-5.25,4.38-13.36,4.64-19.63,2.49-2.58-1-5.48-2.85-5.59-5.98,.62-5.91,8.83-7.1,13.58-7.16h0Zm0,.1c-3.91,.14-8.14,1.1-11.05,3.84-2.03,1.76-1.98,4.66,.13,6.31,5.15,4.05,12.84,4.17,18.82,1.98,2.29-.93,4.95-2.61,5.05-5.31-.55-5.38-8.51-6.85-12.95-6.82h0Z"/></g><g><ellipse class="l" cx="270.1" cy="241.06" rx="8.35" ry="4.44" transform="translate(-2.4 2.71) rotate(-.57)"/><path class="o" d="M270.05,236.57c2.55,.04,5.3,.42,7.37,2.05,1.62,1.22,1.66,3.48,.12,4.8-3.42,3.49-15.51,3.78-16.29-2.27,.48-3.98,5.65-4.5,8.81-4.58h0Zm0,.1c-2.97-.16-10.49,2.62-6.81,6.3,3.05,3.03,14.11,3.14,14.95-1.99-.44-3.43-5.26-4.31-8.14-4.31h0Z"/></g><g><ellipse class="l" cx="268.02" cy="235.16" rx="4.9" ry="2.61" transform="translate(-2.08 2.39) rotate(-.51)"/><path class="o" d="M267.99,232.5c2.2-.13,7,1.29,4.47,4.14-2.18,2.15-9.34,2.4-9.85-1.43,.31-2.51,3.43-2.68,5.38-2.71h0Zm0,.1c-2.46-.06-6.72,2.5-2.73,4.21,1.97,.91,6.83,.93,7.4-1.69-.21-1.91-2.99-2.56-4.67-2.52h0Z"/></g></g></g></g></svg>